<?xml version="1.0" encoding="utf-8"?>
<!-- Generator: Adobe Illustrator 26.3.1, SVG Export Plug-In . SVG Version: 6.00 Build 0)  -->
<svg version="1.1" id="Capa_1" xmlns="http://www.w3.org/2000/svg" xmlns:xlink="http://www.w3.org/1999/xlink" x="0px" y="0px"
	 viewBox="0 0 98 86" style="enable-background:new 0 0 98 86;" xml:space="preserve">
<style type="text/css">
	.st0{fill:url(#SVGID_1_);}
	.st1{fill:none;stroke:#72CFFE;stroke-width:0.402;}
	.st2{fill:none;stroke:#1C42FC;stroke-width:0.402;stroke-linecap:round;}
	.st3{fill:#72CFFE;}
	.st4{opacity:0.9;}
	.st5{fill-rule:evenodd;clip-rule:evenodd;fill:#02B0FF;}
	.st6{fill:none;stroke:#FFFFFF;stroke-width:0.9648;stroke-linecap:square;}
</style>
<g>
	
		<linearGradient id="SVGID_1_" gradientUnits="userSpaceOnUse" x1="27.2" y1="583.8458" x2="27.2" y2="763.3759" gradientTransform="matrix(1 0 0 1 0 -680)">
		<stop  offset="0" style="stop-color:#02B0FF"/>
		<stop  offset="1" style="stop-color:#FFFFFF"/>
	</linearGradient>
	<path class="st0" d="M5.2-0.1h44c2.9,0,5.2,2.3,5.2,5.2v64.8c0,2.9-2.3,5.2-5.2,5.2h-44C2.3,75.2,0,72.9,0,70V5.1
		C0,2.2,2.3-0.1,5.2-0.1z"/>
	<g>
		<path class="st1" d="M45.6,14.9h-23c-2.1,0-3.9,1.7-3.9,3.9l0,0c0,2.1,1.7,3.9,3.9,3.9h23c2.1,0,3.9-1.7,3.9-3.9l0,0
			C49.5,16.7,47.7,14.9,45.6,14.9z"/>
		<path class="st1" d="M45.6,37.2h-23c-2.1,0-3.9,1.7-3.9,3.9l0,0c0,2.1,1.7,3.9,3.9,3.9h23c2.1,0,3.9-1.7,3.9-3.9l0,0
			C49.5,38.9,47.7,37.2,45.6,37.2z"/>
		<path class="st1" d="M45.6,26.1h-23c-2.1,0-3.9,1.7-3.9,3.9l0,0c0,2.1,1.7,3.9,3.9,3.9h23c2.1,0,3.9-1.7,3.9-3.9l0,0
			C49.5,27.8,47.7,26.1,45.6,26.1z"/>
		<path class="st2" d="M46,18.4H22.2"/>
		<path class="st2" d="M46,29.6H22.2"/>
		<path class="st2" d="M25.9,60.8h20.9"/>
	</g>
	<path class="st3" d="M38.5,50.3h8.4c1.2,0,2.1,0.9,2.1,2.1l0,0c0,1.2-0.9,2.1-2.1,2.1h-8.4c-1.2,0-2.1-0.9-2.1-2.1l0,0
		C36.4,51.3,37.3,50.3,38.5,50.3z"/>
	<circle class="st3" cx="10.7" cy="18.8" r="4.1"/>
	<circle class="st3" cx="10.7" cy="29.9" r="4.1"/>
	<circle class="st3" cx="10.7" cy="41.1" r="4.1"/>
	<g class="st4">
		<path class="st5" d="M44.5,52.8c-0.2-0.1-0.5,0-0.5,0.3v6.4c-4.9,4.8-6.1,12.5-2.6,18.7c4.2,7.4,13.7,10,21.1,5.7
			c7.4-4.2,10-13.7,5.7-21.1c-3.8-6.5-11.6-9.3-18.4-6.9L44.5,52.8z"/>
		<path class="st6" d="M50.2,72.3l2.8,3.5c0.4,0.5,1.1,0.4,1.4-0.1l6.2-11.1"/>
	</g>
</g>
</svg>
