<svg width="51" height="51" viewBox="0 0 51 51" fill="none" xmlns="http://www.w3.org/2000/svg">
<circle cx="25.5" cy="25.5" r="25" stroke="white"/>
<path d="M28.0401 13.1101C27.6474 12.8834 27.1452 13.018 26.9184 13.4107L25.0722 16.6084L23.226 13.4107C22.9993 13.018 22.4971 12.8834 22.1043 13.1102C21.7116 13.3369 21.577 13.8391 21.8038 14.2319L24.124 18.2507L17.9399 28.9619H12.8211C12.3676 28.9619 12 29.3295 12 29.783C12 30.2365 12.3676 30.6042 12.8211 30.6042H29.9658L29.0176 28.9619H19.8363L28.3407 14.2318C28.5674 13.8391 28.4329 13.3369 28.0401 13.1101Z" fill="white"/>
<path d="M18.2433 31.7209H16.347L14.6013 34.7445C14.3746 35.1373 14.5091 35.6395 14.9019 35.8662C15.2946 36.093 15.7968 35.9584 16.0236 35.5657L18.2433 31.7209Z" fill="white"/>
<path d="M33.1527 30.6042H37.4553C37.9088 30.6042 38.2765 30.2365 38.2765 29.783C38.2765 29.3295 37.9088 28.9619 37.4553 28.9619H32.2045L26.6642 19.3659L25.7161 21.0082L34.1209 35.5657C34.3476 35.9585 34.8498 36.093 35.2426 35.8663C35.6353 35.6395 35.7699 35.1373 35.5431 34.7446L33.1527 30.6042Z" fill="white"/>
</svg>
