<?xml version="1.0" encoding="utf-8"?>
<!-- Generator: Adobe Illustrator 26.3.1, SVG Export Plug-In . SVG Version: 6.00 Build 0)  -->
<svg version="1.1" id="Capa_1" xmlns="http://www.w3.org/2000/svg" xmlns:xlink="http://www.w3.org/1999/xlink" x="0px" y="0px"
	 viewBox="0 0 98 86" style="enable-background:new 0 0 98 86;" xml:space="preserve">
<style type="text/css">
	.st0{fill:url(#SVGID_1_);}
	.st1{fill:#02B0FF;}
</style>
<g>
	
		<linearGradient id="SVGID_1_" gradientUnits="userSpaceOnUse" x1="37.7321" y1="639.7898" x2="37.7321" y2="790.9518" gradientTransform="matrix(1 0 0 1 0 -680)">
		<stop  offset="0" style="stop-color:#02B0FF"/>
		<stop  offset="1" style="stop-color:#FFFFFF"/>
	</linearGradient>
	<path class="st0" d="M54.4,86C24.4,86,0,61.6,0,31.6C0,21,7.9,12,18.5,10.6c2.7-0.3,5.3,1.2,6.3,3.7L32.4,32c0.8,1.8,0.6,4-0.5,5.7
		l-6.3,9.6c2.8,5.8,7.5,10.5,13.3,13.3l9.4-6.3c1.7-1.2,3.9-1.4,5.8-0.5l17.7,7.5c2.5,1,4,3.6,3.6,6.3C74.1,78.1,65,86,54.4,86
		L54.4,86z"/>
	<g>
		<path class="st1" d="M52.6,20.4c0,0.3,0.2,0.5,0.5,0.5h4.5c0.3,0,0.5-0.2,0.5-0.5s-0.2-0.5-0.5-0.5h-4v-4c0-0.3-0.2-0.5-0.5-0.5
			s-0.5,0.2-0.5,0.5V20.4z M53.5,20.8l19-19.1L71.8,1l-19,19.1L53.5,20.8z"/>
		<path class="st1" d="M68.3,22.4c0.3,0,0.5,0.2,0.5,0.5v4.5c0,0.3-0.2,0.5-0.5,0.5s-0.5-0.2-0.5-0.5v-4h-4c-0.3,0-0.5-0.2-0.5-0.5
			s0.2-0.5,0.5-0.5H68.3z M68.7,23.3l-19.1,19l-0.7-0.7L68,22.5L68.7,23.3z"/>
	</g>
</g>
</svg>
