<svg width="1032" height="290" viewBox="0 0 1032 290" fill="none" xmlns="http://www.w3.org/2000/svg">
<path d="M338.988 172.885C326.918 172.885 315.868 170.816 305.858 166.689C295.848 162.562 287.188 156.686 279.878 149.061C272.568 141.287 266.848 132.153 262.718 121.671C258.748 111.028 256.758 99.4464 256.758 86.9053C256.758 74.3641 258.898 63.6417 263.188 53.329C267.478 43.0062 273.438 33.9626 281.058 26.1781C288.688 18.4036 297.578 12.3678 307.748 8.08087C317.918 3.79389 328.958 1.6554 340.878 1.6554C348.978 1.6554 356.848 2.84456 364.468 5.22288C372.098 7.6012 379.088 10.9389 385.438 15.2258C389.778 18.0438 392.228 21.2016 394.708 24.6892C396.838 27.687 396.798 31.7742 394.548 34.6921L387.358 44.0055C384.338 47.9128 378.568 48.1826 374.738 45.0648C372.778 43.4659 370.778 42.0169 368.748 40.7079C364.458 37.69 359.928 35.4716 355.168 34.0426C350.558 32.4537 345.798 31.6642 340.868 31.6642C333.558 31.6642 326.648 33.0133 320.138 35.7114C313.778 38.4095 308.218 42.2168 303.458 47.1433C298.848 52.0699 295.198 57.9357 292.498 64.7709C289.798 71.4362 288.448 78.9009 288.448 87.1551C288.448 95.4093 289.718 103.194 292.258 110.019C294.958 116.844 298.688 122.72 303.458 127.647C308.388 132.563 314.178 136.38 320.858 139.079C327.688 141.617 335.158 142.886 343.258 142.886C348.498 142.886 353.588 142.166 358.508 140.737C363.438 139.308 367.958 137.32 372.088 134.782C373.438 133.932 374.748 133.043 376.018 132.113C380.228 129.036 386.398 129.725 389.148 134.152L395.828 144.884C397.718 147.932 397.418 151.899 394.698 154.238C391.608 156.896 387.968 159.374 383.758 161.683C377.398 165.18 370.248 167.958 362.308 170.017C354.518 171.925 346.738 172.875 338.948 172.875L338.988 172.885Z" fill="url(#paint0_linear_657_1335)"/>
<path d="M460.138 172.884C449.808 172.884 440.438 170.026 432.018 164.311C423.598 158.595 416.848 150.82 411.758 140.977C406.678 131.134 404.128 119.942 404.128 107.401C404.128 94.8594 406.668 83.6674 411.758 73.8243C416.838 63.9812 423.758 56.2767 432.488 50.7206C441.228 45.1645 451.078 42.3864 462.038 42.3864C468.398 42.3864 474.188 43.3358 479.438 45.2444C484.678 46.9932 489.288 49.5314 493.258 52.8691C497.228 56.2067 500.488 60.014 503.028 64.301C504.918 67.3089 506.388 70.4666 507.418 73.7843C508.038 75.7629 506.188 77.5117 504.188 76.9921C502.948 76.6723 502.078 75.5531 502.078 74.264V53.0989C502.078 48.632 505.708 45.0046 510.178 45.0046H523.538C528.008 45.0046 531.638 48.6221 531.638 53.0989V162.422C531.638 166.889 528.008 170.516 523.538 170.516H509.938C505.468 170.516 501.838 166.889 501.838 162.422V142.976C501.838 141.547 502.868 140.327 504.268 140.088C506.368 139.728 508.108 141.646 507.298 143.615C506.138 146.423 504.548 149.201 502.548 151.939C499.688 155.906 496.038 159.484 491.588 162.652C487.298 165.67 482.458 168.128 477.048 170.036C471.808 171.945 466.168 172.894 460.128 172.894L460.138 172.884ZM468.248 146.923C475.078 146.923 481.118 145.254 486.358 141.926C491.598 138.589 495.648 133.992 498.508 128.116C501.528 122.08 503.038 115.175 503.038 107.401C503.038 99.6261 501.528 93.0307 498.508 87.1549C495.648 81.279 491.598 76.6723 486.358 73.3446C481.118 70.007 475.078 68.3481 468.248 68.3481C461.418 68.3481 455.378 70.017 450.138 73.3446C445.058 76.6823 441.078 81.279 438.218 87.1549C435.358 93.0307 433.928 99.776 433.928 107.401C433.928 115.025 435.358 122.09 438.218 128.116C441.078 133.992 445.048 138.599 450.138 141.926C455.378 145.264 461.418 146.923 468.248 146.923Z" fill="url(#paint1_linear_657_1335)"/>
<path d="M559.548 170.507C555.078 170.507 551.448 166.879 551.448 162.412V53.0894C551.448 48.6225 555.068 44.9951 559.548 44.9951H573.478C577.248 44.9951 580.318 48.0229 580.368 51.8003L580.658 75.7834C580.678 77.8619 577.848 78.4815 576.998 76.5828C576.818 76.1731 576.778 75.7234 576.908 75.2937C578.678 69.208 581.638 63.7119 585.778 58.8053C590.068 53.7289 594.998 49.7517 600.558 46.8937C606.278 43.8759 612.238 42.3669 618.428 42.3669C621.128 42.3669 623.668 42.6068 626.058 43.0764C629.678 43.7559 631.608 47.4034 630.728 50.9809L626.028 70.2173C625.208 73.5849 621.328 75.3537 617.958 74.5143C615.418 73.8747 612.878 73.5649 610.328 73.5649C606.358 73.5649 602.548 74.3544 598.888 75.9433C595.388 77.3722 592.298 79.4408 589.598 82.1389C586.898 84.837 584.748 88.0147 583.168 91.6622C581.738 95.1597 581.028 99.1269 581.028 103.574V162.402C581.028 166.869 577.398 170.497 572.928 170.497H559.568L559.548 170.507Z" fill="url(#paint2_linear_657_1335)"/>
<path d="M690.228 225.277C684.408 225.277 680.488 219.321 682.798 213.975L700.778 172.434C701.658 170.395 704.688 171.005 704.718 173.223C704.748 175.452 701.698 176.121 700.788 174.093L647.998 56.4057C645.598 51.0495 649.518 45.0037 655.388 45.0037H671.358C674.618 45.0037 677.558 46.9524 678.818 49.9503L711.288 126.926C712.398 128.995 713.508 131.773 714.628 135.26C715.528 137.968 716.328 140.666 717.018 143.374C717.288 144.434 716.678 145.523 715.628 145.853C713.958 146.382 712.408 144.773 713.028 143.135C713.698 141.356 714.388 139.527 715.098 137.638C716.368 134.141 717.558 130.573 718.678 126.926L746.298 50.35C747.458 47.1422 750.498 45.0037 753.918 45.0037H770.158C775.938 45.0037 779.858 50.8796 777.628 56.2158L729.878 170.515L710.448 220.15C709.238 223.248 706.238 225.297 702.908 225.297H690.248L690.228 225.277Z" fill="url(#paint3_linear_657_1335)"/>
<path d="M800.948 170.505C797.658 170.505 794.988 167.837 794.988 164.549V11.8869C794.988 7.42 798.608 3.79256 803.088 3.79256H855.048C864.898 3.79256 873.638 6.011 881.258 10.4579C889.048 14.9047 895.158 20.9405 899.608 28.5551C904.058 36.0198 906.278 44.5139 906.278 54.0371C906.278 63.5604 904.138 71.8945 899.848 79.0395C895.718 86.1845 889.918 91.8205 882.448 95.9476C875.138 99.9148 866.798 101.903 857.428 101.903H814.998C810.528 101.903 806.898 105.521 806.898 109.998V164.539C806.898 167.827 804.228 170.495 800.938 170.495L800.948 170.505ZM902.338 170.505C900.208 170.505 898.238 169.366 897.168 167.527L860.288 103.772C858.698 101.014 859.578 97.4965 862.288 95.8177C865.108 94.0689 868.818 94.9983 870.478 97.8662L907.498 161.541C909.808 165.519 906.938 170.505 902.338 170.505ZM806.898 81.9175C806.898 86.3843 810.528 90.0118 814.998 90.0118H858.858C865.688 90.0118 871.728 88.5028 876.968 85.485C882.208 82.4671 886.258 78.2601 889.118 72.8639C892.138 67.4677 893.648 61.352 893.648 54.5268C893.648 47.0621 891.978 40.3968 888.638 34.5209C885.298 28.645 880.618 24.0383 874.578 20.7106C868.698 17.373 861.948 15.7142 854.318 15.7142H814.988C810.518 15.7142 806.888 19.3316 806.888 23.8084V81.9275L806.898 81.9175Z" fill="url(#paint4_linear_657_1335)"/>
<path d="M1025.19 170.505C1023.38 170.505 1021.68 169.676 1020.55 168.257L976.568 112.396L975.848 111.447L932.358 56.206C929.318 52.3387 932.068 46.6727 936.988 46.6727C938.798 46.6727 940.508 47.5021 941.628 48.9311L984.658 103.832L985.378 104.782L1029.8 160.982C1032.86 164.839 1030.1 170.515 1025.19 170.515V170.505ZM934.688 170.505C929.928 170.505 927.258 165.019 930.198 161.282L970.958 109.389C973.118 106.65 977.238 106.59 979.478 109.269C981.118 111.237 981.168 114.085 979.598 116.124L939.198 168.307C938.118 169.706 936.448 170.525 934.688 170.525V170.505ZM990.518 103.962C988.368 106.71 984.238 106.77 981.998 104.092C980.358 102.124 980.308 99.2756 981.878 97.2471L1019.18 48.8812C1020.26 47.4822 1021.93 46.6627 1023.7 46.6627C1028.47 46.6627 1031.14 52.1389 1028.2 55.8862L990.508 103.962H990.518Z" fill="url(#paint5_linear_657_1335)"/>
<path d="M229.544 145.463C229.544 145.463 229.514 145.413 229.514 145.383C229.494 131.603 219.064 120.521 206.224 120.521H194.484C190.184 120.521 187.244 124.858 188.834 128.845L205.074 169.576C205.274 170.066 205.744 170.396 206.284 170.396C219.174 170.396 229.554 159.254 229.574 145.533C229.574 145.503 229.564 145.483 229.544 145.463Z" fill="#F3B02B"/>
<path d="M146.704 145.543C146.704 145.543 146.734 145.553 146.734 145.573C146.744 159.383 157.204 170.495 170.064 170.495H186.484C190.784 170.495 193.724 166.158 192.134 162.171L177.054 124.358C176.134 122.049 173.894 120.531 171.404 120.531H170.004C157.074 120.531 146.674 131.713 146.674 145.483V145.513C146.674 145.513 146.684 145.543 146.704 145.543Z" fill="#F3B02B"/>
<path d="M6.46414 0.435547C3.06414 0.435547 0.414138 3.40345 0.794138 6.79107C3.77414 33.5522 25.5341 50.4003 51.8841 50.4003H138.724C142.984 50.4003 145.894 46.0934 144.324 42.1362L136.124 21.5507C129.784 5.71183 115.174 0.435547 99.0441 0.435547H6.46414Z" fill="#F3B02B"/>
<path d="M55.9542 60.4128C52.5142 60.4128 49.8442 63.4007 50.2342 66.8183C53.2342 93.5494 75.0242 110.378 101.424 110.378H162.894C167.214 110.378 170.164 106.001 168.534 102.003L153.154 64.2101C152.224 61.9217 149.994 60.4128 147.514 60.4128H55.9542Z" fill="#F3B02B"/>
<path d="M502.776 278.175V267.041L493.755 251.41H497.605L504.45 263.249L511.276 251.41H515.126L506.124 267.041V278.175H502.776Z" fill="#011445"/>
<path d="M470.733 278.175V251.41H481.168C482.767 251.41 484.131 251.738 485.26 252.395C486.4 253.051 487.268 253.919 487.864 254.997C488.471 256.063 488.775 257.215 488.775 258.454C488.775 259.904 488.403 261.174 487.659 262.264C486.915 263.355 485.911 264.104 484.646 264.513L484.609 263.603C486.332 264.061 487.671 264.904 488.626 266.13C489.581 267.357 490.058 268.819 490.058 270.517C490.058 272.078 489.736 273.429 489.091 274.569C488.459 275.709 487.541 276.595 486.338 277.227C485.148 277.859 483.734 278.175 482.098 278.175H470.733ZM474.081 275.015H481.465C482.457 275.015 483.344 274.835 484.125 274.476C484.906 274.104 485.52 273.584 485.966 272.915C486.425 272.245 486.655 271.44 486.655 270.498C486.655 269.594 486.45 268.782 486.041 268.063C485.644 267.345 485.08 266.775 484.348 266.353C483.629 265.92 482.792 265.703 481.837 265.703H474.081V275.015ZM474.081 262.58H481.13C481.924 262.58 482.637 262.413 483.269 262.078C483.914 261.732 484.423 261.248 484.795 260.629C485.179 260.009 485.371 259.284 485.371 258.454C485.371 257.302 484.981 256.36 484.199 255.629C483.418 254.898 482.395 254.532 481.13 254.532H474.081V262.58Z" fill="#011445"/>
<path d="M430.525 278.175V251.41H438.784C439.056 251.41 439.534 251.416 440.216 251.428C440.898 251.441 441.549 251.49 442.169 251.577C444.24 251.85 445.969 252.605 447.358 253.845C448.759 255.071 449.813 256.633 450.52 258.528C451.227 260.424 451.58 262.512 451.58 264.792C451.58 267.072 451.227 269.16 450.52 271.056C449.813 272.952 448.759 274.519 447.358 275.758C445.969 276.985 444.24 277.735 442.169 278.007C441.549 278.082 440.892 278.131 440.197 278.156C439.515 278.168 439.044 278.175 438.784 278.175H430.525ZM433.929 275.015H438.784C439.255 275.015 439.782 275.003 440.365 274.978C440.947 274.941 441.456 274.885 441.89 274.81C443.353 274.538 444.537 273.924 445.442 272.97C446.348 272.016 447.011 270.827 447.433 269.402C447.854 267.977 448.065 266.44 448.065 264.792C448.065 263.107 447.848 261.552 447.414 260.127C446.992 258.702 446.329 257.519 445.424 256.577C444.519 255.635 443.341 255.034 441.89 254.774C441.456 254.687 440.941 254.631 440.346 254.607C439.751 254.582 439.23 254.569 438.784 254.569H433.929V275.015Z" fill="#011445"/>
<path d="M405.408 278.175V251.41H422.334V254.551H408.719V262.933H420.102V266.075H408.719V275.033H422.334V278.175H405.408Z" fill="#011445"/>
<path d="M377.857 278.175V251.41H388.44C388.701 251.41 389.011 251.422 389.37 251.447C389.73 251.459 390.077 251.496 390.412 251.558C391.863 251.781 393.078 252.277 394.058 253.045C395.05 253.814 395.794 254.786 396.29 255.963C396.786 257.128 397.034 258.423 397.034 259.848C397.034 261.917 396.494 263.714 395.415 265.238C394.337 266.75 392.756 267.698 390.672 268.082L389.408 268.286H381.168V278.175H377.857ZM393.797 278.175L388.515 267.283L391.788 266.279L397.592 278.175H393.797ZM381.168 265.145H388.329C388.564 265.145 388.831 265.133 389.129 265.108C389.439 265.083 389.73 265.04 390.003 264.978C390.858 264.78 391.553 264.42 392.086 263.9C392.632 263.367 393.028 262.748 393.276 262.041C393.524 261.323 393.648 260.592 393.648 259.848C393.648 259.105 393.524 258.38 393.276 257.673C393.028 256.955 392.632 256.329 392.086 255.796C391.553 255.263 390.858 254.904 390.003 254.718C389.73 254.644 389.439 254.6 389.129 254.588C388.831 254.563 388.564 254.551 388.329 254.551H381.168V265.145Z" fill="#011445"/>
<path d="M352.74 278.175V251.41H369.666V254.551H356.051V262.933H367.434V266.075H356.051V275.033H369.666V278.175H352.74Z" fill="#011445"/>
<path d="M319.419 278.175L311.663 251.41H315.123L321.075 272.58L327.008 251.428L330.486 251.41L336.438 272.58L342.372 251.41H345.85L338.094 278.175H334.783L328.756 257.19L322.73 278.175H319.419Z" fill="#011445"/>
<path d="M294.88 278.732C292.214 278.732 289.951 278.144 288.091 276.967C286.231 275.789 284.812 274.154 283.832 272.06C282.865 269.965 282.381 267.543 282.381 264.792C282.381 262.041 282.865 259.619 283.832 257.525C284.812 255.431 286.231 253.795 288.091 252.618C289.951 251.441 292.214 250.852 294.88 250.852C297.559 250.852 299.828 251.441 301.688 252.618C303.548 253.795 304.962 255.431 305.929 257.525C306.896 259.619 307.38 262.041 307.38 264.792C307.38 267.543 306.896 269.965 305.929 272.06C304.962 274.154 303.548 275.789 301.688 276.967C299.828 278.144 297.559 278.732 294.88 278.732ZM294.88 275.573C296.877 275.585 298.538 275.139 299.865 274.234C301.204 273.317 302.203 272.047 302.86 270.424C303.529 268.801 303.864 266.923 303.864 264.792C303.864 262.648 303.529 260.771 302.86 259.16C302.203 257.549 301.204 256.292 299.865 255.387C298.538 254.483 296.877 254.024 294.88 254.012C292.884 253.999 291.222 254.445 289.896 255.35C288.581 256.255 287.589 257.519 286.92 259.142C286.25 260.765 285.909 262.648 285.897 264.792C285.884 266.923 286.213 268.795 286.882 270.405C287.552 272.016 288.55 273.28 289.877 274.197C291.216 275.102 292.884 275.56 294.88 275.573Z" fill="#011445"/>
<path d="M257.263 278.175V251.41H267.846C268.106 251.41 268.416 251.422 268.776 251.447C269.136 251.459 269.483 251.496 269.818 251.558C271.268 251.781 272.484 252.277 273.463 253.045C274.455 253.814 275.199 254.786 275.695 255.963C276.191 257.128 276.439 258.423 276.439 259.848C276.439 261.261 276.185 262.556 275.677 263.733C275.181 264.897 274.437 265.87 273.445 266.651C272.465 267.419 271.256 267.915 269.818 268.138C269.483 268.187 269.136 268.225 268.776 268.249C268.416 268.274 268.106 268.286 267.846 268.286H260.573V278.175H257.263ZM260.573 265.145H267.734C267.97 265.145 268.237 265.133 268.534 265.108C268.844 265.083 269.136 265.04 269.408 264.978C270.264 264.78 270.958 264.42 271.492 263.9C272.037 263.367 272.434 262.748 272.682 262.041C272.93 261.323 273.054 260.592 273.054 259.848C273.054 259.105 272.93 258.38 272.682 257.673C272.434 256.955 272.037 256.329 271.492 255.796C270.958 255.263 270.264 254.904 269.408 254.718C269.136 254.644 268.844 254.6 268.534 254.588C268.237 254.563 267.97 254.551 267.734 254.551H260.573V265.145Z" fill="#011445"/>
<path d="M549.443 280.303C547.3 280.303 545.34 279.937 543.563 279.203C541.786 278.47 540.249 277.427 538.952 276.073C537.655 274.691 536.639 273.069 535.906 271.208C535.201 269.319 534.849 267.26 534.849 265.032C534.849 262.889 535.229 260.9 535.991 259.067C536.752 257.234 537.81 255.627 539.164 254.245C540.517 252.863 542.097 251.791 543.901 251.03C545.706 250.268 547.666 249.888 549.782 249.888C551.22 249.888 552.616 250.099 553.969 250.522C555.323 250.945 556.564 251.537 557.692 252.299C557.994 252.495 558.282 252.7 558.575 252.914C559.953 253.923 560.102 256.034 558.816 257.157C557.808 258.037 556.305 257.94 555.219 257.157C555.057 257.041 554.895 256.93 554.731 256.825C553.969 256.289 553.166 255.895 552.32 255.641C551.502 255.359 550.656 255.218 549.782 255.218C548.484 255.218 547.257 255.457 546.101 255.937C544.973 256.416 543.986 257.093 543.14 257.967C542.322 258.842 541.673 259.885 541.194 261.098C540.715 262.282 540.475 263.608 540.475 265.074C540.475 266.569 540.701 267.923 541.152 269.135C541.631 270.348 542.294 271.391 543.14 272.266C544.014 273.14 545.044 273.817 546.228 274.296C547.441 274.747 548.766 274.973 550.205 274.973C551.135 274.973 552.038 274.846 552.912 274.592C553.786 274.339 554.59 273.986 555.323 273.535C556.471 272.812 558.081 272.988 558.797 274.14L559.096 274.621C559.694 275.583 559.599 276.846 558.681 277.508C558.291 277.789 557.863 278.058 557.396 278.315C556.268 278.935 554.999 279.429 553.589 279.796C552.207 280.134 550.825 280.303 549.443 280.303Z" fill="#011445"/>
<path d="M570.891 280.303C569.058 280.303 567.394 279.796 565.899 278.78C564.404 277.765 563.206 276.383 562.303 274.635C561.401 272.886 560.95 270.898 560.95 268.67C560.95 266.442 561.401 264.454 562.303 262.705C563.206 260.957 564.433 259.589 565.984 258.602C567.535 257.615 569.283 257.121 571.229 257.121C572.357 257.121 573.387 257.291 574.317 257.629C575.248 257.939 576.066 258.39 576.771 258.983C577.476 259.575 578.054 260.252 578.505 261.013C578.841 261.547 579.101 262.109 579.285 262.698C579.394 263.049 579.067 263.36 578.711 263.268C578.49 263.211 578.336 263.011 578.336 262.783V260.209C578.336 258.761 579.51 257.587 580.959 257.587C582.407 257.587 583.582 258.761 583.582 260.209V277.236C583.582 278.696 582.398 279.88 580.938 279.88C579.477 279.88 578.294 278.696 578.294 277.236V274.989C578.294 274.735 578.476 274.519 578.726 274.476C579.098 274.411 579.408 274.753 579.264 275.102C579.057 275.601 578.776 276.094 578.421 276.581C577.913 277.286 577.264 277.92 576.475 278.484C575.713 279.02 574.853 279.457 573.894 279.796C572.964 280.134 571.962 280.303 570.891 280.303ZM572.329 275.692C573.542 275.692 574.613 275.396 575.544 274.804C576.475 274.212 577.194 273.394 577.701 272.35C578.237 271.279 578.505 270.052 578.505 268.67C578.505 267.316 578.237 266.118 577.701 265.074C577.194 264.031 576.475 263.213 575.544 262.621C574.613 262.028 573.542 261.732 572.329 261.732C571.116 261.732 570.045 262.028 569.114 262.621C568.212 263.213 567.507 264.031 566.999 265.074C566.491 266.118 566.237 267.316 566.237 268.67C566.237 270.052 566.491 271.279 566.999 272.35C567.507 273.394 568.212 274.212 569.114 274.804C570.045 275.396 571.116 275.692 572.329 275.692Z" fill="#011445"/>
<path d="M590.082 279.88C588.633 279.88 587.459 278.706 587.459 277.257V260.161C587.459 258.739 588.611 257.587 590.033 257.587H591.369C592.039 257.587 592.584 258.125 592.592 258.795L592.643 263.055C592.647 263.423 592.143 263.534 591.993 263.197C591.96 263.125 591.954 263.044 591.976 262.969C592.291 261.887 592.815 260.911 593.55 260.04C594.312 259.138 595.186 258.433 596.173 257.925C597.188 257.389 598.246 257.121 599.346 257.121C599.825 257.121 600.277 257.164 600.7 257.248C601.343 257.369 601.684 258.017 601.529 258.652L600.693 262.069C600.547 262.668 599.86 262.982 599.261 262.832C598.81 262.719 598.359 262.663 597.908 262.663C597.203 262.663 596.526 262.804 595.877 263.086C595.257 263.34 594.707 263.706 594.227 264.186C593.748 264.665 593.367 265.229 593.085 265.878C592.831 266.498 592.704 267.203 592.704 267.993V277.257C592.704 278.706 591.53 279.88 590.082 279.88Z" fill="#011445"/>
<path d="M612.592 289.61C611.21 289.61 610.279 288.194 610.828 286.925L613.726 280.224C613.882 279.862 614.421 279.97 614.426 280.364C614.43 280.76 613.89 280.879 613.728 280.518L605.167 261.42C604.36 259.62 605.677 257.587 607.65 257.587C608.744 257.587 609.732 258.242 610.157 259.251L615.589 272.139C615.787 272.505 615.984 272.999 616.181 273.619C616.342 274.1 616.483 274.58 616.606 275.06C616.655 275.249 616.546 275.442 616.36 275.502C616.064 275.596 615.789 275.309 615.898 275.018C616.016 274.702 616.139 274.377 616.266 274.042C616.492 273.422 616.703 272.787 616.901 272.139L621.492 259.401C621.885 258.312 622.917 257.587 624.075 257.587C626.034 257.587 627.363 259.581 626.608 261.389L618.889 279.88L615.692 288.049C615.324 288.99 614.416 289.61 613.405 289.61H612.592Z" fill="#011445"/>
<path d="M651.767 279.88C651.183 279.88 650.71 279.407 650.71 278.823V251.326C650.71 250.742 651.183 250.268 651.767 250.268C652.351 250.268 652.825 250.742 652.825 251.326V278.823C652.825 279.407 652.351 279.88 651.767 279.88ZM631.547 279.88C630.963 279.88 630.489 279.407 630.489 278.823V251.326C630.489 250.742 630.963 250.268 631.547 250.268C632.131 250.268 632.604 250.742 632.604 251.326V278.823C632.604 279.407 632.131 279.88 631.547 279.88ZM632.773 266.174C632.189 266.174 631.716 265.701 631.716 265.117C631.716 264.532 632.189 264.059 632.773 264.059H650.414C650.998 264.059 651.471 264.532 651.471 265.117C651.471 265.701 650.998 266.174 650.414 266.174H632.773Z" fill="#011445"/>
<path d="M666.542 280.303C664.427 280.303 662.538 279.824 660.874 278.865C659.238 277.906 657.955 276.566 657.024 274.846C656.093 273.126 655.628 271.124 655.628 268.839C655.628 267.175 655.882 265.652 656.39 264.27C656.925 262.889 657.659 261.69 658.589 260.675C659.52 259.631 660.634 258.828 661.931 258.263C663.257 257.699 664.695 257.417 666.246 257.417C667.769 257.417 669.137 257.671 670.349 258.179C671.59 258.687 672.634 259.42 673.48 260.379C674.326 261.309 674.96 262.423 675.383 263.721C675.806 264.99 675.99 266.4 675.933 267.951C675.91 268.588 675.386 269.093 674.748 269.093H658.166C657.629 269.093 657.193 268.657 657.193 268.12C657.193 267.583 657.629 267.147 658.166 267.147H674.063C674.293 267.147 674.396 267.436 674.218 267.581C674.058 267.712 673.818 267.598 673.818 267.392V266.893C673.818 265.765 673.536 264.637 672.972 263.509C672.436 262.381 671.604 261.436 670.476 260.675C669.348 259.913 667.924 259.533 666.204 259.533C664.596 259.533 663.158 259.885 661.889 260.59C660.648 261.295 659.661 262.325 658.928 263.678C658.223 265.032 657.87 266.71 657.87 268.712C657.87 270.63 658.223 272.308 658.928 273.746C659.633 275.156 660.648 276.256 661.973 277.046C663.327 277.807 664.977 278.188 666.923 278.188C667.966 278.188 669.038 278.019 670.138 277.68C671.01 277.412 671.971 276.896 673.02 276.131C673.484 275.793 674.141 275.88 674.471 276.35C674.753 276.75 674.701 277.299 674.322 277.608C673.853 277.99 673.333 278.352 672.761 278.696C671.915 279.175 670.97 279.57 669.926 279.88C668.883 280.162 667.755 280.303 666.542 280.303Z" fill="#011445"/>
<path d="M688.938 280.303C686.936 280.303 685.145 279.81 683.566 278.823C681.986 277.836 680.731 276.482 679.801 274.762C678.898 273.041 678.447 271.081 678.447 268.881C678.447 266.654 678.912 264.679 679.843 262.959C680.802 261.239 682.071 259.885 683.65 258.898C685.23 257.911 686.992 257.417 688.938 257.417C690.066 257.417 691.138 257.587 692.153 257.925C693.168 258.263 694.085 258.743 694.903 259.363C695.721 259.956 696.426 260.661 697.018 261.479C697.445 262.068 697.783 262.693 698.034 263.355C698.138 263.628 697.838 263.851 697.593 263.692C697.499 263.631 697.444 263.525 697.448 263.413L697.616 258.879C697.636 258.323 698.093 257.883 698.649 257.883C699.22 257.883 699.683 258.346 699.683 258.917V278.823C699.683 279.407 699.21 279.88 698.626 279.88C698.041 279.88 697.568 279.407 697.568 278.823V274.47C697.568 274.413 697.589 274.357 697.627 274.314C697.792 274.131 698.061 274.285 697.967 274.513C697.724 275.099 697.408 275.662 697.018 276.2C696.426 277.018 695.721 277.737 694.903 278.357C694.085 278.978 693.168 279.457 692.153 279.796C691.138 280.134 690.066 280.303 688.938 280.303ZM689.234 278.188C690.842 278.188 692.28 277.793 693.549 277.004C694.846 276.186 695.862 275.086 696.595 273.704C697.356 272.294 697.737 270.672 697.737 268.839C697.737 267.034 697.371 265.441 696.637 264.059C695.904 262.649 694.889 261.549 693.591 260.759C692.322 259.942 690.87 259.533 689.234 259.533C687.57 259.533 686.09 259.942 684.793 260.759C683.523 261.549 682.522 262.649 681.789 264.059C681.056 265.441 680.689 267.034 680.689 268.839C680.689 270.616 681.042 272.209 681.747 273.619C682.48 275.029 683.481 276.143 684.75 276.961C686.048 277.779 687.542 278.188 689.234 278.188Z" fill="#011445"/>
<path d="M705.798 279.88C705.214 279.88 704.74 279.407 704.74 278.823V249.634C704.74 249.05 705.214 248.576 705.798 248.576C706.382 248.576 706.855 249.05 706.855 249.634V278.823C706.855 279.407 706.382 279.88 705.798 279.88Z" fill="#011445"/>
<path d="M716.155 279.88C715.571 279.88 715.098 279.407 715.098 278.823V253.06C715.098 252.476 715.571 252.003 716.155 252.003C716.739 252.003 717.213 252.476 717.213 253.06V278.823C717.213 279.407 716.739 279.88 716.155 279.88ZM710.783 259.829C710.246 259.829 709.81 259.393 709.81 258.856C709.81 258.318 710.246 257.883 710.783 257.883H722.162C722.7 257.883 723.135 258.318 723.135 258.856C723.135 259.393 722.7 259.829 722.162 259.829H710.783Z" fill="#011445"/>
<path d="M726.661 279.88C726.24 279.88 725.9 279.539 725.9 279.119V249.634C725.9 249.05 726.373 248.576 726.957 248.576C727.541 248.576 728.015 249.05 728.015 249.634V262.915C728.015 262.944 728.007 262.972 727.991 262.996C727.899 263.142 727.704 263.055 727.761 262.893C728.1 261.937 728.607 261.099 729.284 260.379C730.158 259.42 731.173 258.687 732.33 258.179C733.514 257.671 734.699 257.417 735.883 257.417C737.575 257.417 738.971 257.742 740.071 258.39C741.199 259.039 742.031 260.04 742.567 261.394C743.103 262.748 743.371 264.468 743.371 266.555V278.823C743.371 279.407 742.897 279.88 742.313 279.88C741.729 279.88 741.255 279.407 741.255 278.823V266.639C741.255 265.004 741.044 263.664 740.621 262.621C740.198 261.549 739.549 260.759 738.675 260.252C737.829 259.716 736.743 259.448 735.418 259.448C734.374 259.448 733.401 259.645 732.499 260.04C731.596 260.407 730.807 260.914 730.13 261.563C729.481 262.212 728.959 262.959 728.565 263.805C728.198 264.623 728.015 265.497 728.015 266.428V278.823C728.015 279.407 727.541 279.88 726.957 279.88C726.929 279.88 726.83 279.88 726.661 279.88Z" fill="#011445"/>
<defs>
<linearGradient id="paint0_linear_657_1335" x1="256.758" y1="113.476" x2="1031.08" y2="113.476" gradientUnits="userSpaceOnUse">
<stop stop-color="#0A1C73"/>
<stop offset="1" stop-color="#4564FD"/>
</linearGradient>
<linearGradient id="paint1_linear_657_1335" x1="256.758" y1="113.476" x2="1031.08" y2="113.476" gradientUnits="userSpaceOnUse">
<stop stop-color="#0A1C73"/>
<stop offset="1" stop-color="#4564FD"/>
</linearGradient>
<linearGradient id="paint2_linear_657_1335" x1="256.758" y1="113.476" x2="1031.08" y2="113.476" gradientUnits="userSpaceOnUse">
<stop stop-color="#0A1C73"/>
<stop offset="1" stop-color="#4564FD"/>
</linearGradient>
<linearGradient id="paint3_linear_657_1335" x1="256.758" y1="113.476" x2="1031.08" y2="113.476" gradientUnits="userSpaceOnUse">
<stop stop-color="#0A1C73"/>
<stop offset="1" stop-color="#4564FD"/>
</linearGradient>
<linearGradient id="paint4_linear_657_1335" x1="256.758" y1="113.476" x2="1031.08" y2="113.476" gradientUnits="userSpaceOnUse">
<stop stop-color="#0A1C73"/>
<stop offset="1" stop-color="#4564FD"/>
</linearGradient>
<linearGradient id="paint5_linear_657_1335" x1="256.758" y1="113.476" x2="1031.08" y2="113.476" gradientUnits="userSpaceOnUse">
<stop stop-color="#0A1C73"/>
<stop offset="1" stop-color="#4564FD"/>
</linearGradient>
</defs>
</svg>
