<svg width="1032" height="307" viewBox="0 0 1032 307" fill="none" xmlns="http://www.w3.org/2000/svg">
<path d="M338.988 172.885C326.918 172.885 315.868 170.816 305.858 166.689C295.848 162.562 287.188 156.686 279.878 149.061C272.568 141.287 266.848 132.153 262.718 121.671C258.748 111.028 256.758 99.4464 256.758 86.9053C256.758 74.3641 258.898 63.6417 263.188 53.329C267.478 43.0062 273.438 33.9626 281.058 26.1781C288.688 18.4036 297.578 12.3678 307.748 8.08087C317.918 3.79389 328.958 1.6554 340.878 1.6554C348.978 1.6554 356.848 2.84456 364.468 5.22288C372.098 7.6012 379.088 10.9389 385.438 15.2258C389.778 18.0438 392.228 21.2016 394.708 24.6892C396.838 27.687 396.798 31.7742 394.548 34.6921L387.358 44.0055C384.338 47.9128 378.568 48.1826 374.738 45.0648C372.778 43.4659 370.778 42.0169 368.748 40.7079C364.458 37.69 359.928 35.4716 355.168 34.0426C350.558 32.4537 345.798 31.6642 340.868 31.6642C333.558 31.6642 326.648 33.0133 320.138 35.7114C313.778 38.4095 308.218 42.2168 303.458 47.1433C298.848 52.0699 295.198 57.9357 292.498 64.7709C289.798 71.4362 288.448 78.9009 288.448 87.1551C288.448 95.4093 289.718 103.194 292.258 110.019C294.958 116.844 298.688 122.72 303.458 127.647C308.388 132.563 314.178 136.38 320.858 139.079C327.688 141.617 335.158 142.886 343.258 142.886C348.498 142.886 353.588 142.166 358.508 140.737C363.438 139.308 367.958 137.32 372.088 134.782C373.438 133.932 374.748 133.043 376.018 132.113C380.228 129.036 386.398 129.725 389.148 134.152L395.828 144.884C397.718 147.932 397.418 151.899 394.698 154.238C391.608 156.896 387.968 159.374 383.758 161.683C377.398 165.18 370.248 167.958 362.308 170.017C354.518 171.925 346.738 172.875 338.948 172.875L338.988 172.885Z" fill="url(#paint0_linear_1168_518)"/>
<path d="M460.138 172.884C449.808 172.884 440.438 170.026 432.018 164.31C423.598 158.595 416.848 150.82 411.758 140.977C406.678 131.134 404.128 119.942 404.128 107.401C404.128 94.8594 406.668 83.6673 411.758 73.8243C416.838 63.9812 423.758 56.2767 432.488 50.7206C441.228 45.1645 451.078 42.3864 462.038 42.3864C468.398 42.3864 474.188 43.3358 479.438 45.2444C484.678 46.9932 489.288 49.5314 493.258 52.8691C497.228 56.2067 500.488 60.014 503.028 64.301C504.918 67.3089 506.388 70.4666 507.418 73.7843C508.038 75.7629 506.188 77.5117 504.188 76.9921C502.948 76.6723 502.078 75.5531 502.078 74.264V53.0989C502.078 48.632 505.708 45.0046 510.178 45.0046H523.538C528.008 45.0046 531.638 48.622 531.638 53.0989V162.422C531.638 166.889 528.008 170.516 523.538 170.516H509.938C505.468 170.516 501.838 166.889 501.838 162.422V142.976C501.838 141.547 502.868 140.327 504.268 140.088C506.368 139.728 508.108 141.646 507.298 143.615C506.138 146.423 504.548 149.201 502.548 151.939C499.688 155.906 496.038 159.484 491.588 162.652C487.298 165.67 482.458 168.128 477.048 170.036C471.808 171.945 466.168 172.894 460.128 172.894L460.138 172.884ZM468.248 146.923C475.078 146.923 481.118 145.254 486.358 141.926C491.598 138.589 495.648 133.992 498.508 128.116C501.528 122.08 503.038 115.175 503.038 107.401C503.038 99.6261 501.528 93.0307 498.508 87.1549C495.648 81.279 491.598 76.6723 486.358 73.3446C481.118 70.007 475.078 68.3481 468.248 68.3481C461.418 68.3481 455.378 70.017 450.138 73.3446C445.058 76.6823 441.078 81.279 438.218 87.1549C435.358 93.0307 433.928 99.776 433.928 107.401C433.928 115.025 435.358 122.09 438.218 128.116C441.078 133.992 445.048 138.599 450.138 141.926C455.378 145.264 461.418 146.923 468.248 146.923Z" fill="url(#paint1_linear_1168_518)"/>
<path d="M559.548 170.507C555.078 170.507 551.448 166.879 551.448 162.412V53.0894C551.448 48.6225 555.068 44.9951 559.548 44.9951H573.478C577.248 44.9951 580.318 48.0229 580.368 51.8003L580.658 75.7834C580.678 77.8619 577.848 78.4815 576.998 76.5828C576.818 76.1731 576.778 75.7234 576.908 75.2937C578.678 69.208 581.638 63.7119 585.778 58.8053C590.068 53.7289 594.998 49.7517 600.558 46.8937C606.278 43.8759 612.238 42.3669 618.428 42.3669C621.128 42.3669 623.668 42.6068 626.058 43.0764C629.678 43.7559 631.608 47.4034 630.728 50.9809L626.028 70.2173C625.208 73.5849 621.328 75.3537 617.958 74.5143C615.418 73.8747 612.878 73.5649 610.328 73.5649C606.358 73.5649 602.548 74.3544 598.888 75.9433C595.388 77.3722 592.298 79.4408 589.598 82.1389C586.898 84.837 584.748 88.0147 583.168 91.6622C581.738 95.1597 581.028 99.1269 581.028 103.574V162.402C581.028 166.869 577.398 170.497 572.928 170.497H559.568L559.548 170.507Z" fill="url(#paint2_linear_1168_518)"/>
<path d="M690.228 225.277C684.408 225.277 680.488 219.321 682.798 213.975L700.778 172.434C701.658 170.395 704.688 171.005 704.718 173.223C704.748 175.452 701.698 176.121 700.788 174.093L647.998 56.4057C645.598 51.0495 649.518 45.0037 655.388 45.0037H671.358C674.618 45.0037 677.558 46.9524 678.818 49.9503L711.288 126.926C712.398 128.995 713.508 131.773 714.628 135.26C715.528 137.968 716.328 140.666 717.018 143.374C717.288 144.434 716.678 145.523 715.628 145.853C713.958 146.382 712.408 144.773 713.028 143.135C713.698 141.356 714.388 139.527 715.098 137.638C716.368 134.141 717.558 130.573 718.678 126.926L746.298 50.35C747.458 47.1422 750.498 45.0037 753.918 45.0037H770.158C775.938 45.0037 779.858 50.8796 777.628 56.2158L729.878 170.515L710.448 220.15C709.238 223.248 706.238 225.297 702.908 225.297H690.248L690.228 225.277Z" fill="url(#paint3_linear_1168_518)"/>
<path d="M800.948 170.505C797.658 170.505 794.988 167.837 794.988 164.549V11.8869C794.988 7.42 798.608 3.79256 803.088 3.79256H855.048C864.898 3.79256 873.638 6.011 881.258 10.4579C889.048 14.9047 895.158 20.9405 899.608 28.5551C904.058 36.0198 906.278 44.5139 906.278 54.0371C906.278 63.5604 904.138 71.8946 899.848 79.0395C895.718 86.1845 889.918 91.8205 882.448 95.9476C875.138 99.9148 866.798 101.903 857.428 101.903H814.998C810.528 101.903 806.898 105.521 806.898 109.998V164.539C806.898 167.827 804.228 170.495 800.938 170.495L800.948 170.505ZM902.338 170.505C900.208 170.505 898.238 169.366 897.168 167.527L860.288 103.772C858.698 101.014 859.578 97.4965 862.288 95.8177C865.108 94.0689 868.818 94.9983 870.478 97.8662L907.498 161.541C909.808 165.519 906.938 170.505 902.338 170.505ZM806.898 81.9175C806.898 86.3843 810.528 90.0118 814.998 90.0118H858.858C865.688 90.0118 871.728 88.5028 876.968 85.485C882.208 82.4671 886.258 78.2601 889.118 72.8639C892.138 67.4677 893.648 61.352 893.648 54.5268C893.648 47.0621 891.978 40.3968 888.638 34.5209C885.298 28.645 880.618 24.0383 874.578 20.7106C868.698 17.373 861.948 15.7142 854.318 15.7142H814.988C810.518 15.7142 806.888 19.3316 806.888 23.8084V81.9275L806.898 81.9175Z" fill="url(#paint4_linear_1168_518)"/>
<path d="M1025.19 170.505C1023.38 170.505 1021.68 169.676 1020.55 168.257L976.568 112.396L975.848 111.447L932.358 56.206C929.318 52.3387 932.068 46.6727 936.988 46.6727C938.798 46.6727 940.508 47.5021 941.628 48.9311L984.658 103.832L985.378 104.782L1029.8 160.982C1032.86 164.839 1030.1 170.515 1025.19 170.515V170.505ZM934.688 170.505C929.928 170.505 927.258 165.019 930.198 161.282L970.958 109.389C973.118 106.65 977.238 106.59 979.478 109.269C981.118 111.237 981.168 114.085 979.598 116.124L939.198 168.307C938.118 169.706 936.448 170.525 934.688 170.525V170.505ZM990.518 103.962C988.368 106.71 984.238 106.77 981.998 104.092C980.358 102.124 980.308 99.2756 981.878 97.2471L1019.18 48.8812C1020.26 47.4822 1021.93 46.6627 1023.7 46.6627C1028.47 46.6627 1031.14 52.1389 1028.2 55.8862L990.508 103.962H990.518Z" fill="url(#paint5_linear_1168_518)"/>
<path d="M229.544 145.463C229.544 145.463 229.514 145.413 229.514 145.383C229.494 131.603 219.064 120.521 206.224 120.521H194.484C190.184 120.521 187.244 124.858 188.834 128.845L205.074 169.576C205.274 170.066 205.744 170.396 206.284 170.396C219.174 170.396 229.554 159.254 229.574 145.533C229.574 145.503 229.564 145.483 229.544 145.463Z" fill="#F3B02B"/>
<path d="M146.704 145.543C146.704 145.543 146.734 145.553 146.734 145.573C146.744 159.383 157.204 170.495 170.064 170.495H186.484C190.784 170.495 193.724 166.158 192.134 162.171L177.054 124.358C176.134 122.05 173.894 120.531 171.404 120.531H170.004C157.074 120.531 146.674 131.713 146.674 145.483V145.513C146.674 145.513 146.684 145.543 146.704 145.543Z" fill="#F3B02B"/>
<path d="M6.46414 0.435547C3.06414 0.435547 0.414138 3.40345 0.794138 6.79107C3.77414 33.5522 25.5341 50.4003 51.8841 50.4003H138.724C142.984 50.4003 145.894 46.0934 144.324 42.1361L136.124 21.5507C129.784 5.71183 115.174 0.435547 99.0441 0.435547H6.46414Z" fill="#F3B02B"/>
<path d="M55.9542 60.4128C52.5142 60.4128 49.8442 63.4007 50.2342 66.8183C53.2342 93.5494 75.0242 110.378 101.424 110.378H162.894C167.214 110.378 170.164 106.001 168.534 102.003L153.154 64.2101C152.224 61.9217 149.994 60.4128 147.514 60.4128H55.9542Z" fill="#F3B02B"/>
<path d="M607.458 290.226V274.35L594.595 252.061H600.085L609.845 268.944L619.579 252.061H625.069L612.232 274.35V290.226H607.458Z" fill="#011445"/>
<path d="M561.768 290.226V252.061H576.647C578.928 252.061 580.873 252.529 582.482 253.466C584.108 254.402 585.346 255.639 586.195 257.176C587.061 258.696 587.494 260.339 587.494 262.106C587.494 264.173 586.964 265.984 585.903 267.539C584.842 269.094 583.41 270.163 581.606 270.746L581.553 269.447C584.011 270.101 585.921 271.303 587.282 273.052C588.644 274.801 589.324 276.886 589.324 279.307C589.324 281.533 588.865 283.459 587.945 285.084C587.043 286.71 585.735 287.973 584.02 288.874C582.323 289.775 580.307 290.226 577.973 290.226H561.768ZM566.542 285.72H577.071C578.486 285.72 579.75 285.464 580.864 284.952C581.978 284.422 582.853 283.68 583.49 282.726C584.144 281.771 584.471 280.623 584.471 279.28C584.471 277.99 584.179 276.833 583.596 275.808C583.03 274.783 582.225 273.971 581.182 273.37C580.157 272.751 578.963 272.442 577.602 272.442H566.542V285.72ZM566.542 267.99H576.594C577.725 267.99 578.742 267.751 579.644 267.274C580.563 266.779 581.288 266.09 581.819 265.207C582.367 264.323 582.641 263.29 582.641 262.106C582.641 260.463 582.084 259.12 580.97 258.077C579.856 257.035 578.397 256.514 576.594 256.514H566.542V267.99Z" fill="#011445"/>
<path d="M504.435 290.226V252.061H516.21C516.599 252.061 517.28 252.07 518.253 252.088C519.225 252.105 520.153 252.176 521.037 252.3C523.99 252.688 526.457 253.766 528.437 255.533C530.435 257.282 531.938 259.509 532.946 262.212C533.954 264.915 534.458 267.892 534.458 271.144C534.458 274.395 533.954 277.372 532.946 280.075C531.938 282.779 530.435 285.014 528.437 286.781C526.457 288.53 523.99 289.599 521.037 289.987C520.153 290.093 519.216 290.164 518.226 290.2C517.254 290.217 516.582 290.226 516.21 290.226H504.435ZM509.288 285.72H516.21C516.882 285.72 517.634 285.703 518.465 285.667C519.296 285.614 520.021 285.535 520.64 285.429C522.726 285.04 524.415 284.166 525.705 282.805C526.996 281.445 527.942 279.748 528.543 277.716C529.144 275.684 529.445 273.494 529.445 271.144C529.445 268.741 529.136 266.523 528.517 264.491C527.916 262.459 526.97 260.772 525.679 259.429C524.388 258.086 522.708 257.229 520.64 256.858C520.021 256.735 519.287 256.655 518.438 256.62C517.59 256.584 516.847 256.567 516.21 256.567H509.288V285.72Z" fill="#011445"/>
<path d="M468.619 290.226V252.061H492.755V256.54H473.34V268.493H489.572V272.972H473.34V285.747H492.755V290.226H468.619Z" fill="#011445"/>
<path d="M429.334 290.226V252.061H444.425C444.796 252.061 445.238 252.079 445.751 252.114C446.263 252.132 446.759 252.185 447.236 252.273C449.305 252.591 451.037 253.298 452.434 254.393C453.849 255.489 454.91 256.876 455.617 258.554C456.324 260.215 456.678 262.062 456.678 264.094C456.678 267.044 455.909 269.606 454.37 271.78C452.832 273.935 450.578 275.287 447.607 275.835L445.804 276.126H434.054V290.226H429.334ZM452.063 290.226L444.531 274.695L449.199 273.264L457.473 290.226H452.063ZM434.054 271.647H444.265C444.601 271.647 444.982 271.629 445.406 271.594C445.848 271.559 446.263 271.497 446.652 271.409C447.872 271.126 448.863 270.613 449.623 269.871C450.401 269.112 450.967 268.228 451.32 267.221C451.674 266.196 451.851 265.154 451.851 264.094C451.851 263.034 451.674 262 451.32 260.993C450.967 259.968 450.401 259.076 449.623 258.316C448.863 257.556 447.872 257.044 446.652 256.779C446.263 256.673 445.848 256.611 445.406 256.593C444.982 256.558 444.601 256.54 444.265 256.54H434.054V271.647Z" fill="#011445"/>
<path d="M393.518 290.226V252.061H417.653V256.54H398.239V268.493H414.471V272.972H398.239V285.747H417.653V290.226H393.518Z" fill="#011445"/>
<path d="M346.006 290.226L334.946 252.061H339.879L348.366 282.248L356.827 252.088L361.786 252.061L370.273 282.248L378.734 252.061H383.694L372.634 290.226H367.913L359.32 260.304L350.727 290.226H346.006Z" fill="#011445"/>
<path d="M311.015 291.021C307.214 291.021 303.987 290.182 301.335 288.503C298.682 286.825 296.658 284.492 295.261 281.506C293.882 278.52 293.192 275.066 293.192 271.144C293.192 267.221 293.882 263.767 295.261 260.781C296.658 257.795 298.682 255.462 301.335 253.784C303.987 252.105 307.214 251.266 311.015 251.266C314.834 251.266 318.07 252.105 320.722 253.784C323.374 255.462 325.39 257.795 326.769 260.781C328.148 263.767 328.838 267.221 328.838 271.144C328.838 275.066 328.148 278.52 326.769 281.506C325.39 284.492 323.374 286.825 320.722 288.503C318.07 290.182 314.834 291.021 311.015 291.021ZM311.015 286.516C313.862 286.533 316.231 285.897 318.123 284.607C320.033 283.3 321.456 281.489 322.393 279.174C323.348 276.859 323.825 274.183 323.825 271.144C323.825 268.087 323.348 265.41 322.393 263.113C321.456 260.816 320.033 259.023 318.123 257.733C316.231 256.443 313.862 255.789 311.015 255.772C308.168 255.754 305.799 256.39 303.907 257.68C302.033 258.97 300.618 260.772 299.664 263.087C298.709 265.401 298.223 268.087 298.205 271.144C298.187 274.183 298.656 276.851 299.611 279.148C300.565 281.445 301.989 283.247 303.881 284.554C305.79 285.844 308.168 286.498 311.015 286.516Z" fill="#011445"/>
<path d="M257.375 290.226V252.061H272.466C272.837 252.061 273.279 252.079 273.792 252.114C274.305 252.132 274.8 252.185 275.277 252.273C277.346 252.591 279.079 253.298 280.476 254.393C281.89 255.489 282.951 256.876 283.658 258.554C284.366 260.215 284.719 262.062 284.719 264.094C284.719 266.108 284.357 267.954 283.632 269.633C282.925 271.294 281.864 272.681 280.449 273.794C279.052 274.889 277.328 275.596 275.277 275.914C274.8 275.985 274.305 276.038 273.792 276.073C273.279 276.109 272.837 276.126 272.466 276.126H262.096V290.226H257.375ZM262.096 271.647H272.307C272.643 271.647 273.023 271.629 273.447 271.594C273.889 271.559 274.305 271.497 274.694 271.409C275.914 271.126 276.904 270.613 277.664 269.871C278.442 269.112 279.008 268.228 279.362 267.221C279.715 266.196 279.892 265.154 279.892 264.094C279.892 263.034 279.715 262 279.362 260.993C279.008 259.968 278.442 259.076 277.664 258.316C276.904 257.556 275.914 257.044 274.694 256.779C274.305 256.673 273.889 256.611 273.447 256.593C273.023 256.558 272.643 256.54 272.307 256.54H262.096V271.647Z" fill="#011445"/>
<path d="M674.002 293.261C670.946 293.261 668.151 292.738 665.617 291.693C663.084 290.647 660.892 289.159 659.043 287.229C657.193 285.259 655.745 282.946 654.699 280.292C653.694 277.598 653.191 274.662 653.191 271.485C653.191 268.429 653.734 265.594 654.82 262.98C655.906 260.366 657.414 258.074 659.344 256.104C661.274 254.133 663.526 252.605 666.1 251.519C668.674 250.434 671.469 249.891 674.485 249.891C676.535 249.891 678.526 250.192 680.456 250.795C682.387 251.399 684.156 252.243 685.765 253.329C686.195 253.609 686.606 253.901 687.023 254.207C688.988 255.645 689.201 258.655 687.367 260.256V260.256C685.929 261.511 683.786 261.372 682.237 260.257C682.007 260.091 681.776 259.933 681.542 259.783C680.456 259.019 679.31 258.456 678.104 258.094C676.938 257.692 675.731 257.491 674.485 257.491C672.635 257.491 670.885 257.833 669.237 258.517C667.628 259.2 666.221 260.165 665.014 261.412C663.848 262.659 662.923 264.146 662.239 265.876C661.556 267.565 661.214 269.455 661.214 271.546C661.214 273.677 661.536 275.607 662.179 277.337C662.863 279.066 663.808 280.554 665.014 281.8C666.261 283.047 667.729 284.012 669.418 284.696C671.147 285.339 673.037 285.661 675.088 285.661C676.415 285.661 677.702 285.48 678.948 285.118C680.195 284.756 681.341 284.253 682.387 283.61V283.61C684.024 282.579 686.319 282.83 687.34 284.473L687.767 285.159C688.619 286.53 688.483 288.332 687.174 289.276C686.619 289.676 686.008 290.06 685.342 290.426C683.734 291.311 681.924 292.015 679.913 292.537C677.943 293.02 675.972 293.261 674.002 293.261Z" fill="#011445"/>
<path d="M704.585 293.261C701.971 293.261 699.598 292.537 697.467 291.09C695.336 289.642 693.627 287.671 692.34 285.178C691.053 282.685 690.409 279.85 690.409 276.673C690.409 273.496 691.053 270.661 692.34 268.168C693.627 265.675 695.376 263.724 697.588 262.317C699.799 260.909 702.293 260.206 705.067 260.206C706.676 260.206 708.144 260.447 709.471 260.929C710.798 261.372 711.964 262.015 712.969 262.86C713.975 263.704 714.799 264.669 715.442 265.755C715.922 266.516 716.293 267.317 716.554 268.158C716.71 268.659 716.243 269.102 715.736 268.97V268.97C715.421 268.888 715.201 268.604 715.201 268.279V264.609C715.201 262.543 716.876 260.869 718.941 260.869V260.869C721.007 260.869 722.681 262.543 722.681 264.609V288.888C722.681 290.97 720.993 292.658 718.911 292.658V292.658C716.829 292.658 715.141 290.97 715.141 288.888V285.683C715.141 285.322 715.401 285.013 715.757 284.951V284.951C716.288 284.86 716.73 285.347 716.524 285.845C716.23 286.557 715.829 287.259 715.322 287.953C714.598 288.958 713.673 289.863 712.547 290.667C711.461 291.431 710.235 292.055 708.868 292.537C707.54 293.02 706.113 293.261 704.585 293.261ZM706.636 286.686C708.365 286.686 709.893 286.264 711.22 285.42C712.547 284.575 713.573 283.409 714.296 281.921C715.06 280.393 715.442 278.643 715.442 276.673C715.442 274.743 715.06 273.034 714.296 271.546C713.573 270.058 712.547 268.892 711.22 268.047C709.893 267.203 708.365 266.78 706.636 266.78C704.906 266.78 703.378 267.203 702.051 268.047C700.764 268.892 699.759 270.058 699.035 271.546C698.311 273.034 697.95 274.743 697.95 276.673C697.95 278.643 698.311 280.393 699.035 281.921C699.759 283.409 700.764 284.575 702.051 285.42C703.378 286.264 704.906 286.686 706.636 286.686Z" fill="#011445"/>
<path d="M731.95 292.658C729.884 292.658 728.21 290.984 728.21 288.918V264.54C728.21 262.513 729.853 260.869 731.881 260.869H733.786C734.74 260.869 735.518 261.637 735.529 262.592L735.601 268.666C735.607 269.192 734.889 269.349 734.675 268.869V268.869C734.629 268.767 734.62 268.651 734.651 268.543C735.099 267.002 735.848 265.61 736.896 264.368C737.982 263.081 739.228 262.075 740.636 261.352C742.083 260.588 743.591 260.206 745.16 260.206C745.843 260.206 746.487 260.266 747.09 260.386V260.386C748.007 260.558 748.494 261.482 748.272 262.389L747.081 267.26C746.872 268.115 745.892 268.562 745.039 268.349V268.349C744.396 268.188 743.752 268.107 743.109 268.107C742.103 268.107 741.138 268.309 740.213 268.711C739.329 269.073 738.545 269.595 737.861 270.279C737.177 270.963 736.634 271.767 736.232 272.692C735.87 273.577 735.689 274.582 735.689 275.708V288.918C735.689 290.984 734.015 292.658 731.95 292.658V292.658Z" fill="#011445"/>
<path d="M764.048 306.532C762.077 306.532 760.75 304.512 761.532 302.703L765.664 293.148C765.887 292.632 766.655 292.786 766.662 293.348V293.348C766.669 293.912 765.898 294.082 765.667 293.567L753.46 266.336C752.309 263.769 754.187 260.869 757 260.869V260.869C758.561 260.869 759.969 261.804 760.575 263.242L768.321 281.619C768.603 282.142 768.884 282.846 769.166 283.731C769.394 284.415 769.596 285.1 769.772 285.785C769.841 286.055 769.685 286.329 769.42 286.414V286.414C768.998 286.549 768.606 286.14 768.761 285.725C768.93 285.274 769.105 284.81 769.287 284.334C769.608 283.449 769.91 282.544 770.191 281.619L776.739 263.456C777.298 261.904 778.771 260.869 780.421 260.869V260.869C783.215 260.869 785.11 263.713 784.033 266.291L773.026 292.658L768.469 304.306C767.943 305.648 766.649 306.532 765.207 306.532H764.048Z" fill="#011445"/>
<path d="M819.909 292.658C819.076 292.658 818.401 291.983 818.401 291.15V251.942C818.401 251.109 819.076 250.434 819.909 250.434V250.434C820.742 250.434 821.417 251.109 821.417 251.942V291.15C821.417 291.983 820.742 292.658 819.909 292.658V292.658ZM791.076 292.658C790.243 292.658 789.568 291.983 789.568 291.15V251.942C789.568 251.109 790.243 250.434 791.076 250.434V250.434C791.908 250.434 792.584 251.109 792.584 251.942V291.15C792.584 291.983 791.908 292.658 791.076 292.658V292.658ZM792.825 273.114C791.992 273.114 791.317 272.439 791.317 271.606V271.606C791.317 270.773 791.992 270.098 792.825 270.098H817.979C818.811 270.098 819.487 270.773 819.487 271.606V271.606C819.487 272.439 818.811 273.114 817.979 273.114H792.825Z" fill="#011445"/>
<path d="M840.977 293.261C837.961 293.261 835.266 292.578 832.894 291.21C830.561 289.843 828.732 287.933 827.405 285.48C826.077 283.027 825.414 280.172 825.414 276.914C825.414 274.542 825.776 272.37 826.5 270.4C827.264 268.429 828.309 266.72 829.636 265.272C830.963 263.785 832.552 262.638 834.402 261.834C836.292 261.03 838.343 260.628 840.554 260.628C842.726 260.628 844.676 260.99 846.406 261.714C848.175 262.437 849.663 263.483 850.869 264.85C852.076 266.177 852.98 267.766 853.584 269.616C854.187 271.425 854.448 273.436 854.368 275.648V275.648C854.334 276.557 853.587 277.276 852.678 277.276H829.033C828.267 277.276 827.646 276.655 827.646 275.889V275.889C827.646 275.123 828.267 274.501 829.033 274.501H851.701C852.029 274.501 852.176 274.913 851.922 275.121V275.121C851.694 275.307 851.352 275.145 851.352 274.851V274.14C851.352 272.531 850.95 270.922 850.145 269.314C849.381 267.705 848.195 266.358 846.586 265.272C844.978 264.187 842.947 263.644 840.494 263.644C838.202 263.644 836.151 264.146 834.341 265.152C832.572 266.157 831.164 267.625 830.119 269.555C829.114 271.485 828.611 273.878 828.611 276.733C828.611 279.468 829.114 281.861 830.119 283.911C831.124 285.922 832.572 287.491 834.462 288.616C836.392 289.702 838.745 290.245 841.52 290.245C843.007 290.245 844.536 290.004 846.104 289.521C847.347 289.139 848.717 288.402 850.214 287.312C850.875 286.83 851.813 286.954 852.283 287.624V287.624C852.684 288.195 852.611 288.978 852.07 289.418C851.402 289.962 850.66 290.48 849.844 290.969C848.637 291.653 847.29 292.216 845.802 292.658C844.314 293.06 842.706 293.261 840.977 293.261Z" fill="#011445"/>
<path d="M872.912 293.261C870.057 293.261 867.503 292.557 865.251 291.15C862.999 289.742 861.209 287.812 859.882 285.359C858.596 282.906 857.952 280.111 857.952 276.975C857.952 273.798 858.616 270.983 859.943 268.53C861.31 266.077 863.12 264.146 865.372 262.739C867.624 261.331 870.137 260.628 872.912 260.628C874.52 260.628 876.048 260.869 877.496 261.352C878.944 261.834 880.251 262.518 881.417 263.402C882.583 264.247 883.588 265.252 884.433 266.419C885.041 267.258 885.524 268.151 885.882 269.095C886.03 269.484 885.602 269.802 885.252 269.575V269.575C885.118 269.488 885.04 269.337 885.046 269.177L885.285 262.711C885.314 261.919 885.966 261.291 886.759 261.291V261.291C887.573 261.291 888.233 261.951 888.233 262.766V291.15C888.233 291.983 887.558 292.658 886.725 292.658V292.658C885.892 292.658 885.217 291.983 885.217 291.15V284.944C885.217 284.862 885.247 284.783 885.302 284.721V284.721C885.536 284.46 885.921 284.679 885.786 285.004C885.44 285.841 884.988 286.643 884.433 287.41C883.588 288.576 882.583 289.602 881.417 290.486C880.251 291.371 878.944 292.055 877.496 292.537C876.048 293.02 874.52 293.261 872.912 293.261ZM873.334 290.245C875.626 290.245 877.677 289.682 879.487 288.556C881.336 287.39 882.784 285.822 883.83 283.851C884.915 281.84 885.458 279.528 885.458 276.914C885.458 274.341 884.936 272.069 883.89 270.098C882.844 268.087 881.397 266.519 879.547 265.393C877.737 264.227 875.666 263.644 873.334 263.644C870.961 263.644 868.85 264.227 867 265.393C865.191 266.519 863.763 268.087 862.717 270.098C861.672 272.069 861.149 274.341 861.149 276.914C861.149 279.448 861.652 281.72 862.657 283.731C863.703 285.741 865.13 287.33 866.94 288.496C868.79 289.662 870.921 290.245 873.334 290.245Z" fill="#011445"/>
<path d="M896.952 292.658C896.12 292.658 895.444 291.983 895.444 291.15V249.529C895.444 248.696 896.12 248.021 896.952 248.021V248.021C897.785 248.021 898.46 248.696 898.46 249.529V291.15C898.46 291.983 897.785 292.658 896.952 292.658V292.658Z" fill="#011445"/>
<path d="M911.721 292.658C910.888 292.658 910.213 291.983 910.213 291.15V254.415C910.213 253.582 910.888 252.907 911.721 252.907V252.907C912.554 252.907 913.229 253.582 913.229 254.415V291.15C913.229 291.983 912.554 292.658 911.721 292.658V292.658ZM904.061 264.066C903.294 264.066 902.673 263.445 902.673 262.679V262.679C902.673 261.912 903.294 261.291 904.061 261.291H920.287C921.053 261.291 921.674 261.912 921.674 262.679V262.679C921.674 263.445 921.053 264.066 920.287 264.066H904.061Z" fill="#011445"/>
<path d="M926.702 292.658C926.102 292.658 925.616 292.172 925.616 291.572V249.529C925.616 248.696 926.291 248.021 927.124 248.021V248.021C927.957 248.021 928.632 248.696 928.632 249.529V268.467C928.632 268.508 928.62 268.548 928.598 268.583V268.583C928.467 268.79 928.188 268.667 928.27 268.436C928.753 267.072 929.477 265.877 930.442 264.85C931.688 263.483 933.136 262.437 934.785 261.714C936.474 260.99 938.163 260.628 939.851 260.628C942.264 260.628 944.255 261.09 945.823 262.015C947.432 262.94 948.618 264.368 949.382 266.298C950.146 268.228 950.528 270.681 950.528 273.657V291.15C950.528 291.983 949.853 292.658 949.02 292.658V292.658C948.187 292.658 947.512 291.983 947.512 291.15V273.778C947.512 271.445 947.211 269.535 946.607 268.047C946.004 266.519 945.079 265.393 943.833 264.669C942.626 263.905 941.078 263.523 939.188 263.523C937.7 263.523 936.313 263.805 935.026 264.368C933.739 264.89 932.613 265.614 931.648 266.539C930.723 267.464 929.979 268.53 929.416 269.736C928.893 270.902 928.632 272.149 928.632 273.476V291.15C928.632 291.983 927.957 292.658 927.124 292.658V292.658C927.084 292.658 926.943 292.658 926.702 292.658V292.658Z" fill="#011445"/>
<defs>
<linearGradient id="paint0_linear_1168_518" x1="256.758" y1="113.476" x2="1031.08" y2="113.476" gradientUnits="userSpaceOnUse">
<stop stop-color="#0A1C73"/>
<stop offset="1" stop-color="#4564FD"/>
</linearGradient>
<linearGradient id="paint1_linear_1168_518" x1="256.758" y1="113.476" x2="1031.08" y2="113.476" gradientUnits="userSpaceOnUse">
<stop stop-color="#0A1C73"/>
<stop offset="1" stop-color="#4564FD"/>
</linearGradient>
<linearGradient id="paint2_linear_1168_518" x1="256.758" y1="113.476" x2="1031.08" y2="113.476" gradientUnits="userSpaceOnUse">
<stop stop-color="#0A1C73"/>
<stop offset="1" stop-color="#4564FD"/>
</linearGradient>
<linearGradient id="paint3_linear_1168_518" x1="256.758" y1="113.476" x2="1031.08" y2="113.476" gradientUnits="userSpaceOnUse">
<stop stop-color="#0A1C73"/>
<stop offset="1" stop-color="#4564FD"/>
</linearGradient>
<linearGradient id="paint4_linear_1168_518" x1="256.758" y1="113.476" x2="1031.08" y2="113.476" gradientUnits="userSpaceOnUse">
<stop stop-color="#0A1C73"/>
<stop offset="1" stop-color="#4564FD"/>
</linearGradient>
<linearGradient id="paint5_linear_1168_518" x1="256.758" y1="113.476" x2="1031.08" y2="113.476" gradientUnits="userSpaceOnUse">
<stop stop-color="#0A1C73"/>
<stop offset="1" stop-color="#4564FD"/>
</linearGradient>
</defs>
</svg>
