<svg fill="none" height="86" viewBox="0 0 98 86" width="98" xmlns="http://www.w3.org/2000/svg" xmlns:xlink="http://www.w3.org/1999/xlink"><linearGradient id="a"><stop offset="0" stop-color="#02b0ff"/><stop offset="1" stop-color="#fff"/></linearGradient><linearGradient id="b" gradientUnits="userSpaceOnUse" x1="51.3438" x2="51.3438" xlink:href="#a" y1="1" y2="51.8938"/><linearGradient id="c" gradientUnits="userSpaceOnUse" x1="44.0355" x2="44.0355" xlink:href="#a" y1="-13.6045" y2="92.6737"/><path clip-rule="evenodd" d="m25.8969 1c-9.7138 0-17.58831 7.87454-17.58831 17.5883 0 9.7137 7.87451 17.5883 17.58831 17.5883h45.5222l9.2808 7.6962c.9756.809 2.4524.1152 2.4524-1.1522v-7.7298c6.5694-2.5497 11.2266-8.9322 11.2266-16.4025 0-9.71376-7.8745-17.5883-17.5883-17.5883z" fill="url(#b)" fill-rule="evenodd"/><path d="m18.0391 18.9624h66.6109" stroke="#fff" stroke-linecap="round" stroke-width="1.12266"/><path clip-rule="evenodd" d="m53.7652 41.7799c9.7138 0 17.5883 7.8746 17.5883 17.5883s-7.8745 17.5883-17.5883 17.5883h-29.8031l-9.2807 7.6962c-.9756.809-2.4524.1152-2.4524-1.1522v-7.729c-6.57044-2.5492-11.22862-8.9323-11.22862-16.4033 0-9.7137 7.87455-17.5883 17.58832-17.5883z" fill="url(#c)" fill-rule="evenodd"/><g fill="#02b0ff"><circle r="2.24531" transform="matrix(-1 0 0 1 49.6512 59.7426)"/><circle r="2.24531" transform="matrix(-1 0 0 1 36.1785 59.7426)"/><circle r="2.24531" transform="matrix(-1 0 0 1 22.7098 59.7426)"/></g></svg>