<?xml version="1.0" encoding="utf-8"?>
<!-- Generator: Adobe Illustrator 26.3.1, SVG Export Plug-In . SVG Version: 6.00 Build 0)  -->
<svg version="1.1" id="Capa_1" xmlns="http://www.w3.org/2000/svg" xmlns:xlink="http://www.w3.org/1999/xlink" x="0px" y="0px"
	 viewBox="0 0 98 86" style="enable-background:new 0 0 98 86;" xml:space="preserve">
<style type="text/css">
	.st0{fill:url(#SVGID_1_);}
	.st1{fill:url(#SVGID_00000035517889325714080620000013458927187579250345_);}
	.st2{opacity:0.5;}
	.st3{fill:#02B0FF;}
	.st4{fill:url(#SVGID_00000042002251535801617300000013101484361787910023_);}
	.st5{fill:url(#SVGID_00000179616701064362708820000001975879009591135662_);}
	.st6{opacity:0.3;}
	.st7{fill:url(#SVGID_00000126303968157547392960000008673255490565857979_);}
	.st8{fill:url(#SVGID_00000091724346477275701740000011764406383373432983_);}
	.st9{fill-rule:evenodd;clip-rule:evenodd;fill:#02B0FF;}
	.st10{fill:none;stroke:#FFFFFF;stroke-width:0.9648;stroke-linecap:square;}
</style>
<g>
	
		<linearGradient id="SVGID_1_" gradientUnits="userSpaceOnUse" x1="42.8109" y1="689.3862" x2="42.8109" y2="764.1812" gradientTransform="matrix(1 0 0 1 0 -680)">
		<stop  offset="0" style="stop-color:#02B0FF"/>
		<stop  offset="1" style="stop-color:#FFFFFF"/>
	</linearGradient>
	<path class="st0" d="M42.8,28.4c-8.1,0-14.6,6.5-14.6,14.6v10.5c0,8.1,6.5,14.6,14.6,14.6s14.6-6.5,14.6-14.6V43
		C57.4,35,50.9,28.4,42.8,28.4z"/>
	
		<linearGradient id="SVGID_00000181798649943975685290000011164148756502652800_" gradientUnits="userSpaceOnUse" x1="43.0109" y1="744.342" x2="43.0109" y2="771.8638" gradientTransform="matrix(1 0 0 1 0 -680)">
		<stop  offset="0" style="stop-color:#02B0FF"/>
		<stop  offset="1" style="stop-color:#FFFFFF"/>
	</linearGradient>
	<path style="fill:url(#SVGID_00000181798649943975685290000011164148756502652800_);" d="M36.6,71.3h12.8c7.6,0,13.9,5.9,14.6,13.4
		c0.1,0.7-0.5,1.3-1.2,1.3H23.2c-0.7,0-1.3-0.6-1.2-1.3C22.7,77.2,29,71.3,36.6,71.3z"/>
	<g class="st2">
		<path class="st3" d="M42.8,28.4c-8.1,0-14.6,6.5-14.6,14.6v10.5c0,8.1,6.5,14.6,14.6,14.6s14.6-6.5,14.6-14.6V43
			C57.4,35,50.9,28.4,42.8,28.4z"/>
		<path class="st3" d="M36.6,71.3h12.8c7.6,0,13.9,5.9,14.6,13.4c0.1,0.7-0.5,1.3-1.2,1.3H23.2c-0.7,0-1.3-0.6-1.2-1.3
			C22.7,77.2,29,71.3,36.6,71.3z"/>
	</g>
	
		<linearGradient id="SVGID_00000110443265750110990650000002383231969229101753_" gradientUnits="userSpaceOnUse" x1="31.8109" y1="689.3857" x2="31.8109" y2="764.1807" gradientTransform="matrix(1 0 0 1 0 -680)">
		<stop  offset="0" style="stop-color:#02B0FF"/>
		<stop  offset="1" style="stop-color:#FFFFFF"/>
	</linearGradient>
	<path style="fill:url(#SVGID_00000110443265750110990650000002383231969229101753_);" d="M31.8,28.4c-8.1,0-14.6,6.5-14.6,14.6
		v10.5c0,8.1,6.5,14.6,14.6,14.6s14.6-6.5,14.6-14.6V43C46.4,35,39.8,28.4,31.8,28.4z"/>
	
		<linearGradient id="SVGID_00000134972611022689356180000003574530871343477132_" gradientUnits="userSpaceOnUse" x1="32.0109" y1="744.3414" x2="32.0109" y2="771.8633" gradientTransform="matrix(1 0 0 1 0 -680)">
		<stop  offset="0" style="stop-color:#02B0FF"/>
		<stop  offset="1" style="stop-color:#FFFFFF"/>
	</linearGradient>
	<path style="fill:url(#SVGID_00000134972611022689356180000003574530871343477132_);" d="M25.6,71.3h12.8c7.6,0,13.9,5.9,14.6,13.4
		c0.1,0.7-0.5,1.3-1.2,1.3H12.2c-0.7,0-1.3-0.6-1.2-1.3C11.6,77.2,17.9,71.3,25.6,71.3z"/>
	<g class="st6">
		<path class="st3" d="M31.8,28.4c-8.1,0-14.6,6.5-14.6,14.6v10.5c0,8.1,6.5,14.6,14.6,14.6s14.6-6.5,14.6-14.6V43
			C46.4,35,39.8,28.4,31.8,28.4z"/>
		<path class="st3" d="M25.6,71.3h12.8c7.6,0,13.9,5.9,14.6,13.4c0.1,0.7-0.5,1.3-1.2,1.3H12.2c-0.7,0-1.3-0.6-1.2-1.3
			C11.6,77.2,17.9,71.3,25.6,71.3z"/>
	</g>
	
		<linearGradient id="SVGID_00000049206153291584244480000015699688373820569495_" gradientUnits="userSpaceOnUse" x1="20.7115" y1="689.3859" x2="20.7115" y2="764.1809" gradientTransform="matrix(1 0 0 1 0 -680)">
		<stop  offset="0" style="stop-color:#02B0FF"/>
		<stop  offset="1" style="stop-color:#FFFFFF"/>
	</linearGradient>
	<path style="fill:url(#SVGID_00000049206153291584244480000015699688373820569495_);" d="M20.7,28.4c-8,0-14.6,6.6-14.6,14.6v10.5
		c0,8.1,6.5,14.6,14.6,14.6s14.6-6.5,14.6-14.6V43C35.4,35,28.8,28.4,20.7,28.4z"/>
	
		<linearGradient id="SVGID_00000115473724543288550310000008144759565508757665_" gradientUnits="userSpaceOnUse" x1="20.9609" y1="744.3417" x2="20.9609" y2="771.8636" gradientTransform="matrix(1 0 0 1 0 -680)">
		<stop  offset="0" style="stop-color:#02B0FF"/>
		<stop  offset="1" style="stop-color:#FFFFFF"/>
	</linearGradient>
	<path style="fill:url(#SVGID_00000115473724543288550310000008144759565508757665_);" d="M14.5,71.3h12.8c7.6,0,13.9,5.9,14.6,13.4
		c0.1,0.7-0.5,1.3-1.2,1.3H1.2c-0.7,0-1.3-0.6-1.2-1.3C0.6,77.2,6.9,71.3,14.5,71.3z"/>
	<path class="st9" d="M61.7,36.5c-0.2,0.1-0.4-0.1-0.3-0.3l2.1-7.7c-4.5-7.2-3.6-16.7,2.6-22.9c7.2-7.2,19-7.2,26.2,0s7.2,19,0,26.2
		c-6.2,6.2-15.6,7.1-22.8,2.7L61.7,36.5z"/>
	<path class="st10" d="M73.4,20.2l3.5,4c0.4,0.4,1,0.4,1.3-0.1l7.4-12.3"/>
</g>
</svg>
