<svg width="18" height="19" viewBox="0 0 18 19" fill="none" xmlns="http://www.w3.org/2000/svg">
<mask id="mask0_1163_19374" style="mask-type:alpha" maskUnits="userSpaceOnUse" x="0" y="0" width="18" height="19">
<rect y="0.195312" width="18" height="18" fill="#D9D9D9"/>
</mask>
<g mask="url(#mask0_1163_19374)">
<path d="M9 12.1953L5.25 8.44531L6.3 7.35781L8.25 9.30781V3.19531H9.75V9.30781L11.7 7.35781L12.75 8.44531L9 12.1953ZM4.5 15.1953C4.0875 15.1953 3.73438 15.0484 3.44063 14.7547C3.14688 14.4609 3 14.1078 3 13.6953V11.4453H4.5V13.6953H13.5V11.4453H15V13.6953C15 14.1078 14.8531 14.4609 14.5594 14.7547C14.2656 15.0484 13.9125 15.1953 13.5 15.1953H4.5Z" fill="white"/>
</g>
</svg>
