<svg fill="none" height="86" viewBox="0 0 98 86" width="98" xmlns="http://www.w3.org/2000/svg" xmlns:xlink="http://www.w3.org/1999/xlink"><linearGradient id="a"><stop offset="0" stop-color="#02b0ff"/><stop offset="1" stop-color="#fff"/></linearGradient><linearGradient id="b" gradientUnits="userSpaceOnUse" x1="43.0319" x2="43.0319" xlink:href="#a" y1="9.60708" y2="82.9104"/><linearGradient id="c" gradientUnits="userSpaceOnUse" x1="43.2381" x2="43.2381" xlink:href="#a" y1="63.4667" y2="90.4397"/><linearGradient id="d" gradientUnits="userSpaceOnUse" x1="32.2174" x2="32.2174" xlink:href="#a" y1="9.60659" y2="82.9099"/><linearGradient id="e" gradientUnits="userSpaceOnUse" x1="32.4236" x2="32.4236" xlink:href="#a" y1="63.4665" y2="90.4394"/><linearGradient id="f" gradientUnits="userSpaceOnUse" x1="21.4069" x2="21.4069" xlink:href="#a" y1="9.60672" y2="82.91"/><linearGradient id="g" gradientUnits="userSpaceOnUse" x1="21.6131" x2="21.6131" xlink:href="#a" y1="63.4665" y2="90.4394"/><clipPath id="h"><path d="m0 0h98v86h-98z"/></clipPath><g clip-path="url(#h)"><path d="m43.0319 28.2664c-7.9107 0-14.3236 6.4128-14.3236 14.3235v10.2794c0 7.9107 6.4129 14.3236 14.3236 14.3236 7.9107 0 14.3236-6.4129 14.3236-14.3236v-10.2794c0-7.9107-6.4129-14.3235-14.3236-14.3235z" fill="url(#b)"/><path d="m36.9502 70.3326h12.5758c7.4969 0 13.6485 5.7595 14.2717 13.095.0574.6764-.4984 1.2286-1.1772 1.2286h-38.7648c-.6788 0-1.2346-.5522-1.1772-1.2286.6232-7.3355 6.7748-13.095 14.2717-13.095z" fill="url(#c)"/><g fill="#02b0ff" opacity=".5"><path d="m43.0319 28.2664c-7.9107 0-14.3236 6.4128-14.3236 14.3235v10.2794c0 7.9107 6.4129 14.3236 14.3236 14.3236 7.9107 0 14.3236-6.4129 14.3236-14.3236v-10.2794c0-7.9107-6.4129-14.3235-14.3236-14.3235z"/><path d="m36.9502 70.3326h12.5758c7.4969 0 13.6485 5.7595 14.2717 13.095.0574.6764-.4984 1.2286-1.1772 1.2286h-38.7648c-.6788 0-1.2346-.5522-1.1772-1.2286.6232-7.3355 6.7748-13.095 14.2717-13.095z"/></g><path d="m32.2174 28.2659c-7.9106 0-14.3235 6.4129-14.3235 14.3235v10.2794c0 7.9107 6.4129 14.3236 14.3235 14.3236 7.9107 0 14.3236-6.4129 14.3236-14.3236v-10.2794c0-7.9106-6.4129-14.3235-14.3236-14.3235z" fill="url(#d)"/><path d="m26.1357 70.3324h12.5759c7.4968 0 13.6484 5.7594 14.2716 13.095.0575.6764-.4983 1.2286-1.1772 1.2286h-38.7647c-.6789 0-1.2347-.5522-1.1772-1.2286.6231-7.3356 6.7748-13.095 14.2716-13.095z" fill="url(#e)"/><g fill="#02b0ff" opacity=".3"><path d="m32.2174 28.2659c-7.9106 0-14.3235 6.4129-14.3235 14.3235v10.2794c0 7.9107 6.4129 14.3236 14.3235 14.3236 7.9107 0 14.3236-6.4129 14.3236-14.3236v-10.2794c0-7.9106-6.4129-14.3235-14.3236-14.3235z"/><path d="m26.1357 70.3324h12.5759c7.4968 0 13.6484 5.7594 14.2716 13.095.0575.6764-.4983 1.2286-1.1772 1.2286h-38.7647c-.6789 0-1.2347-.5522-1.1772-1.2286.6231-7.3356 6.7748-13.095 14.2716-13.095z"/></g><path d="m21.4069 28.266c-7.9107 0-14.32357 6.4129-14.32357 14.3236v10.2794c0 7.9107 6.41287 14.3235 14.32357 14.3235 7.9107 0 14.3236-6.4128 14.3236-14.3235v-10.2794c0-7.9107-6.4129-14.3236-14.3236-14.3236z" fill="url(#f)"/><path d="m15.3252 70.3324h12.5758c7.4969 0 13.6485 5.7594 14.2717 13.095.0574.6764-.4984 1.2286-1.1772 1.2286h-38.76478c-.67883 0-1.234642-.5522-1.17718-1.2286.62316-7.3356 6.77479-13.095 14.27166-13.095z" fill="url(#g)"/><g clip-rule="evenodd" fill-rule="evenodd"><path d="m61.5814 36.1989c-.2065.0553-.3954-.1336-.3401-.3401l1.9909-7.4303c-4.0622-6.9524-3.113-16.0268 2.8477-21.98753 7.0897-7.089724 18.5844-7.089721 25.6742 0 7.0897 7.08973 7.0897 18.58443 0 25.67413-6.2697 6.2697-15.9844 6.9949-23.051 2.1755z" fill="#02b0ff"/><path d="m83.1343 17.1461c0 2.9087-2.3579 5.2666-5.2666 5.2666s-5.2666-2.3579-5.2666-5.2666c0-2.9086 2.3579-5.2666 5.2666-5.2666s5.2666 2.358 5.2666 5.2666zm-1.4156 4.7487c-1.0512.8536-2.3914 1.3651-3.851 1.3651-3.3766 0-6.1138-2.7372-6.1138-6.1138 0-3.3765 2.7372-6.1138 6.1138-6.1138 3.3765 0 6.1138 2.7373 6.1138 6.1138 0 1.6121-.6239 3.0784-1.6434 4.1707l5.0849 5.4393-.6188.5785z" fill="#fff"/></g></g></svg>