<svg width="24" height="25" viewBox="0 0 24 25" fill="none" xmlns="http://www.w3.org/2000/svg">
<mask id="mask0_924_26244" style="mask-type:alpha" maskUnits="userSpaceOnUse" x="0" y="0" width="24" height="25">
<rect y="0.5" width="24" height="24" fill="#D9D9D9"/>
</mask>
<g mask="url(#mask0_924_26244)">
<path d="M8 20.5V4.5H18V9.5H19C19.8333 9.5 20.5417 9.79167 21.125 10.375C21.7083 10.9583 22 11.6667 22 12.5V20.5H8ZM4.5 21.5C5.2 21.5 5.79167 21.2583 6.275 20.775C6.75833 20.2917 7 19.7 7 19V11C7 10.3 6.75833 9.70833 6.275 9.225C5.79167 8.74167 5.2 8.5 4.5 8.5C3.8 8.5 3.20833 8.74167 2.725 9.225C2.24167 9.70833 2 10.3 2 11V19C2 19.7 2.24167 20.2917 2.725 20.775C3.20833 21.2583 3.8 21.5 4.5 21.5ZM10 9.5H16V6.5H10V9.5ZM16 14.5C16.2833 14.5 16.5208 14.4042 16.7125 14.2125C16.9042 14.0208 17 13.7833 17 13.5C17 13.2167 16.9042 12.9792 16.7125 12.7875C16.5208 12.5958 16.2833 12.5 16 12.5C15.7167 12.5 15.4792 12.5958 15.2875 12.7875C15.0958 12.9792 15 13.2167 15 13.5C15 13.7833 15.0958 14.0208 15.2875 14.2125C15.4792 14.4042 15.7167 14.5 16 14.5ZM19 14.5C19.2833 14.5 19.5208 14.4042 19.7125 14.2125C19.9042 14.0208 20 13.7833 20 13.5C20 13.2167 19.9042 12.9792 19.7125 12.7875C19.5208 12.5958 19.2833 12.5 19 12.5C18.7167 12.5 18.4792 12.5958 18.2875 12.7875C18.0958 12.9792 18 13.2167 18 13.5C18 13.7833 18.0958 14.0208 18.2875 14.2125C18.4792 14.4042 18.7167 14.5 19 14.5ZM16 17.5C16.2833 17.5 16.5208 17.4042 16.7125 17.2125C16.9042 17.0208 17 16.7833 17 16.5C17 16.2167 16.9042 15.9792 16.7125 15.7875C16.5208 15.5958 16.2833 15.5 16 15.5C15.7167 15.5 15.4792 15.5958 15.2875 15.7875C15.0958 15.9792 15 16.2167 15 16.5C15 16.7833 15.0958 17.0208 15.2875 17.2125C15.4792 17.4042 15.7167 17.5 16 17.5ZM19 17.5C19.2833 17.5 19.5208 17.4042 19.7125 17.2125C19.9042 17.0208 20 16.7833 20 16.5C20 16.2167 19.9042 15.9792 19.7125 15.7875C19.5208 15.5958 19.2833 15.5 19 15.5C18.7167 15.5 18.4792 15.5958 18.2875 15.7875C18.0958 15.9792 18 16.2167 18 16.5C18 16.7833 18.0958 17.0208 18.2875 17.2125C18.4792 17.4042 18.7167 17.5 19 17.5ZM10 17.5H14V12.5H10V17.5Z" fill="#67728F"/>
</g>
</svg>
