<svg width="60" height="60" viewBox="0 0 60 60" fill="none" xmlns="http://www.w3.org/2000/svg">
<g filter="url(#filter0_b_1133_9107)">
<rect width="60" height="60" fill="white" fill-opacity="0.25"/>
<mask id="mask0_1133_9107" style="mask-type:alpha" maskUnits="userSpaceOnUse" x="12" y="12" width="36" height="36">
<rect x="12" y="12" width="36" height="36" fill="#D9D9D9"/>
</mask>
<g mask="url(#mask0_1133_9107)">
<path d="M37.5 45L37.05 42.75C36.75 42.625 36.4688 42.4938 36.2062 42.3563C35.9438 42.2188 35.675 42.05 35.4 41.85L33.225 42.525L31.725 39.975L33.45 38.475C33.4 38.175 33.375 37.85 33.375 37.5C33.375 37.15 33.4 36.825 33.45 36.525L31.725 35.025L33.225 32.475L35.4 33.15C35.675 32.95 35.9438 32.7812 36.2062 32.6437C36.4688 32.5062 36.75 32.375 37.05 32.25L37.5 30H40.5L40.95 32.25C41.25 32.375 41.5313 32.5062 41.7938 32.6437C42.0563 32.7812 42.325 32.95 42.6 33.15L44.775 32.475L46.275 35.025L44.55 36.525C44.6 36.825 44.625 37.15 44.625 37.5C44.625 37.85 44.6 38.175 44.55 38.475L46.275 39.975L44.775 42.525L42.6 41.85C42.325 42.05 42.0563 42.2188 41.7938 42.3563C41.5313 42.4938 41.25 42.625 40.95 42.75L40.5 45H37.5ZM39 40.5C39.825 40.5 40.5312 40.2063 41.1188 39.6188C41.7063 39.0312 42 38.325 42 37.5C42 36.675 41.7063 35.9688 41.1188 35.3813C40.5312 34.7938 39.825 34.5 39 34.5C38.175 34.5 37.4688 34.7938 36.8813 35.3813C36.2938 35.9688 36 36.675 36 37.5C36 38.325 36.2938 39.0312 36.8813 39.6188C37.4688 40.2063 38.175 40.5 39 40.5ZM18 42C17.175 42 16.4688 41.7063 15.8813 41.1188C15.2938 40.5312 15 39.825 15 39V21C15 20.175 15.2938 19.4688 15.8813 18.8813C16.4688 18.2938 17.175 18 18 18H27L30 21H42C42.825 21 43.5312 21.2938 44.1188 21.8813C44.7063 22.4688 45 23.175 45 24V28.9125C44.125 28.2875 43.175 27.8125 42.15 27.4875C41.125 27.1625 40.0625 27 38.9625 27C36.0125 27 33.5312 28.0312 31.5187 30.0938C29.5062 32.1562 28.5 34.6125 28.5 37.4625C28.5 38.2625 28.5875 39.0375 28.7625 39.7875C28.9375 40.5375 29.2 41.275 29.55 42H18Z" fill="white"/>
</g>
</g>
<defs>
<filter id="filter0_b_1133_9107" x="-4.8" y="-4.8" width="69.6" height="69.6" filterUnits="userSpaceOnUse" color-interpolation-filters="sRGB">
<feFlood flood-opacity="0" result="BackgroundImageFix"/>
<feGaussianBlur in="BackgroundImageFix" stdDeviation="2.4"/>
<feComposite in2="SourceAlpha" operator="in" result="effect1_backgroundBlur_1133_9107"/>
<feBlend mode="normal" in="SourceGraphic" in2="effect1_backgroundBlur_1133_9107" result="shape"/>
</filter>
</defs>
</svg>
