<svg width="60" height="60" viewBox="0 0 60 60" fill="none" xmlns="http://www.w3.org/2000/svg">
<g filter="url(#filter0_b_924_26158)">
<rect width="60" height="60" fill="#E8EAF5" fill-opacity="0.1"/>
<mask id="mask0_924_26158" style="mask-type:alpha" maskUnits="userSpaceOnUse" x="12" y="12" width="36" height="36">
<rect x="12" y="12" width="36" height="36" fill="#D9D9D9"/>
</mask>
<g mask="url(#mask0_924_26158)">
<path d="M18 40.4988V37.4988H21V26.9988C21 24.9238 21.625 23.0801 22.875 21.4676C24.125 19.8551 25.75 18.7988 27.75 18.2988V17.2488C27.75 16.6238 27.9688 16.0926 28.4062 15.6551C28.8438 15.2176 29.375 14.9988 30 14.9988C30.625 14.9988 31.1562 15.2176 31.5938 15.6551C32.0312 16.0926 32.25 16.6238 32.25 17.2488V18.2988C34.25 18.7988 35.875 19.8551 37.125 21.4676C38.375 23.0801 39 24.9238 39 26.9988V37.4988H42V40.4988H18ZM30 44.9988C29.175 44.9988 28.4688 44.7051 27.8813 44.1176C27.2938 43.5301 27 42.8238 27 41.9988H33C33 42.8238 32.7063 43.5301 32.1188 44.1176C31.5312 44.7051 30.825 44.9988 30 44.9988ZM15 26.9988C15 24.4988 15.5563 22.2051 16.6688 20.1176C17.7812 18.0301 19.275 16.2988 21.15 14.9238L22.9125 17.3238C21.4125 18.4238 20.2188 19.8113 19.3313 21.4863C18.4438 23.1613 18 24.9988 18 26.9988H15ZM42 26.9988C42 24.9988 41.5563 23.1613 40.6688 21.4863C39.7813 19.8113 38.5875 18.4238 37.0875 17.3238L38.85 14.9238C40.725 16.2988 42.2188 18.0301 43.3313 20.1176C44.4438 22.2051 45 24.4988 45 26.9988H42Z" fill="#E8EAF5"/>
</g>
</g>
<defs>
<filter id="filter0_b_924_26158" x="-4.8" y="-4.8" width="69.6" height="69.6" filterUnits="userSpaceOnUse" color-interpolation-filters="sRGB">
<feFlood flood-opacity="0" result="BackgroundImageFix"/>
<feGaussianBlur in="BackgroundImageFix" stdDeviation="2.4"/>
<feComposite in2="SourceAlpha" operator="in" result="effect1_backgroundBlur_924_26158"/>
<feBlend mode="normal" in="SourceGraphic" in2="effect1_backgroundBlur_924_26158" result="shape"/>
</filter>
</defs>
</svg>
