<svg fill="none" height="86" viewBox="0 0 98 86" width="98" xmlns="http://www.w3.org/2000/svg" xmlns:xlink="http://www.w3.org/1999/xlink"><filter id="a" color-interpolation-filters="sRGB" filterUnits="userSpaceOnUse" height="175.324" width="187.265" x="-44.6327" y="-34.1315"><feFlood flood-opacity="0" result="BackgroundImageFix"/><feColorMatrix in="SourceAlpha" result="hardAlpha" type="matrix" values="0 0 0 0 0 0 0 0 0 0 0 0 0 0 0 0 0 0 127 0"/><feMorphology in="SourceAlpha" operator="erode" radius="10.5306" result="effect1_dropShadow_907_4522"/><feOffset dy="10.5306"/><feGaussianBlur stdDeviation="28.0816"/><feComposite in2="hardAlpha" operator="out"/><feColorMatrix type="matrix" values="0 0 0 0 0.109804 0 0 0 0 0.258824 0 0 0 0 0.988235 0 0 0 0.2 0"/><feBlend in2="BackgroundImageFix" mode="normal" result="effect1_dropShadow_907_4522"/><feBlend in="SourceGraphic" in2="effect1_dropShadow_907_4522" mode="normal" result="shape"/></filter><linearGradient id="b" gradientUnits="userSpaceOnUse" x1="40.1618" x2="40.1618" y1=".970581" y2="102.469"><stop offset="0" stop-color="#02b0ff"/><stop offset="1" stop-color="#fff"/></linearGradient><linearGradient id="c" gradientUnits="userSpaceOnUse" x1="68.7511" x2="68.7511" y1="115.389" y2="25.2829"><stop offset="0" stop-color="#fff"/><stop offset="1" stop-color="#02b0ff"/></linearGradient><clipPath id="d"><path d="m0 0h98v86h-98z"/></clipPath><g clip-path="url(#d)"><g filter="url(#a)"><path d="m78.7473 47.5443-4.8152-6.325c-.3595-.468-.5521-1.0879-.5521-1.6825 0-.5945.1798-1.1385.5393-1.6192l4.828-6.3376c.5393-.6958.7062-1.6066.4751-2.4541-.8988-3.3017-2.2342-6.4768-3.9677-9.437-.4494-.759-1.2198-1.2776-2.093-1.4041l-7.9482-1.1132c-.5907-.0886-1.13-.3542-1.5537-.7717-.4237-.4048-.6934-.9487-.7833-1.518l-1.1299-7.84299c-.1284-.8602-.642-1.63185-1.4125-2.06195-3.0046-1.70776-6.2276-3.02336-9.5789-3.90886-.8603-.227703-1.772-.0506-2.4911.46805l-6.3688 4.70581c-.5008.36685-1.1043.5566-1.7335.5566-.6163 0-1.2326-.1771-1.7334-.54395l-6.356-4.70581c-.7062-.5313-1.6308-.695753-2.4911-.46805-3.3513.8855-6.5743 2.2011-9.5789 3.90886-.7704.44275-1.2969 1.20175-1.4253 2.06195l-1.1428 7.86834c-.077.5692-.3595 1.1005-.7704 1.5053s-.9502.6705-1.528.759l-7.98677 1.1259c-.87315.1265-1.65642.6325-2.09299 1.3915-1.72062 2.9601-3.05602 6.1479-3.95485 9.4496-.231128.8475-.05136 1.7457.4751 2.4541l4.81515 6.325c.35953.468.55214 1.0879.55214 1.6824 0 .5946-.17977 1.1386-.5393 1.6193l-4.82799 6.3123c-.5393.6958-.706228 1.6066-.4751 2.4541.89883 3.3017 2.23423 6.4768 3.96769 9.4369.44941.7591 1.21984 1.2777 2.09299 1.4042l7.98673 1.1259c.5778.0759 1.1171.3542 1.528.759s.6806.9361.7704 1.5053l1.1428 7.8683c.1284.8602.6421 1.6319 1.4125 2.062 3.0046 1.7077 6.2276 3.0233 9.5789 3.9088.244.0633.5008.1013.7448.1013.6163 0 1.2327-.1898 1.7334-.5693l6.3689-4.7058c.5008-.3669 1.1043-.544 1.7334-.544.6292 0 1.2327.1771 1.7207.544l6.3688 4.7058c.7062.5313 1.6307.6957 2.491.468 3.3514-.8855 6.5743-2.2011 9.579-3.9088.7704-.4428 1.2969-1.2018 1.4253-2.062l1.1428-7.8683c.077-.5692.3724-1.1132.7832-1.518.4109-.4048.9246-.6578 1.5024-.7337l7.9867-1.1258c.8732-.1265 1.6564-.6325 2.093-1.3915 1.7335-2.9602 3.0689-6.1353 3.9677-9.437.2311-.8475.0513-1.7457-.4751-2.4414zm-38.5855 14.7879c-12.7633 0-23.1127-10.1959-23.1127-22.7701 0-12.5741 10.3494-22.77 23.1127-22.77 12.7634 0 23.1128 10.1959 23.1128 22.77 0 12.5742-10.3494 22.7701-23.1128 22.7701z" fill="url(#b)"/><path d="m40.9179 51.4498 3.4734 4.5603c.2593.3375.3983.7844.3983 1.2131 0 .4286-.1297.8208-.3891 1.1674l-3.4826 4.5694c-.389.5016-.5094 1.1583-.3427 1.7694.6484 2.3805 1.6117 4.6697 2.8621 6.8039.3242.5473.8799.9212 1.5097 1.0124l5.7334.8026c.426.0639.8151.2554 1.1207.5564.3057.2918.5002.684.565 1.0944l.8151 5.6548c.0926.6202.4631 1.1765 1.0188 1.4866 2.1674 1.2313 4.4922 2.1799 6.9097 2.8183.6206.1642 1.2782.0365 1.7969-.3375l4.5941-3.3928c.3612-.2645.7965-.4013 1.2504-.4013.4446 0 .8892.1277 1.2504.3922l4.5848 3.3928c.5094.3831 1.1763.5017 1.7969.3375 2.4175-.6385 4.7423-1.587 6.9097-2.8183.5557-.3192.9355-.8664 1.0281-1.4866l.8243-5.673c.0556-.4104.2594-.7935.5558-1.0854.2963-.2918.6854-.4834 1.1022-.5472l5.7611-.8117c.6298-.0912 1.1948-.4561 1.5098-1.0033 1.2411-2.1342 2.2044-4.4326 2.8527-6.813.1668-.6111.0371-1.2587-.3427-1.7694l-3.4733-4.5603c-.2594-.3375-.3983-.7844-.3983-1.2131 0-.4286.1297-.8208.389-1.1674l3.4826-4.5511c.3891-.5017.5095-1.1584.3427-1.7694-.6483-2.3805-1.6116-4.6698-2.862-6.804-.3242-.5472-.8799-.9212-1.5098-1.0124l-5.7611-.8117c-.4168-.0547-.8058-.2554-1.1022-.5472-.2964-.2919-.4909-.6749-.5557-1.0854l-.8244-5.673c-.0926-.6202-.4631-1.1765-1.0188-1.4866-2.1674-1.2313-4.4922-2.1798-6.9097-2.8183-.176-.0456-.3612-.0729-.5372-.0729-.4446 0-.8892.1368-1.2504.4104l-4.5941 3.3928c-.3612.2645-.7966.3922-1.2504.3922-.4539 0-.8892-.1277-1.2412-.3922l-4.594-3.3928c-.5095-.3831-1.1764-.5016-1.7969-.3375-2.4175.6385-4.7423 1.587-6.9097 2.8183-.5557.3192-.9355.8664-1.0281 1.4866l-.8244 5.673c-.0555.4104-.2686.8026-.565 1.0945-.2963.2918-.6668.4743-1.0836.529l-5.7612.8117c-.6298.0912-1.1948.456-1.5097 1.0033-1.2504 2.1342-2.2137 4.4234-2.8621 6.8039-.1667.6111-.037 1.2587.3427 1.7603zm27.8332-10.6619c9.2067 0 16.6721 7.3512 16.6721 16.417 0 9.0659-7.4654 16.417-16.6721 16.417s-16.6721-7.3511-16.6721-16.417c0-9.0658 7.4654-16.417 16.6721-16.417z" fill="url(#c)"/></g></g></svg>