<svg width="60" height="60" viewBox="0 0 60 60" fill="none" xmlns="http://www.w3.org/2000/svg">
<g filter="url(#filter0_b_882_13155)">
<rect width="60" height="60" fill="#011445" fill-opacity="0.1"/>
<mask id="mask0_882_13155" style="mask-type:alpha" maskUnits="userSpaceOnUse" x="12" y="12" width="36" height="36">
<rect x="12" y="12" width="36" height="36" fill="#D9D9D9"/>
</mask>
<g mask="url(#mask0_882_13155)">
<path d="M25.8738 45L25.2738 40.2C24.9488 40.075 24.6426 39.925 24.3551 39.75C24.0676 39.575 23.7863 39.3875 23.5113 39.1875L19.0488 41.0625L14.9238 33.9375L18.7863 31.0125C18.7613 30.8375 18.7488 30.6688 18.7488 30.5063V29.4938C18.7488 29.3313 18.7613 29.1625 18.7863 28.9875L14.9238 26.0625L19.0488 18.9375L23.5113 20.8125C23.7863 20.6125 24.0738 20.425 24.3738 20.25C24.6738 20.075 24.9738 19.925 25.2738 19.8L25.8738 15H34.1238L34.7238 19.8C35.0488 19.925 35.3551 20.075 35.6426 20.25C35.9301 20.425 36.2113 20.6125 36.4863 20.8125L40.9488 18.9375L45.0738 26.0625L41.2113 28.9875C41.2363 29.1625 41.2488 29.3313 41.2488 29.4938V30.5063C41.2488 30.6688 41.2238 30.8375 41.1738 31.0125L45.0363 33.9375L40.9113 41.0625L36.4863 39.1875C36.2113 39.3875 35.9238 39.575 35.6238 39.75C35.3238 39.925 35.0238 40.075 34.7238 40.2L34.1238 45H25.8738ZM30.0738 35.25C31.5238 35.25 32.7613 34.7375 33.7863 33.7125C34.8113 32.6875 35.3238 31.45 35.3238 30C35.3238 28.55 34.8113 27.3125 33.7863 26.2875C32.7613 25.2625 31.5238 24.75 30.0738 24.75C28.5988 24.75 27.3551 25.2625 26.3426 26.2875C25.3301 27.3125 24.8238 28.55 24.8238 30C24.8238 31.45 25.3301 32.6875 26.3426 33.7125C27.3551 34.7375 28.5988 35.25 30.0738 35.25Z" fill="#011445"/>
</g>
</g>
<defs>
<filter id="filter0_b_882_13155" x="-4.8" y="-4.8" width="69.6" height="69.6" filterUnits="userSpaceOnUse" color-interpolation-filters="sRGB">
<feFlood flood-opacity="0" result="BackgroundImageFix"/>
<feGaussianBlur in="BackgroundImageFix" stdDeviation="2.4"/>
<feComposite in2="SourceAlpha" operator="in" result="effect1_backgroundBlur_882_13155"/>
<feBlend mode="normal" in="SourceGraphic" in2="effect1_backgroundBlur_882_13155" result="shape"/>
</filter>
</defs>
</svg>
