<svg width="60" height="60" viewBox="0 0 60 60" fill="none" xmlns="http://www.w3.org/2000/svg">
<g filter="url(#filter0_b_999_17527)">
<rect width="60" height="60" fill="#1A2C58"/>
<mask id="mask0_999_17527" style="mask-type:alpha" maskUnits="userSpaceOnUse" x="12" y="12" width="36" height="36">
<rect x="12" y="12" width="36" height="36" fill="#D9D9D9"/>
</mask>
<g mask="url(#mask0_999_17527)">
<path d="M28.423 35.325L36.898 26.85L34.7605 24.7125L28.423 31.05L25.273 27.9L23.1355 30.0375L28.423 35.325ZM29.998 45C26.523 44.125 23.6543 42.1313 21.3918 39.0188C19.1293 35.9062 17.998 32.45 17.998 28.65V19.5L29.998 15L41.998 19.5V28.65C41.998 32.45 40.8668 35.9062 38.6043 39.0188C36.3418 42.1313 33.473 44.125 29.998 45Z" fill="#D28CF6"/>
</g>
</g>
<defs>
<filter id="filter0_b_999_17527" x="-4.8" y="-4.8" width="69.6" height="69.6" filterUnits="userSpaceOnUse" color-interpolation-filters="sRGB">
<feFlood flood-opacity="0" result="BackgroundImageFix"/>
<feGaussianBlur in="BackgroundImageFix" stdDeviation="2.4"/>
<feComposite in2="SourceAlpha" operator="in" result="effect1_backgroundBlur_999_17527"/>
<feBlend mode="normal" in="SourceGraphic" in2="effect1_backgroundBlur_999_17527" result="shape"/>
</filter>
</defs>
</svg>
