<svg fill="none" height="86" viewBox="0 0 98 86" width="98" xmlns="http://www.w3.org/2000/svg" xmlns:xlink="http://www.w3.org/1999/xlink"><filter id="a" color-interpolation-filters="sRGB" filterUnits="userSpaceOnUse" height="156.953" width="169.443" x="-35.6623" y="-27.1149"><feFlood flood-opacity="0" result="BackgroundImageFix"/><feColorMatrix in="SourceAlpha" result="hardAlpha" type="matrix" values="0 0 0 0 0 0 0 0 0 0 0 0 0 0 0 0 0 0 127 0"/><feMorphology in="SourceAlpha" operator="erode" radius="8.47158" result="effect1_dropShadow_907_4574"/><feOffset dy="8.47158"/><feGaussianBlur stdDeviation="22.5909"/><feComposite in2="hardAlpha" operator="out"/><feColorMatrix type="matrix" values="0 0 0 0 0.109804 0 0 0 0 0.258824 0 0 0 0 0.988235 0 0 0 0.2 0"/><feBlend in2="BackgroundImageFix" mode="normal" result="effect1_dropShadow_907_4574"/><feBlend in="SourceGraphic" in2="effect1_dropShadow_907_4574" mode="normal" result="shape"/></filter><filter id="b" color-interpolation-filters="sRGB" filterUnits="userSpaceOnUse" height="109.729" width="109.729" x="24.0515" y="-27.1149"><feFlood flood-opacity="0" result="BackgroundImageFix"/><feColorMatrix in="SourceAlpha" result="hardAlpha" type="matrix" values="0 0 0 0 0 0 0 0 0 0 0 0 0 0 0 0 0 0 127 0"/><feMorphology in="SourceAlpha" operator="erode" radius="8.47158" result="effect1_dropShadow_907_4574"/><feOffset dy="8.47158"/><feGaussianBlur stdDeviation="22.5909"/><feComposite in2="hardAlpha" operator="out"/><feColorMatrix type="matrix" values="0 0 0 0 0.109804 0 0 0 0 0.258824 0 0 0 0 0.988235 0 0 0 0.2 0"/><feBlend in2="BackgroundImageFix" mode="normal" result="effect1_dropShadow_907_4574"/><feBlend in="SourceGraphic" in2="effect1_dropShadow_907_4574" mode="normal" result="shape"/></filter><linearGradient id="c"><stop offset="0" stop-color="#02b0ff"/><stop offset="1" stop-color="#fff"/></linearGradient><linearGradient id="d" gradientUnits="userSpaceOnUse" x1="43.0309" x2="43.0309" xlink:href="#c" y1="9.60708" y2="82.9104"/><linearGradient id="e" gradientUnits="userSpaceOnUse" x1="43.2371" x2="43.2371" xlink:href="#c" y1="63.4667" y2="90.4397"/><linearGradient id="f" gradientUnits="userSpaceOnUse" x1="32.2155" x2="32.2155" xlink:href="#c" y1="9.60659" y2="82.9099"/><linearGradient id="g" gradientUnits="userSpaceOnUse" x1="32.4217" x2="32.4217" xlink:href="#c" y1="63.4664" y2="90.4394"/><linearGradient id="h" gradientUnits="userSpaceOnUse" x1="21.4049" x2="21.4049" xlink:href="#c" y1="9.60672" y2="82.91"/><linearGradient id="i" gradientUnits="userSpaceOnUse" x1="21.6111" x2="21.6111" xlink:href="#c" y1="63.4665" y2="90.4394"/><clipPath id="j"><path d="m0 0h98v86h-98z"/></clipPath><g clip-path="url(#j)"><g filter="url(#a)"><path d="m43.0309 28.2664c-7.9107 0-14.3235 6.4128-14.3235 14.3235v10.2794c0 7.9107 6.4128 14.3236 14.3235 14.3236 7.9107 0 14.3236-6.4129 14.3236-14.3236v-10.2794c0-7.9107-6.4129-14.3235-14.3236-14.3235z" fill="url(#d)"/><path d="m36.9492 70.3326h12.5759c7.4968 0 13.6484 5.7595 14.2716 13.095.0574.6764-.4984 1.2286-1.1772 1.2286h-38.7648c-.6788 0-1.2346-.5522-1.1771-1.2286.6231-7.3355 6.7748-13.095 14.2716-13.095z" fill="url(#e)"/><g fill="#02b0ff" opacity=".5"><path d="m43.0309 28.2664c-7.9107 0-14.3235 6.4128-14.3235 14.3235v10.2794c0 7.9107 6.4128 14.3236 14.3235 14.3236 7.9107 0 14.3236-6.4129 14.3236-14.3236v-10.2794c0-7.9107-6.4129-14.3235-14.3236-14.3235z"/><path d="m36.9492 70.3326h12.5759c7.4968 0 13.6484 5.7595 14.2716 13.095.0574.6764-.4984 1.2286-1.1772 1.2286h-38.7648c-.6788 0-1.2346-.5522-1.1771-1.2286.6231-7.3355 6.7748-13.095 14.2716-13.095z"/></g><path d="m32.2153 28.2659c-7.9107 0-14.3236 6.4129-14.3236 14.3236v10.2794c0 7.9107 6.4129 14.3236 14.3236 14.3236 7.9107 0 14.3235-6.4129 14.3235-14.3236v-10.2794c0-7.9107-6.4128-14.3236-14.3235-14.3236z" fill="url(#f)"/><path d="m26.1338 70.3323h12.5758c7.4968 0 13.6485 5.7595 14.2716 13.095.0575.6764-.4983 1.2286-1.1771 1.2286h-38.7648c-.6788 0-1.2346-.5522-1.1772-1.2286.6232-7.3355 6.7748-13.095 14.2717-13.095z" fill="url(#g)"/><g fill="#02b0ff" opacity=".3"><path d="m32.2153 28.2659c-7.9107 0-14.3236 6.4129-14.3236 14.3236v10.2794c0 7.9107 6.4129 14.3236 14.3236 14.3236 7.9107 0 14.3235-6.4129 14.3235-14.3236v-10.2794c0-7.9107-6.4128-14.3236-14.3235-14.3236z"/><path d="m26.1338 70.3323h12.5758c7.4968 0 13.6485 5.7595 14.2716 13.095.0575.6764-.4983 1.2286-1.1771 1.2286h-38.7648c-.6788 0-1.2346-.5522-1.1772-1.2286.6232-7.3355 6.7748-13.095 14.2717-13.095z"/></g><path d="m21.4049 28.266c-7.9106 0-14.32352 6.4129-14.32352 14.3236v10.2794c0 7.9107 6.41292 14.3235 14.32352 14.3235 7.9107 0 14.3236-6.4128 14.3236-14.3235v-10.2794c0-7.9107-6.4129-14.3236-14.3236-14.3236z" fill="url(#h)"/><path d="m15.3232 70.3324h12.5759c7.4968 0 13.6484 5.7594 14.2716 13.095.0575.6764-.4983 1.2286-1.1772 1.2286h-38.76473c-.67884 0-1.234645-.5522-1.17718-1.2286.62315-7.3356 6.77479-13.095 14.27161-13.095z" fill="url(#i)"/><g clip-rule="evenodd" fill-rule="evenodd" filter="url(#b)"><path d="m61.5805 36.1989c-.2065.0553-.3955-.1336-.3402-.3401l1.9909-7.4303c-4.0622-6.9524-3.113-16.0268 2.8477-21.98753 7.0898-7.089724 18.5845-7.089721 25.6742 0 7.0897 7.08973 7.0897 18.58443 0 25.67413-6.2697 6.2697-15.9844 6.9949-23.051 2.1755z" fill="#02b0ff"/><path d="m83.1353 17.1461c0 2.9087-2.358 5.2666-5.2666 5.2666-2.9087 0-5.2667-2.3579-5.2667-5.2666 0-2.9086 2.358-5.2666 5.2667-5.2666 2.9086 0 5.2666 2.358 5.2666 5.2666zm-1.4156 4.7487c-1.0512.8536-2.3914 1.3651-3.851 1.3651-3.3766 0-6.1138-2.7372-6.1138-6.1138 0-3.3765 2.7372-6.1138 6.1138-6.1138 3.3765 0 6.1137 2.7373 6.1137 6.1138 0 1.6121-.6239 3.0784-1.6434 4.1707l5.085 5.4393-.6189.5785z" fill="#fff"/></g></g></g></svg>