<svg width="61" height="60" viewBox="0 0 61 60" fill="none" xmlns="http://www.w3.org/2000/svg">
<g filter="url(#filter0_b_1133_9098)">
<rect width="60" height="60" transform="translate(0.332031)" fill="white" fill-opacity="0.25"/>
<mask id="mask0_1133_9098" style="mask-type:alpha" maskUnits="userSpaceOnUse" x="12" y="12" width="37" height="36">
<rect x="12.332" y="12" width="36" height="36" fill="#D9D9D9"/>
</mask>
<g mask="url(#mask0_1133_9098)">
<path d="M28.982 40.5H31.607V38.625C32.857 38.4 33.932 37.9125 34.832 37.1625C35.732 36.4125 36.182 35.3 36.182 33.825C36.182 32.775 35.882 31.8125 35.282 30.9375C34.682 30.0625 33.482 29.3 31.682 28.65C30.182 28.15 29.1445 27.7125 28.5695 27.3375C27.9945 26.9625 27.707 26.45 27.707 25.8C27.707 25.15 27.9383 24.6375 28.4008 24.2625C28.8633 23.8875 29.532 23.7 30.407 23.7C31.207 23.7 31.832 23.8938 32.282 24.2812C32.732 24.6687 33.057 25.15 33.257 25.725L35.657 24.75C35.382 23.875 34.8758 23.1125 34.1383 22.4625C33.4008 21.8125 32.582 21.45 31.682 21.375V19.5H29.057V21.375C27.807 21.65 26.832 22.2 26.132 23.025C25.432 23.85 25.082 24.775 25.082 25.8C25.082 26.975 25.4258 27.925 26.1133 28.65C26.8008 29.375 27.882 30 29.357 30.525C30.932 31.1 32.0258 31.6125 32.6383 32.0625C33.2508 32.5125 33.557 33.1 33.557 33.825C33.557 34.65 33.2633 35.2563 32.6758 35.6437C32.0883 36.0312 31.382 36.225 30.557 36.225C29.732 36.225 29.0008 35.9688 28.3633 35.4562C27.7258 34.9438 27.257 34.175 26.957 33.15L24.482 34.125C24.832 35.325 25.3758 36.2938 26.1133 37.0312C26.8508 37.7687 27.807 38.275 28.982 38.55V40.5ZM30.332 45C28.257 45 26.307 44.6062 24.482 43.8187C22.657 43.0312 21.0695 41.9625 19.7195 40.6125C18.3695 39.2625 17.3008 37.675 16.5133 35.85C15.7258 34.025 15.332 32.075 15.332 30C15.332 27.925 15.7258 25.975 16.5133 24.15C17.3008 22.325 18.3695 20.7375 19.7195 19.3875C21.0695 18.0375 22.657 16.9688 24.482 16.1813C26.307 15.3937 28.257 15 30.332 15C32.407 15 34.357 15.3937 36.182 16.1813C38.007 16.9688 39.5945 18.0375 40.9445 19.3875C42.2945 20.7375 43.3633 22.325 44.1508 24.15C44.9383 25.975 45.332 27.925 45.332 30C45.332 32.075 44.9383 34.025 44.1508 35.85C43.3633 37.675 42.2945 39.2625 40.9445 40.6125C39.5945 41.9625 38.007 43.0312 36.182 43.8187C34.357 44.6062 32.407 45 30.332 45Z" fill="white"/>
</g>
</g>
<defs>
<filter id="filter0_b_1133_9098" x="-4.46797" y="-4.8" width="69.6" height="69.6" filterUnits="userSpaceOnUse" color-interpolation-filters="sRGB">
<feFlood flood-opacity="0" result="BackgroundImageFix"/>
<feGaussianBlur in="BackgroundImageFix" stdDeviation="2.4"/>
<feComposite in2="SourceAlpha" operator="in" result="effect1_backgroundBlur_1133_9098"/>
<feBlend mode="normal" in="SourceGraphic" in2="effect1_backgroundBlur_1133_9098" result="shape"/>
</filter>
</defs>
</svg>
