<svg width="60" height="60" viewBox="0 0 60 60" fill="none" xmlns="http://www.w3.org/2000/svg">
<g filter="url(#filter0_b_1163_19440)">
<rect width="60" height="60" fill="#F8EFFE"/>
<mask id="mask0_1163_19440" style="mask-type:alpha" maskUnits="userSpaceOnUse" x="12" y="12" width="36" height="36">
<rect x="12" y="12" width="36" height="36" fill="#D9D9D9"/>
</mask>
<g mask="url(#mask0_1163_19440)">
<path d="M28.875 32.25C29.825 32.25 30.625 31.925 31.275 31.275C31.925 30.625 32.25 29.825 32.25 28.875C32.25 27.925 31.925 27.125 31.275 26.475C30.625 25.825 29.825 25.5 28.875 25.5C27.925 25.5 27.125 25.825 26.475 26.475C25.825 27.125 25.5 27.925 25.5 28.875C25.5 29.825 25.825 30.625 26.475 31.275C27.125 31.925 27.925 32.25 28.875 32.25ZM36.1125 38.25L32.175 34.3125C31.675 34.6375 31.1437 34.875 30.5812 35.025C30.0187 35.175 29.45 35.25 28.875 35.25C27.1 35.25 25.5938 34.6313 24.3563 33.3937C23.1188 32.1562 22.5 30.65 22.5 28.875C22.5 27.1 23.1188 25.5938 24.3563 24.3563C25.5938 23.1188 27.1 22.5 28.875 22.5C30.65 22.5 32.1562 23.1188 33.3937 24.3563C34.6313 25.5938 35.25 27.1 35.25 28.875C35.25 29.45 35.1688 30.0187 35.0063 30.5812C34.8438 31.1437 34.6 31.675 34.275 32.175L38.25 36.15L36.1125 38.25ZM19.5 43.5C18.675 43.5 17.9688 43.2063 17.3813 42.6188C16.7938 42.0312 16.5 41.325 16.5 40.5V34.5H19.5V40.5H25.5V43.5H19.5ZM34.5 43.5V40.5H40.5V34.5H43.5V40.5C43.5 41.325 43.2063 42.0312 42.6188 42.6188C42.0312 43.2063 41.325 43.5 40.5 43.5H34.5ZM16.5 25.5V19.5C16.5 18.675 16.7938 17.9688 17.3813 17.3813C17.9688 16.7938 18.675 16.5 19.5 16.5H25.5V19.5H19.5V25.5H16.5ZM40.5 25.5V19.5H34.5V16.5H40.5C41.325 16.5 42.0312 16.7938 42.6188 17.3813C43.2063 17.9688 43.5 18.675 43.5 19.5V25.5H40.5Z" fill="#BE5AF2"/>
</g>
</g>
<defs>
<filter id="filter0_b_1163_19440" x="-4.8" y="-4.8" width="69.6" height="69.6" filterUnits="userSpaceOnUse" color-interpolation-filters="sRGB">
<feFlood flood-opacity="0" result="BackgroundImageFix"/>
<feGaussianBlur in="BackgroundImageFix" stdDeviation="2.4"/>
<feComposite in2="SourceAlpha" operator="in" result="effect1_backgroundBlur_1163_19440"/>
<feBlend mode="normal" in="SourceGraphic" in2="effect1_backgroundBlur_1163_19440" result="shape"/>
</filter>
</defs>
</svg>
