<svg width="60" height="61" viewBox="0 0 60 61" fill="none" xmlns="http://www.w3.org/2000/svg">
<g filter="url(#filter0_b_882_13174)">
<rect width="60" height="60" transform="translate(0 0.5)" fill="#011445" fill-opacity="0.1"/>
<mask id="mask0_882_13174" style="mask-type:alpha" maskUnits="userSpaceOnUse" x="12" y="12" width="36" height="37">
<rect x="12" y="12.5" width="36" height="36" fill="#D9D9D9"/>
</mask>
<g mask="url(#mask0_882_13174)">
<path d="M13.425 32.45C12.975 31.55 12.625 30.6375 12.375 29.7125C12.125 28.7875 12 27.85 12 26.9C12 24.1 12.95 21.75 14.85 19.85C16.75 17.95 19.1 17 21.9 17C23.475 17 24.975 17.3313 26.4 17.9938C27.825 18.6562 29.025 19.575 30 20.75C30.975 19.575 32.175 18.6562 33.6 17.9938C35.025 17.3313 36.525 17 38.1 17C40.9 17 43.25 17.95 45.15 19.85C47.05 21.75 48 24.1 48 26.9C48 27.85 47.875 28.7875 47.625 29.7125C47.375 30.6375 47.025 31.55 46.575 32.45C46.3 31.975 45.975 31.55 45.6 31.175C45.225 30.8 44.7875 30.5 44.2875 30.275C44.5125 29.7 44.6875 29.1375 44.8125 28.5875C44.9375 28.0375 45 27.475 45 26.9C45 24.95 44.3375 23.3125 43.0125 21.9875C41.6875 20.6625 40.05 20 38.1 20C36.075 20 34.5188 20.5562 33.4313 21.6687C32.3438 22.7812 31.2 24.025 30 25.4C28.8 24 27.6563 22.75 26.5688 21.65C25.4813 20.55 23.925 20 21.9 20C19.95 20 18.3125 20.6625 16.9875 21.9875C15.6625 23.3125 15 24.95 15 26.9C15 27.475 15.0625 28.0375 15.1875 28.5875C15.3125 29.1375 15.4875 29.7 15.7125 30.275C15.2125 30.5 14.775 30.8 14.4 31.175C14.025 31.55 13.7 31.975 13.425 32.45ZM12 45.5V43.1375C12 42.0375 12.5563 41.1562 13.6688 40.4938C14.7812 39.8313 16.225 39.5 18 39.5C18.325 39.5 18.6375 39.5063 18.9375 39.5187C19.2375 39.5312 19.525 39.5625 19.8 39.6125C19.45 40.1125 19.1875 40.65 19.0125 41.225C18.8375 41.8 18.75 42.4125 18.75 43.0625V45.5H12ZM21 45.5V43.0625C21 41.4375 21.8313 40.125 23.4937 39.125C25.1562 38.125 27.325 37.625 30 37.625C32.7 37.625 34.875 38.125 36.525 39.125C38.175 40.125 39 41.4375 39 43.0625V45.5H21ZM41.25 45.5V43.0625C41.25 42.4125 41.1687 41.8 41.0062 41.225C40.8438 40.65 40.6 40.1125 40.275 39.6125C40.55 39.5625 40.8313 39.5312 41.1188 39.5187C41.4062 39.5063 41.7 39.5 42 39.5C43.8 39.5 45.25 39.8313 46.35 40.4938C47.45 41.1562 48 42.0375 48 43.1375V45.5H41.25ZM18 38C17.175 38 16.4688 37.7063 15.8813 37.1188C15.2938 36.5312 15 35.825 15 35C15 34.15 15.2938 33.4375 15.8813 32.8625C16.4688 32.2875 17.175 32 18 32C18.85 32 19.5625 32.2875 20.1375 32.8625C20.7125 33.4375 21 34.15 21 35C21 35.825 20.7125 36.5312 20.1375 37.1188C19.5625 37.7063 18.85 38 18 38ZM42 38C41.175 38 40.4688 37.7063 39.8812 37.1188C39.2937 36.5312 39 35.825 39 35C39 34.15 39.2937 33.4375 39.8812 32.8625C40.4688 32.2875 41.175 32 42 32C42.85 32 43.5625 32.2875 44.1375 32.8625C44.7125 33.4375 45 34.15 45 35C45 35.825 44.7125 36.5312 44.1375 37.1188C43.5625 37.7063 42.85 38 42 38ZM30 36.5C28.75 36.5 27.6875 36.0625 26.8125 35.1875C25.9375 34.3125 25.5 33.25 25.5 32C25.5 30.725 25.9375 29.6562 26.8125 28.7938C27.6875 27.9313 28.75 27.5 30 27.5C31.275 27.5 32.3438 27.9313 33.2062 28.7938C34.0688 29.6562 34.5 30.725 34.5 32C34.5 33.25 34.0688 34.3125 33.2062 35.1875C32.3438 36.0625 31.275 36.5 30 36.5Z" fill="#011445"/>
</g>
</g>
<defs>
<filter id="filter0_b_882_13174" x="-4.8" y="-4.3" width="69.6" height="69.6" filterUnits="userSpaceOnUse" color-interpolation-filters="sRGB">
<feFlood flood-opacity="0" result="BackgroundImageFix"/>
<feGaussianBlur in="BackgroundImageFix" stdDeviation="2.4"/>
<feComposite in2="SourceAlpha" operator="in" result="effect1_backgroundBlur_882_13174"/>
<feBlend mode="normal" in="SourceGraphic" in2="effect1_backgroundBlur_882_13174" result="shape"/>
</filter>
</defs>
</svg>
