<svg width="45" height="46" viewBox="0 0 45 46" fill="none" xmlns="http://www.w3.org/2000/svg">
<rect y="0.5" width="45" height="45" rx="22.5" fill="#B5E8FF"/>
<mask id="mask0_1043_4177" style="mask-type:alpha" maskUnits="userSpaceOnUse" x="6" y="7" width="33" height="32">
<rect x="6.56836" y="7" width="32" height="32" fill="#D9D9D9"/>
</mask>
<g mask="url(#mask0_1043_4177)">
<path d="M21.2344 33V30.3333H31.901V20.8667C31.901 18.2667 30.9955 16.0611 29.1844 14.25C27.3733 12.4389 25.1677 11.5333 22.5677 11.5333C19.9677 11.5333 17.7622 12.4389 15.951 14.25C14.1399 16.0611 13.2344 18.2667 13.2344 20.8667V29H11.901C11.1677 29 10.5399 28.7389 10.0177 28.2167C9.49549 27.6944 9.23438 27.0667 9.23438 26.3333V23.6667C9.23438 23.2 9.35104 22.7611 9.58437 22.35C9.81771 21.9389 10.1455 21.6111 10.5677 21.3667L10.6677 19.6C10.8455 18.0889 11.2844 16.6889 11.9844 15.4C12.6844 14.1111 13.5622 12.9889 14.6177 12.0333C15.6733 11.0778 16.8844 10.3333 18.251 9.8C19.6177 9.26667 21.0566 9 22.5677 9C24.0788 9 25.5122 9.26667 26.8677 9.8C28.2233 10.3333 29.4344 11.0722 30.501 12.0167C31.5677 12.9611 32.4455 14.0778 33.1344 15.3667C33.8233 16.6556 34.2677 18.0556 34.4677 19.5667L34.5677 21.3C34.9899 21.5 35.3177 21.8 35.551 22.2C35.7844 22.6 35.901 23.0222 35.901 23.4667V26.5333C35.901 26.9778 35.7844 27.4 35.551 27.8C35.3177 28.2 34.9899 28.5 34.5677 28.7V30.3333C34.5677 31.0667 34.3066 31.6944 33.7844 32.2167C33.2622 32.7389 32.6344 33 31.901 33H21.2344ZM18.5677 23.6667C18.1899 23.6667 17.8733 23.5389 17.6177 23.2833C17.3622 23.0278 17.2344 22.7111 17.2344 22.3333C17.2344 21.9556 17.3622 21.6389 17.6177 21.3833C17.8733 21.1278 18.1899 21 18.5677 21C18.9455 21 19.2622 21.1278 19.5177 21.3833C19.7733 21.6389 19.901 21.9556 19.901 22.3333C19.901 22.7111 19.7733 23.0278 19.5177 23.2833C19.2622 23.5389 18.9455 23.6667 18.5677 23.6667ZM26.5677 23.6667C26.1899 23.6667 25.8733 23.5389 25.6177 23.2833C25.3622 23.0278 25.2344 22.7111 25.2344 22.3333C25.2344 21.9556 25.3622 21.6389 25.6177 21.3833C25.8733 21.1278 26.1899 21 26.5677 21C26.9455 21 27.2622 21.1278 27.5177 21.3833C27.7733 21.6389 27.901 21.9556 27.901 22.3333C27.901 22.7111 27.7733 23.0278 27.5177 23.2833C27.2622 23.5389 26.9455 23.6667 26.5677 23.6667ZM14.601 21.6C14.4455 19.2444 15.1566 17.2222 16.7344 15.5333C18.3122 13.8444 20.2788 13 22.6344 13C24.6122 13 26.351 13.6278 27.851 14.8833C29.351 16.1389 30.2566 17.7444 30.5677 19.7C28.5455 19.6778 26.6844 19.1333 24.9844 18.0667C23.2844 17 21.9788 15.5556 21.0677 13.7333C20.7122 15.5111 19.9622 17.0944 18.8177 18.4833C17.6733 19.8722 16.2677 20.9111 14.601 21.6Z" fill="#00AEFF"/>
</g>
</svg>
