<svg fill="none" height="86" viewBox="0 0 98 86" width="98" xmlns="http://www.w3.org/2000/svg" xmlns:xlink="http://www.w3.org/1999/xlink"><filter id="a" color-interpolation-filters="sRGB" filterUnits="userSpaceOnUse" height="170.77" width="169.015" x="-42.5678" y="-32.8002"><feFlood flood-opacity="0" result="BackgroundImageFix"/><feColorMatrix in="SourceAlpha" result="hardAlpha" type="matrix" values="0 0 0 0 0 0 0 0 0 0 0 0 0 0 0 0 0 0 127 0"/><feMorphology in="SourceAlpha" operator="erode" radius="9.94278" result="effect1_dropShadow_907_4548"/><feOffset dy="9.94278"/><feGaussianBlur stdDeviation="26.5141"/><feComposite in2="hardAlpha" operator="out"/><feColorMatrix type="matrix" values="0 0 0 0 0.109804 0 0 0 0 0.258824 0 0 0 0 0.988235 0 0 0 0.2 0"/><feBlend in2="BackgroundImageFix" mode="normal" result="effect1_dropShadow_907_4548"/><feBlend in="SourceGraphic" in2="effect1_dropShadow_907_4548" mode="normal" result="shape"/></filter><filter id="b" color-interpolation-filters="sRGB" filterUnits="userSpaceOnUse" height="90.6249" width="90.6245" x="13.6267" y="20.0274"><feFlood flood-opacity="0" result="BackgroundImageFix"/><feColorMatrix in="SourceAlpha" result="hardAlpha" type="matrix" values="0 0 0 0 0 0 0 0 0 0 0 0 0 0 0 0 0 0 127 0"/><feMorphology in="SourceAlpha" operator="erode" radius="4.82074" result="effect1_dropShadow_907_4548"/><feOffset dy="4.82074"/><feGaussianBlur stdDeviation="12.8553"/><feComposite in2="hardAlpha" operator="out"/><feColorMatrix type="matrix" values="0 0 0 0 0.109804 0 0 0 0 0.258824 0 0 0 0 0.988235 0 0 0 0.2 0"/><feBlend in2="BackgroundImageFix" mode="normal" result="effect1_dropShadow_907_4548"/><feBlend in="SourceGraphic" in2="effect1_dropShadow_907_4548" mode="normal" result="shape"/></filter><linearGradient id="c" gradientUnits="userSpaceOnUse" x1="42.1483" x2="14.2858" y1="-2.71767" y2="52.9015"><stop offset="0" stop-color="#02b0ff"/><stop offset="1" stop-color="#72cffe"/></linearGradient><linearGradient id="d" gradientUnits="userSpaceOnUse" x1="58.9392" x2="58.9392" y1="-8.66716" y2="104.484"><stop offset="0" stop-color="#02b0ff"/><stop offset=".0001" stop-color="#fff"/><stop offset="1" stop-color="#02b0ff"/></linearGradient><clipPath id="e"><path d="m0 0h98v86h-98z"/></clipPath><g clip-path="url(#e)"><g filter="url(#a)"><path d="m75.1766 1.30815c-.3821-.831631-1.366-1.196045-2.1976-.813946l-13.5522 6.226676c-.8316.3821-1.196 1.36602-.8139 2.19765s1.366 1.19607 2.1976.81394l12.0464-5.53482 5.5348 12.04635c.3821.8316 1.366 1.1961 2.1977.814.8316-.3821 1.196-1.3661.8139-2.1977zm-71.69389 80.97415 20.92639-41.9269-2.9655-1.4801-20.926307 41.9269zm32.79919-41.3435 3.255 8.5247 3.0963-1.1822-3.2551-8.5248zm21.6112 8.4325 17.3317-46.79576-3.1079-1.15108-17.3318 46.79574zm-18.3562.0922c3.2288 8.4559 15.2125 8.3957 18.3562-.0922l-3.108-1.1511c-2.0811 5.6191-10.0145 5.6589-12.1519.0611zm-15.1278-9.1081c2.524-5.057 9.8566-4.6967 11.8728.5834l3.0962-1.1823c-3.0455-7.9758-14.1218-8.5201-17.9345-.8812z" fill="url(#c)"/><g filter="url(#b)"><circle cx="58.9392" cy="60.5191" fill="url(#d)" r="24.4226"/></g><g stroke="#fff" stroke-linecap="round"><path d="m58.5693 40.0166v3.5821" stroke-width=".508856"/><path d="m58.5693 76.8607v3.582" stroke-width=".508856"/><path d="m78.7129 60.8096h-3.5821" stroke-width=".508856"/><path d="m41.8672 60.8096h-3.5821" stroke-width=".508856"/><path d="m72.8672 46.3278-2.1461 2.1461" stroke-width=".54702"/><path d="m46.8174 72.3807-2.1461 2.1461" stroke-width=".54702"/><path d="m72.4804 74.8891-2.1461-2.1461" stroke-width=".54702"/><path d="m46.4267 48.8362-2.1461-2.1461" stroke-width=".54702"/></g><path clip-rule="evenodd" d="m69.4974 53.2628c.5589.5857.5371 1.5137-.0487 2.0725l-10.7562 10.2615c-.5668.5406-1.4584.5403-2.0247-.0009l-5.369-5.1307c-.5853-.5594-.6063-1.4873-.047-2.0726.5594-.5853 1.4873-.6064 2.0726-.047l4.357 4.1637 9.7435-9.2953c.5858-.5589 1.5137-.537 2.0725.0488z" fill="#fff" fill-rule="evenodd"/></g></g></svg>