<svg width="179" height="38" viewBox="0 0 179 38" fill="none" xmlns="http://www.w3.org/2000/svg">
<path d="M149.157 20.9913C148.395 21.1107 147.633 21.1505 146.789 21.1505H138.568V30.4597H136.882V2.53196H146.789C153.726 2.53196 157.657 5.88794 157.657 11.7219C157.657 16.4759 155.21 19.5932 150.76 20.7128L157.78 30.4625H155.775L149.157 20.9942V20.9913ZM146.832 19.5137C152.688 19.5137 156.017 16.7573 156.017 11.7616C156.017 6.76601 152.688 4.17159 146.832 4.17159H138.571V19.5137H146.832Z" fill="url(#paint0_linear_709_2281)"/>
<path d="M176.593 9.64461H178.478L171.178 19.7126L179 30.4597H177.075L170.095 20.9913L163.074 30.4597H161.149L169.05 19.7126L161.751 9.64461H163.676L170.134 18.4736L176.593 9.64461Z" fill="url(#paint1_linear_709_2281)"/>
<path d="M69.2364 22.361C68.7857 21.8551 68.0184 21.8154 67.4964 22.2501C65.3141 24.0659 62.55 25.0463 60.054 25.0463C54.095 25.0463 49.2456 20.3775 49.2456 14.6402C49.2456 8.90289 53.9923 4.23406 60.054 4.23406C62.5757 4.23406 65.2656 5.16896 67.4479 7.10981C67.9927 7.59289 68.8228 7.54459 69.2735 6.97341L70.4088 5.53554C70.8224 5.01267 70.7483 4.25679 70.2434 3.82202C67.2681 1.27306 63.5712 0 60.0112 0C51.4535 0 44.75 6.4335 44.75 14.643C44.75 22.8526 51.4022 29.448 59.8914 29.448C63.383 29.448 67.2681 27.9959 70.2662 25.41C70.7911 24.9582 70.8367 24.1597 70.3774 23.6454L69.2364 22.3695V22.361Z" fill="url(#paint2_linear_709_2281)"/>
<path d="M101.944 10.0481V8.22375C101.944 7.53891 101.388 6.98195 100.697 6.98195H98.8146C98.1272 6.98195 97.5681 7.53607 97.5681 8.22375V28.0386C97.5681 28.7234 98.1243 29.2804 98.8146 29.2804H100.697C101.385 29.2804 101.944 28.7263 101.944 28.0386V17.5245C101.984 15.0778 103.735 11.2132 108.913 11.2473C109.252 11.2473 109.523 10.9659 109.523 10.6278V7.4764C109.523 7.13256 109.244 6.84839 108.898 6.85692C104.2 6.97627 102.532 9.3661 101.944 10.0453V10.0481Z" fill="url(#paint3_linear_709_2281)"/>
<path d="M128.667 7.78039L122.691 23.2901L116.421 7.76334C116.232 7.29447 115.773 6.98472 115.265 6.98472H113.331C112.441 6.98472 111.839 7.88553 112.182 8.70108L120.463 28.4903L119.687 30.2124C119.099 31.457 118.36 32.5198 116.877 32.7613C116.258 32.8608 115.785 33.3666 115.785 33.9918V35.9241C115.79 36.6544 116.421 37.2256 117.151 37.1602C120.235 36.8874 122.237 34.9295 123.484 31.8861L132.846 8.68403C133.174 7.86848 132.572 6.98189 131.69 6.98189H129.831C129.314 6.98189 128.852 7.29731 128.667 7.77755V7.78039Z" fill="url(#paint4_linear_709_2281)"/>
<path d="M90.0402 10.1107C88.2402 7.97658 85.5959 6.82288 82.401 6.82288C76.0597 6.82288 71.6297 11.4633 71.6297 18.1099C71.6297 24.7565 76.074 29.4367 82.4409 29.4367C85.6101 29.4367 88.243 28.2915 90.0402 26.1717V28.0358C90.0402 28.7206 90.5964 29.2776 91.2867 29.2776H93.1694C93.8569 29.2776 94.416 28.7235 94.416 28.0358V8.22096C94.416 7.53613 93.8597 6.97916 93.1694 6.97916H91.2867C90.5993 6.97916 90.0402 7.53328 90.0402 8.22096V10.1107ZM83.0428 25.4016C78.898 25.4016 76.0055 22.4349 76.0055 18.1895C76.0055 13.9441 78.9009 10.8978 83.0428 10.8978C87.1847 10.8978 90.0402 13.8957 90.0402 18.1895C90.0402 22.4832 87.1619 25.4016 83.0428 25.4016Z" fill="url(#paint5_linear_709_2281)"/>
<path d="M41.6619 25.3478C41.6619 23.0092 39.7677 21.1267 37.4408 21.1267H33.6875L37.2888 29.5805H37.4525C39.7911 29.5805 41.6736 27.6863 41.6736 25.3595L41.6619 25.3478Z" fill="#FCC700"/>
<path d="M26.7305 25.3487C26.7305 27.6872 28.6247 29.5698 30.9515 29.5698H35.5467L31.9454 21.116H30.9515C28.613 21.116 26.7305 23.0102 26.7305 25.337V25.3487Z" fill="#FCC700"/>
<path d="M0 0.758545C0 5.90331 4.17428 9.21233 9.31905 9.21233H26.6709L24.5897 4.3365C23.4438 1.64719 20.7895 0.758545 17.8664 0.758545H0Z" fill="#FCC700"/>
<path d="M9.02344 10.9429C9.02344 16.0876 13.1977 19.3967 18.3425 19.3967H31.0992L27.416 10.9429H9.02344Z" fill="#FCC700"/>
<defs>
<linearGradient id="paint0_linear_709_2281" x1="40.3285" y1="21.3124" x2="182.671" y2="21.3124" gradientUnits="userSpaceOnUse">
<stop offset="0.0416667" stop-color="white"/>
<stop offset="0.427083" stop-color="white"/>
<stop offset="1" stop-color="white"/>
</linearGradient>
<linearGradient id="paint1_linear_709_2281" x1="40.3285" y1="21.3124" x2="182.671" y2="21.3124" gradientUnits="userSpaceOnUse">
<stop offset="0.0416667" stop-color="white"/>
<stop offset="0.427083" stop-color="white"/>
<stop offset="1" stop-color="white"/>
</linearGradient>
<linearGradient id="paint2_linear_709_2281" x1="40.3285" y1="21.3124" x2="182.671" y2="21.3124" gradientUnits="userSpaceOnUse">
<stop offset="0.0416667" stop-color="white"/>
<stop offset="0.427083" stop-color="white"/>
<stop offset="1" stop-color="white"/>
</linearGradient>
<linearGradient id="paint3_linear_709_2281" x1="40.3285" y1="21.3124" x2="182.671" y2="21.3124" gradientUnits="userSpaceOnUse">
<stop offset="0.0416667" stop-color="white"/>
<stop offset="0.427083" stop-color="white"/>
<stop offset="1" stop-color="white"/>
</linearGradient>
<linearGradient id="paint4_linear_709_2281" x1="40.3285" y1="21.3124" x2="182.671" y2="21.3124" gradientUnits="userSpaceOnUse">
<stop offset="0.0416667" stop-color="white"/>
<stop offset="0.427083" stop-color="white"/>
<stop offset="1" stop-color="white"/>
</linearGradient>
<linearGradient id="paint5_linear_709_2281" x1="40.3285" y1="21.3124" x2="182.671" y2="21.3124" gradientUnits="userSpaceOnUse">
<stop offset="0.0416667" stop-color="white"/>
<stop offset="0.427083" stop-color="white"/>
<stop offset="1" stop-color="white"/>
</linearGradient>
</defs>
</svg>
