<svg width="51" height="51" viewBox="0 0 51 51" fill="none" xmlns="http://www.w3.org/2000/svg">
<path d="M25.6134 15.9812C28.4491 15.9812 28.7849 15.9941 29.9002 16.0457C30.9366 16.093 31.4963 16.2735 31.8694 16.4239C32.3628 16.6216 32.7193 16.8623 33.0883 17.2448C33.4614 17.6316 33.6895 17.9969 33.8802 18.5083C34.0253 18.8951 34.1994 19.4796 34.245 20.5497C34.2948 21.7101 34.3072 22.0582 34.3072 24.9936C34.3072 27.9332 34.2948 28.2813 34.245 29.4374C34.1994 30.5118 34.0253 31.092 33.8802 31.4788C33.6895 31.9902 33.4573 32.3598 33.0883 32.7423C32.7152 33.1291 32.3628 33.3655 31.8694 33.5632C31.4963 33.7136 30.9325 33.8941 29.9002 33.9414C28.7808 33.993 28.445 34.0059 25.6134 34.0059C22.7776 34.0059 22.4418 33.993 21.3266 33.9414C20.2901 33.8941 19.7304 33.7136 19.3573 33.5632C18.8639 33.3655 18.5074 33.1248 18.1384 32.7423C17.7653 32.3555 17.5373 31.9902 17.3465 31.4788C17.2014 31.092 17.0273 30.5075 16.9817 29.4374C16.932 28.277 16.9195 27.9289 16.9195 24.9936C16.9195 22.0539 16.932 21.7058 16.9817 20.5497C17.0273 19.4753 17.2014 18.8951 17.3465 18.5083C17.5373 17.9969 17.7694 17.6273 18.1384 17.2448C18.5115 16.858 18.8639 16.6216 19.3573 16.4239C19.7304 16.2735 20.2942 16.093 21.3266 16.0457C22.4418 15.9941 22.7776 15.9812 25.6134 15.9812ZM25.6134 14C22.732 14 22.3713 14.0129 21.2395 14.0645C20.1118 14.116 19.3366 14.3051 18.6649 14.5759C17.9643 14.8595 17.3714 15.2334 16.7827 15.848C16.1899 16.4583 15.8292 17.0729 15.5555 17.7949C15.2944 18.4954 15.1119 19.2948 15.0622 20.4638C15.0124 21.6413 15 22.0152 15 25.0021C15 27.9891 15.0124 28.363 15.0622 29.5362C15.1119 30.7052 15.2944 31.5089 15.5555 32.2051C15.8292 32.9314 16.1899 33.546 16.7827 34.1563C17.3714 34.7666 17.9643 35.1448 18.6608 35.4241C19.3366 35.6949 20.1077 35.884 21.2353 35.9355C22.3672 35.9871 22.7279 36 25.6092 36C28.4906 36 28.8513 35.9871 29.9831 35.9355C31.1108 35.884 31.886 35.6949 32.5577 35.4241C33.2542 35.1448 33.847 34.7666 34.4357 34.1563C35.0244 33.546 35.3893 32.9314 35.6587 32.2094C35.9199 31.5089 36.1023 30.7095 36.1521 29.5405C36.2018 28.3673 36.2143 27.9934 36.2143 25.0064C36.2143 22.0195 36.2018 21.6456 36.1521 20.4724C36.1023 19.3034 35.9199 18.4997 35.6587 17.8035C35.3976 17.0729 35.0369 16.4583 34.444 15.848C33.8553 15.2377 33.2624 14.8595 32.5659 14.5802C31.8902 14.3094 31.119 14.1203 29.9914 14.0688C28.8554 14.0129 28.4947 14 25.6134 14Z" fill="white"/>
<path d="M25.6134 19.3507C22.6035 19.3507 20.1616 21.882 20.1616 25.0021C20.1616 28.1223 22.6035 30.6536 25.6134 30.6536C28.6232 30.6536 31.0651 28.1223 31.0651 25.0021C31.0651 21.882 28.6232 19.3507 25.6134 19.3507ZM25.6134 28.6681C23.6607 28.6681 22.077 27.0264 22.077 25.0021C22.077 22.9779 23.6607 21.3362 25.6134 21.3362C27.5661 21.3362 29.1498 22.9779 29.1498 25.0021C29.1498 27.0264 27.5661 28.6681 25.6134 28.6681Z" fill="white"/>
<path d="M32.5535 19.1271C32.5535 19.8577 31.9814 20.4465 31.2807 20.4465C30.5759 20.4465 30.008 19.8534 30.008 19.1271C30.008 18.3965 30.5801 17.8077 31.2807 17.8077C31.9814 17.8077 32.5535 18.4008 32.5535 19.1271Z" fill="white"/>
<circle cx="25.5" cy="25.5" r="25" stroke="white"/>
</svg>
