<svg width="51" height="51" viewBox="0 0 51 51" fill="none" xmlns="http://www.w3.org/2000/svg">
<path d="M39.1379 19.3155C39.1379 19.3155 38.8604 17.3549 38.0055 16.494C36.9231 15.361 35.713 15.3555 35.1579 15.2888C31.1834 15 25.2161 15 25.2161 15H25.205C25.205 15 19.2377 15 15.2632 15.2888C14.7081 15.3555 13.4979 15.361 12.4155 16.494C11.5606 17.3549 11.2887 19.3155 11.2887 19.3155C11.2887 19.3155 11 21.6204 11 23.9197V26.0747C11 28.3741 11.2831 30.679 11.2831 30.679C11.2831 30.679 11.5606 32.6395 12.41 33.5004C13.4924 34.6334 14.9134 34.5946 15.5463 34.7167C17.8222 34.9334 25.2105 35 25.2105 35C25.2105 35 31.1834 34.9889 35.1579 34.7056C35.713 34.639 36.9231 34.6334 38.0055 33.5004C38.8604 32.6395 39.1379 30.679 39.1379 30.679C39.1379 30.679 39.4211 28.3796 39.4211 26.0747V23.9197C39.4211 21.6204 39.1379 19.3155 39.1379 19.3155ZM22.2741 28.6906V20.6984L29.9511 24.7084L22.2741 28.6906Z" fill="white"/>
<circle cx="25.5" cy="25.5" r="25" stroke="white"/>
</svg>
