<svg width="536" height="467" viewBox="0 0 536 467" fill="none" xmlns="http://www.w3.org/2000/svg">
<path d="M90.822 215L85.4853 196.091H89.1693L92.5762 209.987H92.7516L96.3894 196.091H99.741L103.388 209.996H103.554L106.961 196.091H110.645L105.308 215H101.929L98.1437 201.732H97.996L94.2012 215H90.822ZM117.184 215.277C115.762 215.277 114.534 214.982 113.5 214.391C112.472 213.794 111.681 212.95 111.127 211.861C110.573 210.765 110.296 209.476 110.296 207.992C110.296 206.533 110.573 205.253 111.127 204.151C111.687 203.043 112.469 202.182 113.472 201.566C114.475 200.944 115.654 200.634 117.008 200.634C117.882 200.634 118.707 200.775 119.483 201.058C120.264 201.335 120.954 201.766 121.551 202.351C122.154 202.936 122.628 203.68 122.973 204.585C123.317 205.484 123.49 206.555 123.49 207.798V208.823H111.866V206.57H120.286C120.28 205.93 120.141 205.361 119.87 204.862C119.6 204.357 119.221 203.96 118.735 203.671C118.255 203.382 117.695 203.237 117.054 203.237C116.371 203.237 115.771 203.403 115.254 203.736C114.737 204.062 114.334 204.493 114.044 205.028C113.761 205.558 113.617 206.139 113.611 206.773V208.74C113.611 209.565 113.761 210.273 114.063 210.864C114.365 211.448 114.786 211.898 115.328 212.212C115.87 212.519 116.504 212.673 117.23 212.673C117.716 212.673 118.156 212.606 118.55 212.47C118.944 212.329 119.286 212.122 119.575 211.852C119.864 211.581 120.083 211.245 120.231 210.845L123.351 211.196C123.154 212.021 122.779 212.741 122.225 213.357C121.677 213.966 120.975 214.44 120.12 214.778C119.264 215.111 118.285 215.277 117.184 215.277ZM135.069 206.69V215H131.727V196.091H134.995V203.228H135.161C135.494 202.428 136.008 201.797 136.703 201.335C137.405 200.867 138.297 200.634 139.381 200.634C140.366 200.634 141.224 200.84 141.957 201.252C142.689 201.665 143.256 202.268 143.656 203.062C144.062 203.856 144.265 204.825 144.265 205.97V215H140.923V206.487C140.923 205.533 140.676 204.791 140.184 204.262C139.698 203.727 139.015 203.459 138.134 203.459C137.543 203.459 137.014 203.588 136.546 203.847C136.085 204.099 135.721 204.465 135.457 204.945C135.198 205.425 135.069 206.007 135.069 206.69ZM151.233 215.286C150.334 215.286 149.525 215.126 148.805 214.806C148.091 214.48 147.524 214 147.106 213.366C146.693 212.732 146.487 211.95 146.487 211.021C146.487 210.22 146.635 209.559 146.93 209.036C147.226 208.512 147.629 208.094 148.14 207.78C148.651 207.466 149.226 207.229 149.866 207.069C150.513 206.903 151.181 206.783 151.87 206.709C152.701 206.623 153.375 206.546 153.892 206.478C154.409 206.404 154.785 206.293 155.018 206.146C155.258 205.992 155.378 205.755 155.378 205.435V205.379C155.378 204.684 155.172 204.145 154.76 203.763C154.347 203.382 153.753 203.191 152.978 203.191C152.159 203.191 151.51 203.37 151.03 203.727C150.556 204.084 150.236 204.505 150.07 204.991L146.949 204.548C147.195 203.687 147.601 202.966 148.168 202.388C148.734 201.803 149.426 201.366 150.245 201.077C151.064 200.781 151.968 200.634 152.959 200.634C153.643 200.634 154.323 200.714 155 200.874C155.677 201.034 156.296 201.298 156.856 201.668C157.416 202.031 157.865 202.526 158.204 203.154C158.548 203.782 158.721 204.567 158.721 205.509V215H155.508V213.052H155.397C155.194 213.446 154.908 213.815 154.538 214.16C154.175 214.498 153.717 214.772 153.163 214.982C152.615 215.185 151.972 215.286 151.233 215.286ZM152.101 212.83C152.772 212.83 153.353 212.698 153.846 212.433C154.338 212.162 154.717 211.805 154.981 211.362C155.252 210.919 155.388 210.436 155.388 209.913V208.241C155.283 208.328 155.105 208.408 154.852 208.482C154.606 208.555 154.329 208.62 154.021 208.675C153.713 208.731 153.409 208.78 153.107 208.823C152.806 208.866 152.544 208.903 152.322 208.934C151.824 209.002 151.378 209.112 150.984 209.266C150.59 209.42 150.279 209.636 150.051 209.913C149.823 210.183 149.709 210.534 149.709 210.965C149.709 211.581 149.934 212.045 150.383 212.359C150.833 212.673 151.405 212.83 152.101 212.83ZM173.721 200.818L168.671 215H164.978L159.927 200.818H163.491L166.751 211.353H166.898L170.167 200.818H173.721ZM181.31 215.277C179.888 215.277 178.66 214.982 177.626 214.391C176.598 213.794 175.807 212.95 175.253 211.861C174.699 210.765 174.422 209.476 174.422 207.992C174.422 206.533 174.699 205.253 175.253 204.151C175.814 203.043 176.595 202.182 177.599 201.566C178.602 200.944 179.781 200.634 181.135 200.634C182.009 200.634 182.834 200.775 183.609 201.058C184.391 201.335 185.08 201.766 185.677 202.351C186.281 202.936 186.755 203.68 187.099 204.585C187.444 205.484 187.616 206.555 187.616 207.798V208.823H175.992V206.57H184.413C184.406 205.93 184.268 205.361 183.997 204.862C183.726 204.357 183.348 203.96 182.861 203.671C182.381 203.382 181.821 203.237 181.181 203.237C180.498 203.237 179.898 203.403 179.381 203.736C178.864 204.062 178.46 204.493 178.171 205.028C177.888 205.558 177.743 206.139 177.737 206.773V208.74C177.737 209.565 177.888 210.273 178.19 210.864C178.491 211.448 178.913 211.898 179.454 212.212C179.996 212.519 180.63 212.673 181.356 212.673C181.843 212.673 182.283 212.606 182.677 212.47C183.071 212.329 183.412 212.122 183.702 211.852C183.991 211.581 184.209 211.245 184.357 210.845L187.478 211.196C187.281 212.021 186.905 212.741 186.351 213.357C185.804 213.966 185.102 214.44 184.246 214.778C183.391 215.111 182.412 215.277 181.31 215.277ZM195.853 215V200.818H199.094V203.182H199.242C199.5 202.363 199.943 201.732 200.571 201.289C201.205 200.84 201.928 200.615 202.741 200.615C202.926 200.615 203.132 200.624 203.36 200.643C203.593 200.655 203.787 200.677 203.941 200.707V203.782C203.8 203.733 203.575 203.69 203.267 203.653C202.966 203.61 202.673 203.588 202.39 203.588C201.781 203.588 201.233 203.72 200.747 203.985C200.267 204.244 199.888 204.604 199.611 205.065C199.334 205.527 199.196 206.059 199.196 206.663V215H195.853ZM211.336 215.277C209.914 215.277 208.686 214.982 207.652 214.391C206.624 213.794 205.833 212.95 205.279 211.861C204.725 210.765 204.448 209.476 204.448 207.992C204.448 206.533 204.725 205.253 205.279 204.151C205.84 203.043 206.621 202.182 207.625 201.566C208.628 200.944 209.807 200.634 211.161 200.634C212.035 200.634 212.86 200.775 213.635 201.058C214.417 201.335 215.106 201.766 215.703 202.351C216.307 202.936 216.781 203.68 217.125 204.585C217.47 205.484 217.642 206.555 217.642 207.798V208.823H206.018V206.57H214.438C214.432 205.93 214.294 205.361 214.023 204.862C213.752 204.357 213.374 203.96 212.887 203.671C212.407 203.382 211.847 203.237 211.207 203.237C210.524 203.237 209.924 203.403 209.407 203.736C208.889 204.062 208.486 204.493 208.197 205.028C207.914 205.558 207.769 206.139 207.763 206.773V208.74C207.763 209.565 207.914 210.273 208.215 210.864C208.517 211.448 208.939 211.898 209.48 212.212C210.022 212.519 210.656 212.673 211.382 212.673C211.869 212.673 212.309 212.606 212.703 212.47C213.097 212.329 213.438 212.122 213.728 211.852C214.017 211.581 214.235 211.245 214.383 210.845L217.504 211.196C217.307 212.021 216.931 212.741 216.377 213.357C215.83 213.966 215.128 214.44 214.272 214.778C213.417 215.111 212.438 215.277 211.336 215.277ZM226.136 215.277C224.72 215.277 223.505 214.966 222.489 214.344C221.479 213.723 220.701 212.864 220.153 211.768C219.611 210.667 219.341 209.399 219.341 207.964C219.341 206.524 219.618 205.253 220.171 204.151C220.725 203.043 221.507 202.182 222.517 201.566C223.532 200.944 224.733 200.634 226.118 200.634C227.269 200.634 228.287 200.846 229.174 201.271C230.066 201.689 230.777 202.283 231.306 203.053C231.836 203.816 232.137 204.708 232.211 205.73H229.017C228.887 205.047 228.58 204.478 228.093 204.022C227.613 203.56 226.97 203.33 226.164 203.33C225.48 203.33 224.88 203.514 224.363 203.884C223.846 204.247 223.443 204.77 223.154 205.453C222.871 206.136 222.729 206.955 222.729 207.909C222.729 208.875 222.871 209.706 223.154 210.402C223.437 211.091 223.834 211.624 224.345 211.999C224.862 212.369 225.468 212.553 226.164 212.553C226.656 212.553 227.096 212.461 227.484 212.276C227.878 212.085 228.207 211.812 228.472 211.455C228.737 211.098 228.918 210.664 229.017 210.153H232.211C232.131 211.156 231.836 212.045 231.325 212.821C230.814 213.59 230.118 214.194 229.238 214.631C228.358 215.062 227.324 215.277 226.136 215.277ZM240.714 215.277C239.292 215.277 238.064 214.982 237.03 214.391C236.002 213.794 235.211 212.95 234.657 211.861C234.103 210.765 233.826 209.476 233.826 207.992C233.826 206.533 234.103 205.253 234.657 204.151C235.217 203.043 235.999 202.182 237.003 201.566C238.006 200.944 239.185 200.634 240.539 200.634C241.413 200.634 242.238 200.775 243.013 201.058C243.795 201.335 244.484 201.766 245.081 202.351C245.685 202.936 246.159 203.68 246.503 204.585C246.848 205.484 247.02 206.555 247.02 207.798V208.823H235.396V206.57H243.816C243.81 205.93 243.672 205.361 243.401 204.862C243.13 204.357 242.752 203.96 242.265 203.671C241.785 203.382 241.225 203.237 240.585 203.237C239.902 203.237 239.302 203.403 238.784 203.736C238.267 204.062 237.864 204.493 237.575 205.028C237.292 205.558 237.147 206.139 237.141 206.773V208.74C237.141 209.565 237.292 210.273 237.593 210.864C237.895 211.448 238.317 211.898 238.858 212.212C239.4 212.519 240.034 212.673 240.76 212.673C241.247 212.673 241.687 212.606 242.081 212.47C242.475 212.329 242.816 212.122 243.106 211.852C243.395 211.581 243.613 211.245 243.761 210.845L246.882 211.196C246.685 212.021 246.309 212.741 245.755 213.357C245.208 213.966 244.506 214.44 243.65 214.778C242.795 215.111 241.816 215.277 240.714 215.277ZM249.328 215V200.818H252.67V215H249.328ZM251.008 198.805C250.479 198.805 250.023 198.63 249.642 198.279C249.26 197.922 249.069 197.494 249.069 196.996C249.069 196.491 249.26 196.063 249.642 195.712C250.023 195.355 250.479 195.177 251.008 195.177C251.544 195.177 251.999 195.355 252.375 195.712C252.756 196.063 252.947 196.491 252.947 196.996C252.947 197.494 252.756 197.922 252.375 198.279C251.999 198.63 251.544 198.805 251.008 198.805ZM268.255 200.818L263.204 215H259.511L254.461 200.818H258.025L261.284 211.353H261.432L264.7 200.818H268.255ZM275.844 215.277C274.422 215.277 273.194 214.982 272.16 214.391C271.132 213.794 270.341 212.95 269.787 211.861C269.233 210.765 268.956 209.476 268.956 207.992C268.956 206.533 269.233 205.253 269.787 204.151C270.347 203.043 271.129 202.182 272.132 201.566C273.135 200.944 274.314 200.634 275.668 200.634C276.542 200.634 277.367 200.775 278.143 201.058C278.924 201.335 279.614 201.766 280.211 202.351C280.814 202.936 281.288 203.68 281.633 204.585C281.977 205.484 282.15 206.555 282.15 207.798V208.823H270.525V206.57H278.946C278.94 205.93 278.801 205.361 278.53 204.862C278.26 204.357 277.881 203.96 277.395 203.671C276.915 203.382 276.355 203.237 275.714 203.237C275.031 203.237 274.431 203.403 273.914 203.736C273.397 204.062 272.994 204.493 272.704 205.028C272.421 205.558 272.277 206.139 272.27 206.773V208.74C272.27 209.565 272.421 210.273 272.723 210.864C273.025 211.448 273.446 211.898 273.988 212.212C274.529 212.519 275.163 212.673 275.89 212.673C276.376 212.673 276.816 212.606 277.21 212.47C277.604 212.329 277.946 212.122 278.235 211.852C278.524 211.581 278.743 211.245 278.891 210.845L282.011 211.196C281.814 212.021 281.439 212.741 280.885 213.357C280.337 213.966 279.635 214.44 278.78 214.778C277.924 215.111 276.945 215.277 275.844 215.277ZM289.72 215.249C288.606 215.249 287.609 214.963 286.729 214.391C285.848 213.818 285.153 212.987 284.642 211.898C284.131 210.808 283.876 209.485 283.876 207.928C283.876 206.352 284.134 205.022 284.651 203.939C285.174 202.849 285.879 202.028 286.766 201.474C287.652 200.914 288.64 200.634 289.729 200.634C290.56 200.634 291.244 200.775 291.779 201.058C292.315 201.335 292.739 201.671 293.053 202.065C293.367 202.452 293.61 202.819 293.783 203.163H293.921V196.091H297.273V215H293.986V212.766H293.783C293.61 213.11 293.361 213.477 293.035 213.864C292.709 214.246 292.278 214.572 291.742 214.843C291.207 215.114 290.533 215.249 289.72 215.249ZM290.653 212.507C291.36 212.507 291.964 212.316 292.462 211.935C292.961 211.547 293.339 211.008 293.598 210.319C293.856 209.629 293.986 208.826 293.986 207.909C293.986 206.992 293.856 206.195 293.598 205.518C293.346 204.841 292.97 204.314 292.472 203.939C291.979 203.563 291.373 203.376 290.653 203.376C289.908 203.376 289.286 203.57 288.788 203.957C288.289 204.345 287.914 204.881 287.661 205.564C287.409 206.247 287.283 207.029 287.283 207.909C287.283 208.795 287.409 209.586 287.661 210.282C287.92 210.971 288.298 211.516 288.797 211.916C289.302 212.31 289.92 212.507 290.653 212.507ZM308.321 220.318C307.865 220.318 307.444 220.281 307.056 220.207C306.674 220.14 306.37 220.06 306.142 219.967L306.918 217.364C307.404 217.505 307.838 217.573 308.219 217.567C308.601 217.561 308.936 217.441 309.226 217.207C309.521 216.979 309.771 216.597 309.974 216.062L310.26 215.295L305.117 200.818H308.663L311.931 211.528H312.079L315.356 200.818H318.911L313.233 216.717C312.968 217.468 312.617 218.112 312.18 218.647C311.743 219.189 311.208 219.601 310.574 219.884C309.946 220.174 309.195 220.318 308.321 220.318ZM326.408 215.277C325.023 215.277 323.822 214.972 322.807 214.363C321.791 213.754 321.003 212.901 320.443 211.805C319.889 210.71 319.612 209.429 319.612 207.964C319.612 206.5 319.889 205.216 320.443 204.114C321.003 203.013 321.791 202.157 322.807 201.548C323.822 200.938 325.023 200.634 326.408 200.634C327.793 200.634 328.993 200.938 330.008 201.548C331.024 202.157 331.809 203.013 332.363 204.114C332.923 205.216 333.203 206.5 333.203 207.964C333.203 209.429 332.923 210.71 332.363 211.805C331.809 212.901 331.024 213.754 330.008 214.363C328.993 214.972 327.793 215.277 326.408 215.277ZM326.426 212.599C327.177 212.599 327.805 212.393 328.31 211.981C328.814 211.562 329.19 211.002 329.436 210.3C329.688 209.599 329.815 208.817 329.815 207.955C329.815 207.087 329.688 206.303 329.436 205.601C329.19 204.893 328.814 204.33 328.31 203.911C327.805 203.493 327.177 203.283 326.426 203.283C325.657 203.283 325.017 203.493 324.506 203.911C324.001 204.33 323.622 204.893 323.37 205.601C323.124 206.303 323.001 207.087 323.001 207.955C323.001 208.817 323.124 209.599 323.37 210.3C323.622 211.002 324.001 211.562 324.506 211.981C325.017 212.393 325.657 212.599 326.426 212.599ZM344.559 209.036V200.818H347.901V215H344.661V212.479H344.513C344.193 213.273 343.666 213.923 342.934 214.428C342.208 214.932 341.312 215.185 340.247 215.185C339.318 215.185 338.496 214.978 337.782 214.566C337.074 214.147 336.52 213.541 336.12 212.747C335.72 211.947 335.52 210.981 335.52 209.848V200.818H338.862V209.331C338.862 210.23 339.108 210.944 339.601 211.473C340.093 212.002 340.74 212.267 341.54 212.267C342.032 212.267 342.509 212.147 342.971 211.907C343.433 211.667 343.811 211.31 344.107 210.836C344.408 210.356 344.559 209.756 344.559 209.036ZM350.818 215V200.818H354.059V203.182H354.207C354.465 202.363 354.908 201.732 355.536 201.289C356.17 200.84 356.894 200.615 357.706 200.615C357.891 200.615 358.097 200.624 358.325 200.643C358.559 200.655 358.752 200.677 358.906 200.707V203.782C358.765 203.733 358.54 203.69 358.232 203.653C357.931 203.61 357.638 203.588 357.355 203.588C356.746 203.588 356.198 203.72 355.712 203.985C355.232 204.244 354.853 204.604 354.576 205.065C354.299 205.527 354.161 206.059 354.161 206.663V215H350.818ZM366.536 215V200.818H369.878V215H366.536ZM368.216 198.805C367.687 198.805 367.232 198.63 366.85 198.279C366.468 197.922 366.278 197.494 366.278 196.996C366.278 196.491 366.468 196.063 366.85 195.712C367.232 195.355 367.687 195.177 368.216 195.177C368.752 195.177 369.207 195.355 369.583 195.712C369.965 196.063 370.155 196.491 370.155 196.996C370.155 197.494 369.965 197.922 369.583 198.279C369.207 198.63 368.752 198.805 368.216 198.805ZM376.138 206.69V215H372.795V200.818H375.99V203.228H376.156C376.482 202.434 377.003 201.803 377.717 201.335C378.437 200.867 379.326 200.634 380.385 200.634C381.364 200.634 382.216 200.843 382.942 201.261C383.675 201.68 384.241 202.286 384.641 203.08C385.048 203.874 385.248 204.838 385.241 205.97V215H381.899V206.487C381.899 205.539 381.653 204.798 381.16 204.262C380.674 203.727 380 203.459 379.138 203.459C378.554 203.459 378.034 203.588 377.578 203.847C377.129 204.099 376.775 204.465 376.516 204.945C376.264 205.425 376.138 206.007 376.138 206.69ZM397.583 220.318V212.766H397.444C397.272 213.11 397.023 213.477 396.697 213.864C396.37 214.246 395.939 214.572 395.404 214.843C394.868 215.114 394.194 215.249 393.382 215.249C392.268 215.249 391.271 214.963 390.39 214.391C389.51 213.818 388.815 212.987 388.304 211.898C387.793 210.808 387.537 209.485 387.537 207.928C387.537 206.352 387.796 205.022 388.313 203.939C388.836 202.849 389.541 202.028 390.427 201.474C391.314 200.914 392.302 200.634 393.391 200.634C394.222 200.634 394.905 200.775 395.441 201.058C395.976 201.335 396.401 201.671 396.715 202.065C397.029 202.452 397.272 202.819 397.444 203.163H397.648V200.818H400.934V220.318H397.583ZM394.314 212.507C395.022 212.507 395.626 212.316 396.124 211.935C396.623 211.547 397.001 211.008 397.26 210.319C397.518 209.629 397.648 208.826 397.648 207.909C397.648 206.992 397.518 206.195 397.26 205.518C397.007 204.841 396.632 204.314 396.133 203.939C395.641 203.563 395.035 203.376 394.314 203.376C393.57 203.376 392.948 203.57 392.449 203.957C391.951 204.345 391.575 204.881 391.323 205.564C391.071 206.247 390.944 207.029 390.944 207.909C390.944 208.795 391.071 209.586 391.323 210.282C391.581 210.971 391.96 211.516 392.459 211.916C392.963 212.31 393.582 212.507 394.314 212.507ZM412.888 209.036V200.818H416.23V215H412.99V212.479H412.842C412.522 213.273 411.996 213.923 411.263 214.428C410.537 214.932 409.641 215.185 408.576 215.185C407.647 215.185 406.825 214.978 406.111 214.566C405.403 214.147 404.849 213.541 404.449 212.747C404.049 211.947 403.849 210.981 403.849 209.848V200.818H407.191V209.331C407.191 210.23 407.438 210.944 407.93 211.473C408.422 212.002 409.069 212.267 409.869 212.267C410.361 212.267 410.838 212.147 411.3 211.907C411.762 211.667 412.14 211.31 412.436 210.836C412.737 210.356 412.888 209.756 412.888 209.036ZM419.148 215V200.818H422.49V215H419.148ZM420.828 198.805C420.299 198.805 419.843 198.63 419.461 198.279C419.08 197.922 418.889 197.494 418.889 196.996C418.889 196.491 419.08 196.063 419.461 195.712C419.843 195.355 420.299 195.177 420.828 195.177C421.363 195.177 421.819 195.355 422.194 195.712C422.576 196.063 422.767 196.491 422.767 196.996C422.767 197.494 422.576 197.922 422.194 198.279C421.819 198.63 421.363 198.805 420.828 198.805ZM425.407 215V200.818H428.648V203.182H428.795C429.054 202.363 429.497 201.732 430.125 201.289C430.759 200.84 431.482 200.615 432.295 200.615C432.479 200.615 432.685 200.624 432.913 200.643C433.147 200.655 433.341 200.677 433.495 200.707V203.782C433.353 203.733 433.129 203.69 432.821 203.653C432.519 203.61 432.227 203.588 431.944 203.588C431.334 203.588 430.787 203.72 430.3 203.985C429.82 204.244 429.442 204.604 429.165 205.065C428.888 205.527 428.749 206.059 428.749 206.663V215H425.407ZM437.704 220.318C437.249 220.318 436.827 220.281 436.439 220.207C436.058 220.14 435.753 220.06 435.525 219.967L436.301 217.364C436.787 217.505 437.221 217.573 437.603 217.567C437.984 217.561 438.32 217.441 438.609 217.207C438.905 216.979 439.154 216.597 439.357 216.062L439.643 215.295L434.501 200.818H438.046L441.314 211.528H441.462L444.74 200.818H448.295L442.616 216.717C442.352 217.468 442.001 218.112 441.564 218.647C441.127 219.189 440.591 219.601 439.957 219.884C439.329 220.174 438.578 220.318 437.704 220.318ZM451.258 215.203C450.698 215.203 450.218 215.006 449.817 214.612C449.417 214.218 449.22 213.738 449.227 213.172C449.22 212.618 449.417 212.144 449.817 211.75C450.218 211.356 450.698 211.159 451.258 211.159C451.799 211.159 452.27 211.356 452.67 211.75C453.077 212.144 453.283 212.618 453.289 213.172C453.283 213.547 453.184 213.889 452.994 214.197C452.809 214.504 452.563 214.751 452.255 214.935C451.953 215.114 451.621 215.203 451.258 215.203Z" fill="#011445"/>
<path d="M106.292 251.897V249.909H116.736V251.897H112.69V263H110.338V251.897H106.292ZM120.961 257.247V263H118.647V249.909H120.91V254.85H121.025C121.255 254.296 121.611 253.859 122.093 253.54C122.578 253.216 123.196 253.054 123.946 253.054C124.628 253.054 125.223 253.197 125.73 253.482C126.237 253.768 126.629 254.185 126.906 254.735C127.187 255.285 127.328 255.956 127.328 256.749V263H125.014V257.107C125.014 256.446 124.843 255.933 124.502 255.566C124.166 255.195 123.693 255.01 123.083 255.01C122.674 255.01 122.308 255.099 121.984 255.278C121.664 255.453 121.413 255.707 121.23 256.039C121.051 256.371 120.961 256.774 120.961 257.247ZM132.512 263.198C131.89 263.198 131.329 263.087 130.831 262.866C130.336 262.64 129.944 262.308 129.654 261.869C129.369 261.43 129.226 260.888 129.226 260.245C129.226 259.691 129.328 259.233 129.533 258.871C129.738 258.509 130.017 258.219 130.37 258.001C130.724 257.784 131.122 257.62 131.566 257.509C132.013 257.394 132.475 257.311 132.953 257.26C133.528 257.2 133.995 257.147 134.353 257.1C134.711 257.049 134.97 256.972 135.132 256.87C135.299 256.763 135.382 256.599 135.382 256.378V256.339C135.382 255.858 135.239 255.485 134.953 255.221C134.668 254.957 134.257 254.825 133.72 254.825C133.153 254.825 132.703 254.948 132.371 255.195C132.043 255.442 131.821 255.734 131.706 256.071L129.546 255.764C129.716 255.168 129.997 254.669 130.39 254.268C130.782 253.864 131.261 253.561 131.828 253.361C132.394 253.156 133.021 253.054 133.707 253.054C134.18 253.054 134.651 253.109 135.12 253.22C135.588 253.331 136.017 253.514 136.404 253.77C136.792 254.021 137.103 254.364 137.338 254.799C137.576 255.234 137.696 255.777 137.696 256.429V263H135.471V261.651H135.394C135.254 261.924 135.056 262.18 134.8 262.418C134.549 262.653 134.231 262.842 133.848 262.987C133.468 263.128 133.023 263.198 132.512 263.198ZM133.113 261.498C133.577 261.498 133.98 261.406 134.321 261.223C134.662 261.036 134.924 260.788 135.107 260.482C135.294 260.175 135.388 259.84 135.388 259.478V258.321C135.316 258.381 135.192 258.436 135.017 258.487C134.847 258.538 134.655 258.583 134.442 258.621C134.229 258.66 134.018 258.694 133.809 258.724C133.6 258.754 133.419 258.779 133.266 258.8C132.921 258.847 132.612 258.924 132.339 259.031C132.066 259.137 131.851 259.286 131.693 259.478C131.536 259.665 131.457 259.908 131.457 260.207C131.457 260.633 131.613 260.955 131.924 261.172C132.235 261.389 132.631 261.498 133.113 261.498ZM142.336 257.247V263H140.022V253.182H142.234V254.85H142.349C142.575 254.3 142.935 253.864 143.429 253.54C143.928 253.216 144.544 253.054 145.277 253.054C145.954 253.054 146.544 253.199 147.047 253.489C147.554 253.778 147.946 254.198 148.223 254.748C148.505 255.298 148.643 255.964 148.639 256.749V263H146.325V257.107C146.325 256.45 146.154 255.937 145.814 255.566C145.477 255.195 145.01 255.01 144.414 255.01C144.009 255.01 143.649 255.099 143.333 255.278C143.022 255.453 142.777 255.707 142.598 256.039C142.424 256.371 142.336 256.774 142.336 257.247ZM153.1 259.919L153.094 257.126H153.465L156.993 253.182H159.697L155.357 258.014H154.877L153.1 259.919ZM150.991 263V249.909H153.305V263H150.991ZM157.153 263L153.957 258.532L155.517 256.902L159.921 263H157.153ZM167.142 266.682C166.827 266.682 166.535 266.656 166.266 266.605C166.002 266.558 165.791 266.503 165.634 266.439L166.171 264.636C166.507 264.734 166.808 264.781 167.072 264.777C167.336 264.773 167.568 264.69 167.769 264.528C167.973 264.37 168.146 264.106 168.286 263.735L168.485 263.205L164.924 253.182H167.379L169.641 260.597H169.744L172.013 253.182H174.474L170.543 264.189C170.36 264.709 170.117 265.154 169.814 265.525C169.511 265.9 169.141 266.185 168.702 266.381C168.267 266.582 167.747 266.682 167.142 266.682ZM180.024 263.192C179.065 263.192 178.234 262.981 177.531 262.559C176.828 262.137 176.282 261.547 175.894 260.788C175.511 260.03 175.319 259.143 175.319 258.129C175.319 257.115 175.511 256.227 175.894 255.464C176.282 254.701 176.828 254.109 177.531 253.687C178.234 253.265 179.065 253.054 180.024 253.054C180.983 253.054 181.814 253.265 182.517 253.687C183.22 254.109 183.763 254.701 184.147 255.464C184.534 256.227 184.728 257.115 184.728 258.129C184.728 259.143 184.534 260.03 184.147 260.788C183.763 261.547 183.22 262.137 182.517 262.559C181.814 262.981 180.983 263.192 180.024 263.192ZM180.037 261.338C180.556 261.338 180.991 261.195 181.341 260.91C181.69 260.62 181.95 260.232 182.12 259.746C182.295 259.261 182.382 258.719 182.382 258.123C182.382 257.522 182.295 256.979 182.12 256.493C181.95 256.003 181.69 255.613 181.341 255.323C180.991 255.033 180.556 254.888 180.037 254.888C179.504 254.888 179.061 255.033 178.707 255.323C178.358 255.613 178.095 256.003 177.921 256.493C177.75 256.979 177.665 257.522 177.665 258.123C177.665 258.719 177.75 259.261 177.921 259.746C178.095 260.232 178.358 260.62 178.707 260.91C179.061 261.195 179.504 261.338 180.037 261.338ZM192.95 258.871V253.182H195.264V263H193.02V261.255H192.918C192.697 261.805 192.332 262.254 191.825 262.604C191.322 262.953 190.702 263.128 189.965 263.128C189.322 263.128 188.753 262.985 188.258 262.7C187.768 262.41 187.385 261.99 187.108 261.44C186.831 260.886 186.692 260.217 186.692 259.433V253.182H189.006V259.075C189.006 259.697 189.177 260.192 189.518 260.558C189.858 260.925 190.306 261.108 190.86 261.108C191.201 261.108 191.531 261.025 191.851 260.859C192.17 260.692 192.432 260.445 192.637 260.117C192.846 259.785 192.95 259.369 192.95 258.871ZM207.081 253.182V254.972H201.277V253.182H207.081ZM202.728 263V252.255C202.728 251.594 202.865 251.045 203.137 250.606C203.414 250.167 203.785 249.839 204.25 249.621C204.714 249.404 205.23 249.295 205.796 249.295C206.197 249.295 206.553 249.327 206.864 249.391C207.175 249.455 207.405 249.513 207.554 249.564L207.094 251.354C206.996 251.324 206.872 251.294 206.723 251.264C206.574 251.23 206.408 251.213 206.225 251.213C205.794 251.213 205.49 251.317 205.311 251.526C205.136 251.731 205.049 252.025 205.049 252.408V263H202.728ZM212.807 263.192C211.848 263.192 211.017 262.981 210.314 262.559C209.611 262.137 209.065 261.547 208.678 260.788C208.294 260.03 208.102 259.143 208.102 258.129C208.102 257.115 208.294 256.227 208.678 255.464C209.065 254.701 209.611 254.109 210.314 253.687C211.017 253.265 211.848 253.054 212.807 253.054C213.766 253.054 214.597 253.265 215.3 253.687C216.003 254.109 216.546 254.701 216.93 255.464C217.318 256.227 217.511 257.115 217.511 258.129C217.511 259.143 217.318 260.03 216.93 260.788C216.546 261.547 216.003 262.137 215.3 262.559C214.597 262.981 213.766 263.192 212.807 263.192ZM212.82 261.338C213.34 261.338 213.774 261.195 214.124 260.91C214.473 260.62 214.733 260.232 214.904 259.746C215.078 259.261 215.166 258.719 215.166 258.123C215.166 257.522 215.078 256.979 214.904 256.493C214.733 256.003 214.473 255.613 214.124 255.323C213.774 255.033 213.34 254.888 212.82 254.888C212.287 254.888 211.844 255.033 211.49 255.323C211.141 255.613 210.879 256.003 210.704 256.493C210.534 256.979 210.448 257.522 210.448 258.123C210.448 258.719 210.534 259.261 210.704 259.746C210.879 260.232 211.141 260.62 211.49 260.91C211.844 261.195 212.287 261.338 212.82 261.338ZM219.475 263V253.182H221.719V254.818H221.821C222 254.251 222.307 253.815 222.742 253.508C223.181 253.197 223.681 253.041 224.244 253.041C224.372 253.041 224.515 253.048 224.672 253.06C224.834 253.069 224.968 253.084 225.075 253.105V255.234C224.977 255.2 224.821 255.17 224.608 255.144C224.399 255.114 224.197 255.099 224.001 255.099C223.579 255.099 223.2 255.191 222.863 255.374C222.531 255.553 222.269 255.803 222.077 256.122C221.885 256.442 221.789 256.81 221.789 257.228V263H219.475ZM235.36 263.192C234.38 263.192 233.538 262.977 232.835 262.546C232.136 262.116 231.597 261.521 231.218 260.763C230.843 260 230.655 259.122 230.655 258.129C230.655 257.132 230.847 256.252 231.23 255.489C231.614 254.722 232.155 254.126 232.854 253.7C233.557 253.269 234.388 253.054 235.347 253.054C236.144 253.054 236.849 253.201 237.463 253.495C238.081 253.785 238.573 254.196 238.939 254.729C239.306 255.257 239.515 255.875 239.566 256.582H237.354C237.265 256.109 237.051 255.715 236.715 255.4C236.382 255.08 235.937 254.92 235.379 254.92C234.906 254.92 234.49 255.048 234.132 255.304C233.774 255.555 233.495 255.918 233.295 256.391C233.099 256.864 233.001 257.43 233.001 258.091C233.001 258.76 233.099 259.335 233.295 259.817C233.491 260.294 233.766 260.663 234.12 260.923C234.478 261.178 234.897 261.306 235.379 261.306C235.72 261.306 236.024 261.242 236.293 261.114C236.566 260.982 236.794 260.793 236.977 260.545C237.16 260.298 237.286 259.998 237.354 259.644H239.566C239.51 260.339 239.306 260.955 238.952 261.491C238.598 262.024 238.117 262.442 237.507 262.744C236.898 263.043 236.182 263.192 235.36 263.192ZM245.748 263.192C244.79 263.192 243.959 262.981 243.255 262.559C242.552 262.137 242.007 261.547 241.619 260.788C241.236 260.03 241.044 259.143 241.044 258.129C241.044 257.115 241.236 256.227 241.619 255.464C242.007 254.701 242.552 254.109 243.255 253.687C243.959 253.265 244.79 253.054 245.748 253.054C246.707 253.054 247.538 253.265 248.241 253.687C248.944 254.109 249.488 254.701 249.871 255.464C250.259 256.227 250.453 257.115 250.453 258.129C250.453 259.143 250.259 260.03 249.871 260.788C249.488 261.547 248.944 262.137 248.241 262.559C247.538 262.981 246.707 263.192 245.748 263.192ZM245.761 261.338C246.281 261.338 246.716 261.195 247.065 260.91C247.415 260.62 247.674 260.232 247.845 259.746C248.02 259.261 248.107 258.719 248.107 258.123C248.107 257.522 248.02 256.979 247.845 256.493C247.674 256.003 247.415 255.613 247.065 255.323C246.716 255.033 246.281 254.888 245.761 254.888C245.228 254.888 244.785 255.033 244.432 255.323C244.082 255.613 243.82 256.003 243.645 256.493C243.475 256.979 243.39 257.522 243.39 258.123C243.39 258.719 243.475 259.261 243.645 259.746C243.82 260.232 244.082 260.62 244.432 260.91C244.785 261.195 245.228 261.338 245.761 261.338ZM254.731 257.247V263H252.417V253.182H254.629V254.85H254.744C254.969 254.3 255.329 253.864 255.824 253.54C256.322 253.216 256.938 253.054 257.671 253.054C258.349 253.054 258.939 253.199 259.442 253.489C259.949 253.778 260.341 254.198 260.618 254.748C260.899 255.298 261.038 255.964 261.033 256.749V263H258.719V257.107C258.719 256.45 258.549 255.937 258.208 255.566C257.871 255.195 257.405 255.01 256.808 255.01C256.403 255.01 256.043 255.099 255.728 255.278C255.417 255.453 255.172 255.707 254.993 256.039C254.818 256.371 254.731 256.774 254.731 257.247ZM268.288 253.182V254.972H262.644V253.182H268.288ZM264.038 250.83H266.352V260.047C266.352 260.358 266.398 260.597 266.492 260.763C266.59 260.925 266.718 261.036 266.876 261.095C267.033 261.155 267.208 261.185 267.4 261.185C267.545 261.185 267.677 261.174 267.796 261.153C267.92 261.131 268.013 261.112 268.077 261.095L268.467 262.904C268.344 262.947 268.167 262.994 267.937 263.045C267.711 263.096 267.434 263.126 267.106 263.134C266.526 263.151 266.004 263.064 265.54 262.872C265.075 262.676 264.707 262.374 264.434 261.964C264.165 261.555 264.033 261.044 264.038 260.43V250.83ZM273.049 263.198C272.427 263.198 271.866 263.087 271.368 262.866C270.873 262.64 270.481 262.308 270.192 261.869C269.906 261.43 269.763 260.888 269.763 260.245C269.763 259.691 269.866 259.233 270.07 258.871C270.275 258.509 270.554 258.219 270.907 258.001C271.261 257.784 271.66 257.62 272.103 257.509C272.55 257.394 273.013 257.311 273.49 257.26C274.065 257.2 274.532 257.147 274.89 257.1C275.248 257.049 275.508 256.972 275.67 256.87C275.836 256.763 275.919 256.599 275.919 256.378V256.339C275.919 255.858 275.776 255.485 275.491 255.221C275.205 254.957 274.794 254.825 274.257 254.825C273.69 254.825 273.241 254.948 272.908 255.195C272.58 255.442 272.358 255.734 272.243 256.071L270.083 255.764C270.253 255.168 270.535 254.669 270.927 254.268C271.319 253.864 271.798 253.561 272.365 253.361C272.932 253.156 273.558 253.054 274.244 253.054C274.717 253.054 275.188 253.109 275.657 253.22C276.125 253.331 276.554 253.514 276.942 253.77C277.329 254.021 277.64 254.364 277.875 254.799C278.113 255.234 278.233 255.777 278.233 256.429V263H276.008V261.651H275.932C275.791 261.924 275.593 262.18 275.337 262.418C275.086 262.653 274.768 262.842 274.385 262.987C274.005 263.128 273.56 263.198 273.049 263.198ZM273.65 261.498C274.114 261.498 274.517 261.406 274.858 261.223C275.199 261.036 275.461 260.788 275.644 260.482C275.831 260.175 275.925 259.84 275.925 259.478V258.321C275.853 258.381 275.729 258.436 275.554 258.487C275.384 258.538 275.192 258.583 274.979 258.621C274.766 258.66 274.555 258.694 274.346 258.724C274.138 258.754 273.956 258.779 273.803 258.8C273.458 258.847 273.149 258.924 272.876 259.031C272.603 259.137 272.388 259.286 272.231 259.478C272.073 259.665 271.994 259.908 271.994 260.207C271.994 260.633 272.15 260.955 272.461 261.172C272.772 261.389 273.168 261.498 273.65 261.498ZM284.842 263.192C283.862 263.192 283.02 262.977 282.317 262.546C281.618 262.116 281.079 261.521 280.7 260.763C280.325 260 280.138 259.122 280.138 258.129C280.138 257.132 280.329 256.252 280.713 255.489C281.096 254.722 281.638 254.126 282.336 253.7C283.04 253.269 283.871 253.054 284.829 253.054C285.626 253.054 286.331 253.201 286.945 253.495C287.563 253.785 288.055 254.196 288.422 254.729C288.788 255.257 288.997 255.875 289.048 256.582H286.836C286.747 256.109 286.534 255.715 286.197 255.4C285.865 255.08 285.42 254.92 284.861 254.92C284.388 254.92 283.973 255.048 283.615 255.304C283.257 255.555 282.978 255.918 282.777 256.391C282.581 256.864 282.483 257.43 282.483 258.091C282.483 258.76 282.581 259.335 282.777 259.817C282.973 260.294 283.248 260.663 283.602 260.923C283.96 261.178 284.38 261.306 284.861 261.306C285.202 261.306 285.507 261.242 285.775 261.114C286.048 260.982 286.276 260.793 286.459 260.545C286.643 260.298 286.768 259.998 286.836 259.644H289.048C288.993 260.339 288.788 260.955 288.434 261.491C288.081 262.024 287.599 262.442 286.99 262.744C286.38 263.043 285.665 263.192 284.842 263.192ZM295.851 253.182V254.972H290.207V253.182H295.851ZM291.6 250.83H293.914V260.047C293.914 260.358 293.961 260.597 294.055 260.763C294.153 260.925 294.28 261.036 294.438 261.095C294.596 261.155 294.771 261.185 294.962 261.185C295.107 261.185 295.239 261.174 295.359 261.153C295.482 261.131 295.576 261.112 295.64 261.095L296.03 262.904C295.906 262.947 295.729 262.994 295.499 263.045C295.273 263.096 294.996 263.126 294.668 263.134C294.089 263.151 293.567 263.064 293.102 262.872C292.638 262.676 292.269 262.374 291.996 261.964C291.728 261.555 291.596 261.044 291.6 260.43V250.83ZM297.786 263V253.182H300.1V263H297.786ZM298.949 251.788C298.583 251.788 298.268 251.667 298.003 251.424C297.739 251.177 297.607 250.881 297.607 250.536C297.607 250.186 297.739 249.89 298.003 249.647C298.268 249.4 298.583 249.276 298.949 249.276C299.32 249.276 299.635 249.4 299.895 249.647C300.16 249.89 300.292 250.186 300.292 250.536C300.292 250.881 300.16 251.177 299.895 251.424C299.635 251.667 299.32 251.788 298.949 251.788ZM304.793 257.247V263H302.479V253.182H304.691V254.85H304.806C305.032 254.3 305.392 253.864 305.886 253.54C306.385 253.216 307.001 253.054 307.734 253.054C308.411 253.054 309.001 253.199 309.504 253.489C310.011 253.778 310.403 254.198 310.68 254.748C310.962 255.298 311.1 255.964 311.096 256.749V263H308.782V257.107C308.782 256.45 308.611 255.937 308.271 255.566C307.934 255.195 307.467 255.01 306.871 255.01C306.466 255.01 306.106 255.099 305.79 255.278C305.479 255.453 305.234 255.707 305.055 256.039C304.881 256.371 304.793 256.774 304.793 257.247ZM317.718 266.886C316.887 266.886 316.173 266.773 315.577 266.548C314.98 266.326 314.501 266.028 314.138 265.653C313.776 265.278 313.525 264.862 313.384 264.406L315.468 263.901C315.562 264.093 315.698 264.283 315.877 264.47C316.056 264.662 316.297 264.82 316.599 264.943C316.906 265.071 317.292 265.135 317.756 265.135C318.413 265.135 318.956 264.975 319.386 264.656C319.817 264.34 320.032 263.82 320.032 263.096V261.236H319.917C319.798 261.474 319.623 261.719 319.393 261.971C319.167 262.222 318.866 262.433 318.491 262.604C318.121 262.774 317.654 262.859 317.092 262.859C316.337 262.859 315.653 262.683 315.04 262.329C314.43 261.971 313.945 261.438 313.582 260.731C313.224 260.019 313.045 259.129 313.045 258.059C313.045 256.981 313.224 256.071 313.582 255.33C313.945 254.584 314.432 254.019 315.046 253.636C315.66 253.248 316.344 253.054 317.098 253.054C317.673 253.054 318.146 253.152 318.517 253.348C318.892 253.54 319.19 253.772 319.412 254.045C319.633 254.313 319.802 254.567 319.917 254.805H320.045V253.182H322.327V263.16C322.327 263.999 322.126 264.694 321.726 265.244C321.325 265.793 320.778 266.205 320.083 266.477C319.388 266.75 318.6 266.886 317.718 266.886ZM317.737 261.044C318.227 261.044 318.645 260.925 318.99 260.686C319.335 260.447 319.597 260.104 319.776 259.657C319.955 259.21 320.045 258.673 320.045 258.046C320.045 257.428 319.955 256.887 319.776 256.423C319.602 255.958 319.342 255.598 318.996 255.342C318.655 255.082 318.236 254.952 317.737 254.952C317.222 254.952 316.791 255.087 316.446 255.355C316.101 255.624 315.841 255.992 315.666 256.461C315.491 256.925 315.404 257.454 315.404 258.046C315.404 258.647 315.491 259.173 315.666 259.625C315.845 260.072 316.107 260.422 316.452 260.673C316.802 260.92 317.23 261.044 317.737 261.044ZM340.47 254.326H338.08C338.012 253.934 337.886 253.587 337.703 253.284C337.519 252.977 337.292 252.717 337.019 252.504C336.746 252.291 336.435 252.131 336.086 252.025C335.74 251.914 335.367 251.859 334.967 251.859C334.255 251.859 333.625 252.038 333.075 252.396C332.525 252.749 332.095 253.269 331.784 253.955C331.473 254.637 331.317 255.47 331.317 256.455C331.317 257.456 331.473 258.3 331.784 258.986C332.099 259.668 332.529 260.183 333.075 260.533C333.625 260.878 334.253 261.05 334.961 261.05C335.353 261.05 335.719 260.999 336.06 260.897C336.405 260.79 336.714 260.635 336.987 260.43C337.264 260.226 337.496 259.974 337.684 259.676C337.875 259.378 338.007 259.037 338.08 258.653L340.47 258.666C340.381 259.288 340.187 259.872 339.889 260.418C339.595 260.963 339.209 261.445 338.732 261.862C338.255 262.276 337.696 262.599 337.057 262.834C336.418 263.064 335.708 263.179 334.929 263.179C333.778 263.179 332.751 262.913 331.848 262.38C330.944 261.847 330.233 261.078 329.713 260.072C329.193 259.067 328.933 257.861 328.933 256.455C328.933 255.044 329.195 253.838 329.719 252.837C330.243 251.831 330.957 251.062 331.86 250.529C332.764 249.996 333.787 249.73 334.929 249.73C335.657 249.73 336.335 249.832 336.961 250.037C337.588 250.241 338.146 250.542 338.636 250.938C339.126 251.33 339.529 251.812 339.844 252.383C340.164 252.95 340.372 253.597 340.47 254.326ZM345.365 263.198C344.743 263.198 344.183 263.087 343.684 262.866C343.19 262.64 342.798 262.308 342.508 261.869C342.222 261.43 342.08 260.888 342.08 260.245C342.08 259.691 342.182 259.233 342.386 258.871C342.591 258.509 342.87 258.219 343.224 258.001C343.578 257.784 343.976 257.62 344.419 257.509C344.867 257.394 345.329 257.311 345.806 257.26C346.382 257.2 346.848 257.147 347.206 257.1C347.564 257.049 347.824 256.972 347.986 256.87C348.152 256.763 348.235 256.599 348.235 256.378V256.339C348.235 255.858 348.092 255.485 347.807 255.221C347.521 254.957 347.11 254.825 346.573 254.825C346.007 254.825 345.557 254.948 345.225 255.195C344.896 255.442 344.675 255.734 344.56 256.071L342.399 255.764C342.57 255.168 342.851 254.669 343.243 254.268C343.635 253.864 344.114 253.561 344.681 253.361C345.248 253.156 345.874 253.054 346.56 253.054C347.034 253.054 347.504 253.109 347.973 253.22C348.442 253.331 348.87 253.514 349.258 253.77C349.646 254.021 349.957 254.364 350.191 254.799C350.43 255.234 350.549 255.777 350.549 256.429V263H348.325V261.651H348.248C348.107 261.924 347.909 262.18 347.654 262.418C347.402 262.653 347.085 262.842 346.701 262.987C346.322 263.128 345.877 263.198 345.365 263.198ZM345.966 261.498C346.431 261.498 346.833 261.406 347.174 261.223C347.515 261.036 347.777 260.788 347.96 260.482C348.148 260.175 348.242 259.84 348.242 259.478V258.321C348.169 258.381 348.046 258.436 347.871 258.487C347.7 258.538 347.509 258.583 347.296 258.621C347.083 258.66 346.872 258.694 346.663 258.724C346.454 258.754 346.273 258.779 346.119 258.8C345.774 258.847 345.465 258.924 345.193 259.031C344.92 259.137 344.705 259.286 344.547 259.478C344.389 259.665 344.31 259.908 344.31 260.207C344.31 260.633 344.466 260.955 344.777 261.172C345.088 261.389 345.485 261.498 345.966 261.498ZM352.876 263V253.182H355.119V254.818H355.222C355.401 254.251 355.708 253.815 356.142 253.508C356.581 253.197 357.082 253.041 357.644 253.041C357.772 253.041 357.915 253.048 358.073 253.06C358.235 253.069 358.369 253.084 358.475 253.105V255.234C358.377 255.2 358.222 255.17 358.009 255.144C357.8 255.114 357.597 255.099 357.401 255.099C356.98 255.099 356.6 255.191 356.264 255.374C355.931 255.553 355.669 255.803 355.477 256.122C355.286 256.442 355.19 256.81 355.19 257.228V263H352.876ZM361.75 266.682C361.434 266.682 361.142 266.656 360.874 266.605C360.61 266.558 360.399 266.503 360.241 266.439L360.778 264.636C361.115 264.734 361.415 264.781 361.679 264.777C361.943 264.773 362.176 264.69 362.376 264.528C362.581 264.37 362.753 264.106 362.894 263.735L363.092 263.205L359.532 253.182H361.986L364.249 260.597H364.351L366.62 253.182H369.081L365.15 264.189C364.967 264.709 364.724 265.154 364.421 265.525C364.119 265.9 363.748 266.185 363.309 266.381C362.875 266.582 362.355 266.682 361.75 266.682ZM370.785 263V249.909H375.694C376.7 249.909 377.543 250.084 378.225 250.433C378.911 250.783 379.429 251.273 379.778 251.903C380.132 252.53 380.309 253.261 380.309 254.096C380.309 254.935 380.13 255.664 379.772 256.282C379.418 256.896 378.896 257.371 378.206 257.707C377.516 258.04 376.668 258.206 375.662 258.206H372.165V256.237H375.342C375.93 256.237 376.412 256.156 376.787 255.994C377.162 255.828 377.439 255.587 377.618 255.272C377.801 254.952 377.893 254.56 377.893 254.096C377.893 253.631 377.801 253.235 377.618 252.907C377.435 252.575 377.155 252.323 376.78 252.153C376.405 251.978 375.922 251.891 375.329 251.891H373.156V263H370.785ZM377.548 257.068L380.788 263H378.142L374.959 257.068H377.548ZM384.282 253.182L386.263 256.806L388.277 253.182H390.725L387.765 258.091L390.776 263H388.341L386.263 259.465L384.205 263H381.75L384.742 258.091L381.827 253.182H384.282ZM393.94 263.141C393.552 263.141 393.22 263.004 392.943 262.732C392.666 262.459 392.529 262.126 392.534 261.734C392.529 261.351 392.666 261.023 392.943 260.75C393.22 260.477 393.552 260.341 393.94 260.341C394.315 260.341 394.641 260.477 394.918 260.75C395.199 261.023 395.342 261.351 395.346 261.734C395.342 261.994 395.274 262.231 395.142 262.444C395.014 262.657 394.843 262.827 394.63 262.955C394.421 263.079 394.191 263.141 393.94 263.141ZM404.57 263L400.99 249.909H402.601L405.337 260.571H405.465L408.252 249.909H410.042L412.828 260.571H412.956L415.692 249.909H417.303L413.723 263H412.087L409.198 252.568H409.095L406.206 263H404.57ZM422.276 263.205C421.33 263.205 420.514 262.996 419.828 262.578C419.146 262.156 418.62 261.568 418.249 260.814C417.882 260.055 417.699 259.173 417.699 258.168C417.699 257.162 417.882 256.276 418.249 255.509C418.62 254.737 419.135 254.136 419.796 253.706C420.461 253.271 421.236 253.054 422.122 253.054C422.634 253.054 423.139 253.139 423.637 253.31C424.136 253.48 424.59 253.757 424.999 254.141C425.408 254.52 425.734 255.023 425.977 255.649C426.22 256.276 426.341 257.047 426.341 257.963V258.602H418.773V257.298H424.807C424.807 256.744 424.696 256.25 424.475 255.815C424.257 255.381 423.946 255.038 423.542 254.786C423.141 254.535 422.668 254.409 422.122 254.409C421.522 254.409 421.002 254.558 420.563 254.857C420.128 255.151 419.794 255.534 419.559 256.007C419.325 256.48 419.208 256.987 419.208 257.528V258.398C419.208 259.139 419.336 259.768 419.591 260.283C419.851 260.795 420.211 261.185 420.671 261.453C421.132 261.717 421.667 261.849 422.276 261.849C422.672 261.849 423.03 261.794 423.35 261.683C423.674 261.568 423.953 261.398 424.187 261.172C424.421 260.942 424.603 260.656 424.73 260.315L426.188 260.724C426.034 261.219 425.777 261.653 425.414 262.028C425.052 262.399 424.605 262.689 424.072 262.898C423.539 263.102 422.941 263.205 422.276 263.205ZM429.966 249.909V251.06C429.966 251.409 429.902 251.782 429.774 252.178C429.65 252.57 429.467 252.952 429.224 253.322C428.985 253.689 428.696 254.009 428.355 254.281L427.537 253.616C427.805 253.233 428.037 252.835 428.233 252.421C428.434 252.004 428.534 251.558 428.534 251.085V249.909H429.966ZM433.467 249.909V263H431.958V249.909H433.467ZM437.738 249.909V263H436.23V249.909H437.738ZM148.432 295V285.182H149.889V286.665H149.992C150.17 286.179 150.494 285.785 150.963 285.482C151.432 285.18 151.96 285.028 152.548 285.028C152.659 285.028 152.798 285.031 152.964 285.035C153.13 285.039 153.256 285.045 153.341 285.054V286.588C153.29 286.575 153.173 286.556 152.989 286.531C152.81 286.501 152.621 286.486 152.42 286.486C151.943 286.486 151.517 286.586 151.142 286.786C150.771 286.982 150.477 287.255 150.26 287.604C150.047 287.95 149.94 288.344 149.94 288.787V295H148.432ZM158.947 295.205C158.001 295.205 157.185 294.996 156.499 294.578C155.817 294.156 155.291 293.568 154.92 292.814C154.553 292.055 154.37 291.173 154.37 290.168C154.37 289.162 154.553 288.276 154.92 287.509C155.291 286.737 155.806 286.136 156.467 285.706C157.131 285.271 157.907 285.054 158.793 285.054C159.305 285.054 159.81 285.139 160.308 285.31C160.807 285.48 161.261 285.757 161.67 286.141C162.079 286.52 162.405 287.023 162.648 287.649C162.891 288.276 163.012 289.047 163.012 289.963V290.602H155.444V289.298H161.478C161.478 288.744 161.367 288.25 161.146 287.815C160.928 287.381 160.617 287.038 160.212 286.786C159.812 286.535 159.339 286.409 158.793 286.409C158.193 286.409 157.673 286.558 157.234 286.857C156.799 287.151 156.465 287.534 156.23 288.007C155.996 288.48 155.879 288.987 155.879 289.528V290.398C155.879 291.139 156.006 291.768 156.262 292.283C156.522 292.795 156.882 293.185 157.342 293.453C157.803 293.717 158.337 293.849 158.947 293.849C159.343 293.849 159.701 293.794 160.021 293.683C160.345 293.568 160.624 293.398 160.858 293.172C161.092 292.942 161.273 292.656 161.401 292.315L162.859 292.724C162.705 293.219 162.447 293.653 162.085 294.028C161.723 294.399 161.276 294.689 160.743 294.898C160.21 295.102 159.612 295.205 158.947 295.205ZM172.261 287.381L170.906 287.764C170.821 287.538 170.695 287.319 170.529 287.106C170.367 286.888 170.146 286.71 169.864 286.569C169.583 286.428 169.223 286.358 168.784 286.358C168.183 286.358 167.683 286.496 167.282 286.773C166.886 287.046 166.688 287.393 166.688 287.815C166.688 288.19 166.824 288.487 167.097 288.704C167.369 288.921 167.795 289.102 168.375 289.247L169.832 289.605C170.71 289.818 171.364 290.144 171.795 290.583C172.225 291.018 172.44 291.578 172.44 292.264C172.44 292.827 172.278 293.33 171.955 293.773C171.635 294.216 171.188 294.565 170.612 294.821C170.037 295.077 169.368 295.205 168.605 295.205C167.604 295.205 166.775 294.987 166.119 294.553C165.462 294.118 165.047 293.483 164.872 292.648L166.304 292.29C166.44 292.818 166.698 293.214 167.077 293.479C167.461 293.743 167.962 293.875 168.58 293.875C169.283 293.875 169.841 293.726 170.254 293.428C170.672 293.125 170.881 292.763 170.881 292.341C170.881 292 170.761 291.714 170.523 291.484C170.284 291.25 169.918 291.075 169.423 290.96L167.787 290.577C166.888 290.364 166.227 290.033 165.805 289.586C165.388 289.134 165.179 288.57 165.179 287.892C165.179 287.338 165.335 286.848 165.646 286.422C165.961 285.996 166.389 285.661 166.93 285.418C167.476 285.175 168.094 285.054 168.784 285.054C169.756 285.054 170.519 285.267 171.072 285.693C171.631 286.119 172.027 286.682 172.261 287.381ZM174.711 298.682V285.182H176.169V286.741H176.348C176.458 286.571 176.612 286.354 176.808 286.089C177.008 285.821 177.294 285.582 177.664 285.374C178.039 285.161 178.546 285.054 179.186 285.054C180.012 285.054 180.741 285.261 181.372 285.674C182.002 286.087 182.495 286.673 182.848 287.432C183.202 288.19 183.379 289.085 183.379 290.116C183.379 291.156 183.202 292.058 182.848 292.82C182.495 293.579 182.004 294.167 181.378 294.585C180.752 294.998 180.029 295.205 179.211 295.205C178.58 295.205 178.076 295.1 177.696 294.891C177.317 294.678 177.025 294.437 176.821 294.169C176.616 293.896 176.458 293.67 176.348 293.491H176.22V298.682H174.711ZM176.194 290.091C176.194 290.832 176.303 291.487 176.52 292.053C176.737 292.616 177.055 293.057 177.473 293.376C177.89 293.692 178.401 293.849 179.007 293.849C179.637 293.849 180.164 293.683 180.585 293.351C181.012 293.014 181.331 292.562 181.544 291.996C181.762 291.425 181.87 290.79 181.87 290.091C181.87 289.401 181.764 288.778 181.551 288.224C181.342 287.666 181.024 287.225 180.598 286.901C180.176 286.573 179.646 286.409 179.007 286.409C178.393 286.409 177.877 286.565 177.46 286.876C177.042 287.183 176.727 287.613 176.514 288.167C176.301 288.717 176.194 289.358 176.194 290.091ZM189.669 295.205C188.782 295.205 188.004 294.994 187.335 294.572C186.671 294.15 186.151 293.56 185.776 292.801C185.405 292.043 185.22 291.156 185.22 290.142C185.22 289.119 185.405 288.227 185.776 287.464C186.151 286.701 186.671 286.109 187.335 285.687C188.004 285.265 188.782 285.054 189.669 285.054C190.555 285.054 191.33 285.265 191.995 285.687C192.664 286.109 193.184 286.701 193.555 287.464C193.93 288.227 194.117 289.119 194.117 290.142C194.117 291.156 193.93 292.043 193.555 292.801C193.184 293.56 192.664 294.15 191.995 294.572C191.33 294.994 190.555 295.205 189.669 295.205ZM189.669 293.849C190.342 293.849 190.896 293.677 191.33 293.332C191.765 292.987 192.087 292.533 192.296 291.97C192.504 291.408 192.609 290.798 192.609 290.142C192.609 289.486 192.504 288.874 192.296 288.308C192.087 287.741 191.765 287.283 191.33 286.933C190.896 286.584 190.342 286.409 189.669 286.409C188.995 286.409 188.441 286.584 188.007 286.933C187.572 287.283 187.25 287.741 187.041 288.308C186.833 288.874 186.728 289.486 186.728 290.142C186.728 290.798 186.833 291.408 187.041 291.97C187.25 292.533 187.572 292.987 188.007 293.332C188.441 293.677 188.995 293.849 189.669 293.849ZM197.929 289.094V295H196.42V285.182H197.878V286.716H198.005C198.235 286.217 198.585 285.817 199.054 285.514C199.522 285.207 200.128 285.054 200.869 285.054C201.534 285.054 202.115 285.19 202.614 285.463C203.113 285.732 203.5 286.141 203.777 286.69C204.054 287.236 204.193 287.926 204.193 288.761V295H202.684V288.864C202.684 288.092 202.484 287.491 202.083 287.061C201.683 286.626 201.133 286.409 200.434 286.409C199.953 286.409 199.522 286.513 199.143 286.722C198.768 286.931 198.472 287.236 198.255 287.636C198.037 288.037 197.929 288.523 197.929 289.094ZM210.657 295.205C209.839 295.205 209.116 294.998 208.49 294.585C207.864 294.167 207.373 293.579 207.02 292.82C206.666 292.058 206.489 291.156 206.489 290.116C206.489 289.085 206.666 288.19 207.02 287.432C207.373 286.673 207.866 286.087 208.496 285.674C209.127 285.261 209.856 285.054 210.682 285.054C211.322 285.054 211.827 285.161 212.197 285.374C212.572 285.582 212.858 285.821 213.054 286.089C213.254 286.354 213.41 286.571 213.52 286.741H213.648V281.909H215.157V295H213.699V293.491H213.52C213.41 293.67 213.252 293.896 213.047 294.169C212.843 294.437 212.551 294.678 212.172 294.891C211.792 295.1 211.288 295.205 210.657 295.205ZM210.861 293.849C211.466 293.849 211.978 293.692 212.395 293.376C212.813 293.057 213.131 292.616 213.348 292.053C213.565 291.487 213.674 290.832 213.674 290.091C213.674 289.358 213.567 288.717 213.354 288.167C213.141 287.613 212.826 287.183 212.408 286.876C211.991 286.565 211.475 286.409 210.861 286.409C210.222 286.409 209.689 286.573 209.263 286.901C208.841 287.225 208.524 287.666 208.311 288.224C208.102 288.778 207.998 289.401 207.998 290.091C207.998 290.79 208.104 291.425 208.317 291.996C208.535 292.562 208.854 293.014 209.276 293.351C209.702 293.683 210.231 293.849 210.861 293.849ZM226.081 295.23C225.459 295.23 224.894 295.113 224.387 294.879C223.88 294.64 223.477 294.297 223.179 293.849C222.881 293.398 222.731 292.852 222.731 292.213C222.731 291.651 222.842 291.195 223.064 290.845C223.285 290.491 223.582 290.214 223.952 290.014C224.323 289.814 224.732 289.665 225.18 289.567C225.631 289.464 226.085 289.384 226.541 289.324C227.138 289.247 227.621 289.19 227.992 289.151C228.367 289.109 228.64 289.038 228.81 288.94C228.985 288.842 229.072 288.672 229.072 288.429V288.378C229.072 287.747 228.9 287.257 228.555 286.908C228.214 286.558 227.696 286.384 227.001 286.384C226.281 286.384 225.716 286.541 225.307 286.857C224.898 287.172 224.611 287.509 224.444 287.866L223.013 287.355C223.268 286.759 223.609 286.294 224.035 285.962C224.466 285.625 224.935 285.391 225.442 285.259C225.953 285.122 226.456 285.054 226.95 285.054C227.265 285.054 227.628 285.092 228.037 285.169C228.45 285.241 228.849 285.393 229.232 285.623C229.62 285.853 229.942 286.2 230.197 286.665C230.453 287.129 230.581 287.751 230.581 288.531V295H229.072V293.67H228.996C228.893 293.884 228.723 294.112 228.484 294.354C228.246 294.597 227.928 294.804 227.532 294.974C227.136 295.145 226.652 295.23 226.081 295.23ZM226.311 293.875C226.908 293.875 227.41 293.758 227.819 293.523C228.233 293.289 228.544 292.987 228.753 292.616C228.966 292.245 229.072 291.855 229.072 291.446V290.065C229.008 290.142 228.868 290.212 228.65 290.276C228.437 290.336 228.19 290.389 227.909 290.436C227.632 290.479 227.361 290.517 227.097 290.551C226.837 290.581 226.626 290.607 226.464 290.628C226.072 290.679 225.706 290.762 225.365 290.877C225.028 290.988 224.756 291.156 224.547 291.382C224.342 291.604 224.24 291.906 224.24 292.29C224.24 292.814 224.434 293.21 224.822 293.479C225.214 293.743 225.71 293.875 226.311 293.875ZM240.289 287.381L238.934 287.764C238.848 287.538 238.723 287.319 238.557 287.106C238.395 286.888 238.173 286.71 237.892 286.569C237.61 286.428 237.25 286.358 236.811 286.358C236.211 286.358 235.71 286.496 235.309 286.773C234.913 287.046 234.715 287.393 234.715 287.815C234.715 288.19 234.851 288.487 235.124 288.704C235.397 288.921 235.823 289.102 236.402 289.247L237.86 289.605C238.738 289.818 239.392 290.144 239.822 290.583C240.253 291.018 240.468 291.578 240.468 292.264C240.468 292.827 240.306 293.33 239.982 293.773C239.662 294.216 239.215 294.565 238.64 294.821C238.064 295.077 237.395 295.205 236.632 295.205C235.631 295.205 234.802 294.987 234.146 294.553C233.49 294.118 233.074 293.483 232.9 292.648L234.331 292.29C234.468 292.818 234.726 293.214 235.105 293.479C235.488 293.743 235.989 293.875 236.607 293.875C237.31 293.875 237.868 293.726 238.282 293.428C238.699 293.125 238.908 292.763 238.908 292.341C238.908 292 238.789 291.714 238.55 291.484C238.311 291.25 237.945 291.075 237.451 290.96L235.814 290.577C234.915 290.364 234.255 290.033 233.833 289.586C233.415 289.134 233.206 288.57 233.206 287.892C233.206 287.338 233.362 286.848 233.673 286.422C233.988 285.996 234.417 285.661 234.958 285.418C235.503 285.175 236.121 285.054 236.811 285.054C237.783 285.054 238.546 285.267 239.1 285.693C239.658 286.119 240.054 286.682 240.289 287.381ZM254.756 287.381L253.4 287.764C253.315 287.538 253.189 287.319 253.023 287.106C252.861 286.888 252.64 286.71 252.359 286.569C252.077 286.428 251.717 286.358 251.278 286.358C250.677 286.358 250.177 286.496 249.776 286.773C249.38 287.046 249.182 287.393 249.182 287.815C249.182 288.19 249.318 288.487 249.591 288.704C249.864 288.921 250.29 289.102 250.869 289.247L252.327 289.605C253.204 289.818 253.859 290.144 254.289 290.583C254.719 291.018 254.935 291.578 254.935 292.264C254.935 292.827 254.773 293.33 254.449 293.773C254.129 294.216 253.682 294.565 253.106 294.821C252.531 295.077 251.862 295.205 251.099 295.205C250.098 295.205 249.269 294.987 248.613 294.553C247.957 294.118 247.541 293.483 247.366 292.648L248.798 292.29C248.935 292.818 249.192 293.214 249.572 293.479C249.955 293.743 250.456 293.875 251.074 293.875C251.777 293.875 252.335 293.726 252.748 293.428C253.166 293.125 253.375 292.763 253.375 292.341C253.375 292 253.256 291.714 253.017 291.484C252.778 291.25 252.412 291.075 251.917 290.96L250.281 290.577C249.382 290.364 248.721 290.033 248.3 289.586C247.882 289.134 247.673 288.57 247.673 287.892C247.673 287.338 247.829 286.848 248.14 286.422C248.455 285.996 248.883 285.661 249.425 285.418C249.97 285.175 250.588 285.054 251.278 285.054C252.25 285.054 253.013 285.267 253.567 285.693C254.125 286.119 254.521 286.682 254.756 287.381ZM261.194 295.205C260.308 295.205 259.53 294.994 258.861 294.572C258.196 294.15 257.676 293.56 257.301 292.801C256.93 292.043 256.745 291.156 256.745 290.142C256.745 289.119 256.93 288.227 257.301 287.464C257.676 286.701 258.196 286.109 258.861 285.687C259.53 285.265 260.308 285.054 261.194 285.054C262.08 285.054 262.856 285.265 263.521 285.687C264.19 286.109 264.71 286.701 265.08 287.464C265.455 288.227 265.643 289.119 265.643 290.142C265.643 291.156 265.455 292.043 265.08 292.801C264.71 293.56 264.19 294.15 263.521 294.572C262.856 294.994 262.08 295.205 261.194 295.205ZM261.194 293.849C261.867 293.849 262.421 293.677 262.856 293.332C263.291 292.987 263.612 292.533 263.821 291.97C264.03 291.408 264.134 290.798 264.134 290.142C264.134 289.486 264.03 288.874 263.821 288.308C263.612 287.741 263.291 287.283 262.856 286.933C262.421 286.584 261.867 286.409 261.194 286.409C260.521 286.409 259.967 286.584 259.532 286.933C259.097 287.283 258.776 287.741 258.567 288.308C258.358 288.874 258.254 289.486 258.254 290.142C258.254 290.798 258.358 291.408 258.567 291.97C258.776 292.533 259.097 292.987 259.532 293.332C259.967 293.677 260.521 293.849 261.194 293.849ZM271.934 295.205C271.048 295.205 270.27 294.994 269.601 294.572C268.936 294.15 268.416 293.56 268.041 292.801C267.671 292.043 267.485 291.156 267.485 290.142C267.485 289.119 267.671 288.227 268.041 287.464C268.416 286.701 268.936 286.109 269.601 285.687C270.27 285.265 271.048 285.054 271.934 285.054C272.821 285.054 273.596 285.265 274.261 285.687C274.93 286.109 275.45 286.701 275.821 287.464C276.196 288.227 276.383 289.119 276.383 290.142C276.383 291.156 276.196 292.043 275.821 292.801C275.45 293.56 274.93 294.15 274.261 294.572C273.596 294.994 272.821 295.205 271.934 295.205ZM271.934 293.849C272.607 293.849 273.161 293.677 273.596 293.332C274.031 292.987 274.352 292.533 274.561 291.97C274.77 291.408 274.875 290.798 274.875 290.142C274.875 289.486 274.77 288.874 274.561 288.308C274.352 287.741 274.031 287.283 273.596 286.933C273.161 286.584 272.607 286.409 271.934 286.409C271.261 286.409 270.707 286.584 270.272 286.933C269.838 287.283 269.516 287.741 269.307 288.308C269.098 288.874 268.994 289.486 268.994 290.142C268.994 290.798 269.098 291.408 269.307 291.97C269.516 292.533 269.838 292.987 270.272 293.332C270.707 293.677 271.261 293.849 271.934 293.849ZM280.194 289.094V295H278.686V285.182H280.143V286.716H280.271C280.501 286.217 280.851 285.817 281.319 285.514C281.788 285.207 282.393 285.054 283.135 285.054C283.799 285.054 284.381 285.19 284.88 285.463C285.378 285.732 285.766 286.141 286.043 286.69C286.32 287.236 286.458 287.926 286.458 288.761V295H284.95V288.864C284.95 288.092 284.75 287.491 284.349 287.061C283.949 286.626 283.399 286.409 282.7 286.409C282.218 286.409 281.788 286.513 281.409 286.722C281.034 286.931 280.738 287.236 280.52 287.636C280.303 288.037 280.194 288.523 280.194 289.094ZM297.167 295.23C296.545 295.23 295.98 295.113 295.473 294.879C294.966 294.64 294.563 294.297 294.265 293.849C293.966 293.398 293.817 292.852 293.817 292.213C293.817 291.651 293.928 291.195 294.15 290.845C294.371 290.491 294.667 290.214 295.038 290.014C295.409 289.814 295.818 289.665 296.265 289.567C296.717 289.464 297.171 289.384 297.627 289.324C298.224 289.247 298.707 289.19 299.078 289.151C299.453 289.109 299.726 289.038 299.896 288.94C300.071 288.842 300.158 288.672 300.158 288.429V288.378C300.158 287.747 299.986 287.257 299.64 286.908C299.3 286.558 298.782 286.384 298.087 286.384C297.367 286.384 296.802 286.541 296.393 286.857C295.984 287.172 295.697 287.509 295.53 287.866L294.099 287.355C294.354 286.759 294.695 286.294 295.121 285.962C295.552 285.625 296.02 285.391 296.528 285.259C297.039 285.122 297.542 285.054 298.036 285.054C298.351 285.054 298.714 285.092 299.123 285.169C299.536 285.241 299.935 285.393 300.318 285.623C300.706 285.853 301.028 286.2 301.283 286.665C301.539 287.129 301.667 287.751 301.667 288.531V295H300.158V293.67H300.082C299.979 293.884 299.809 294.112 299.57 294.354C299.332 294.597 299.014 294.804 298.618 294.974C298.221 295.145 297.738 295.23 297.167 295.23ZM297.397 293.875C297.993 293.875 298.496 293.758 298.905 293.523C299.319 293.289 299.63 292.987 299.839 292.616C300.052 292.245 300.158 291.855 300.158 291.446V290.065C300.094 290.142 299.954 290.212 299.736 290.276C299.523 290.336 299.276 290.389 298.995 290.436C298.718 290.479 298.447 290.517 298.183 290.551C297.923 290.581 297.712 290.607 297.55 290.628C297.158 290.679 296.792 290.762 296.451 290.877C296.114 290.988 295.841 291.156 295.633 291.382C295.428 291.604 295.326 291.906 295.326 292.29C295.326 292.814 295.52 293.21 295.908 293.479C296.3 293.743 296.796 293.875 297.397 293.875ZM311.375 287.381L310.02 287.764C309.934 287.538 309.809 287.319 309.642 287.106C309.481 286.888 309.259 286.71 308.978 286.569C308.696 286.428 308.336 286.358 307.897 286.358C307.297 286.358 306.796 286.496 306.395 286.773C305.999 287.046 305.801 287.393 305.801 287.815C305.801 288.19 305.937 288.487 306.21 288.704C306.483 288.921 306.909 289.102 307.488 289.247L308.946 289.605C309.824 289.818 310.478 290.144 310.908 290.583C311.338 291.018 311.554 291.578 311.554 292.264C311.554 292.827 311.392 293.33 311.068 293.773C310.748 294.216 310.301 294.565 309.726 294.821C309.15 295.077 308.481 295.205 307.718 295.205C306.717 295.205 305.888 294.987 305.232 294.553C304.576 294.118 304.16 293.483 303.985 292.648L305.417 292.29C305.554 292.818 305.811 293.214 306.191 293.479C306.574 293.743 307.075 293.875 307.693 293.875C308.396 293.875 308.954 293.726 309.368 293.428C309.785 293.125 309.994 292.763 309.994 292.341C309.994 292 309.875 291.714 309.636 291.484C309.397 291.25 309.031 291.075 308.537 290.96L306.9 290.577C306.001 290.364 305.341 290.033 304.919 289.586C304.501 289.134 304.292 288.57 304.292 287.892C304.292 287.338 304.448 286.848 304.759 286.422C305.074 285.996 305.503 285.661 306.044 285.418C306.589 285.175 307.207 285.054 307.897 285.054C308.869 285.054 309.632 285.267 310.186 285.693C310.744 286.119 311.14 286.682 311.375 287.381ZM318.887 298.682V285.182H320.344V286.741H320.523C320.634 286.571 320.788 286.354 320.984 286.089C321.184 285.821 321.469 285.582 321.84 285.374C322.215 285.161 322.722 285.054 323.361 285.054C324.188 285.054 324.917 285.261 325.547 285.674C326.178 286.087 326.67 286.673 327.024 287.432C327.378 288.19 327.555 289.085 327.555 290.116C327.555 291.156 327.378 292.058 327.024 292.82C326.67 293.579 326.18 294.167 325.554 294.585C324.927 294.998 324.205 295.205 323.387 295.205C322.756 295.205 322.251 295.1 321.872 294.891C321.493 294.678 321.201 294.437 320.996 294.169C320.792 293.896 320.634 293.67 320.523 293.491H320.395V298.682H318.887ZM320.37 290.091C320.37 290.832 320.479 291.487 320.696 292.053C320.913 292.616 321.231 293.057 321.648 293.376C322.066 293.692 322.577 293.849 323.182 293.849C323.813 293.849 324.339 293.683 324.761 293.351C325.187 293.014 325.507 292.562 325.72 291.996C325.937 291.425 326.046 290.79 326.046 290.091C326.046 289.401 325.939 288.778 325.726 288.224C325.518 287.666 325.2 287.225 324.774 286.901C324.352 286.573 323.822 286.409 323.182 286.409C322.569 286.409 322.053 286.565 321.636 286.876C321.218 287.183 320.903 287.613 320.689 288.167C320.476 288.717 320.37 289.358 320.37 290.091ZM333.844 295.205C332.958 295.205 332.18 294.994 331.511 294.572C330.846 294.15 330.327 293.56 329.952 292.801C329.581 292.043 329.395 291.156 329.395 290.142C329.395 289.119 329.581 288.227 329.952 287.464C330.327 286.701 330.846 286.109 331.511 285.687C332.18 285.265 332.958 285.054 333.844 285.054C334.731 285.054 335.506 285.265 336.171 285.687C336.84 286.109 337.36 286.701 337.731 287.464C338.106 288.227 338.293 289.119 338.293 290.142C338.293 291.156 338.106 292.043 337.731 292.801C337.36 293.56 336.84 294.15 336.171 294.572C335.506 294.994 334.731 295.205 333.844 295.205ZM333.844 293.849C334.518 293.849 335.072 293.677 335.506 293.332C335.941 292.987 336.263 292.533 336.471 291.97C336.68 291.408 336.785 290.798 336.785 290.142C336.785 289.486 336.68 288.874 336.471 288.308C336.263 287.741 335.941 287.283 335.506 286.933C335.072 286.584 334.518 286.409 333.844 286.409C333.171 286.409 332.617 286.584 332.182 286.933C331.748 287.283 331.426 287.741 331.217 288.308C331.008 288.874 330.904 289.486 330.904 290.142C330.904 290.798 331.008 291.408 331.217 291.97C331.426 292.533 331.748 292.987 332.182 293.332C332.617 293.677 333.171 293.849 333.844 293.849ZM347.55 287.381L346.195 287.764C346.11 287.538 345.984 287.319 345.818 287.106C345.656 286.888 345.435 286.71 345.153 286.569C344.872 286.428 344.512 286.358 344.073 286.358C343.472 286.358 342.972 286.496 342.571 286.773C342.175 287.046 341.977 287.393 341.977 287.815C341.977 288.19 342.113 288.487 342.386 288.704C342.658 288.921 343.085 289.102 343.664 289.247L345.121 289.605C345.999 289.818 346.653 290.144 347.084 290.583C347.514 291.018 347.729 291.578 347.729 292.264C347.729 292.827 347.568 293.33 347.244 293.773C346.924 294.216 346.477 294.565 345.901 294.821C345.326 295.077 344.657 295.205 343.894 295.205C342.893 295.205 342.064 294.987 341.408 294.553C340.751 294.118 340.336 293.483 340.161 292.648L341.593 292.29C341.729 292.818 341.987 293.214 342.367 293.479C342.75 293.743 343.251 293.875 343.869 293.875C344.572 293.875 345.13 293.726 345.543 293.428C345.961 293.125 346.17 292.763 346.17 292.341C346.17 292 346.05 291.714 345.812 291.484C345.573 291.25 345.207 291.075 344.712 290.96L343.076 290.577C342.177 290.364 341.516 290.033 341.095 289.586C340.677 289.134 340.468 288.57 340.468 287.892C340.468 287.338 340.624 286.848 340.935 286.422C341.25 285.996 341.678 285.661 342.22 285.418C342.765 285.175 343.383 285.054 344.073 285.054C345.045 285.054 345.808 285.267 346.362 285.693C346.92 286.119 347.316 286.682 347.55 287.381ZM356.955 287.381L355.6 287.764C355.514 287.538 355.389 287.319 355.223 287.106C355.061 286.888 354.839 286.71 354.558 286.569C354.276 286.428 353.916 286.358 353.477 286.358C352.877 286.358 352.376 286.496 351.975 286.773C351.579 287.046 351.381 287.393 351.381 287.815C351.381 288.19 351.517 288.487 351.79 288.704C352.063 288.921 352.489 289.102 353.068 289.247L354.526 289.605C355.404 289.818 356.058 290.144 356.488 290.583C356.919 291.018 357.134 291.578 357.134 292.264C357.134 292.827 356.972 293.33 356.648 293.773C356.328 294.216 355.881 294.565 355.306 294.821C354.73 295.077 354.061 295.205 353.299 295.205C352.297 295.205 351.468 294.987 350.812 294.553C350.156 294.118 349.74 293.483 349.566 292.648L350.997 292.29C351.134 292.818 351.392 293.214 351.771 293.479C352.154 293.743 352.655 293.875 353.273 293.875C353.976 293.875 354.534 293.726 354.948 293.428C355.365 293.125 355.574 292.763 355.574 292.341C355.574 292 355.455 291.714 355.216 291.484C354.977 291.25 354.611 291.075 354.117 290.96L352.48 290.577C351.581 290.364 350.921 290.033 350.499 289.586C350.081 289.134 349.872 288.57 349.872 287.892C349.872 287.338 350.028 286.848 350.339 286.422C350.654 285.996 351.083 285.661 351.624 285.418C352.169 285.175 352.787 285.054 353.477 285.054C354.449 285.054 355.212 285.267 355.766 285.693C356.324 286.119 356.72 286.682 356.955 287.381ZM359.405 295V285.182H360.913V295H359.405ZM360.172 283.545C359.878 283.545 359.624 283.445 359.411 283.245C359.202 283.045 359.098 282.804 359.098 282.523C359.098 282.241 359.202 282.001 359.411 281.8C359.624 281.6 359.878 281.5 360.172 281.5C360.466 281.5 360.717 281.6 360.926 281.8C361.139 282.001 361.245 282.241 361.245 282.523C361.245 282.804 361.139 283.045 360.926 283.245C360.717 283.445 360.466 283.545 360.172 283.545ZM363.881 295V281.909H365.389V286.741H365.517C365.628 286.571 365.781 286.354 365.977 286.089C366.177 285.821 366.463 285.582 366.834 285.374C367.209 285.161 367.716 285.054 368.355 285.054C369.182 285.054 369.91 285.261 370.541 285.674C371.172 286.087 371.664 286.673 372.018 287.432C372.371 288.19 372.548 289.085 372.548 290.116C372.548 291.156 372.371 292.058 372.018 292.82C371.664 293.579 371.174 294.167 370.547 294.585C369.921 294.998 369.199 295.205 368.381 295.205C367.75 295.205 367.245 295.1 366.866 294.891C366.486 294.678 366.194 294.437 365.99 294.169C365.785 293.896 365.628 293.67 365.517 293.491H365.338V295H363.881ZM365.364 290.091C365.364 290.832 365.472 291.487 365.689 292.053C365.907 292.616 366.224 293.057 366.642 293.376C367.06 293.692 367.571 293.849 368.176 293.849C368.807 293.849 369.333 293.683 369.755 293.351C370.181 293.014 370.501 292.562 370.714 291.996C370.931 291.425 371.04 290.79 371.04 290.091C371.04 289.401 370.933 288.778 370.72 288.224C370.511 287.666 370.194 287.225 369.768 286.901C369.346 286.573 368.815 286.409 368.176 286.409C367.562 286.409 367.047 286.565 366.629 286.876C366.212 287.183 365.896 287.613 365.683 288.167C365.47 288.717 365.364 289.358 365.364 290.091ZM376.364 281.909V295H374.856V281.909H376.364ZM383.244 295.205C382.298 295.205 381.482 294.996 380.795 294.578C380.114 294.156 379.587 293.568 379.217 292.814C378.85 292.055 378.667 291.173 378.667 290.168C378.667 289.162 378.85 288.276 379.217 287.509C379.587 286.737 380.103 286.136 380.764 285.706C381.428 285.271 382.204 285.054 383.09 285.054C383.602 285.054 384.107 285.139 384.605 285.31C385.104 285.48 385.558 285.757 385.967 286.141C386.376 286.52 386.702 287.023 386.945 287.649C387.188 288.276 387.309 289.047 387.309 289.963V290.602H379.741V289.298H385.775C385.775 288.744 385.664 288.25 385.443 287.815C385.225 287.381 384.914 287.038 384.509 286.786C384.109 286.535 383.636 286.409 383.09 286.409C382.489 286.409 381.97 286.558 381.531 286.857C381.096 287.151 380.761 287.534 380.527 288.007C380.293 288.48 380.175 288.987 380.175 289.528V290.398C380.175 291.139 380.303 291.768 380.559 292.283C380.819 292.795 381.179 293.185 381.639 293.453C382.099 293.717 382.634 293.849 383.244 293.849C383.64 293.849 383.998 293.794 384.318 293.683C384.641 293.568 384.92 293.398 385.155 293.172C385.389 292.942 385.57 292.656 385.698 292.315L387.156 292.724C387.002 293.219 386.744 293.653 386.382 294.028C386.02 294.399 385.572 294.689 385.04 294.898C384.507 295.102 383.908 295.205 383.244 295.205ZM390.703 295.102C390.388 295.102 390.117 294.989 389.891 294.763C389.666 294.538 389.553 294.267 389.553 293.952C389.553 293.636 389.666 293.366 389.891 293.14C390.117 292.914 390.388 292.801 390.703 292.801C391.019 292.801 391.289 292.914 391.515 293.14C391.741 293.366 391.854 293.636 391.854 293.952C391.854 294.161 391.8 294.352 391.694 294.527C391.592 294.702 391.453 294.842 391.278 294.949C391.108 295.051 390.916 295.102 390.703 295.102Z" fill="#011445"/>
<g style="mix-blend-mode:multiply">
<path d="M531 467V296C531 150.749 413.251 33 268 33V33C122.749 33 5 150.749 5 296V467" stroke="url(#paint0_linear_1272_3740)" stroke-width="8.41151"/>
</g>
<g filter="url(#filter0_b_1272_3740)">
<path fill-rule="evenodd" clip-rule="evenodd" d="M370.145 128.535C368.347 129.017 366.702 127.372 367.183 125.574L372.516 105.673C360.184 84.5773 363.062 57.0384 381.151 38.9499C402.662 17.4384 437.539 17.4385 459.05 38.9499C480.562 60.4613 480.562 95.3383 459.05 116.85C440.028 135.872 410.554 138.073 389.113 123.453L370.145 128.535Z" fill="#FCC700" fill-opacity="0.7"/>
</g>
<path d="M397.678 81.9049L410.743 94.1162C411.335 94.6692 412.27 94.6108 412.788 93.9884L441.879 59.0526" stroke="white" stroke-width="1.86624" stroke-linecap="round"/>
<defs>
<filter id="filter0_b_1272_3740" x="347.589" y="5.3883" width="145.023" height="145.023" filterUnits="userSpaceOnUse" color-interpolation-filters="sRGB">
<feFlood flood-opacity="0" result="BackgroundImageFix"/>
<feGaussianBlur in="BackgroundImageFix" stdDeviation="8.71401"/>
<feComposite in2="SourceAlpha" operator="in" result="effect1_backgroundBlur_1272_3740"/>
<feBlend mode="normal" in="SourceGraphic" in2="effect1_backgroundBlur_1272_3740" result="shape"/>
</filter>
<linearGradient id="paint0_linear_1272_3740" x1="268" y1="8.88889" x2="268" y2="512.436" gradientUnits="userSpaceOnUse">
<stop stop-color="#1C42FC"/>
<stop offset="1" stop-color="white" stop-opacity="0"/>
</linearGradient>
</defs>
</svg>
