<svg width="440" height="68" viewBox="0 0 440 68" fill="none" xmlns="http://www.w3.org/2000/svg">
<g style="mix-blend-mode:multiply">
<g style="mix-blend-mode:multiply">
<rect y="68" width="68" height="440" rx="34" transform="rotate(-90 0 68)" fill="url(#paint0_linear_1172_3595)"/>
</g>
<g style="mix-blend-mode:multiply">
<path d="M100 -0.000245627C118.778 -0.000244806 134 15.2221 134 33.9997C134 52.7774 118.778 67.9997 100 67.9997L35 67.9997C16.2223 67.9997 0.999998 52.7774 0.999999 33.9997C0.999999 15.2221 16.2223 -0.000249289 35 -0.000248468L100 -0.000245627Z" fill="url(#paint1_linear_1172_3595)"/>
</g>
<path d="M38.0181 40.0005L38.9429 38.9165L34.006 34.0005L38.9429 29.0692L38.0181 28.0005L32 34.0005L38.0181 40.0005Z" fill="white"/>
<path d="M34 34.0005H108" stroke="white" stroke-width="1.5" stroke-miterlimit="10" stroke-linecap="square"/>
</g>
<g style="mix-blend-mode:multiply">
<g style="mix-blend-mode:multiply">
<rect x="305" y="68" width="68" height="134" rx="34" transform="rotate(-90 305 68)" fill="url(#paint2_linear_1172_3595)"/>
</g>
<line x1="319" y1="33.25" x2="421" y2="33.25" stroke="white" stroke-width="1.5"/>
</g>
<defs>
<linearGradient id="paint0_linear_1172_3595" x1="34" y1="68" x2="34" y2="618.5" gradientUnits="userSpaceOnUse">
<stop offset="0.0001" stop-color="#02B0FF"/>
<stop offset="1" stop-color="white" stop-opacity="0"/>
</linearGradient>
<linearGradient id="paint1_linear_1172_3595" x1="134" y1="33.9997" x2="0.999861" y2="33.9997" gradientUnits="userSpaceOnUse">
<stop offset="0.0001" stop-color="#02B0FF"/>
<stop offset="0.979167" stop-color="white"/>
</linearGradient>
<linearGradient id="paint2_linear_1172_3595" x1="339" y1="68" x2="339" y2="244.5" gradientUnits="userSpaceOnUse">
<stop offset="0.0001" stop-color="#02B0FF"/>
<stop offset="0.979167" stop-color="white" stop-opacity="0"/>
</linearGradient>
</defs>
</svg>
