<svg width="180" height="38" viewBox="0 0 180 38" fill="none" xmlns="http://www.w3.org/2000/svg">
<path d="M41.6619 25.3475C41.6619 23.009 39.7677 21.1265 37.4408 21.1265H33.6875L37.2888 29.5803H37.4525C39.7911 29.5803 41.6736 27.686 41.6736 25.3592L41.6619 25.3475Z" fill="#7F74FE"/>
<path d="M26.7266 25.3485C26.7266 27.687 28.6208 29.5695 30.9476 29.5695H35.5428L31.9415 21.1157H30.9476C28.6091 21.1157 26.7266 23.0099 26.7266 25.3368V25.3485Z" fill="#7F74FE"/>
<path d="M0 0.758301C0 5.90307 4.17428 9.21209 9.31905 9.21209H26.6709L24.5897 4.33625C23.4438 1.64694 20.7895 0.758301 17.8664 0.758301H0Z" fill="#7F74FE"/>
<path d="M9.02344 10.9426C9.02344 16.0874 13.1977 19.3964 18.3425 19.3964H31.0992L27.416 10.9426H9.02344Z" fill="#7F74FE"/>
<path d="M149.418 21.1397C148.651 21.2598 147.884 21.2999 147.034 21.2999H138.754V30.6749H137.057V2.54985H147.034C154.02 2.54985 157.979 5.92955 157.979 11.8047C157.979 16.5924 155.514 19.7317 151.032 20.8592L158.102 30.6778H156.083L149.418 21.1425V21.1397ZM147.077 19.6516C152.974 19.6516 156.327 16.8757 156.327 11.8447C156.327 6.81382 152.974 4.20106 147.077 4.20106H138.757V19.6516H147.077Z" fill="url(#paint0_linear_709_2870)"/>
<path d="M177.048 9.71276H178.947L171.595 19.8519L179.472 30.6749H177.533L170.504 21.1397L163.434 30.6749H161.495L169.452 19.8519L162.101 9.71276H164.04L170.544 18.6042L177.048 9.71276Z" fill="url(#paint1_linear_709_2870)"/>
<path d="M68.9329 22.519C68.479 22.0096 67.7062 21.9695 67.1805 22.4074C64.9829 24.236 62.1992 25.2233 59.6856 25.2233C53.6845 25.2233 48.8008 20.5215 48.8008 14.7436C48.8008 8.9658 53.5811 4.26398 59.6856 4.26398C62.2251 4.26398 64.9341 5.20549 67.1317 7.16005C67.6804 7.64654 68.5163 7.5979 68.9702 7.02269L70.1136 5.57465C70.5301 5.04809 70.4554 4.28687 69.947 3.84903C66.9507 1.28206 63.2277 0 59.6425 0C51.0243 0 44.2734 6.47896 44.2734 14.7465C44.2734 23.014 50.9726 29.6561 59.5218 29.6561C63.0381 29.6561 66.9507 28.1938 69.9699 25.5896C70.4985 25.1346 70.5445 24.3304 70.082 23.8125L68.9329 22.5276V22.519Z" fill="url(#paint2_linear_709_2870)"/>
<path d="M101.871 10.1191V8.28187C101.871 7.59219 101.311 7.03129 100.616 7.03129H98.7201C98.0278 7.03129 97.4647 7.58933 97.4647 8.28187V28.2367C97.4647 28.9264 98.0249 29.4873 98.7201 29.4873H100.616C101.308 29.4873 101.871 28.9293 101.871 28.2367V17.6483C101.912 15.1844 103.676 11.2924 108.89 11.3267C109.231 11.3267 109.504 11.0434 109.504 10.7029V7.52923C109.504 7.18296 109.223 6.89679 108.875 6.90537C104.144 7.02557 102.463 9.43228 101.871 10.1162V10.1191Z" fill="url(#paint3_linear_709_2870)"/>
<path d="M128.783 7.83537L122.765 23.4547L116.451 7.8182C116.261 7.34602 115.798 7.03408 115.287 7.03408H113.339C112.443 7.03408 111.837 7.94125 112.182 8.76257L120.521 28.6917L119.74 30.4259C119.148 31.6793 118.404 32.7496 116.91 32.9929C116.287 33.093 115.81 33.6024 115.81 34.232V36.178C115.816 36.9134 116.451 37.4886 117.186 37.4228C120.291 37.1481 122.308 35.1764 123.563 32.1114L132.992 8.7454C133.322 7.92408 132.716 7.03123 131.828 7.03123H129.955C129.435 7.03123 128.97 7.34887 128.783 7.83251V7.83537Z" fill="url(#paint4_linear_709_2870)"/>
<path d="M89.8836 10.1821C88.071 8.03295 85.4079 6.87109 82.1905 6.87109C75.8044 6.87109 71.3431 11.5443 71.3431 18.2379C71.3431 24.9315 75.8188 29.6448 82.2307 29.6448C85.4223 29.6448 88.0738 28.4915 89.8836 26.3566V28.2339C89.8836 28.9236 90.4438 29.4845 91.139 29.4845H93.035C93.7273 29.4845 94.2904 28.9265 94.2904 28.2339V8.27906C94.2904 7.58938 93.7302 7.02848 93.035 7.02848H91.139C90.4467 7.02848 89.8836 7.58652 89.8836 8.27906V10.1821ZM82.8369 25.5811C78.6628 25.5811 75.7498 22.5934 75.7498 18.318C75.7498 14.0426 78.6657 10.9748 82.8369 10.9748C87.008 10.9748 89.8836 13.9939 89.8836 18.318C89.8836 22.6421 86.9851 25.5811 82.8369 25.5811Z" fill="url(#paint5_linear_709_2870)"/>
<defs>
<linearGradient id="paint0_linear_709_2870" x1="48.0926" y1="19.0959" x2="183.17" y2="21.463" gradientUnits="userSpaceOnUse">
<stop stop-color="#7F74FE"/>
<stop offset="1" stop-color="#5ACCFF"/>
</linearGradient>
<linearGradient id="paint1_linear_709_2870" x1="48.0926" y1="19.0959" x2="183.17" y2="21.463" gradientUnits="userSpaceOnUse">
<stop stop-color="#7F74FE"/>
<stop offset="1" stop-color="#5ACCFF"/>
</linearGradient>
<linearGradient id="paint2_linear_709_2870" x1="48.0926" y1="19.0959" x2="183.17" y2="21.463" gradientUnits="userSpaceOnUse">
<stop stop-color="#7F74FE"/>
<stop offset="1" stop-color="#5ACCFF"/>
</linearGradient>
<linearGradient id="paint3_linear_709_2870" x1="48.0926" y1="19.0959" x2="183.17" y2="21.463" gradientUnits="userSpaceOnUse">
<stop stop-color="#7F74FE"/>
<stop offset="1" stop-color="#5ACCFF"/>
</linearGradient>
<linearGradient id="paint4_linear_709_2870" x1="48.0926" y1="19.0959" x2="183.17" y2="21.463" gradientUnits="userSpaceOnUse">
<stop stop-color="#7F74FE"/>
<stop offset="1" stop-color="#5ACCFF"/>
</linearGradient>
<linearGradient id="paint5_linear_709_2870" x1="48.0926" y1="19.0959" x2="183.17" y2="21.463" gradientUnits="userSpaceOnUse">
<stop stop-color="#7F74FE"/>
<stop offset="1" stop-color="#5ACCFF"/>
</linearGradient>
</defs>
</svg>
