<svg width="552" height="68" viewBox="0 0 552 68" fill="none" xmlns="http://www.w3.org/2000/svg">
<g style="mix-blend-mode:multiply">
<g style="mix-blend-mode:multiply">
<path d="M34 68C15.2223 68 -6.65388e-07 52.7777 -1.48619e-06 34C-2.30698e-06 15.2224 15.2223 4.5111e-05 34 4.42902e-05L518 2.31339e-05C536.778 2.23131e-05 552 15.2223 552 34C552 52.7777 536.778 68 518 68L34 68Z" fill="url(#paint0_linear_814_5626)"/>
</g>
<g style="mix-blend-mode:multiply">
<path d="M99 -1.48619e-06C117.778 -6.65389e-07 133 15.2223 133 34C133 52.7777 117.778 68 99 68L34 68C15.2223 68 -2.30699e-06 52.7777 -1.48619e-06 34C-6.65388e-07 15.2223 15.2223 -5.14823e-06 34 -4.32743e-06L99 -1.48619e-06Z" fill="url(#paint1_linear_814_5626)"/>
</g>
<path d="M35.0181 40L35.9429 38.916L31.006 34L35.9429 29.0687L35.0181 28L29 34L35.0181 40Z" fill="white"/>
<path d="M31 34H105" stroke="white" stroke-width="1.5" stroke-miterlimit="10" stroke-linecap="square"/>
</g>
<defs>
<linearGradient id="paint0_linear_814_5626" x1="0.000469458" y1="34" x2="727.5" y2="34" gradientUnits="userSpaceOnUse">
<stop offset="0.0001" stop-color="#7F74FE"/>
<stop offset="0.979167" stop-color="white" stop-opacity="0"/>
</linearGradient>
<linearGradient id="paint1_linear_814_5626" x1="133" y1="34" x2="-0.000138739" y2="34" gradientUnits="userSpaceOnUse">
<stop offset="0.0001" stop-color="#7F74FE"/>
<stop offset="0.979167" stop-color="white" stop-opacity="0"/>
</linearGradient>
</defs>
</svg>
