<svg width="96" height="61" viewBox="0 0 96 61" fill="none" xmlns="http://www.w3.org/2000/svg">
<rect width="96" height="60" rx="5.35977" transform="matrix(1 0 0 -1 0 60.375)" fill="url(#paint0_linear_941_4214)"/>
<path d="M22.0313 47.7519C21.12 43.8187 18.0249 40.7237 14.0918 39.8124C12.9569 39.5494 12.0752 38.6503 12.0752 37.5905V23.4426C12.0752 22.3828 12.9569 21.4836 14.0918 21.2207C17.9172 20.3344 20.9497 17.3823 21.9514 13.6028C22.2413 12.5091 23.1242 11.6738 24.155 11.6738H72.872C73.9028 11.6738 74.7857 12.5091 75.0756 13.6027C76.0491 17.2759 78.9406 20.1673 82.6137 21.1409C83.7073 21.4307 84.5427 22.3136 84.5427 23.3444V37.6887C84.5427 38.7194 83.7073 39.6024 82.6137 39.8922C78.8341 40.894 75.882 43.9265 74.9958 47.7519C74.7328 48.8868 73.8336 49.7685 72.7738 49.7685H24.2532C23.1934 49.7685 22.2942 48.8868 22.0313 47.7519Z" fill="#02B0FF" stroke="#02B0FF" stroke-width="0.779221"/>
<path d="M48.3729 41.4667C48.1549 41.4667 47.9782 41.29 47.9782 41.0721V21.0294C47.9782 20.8114 48.1549 20.6347 48.3729 20.6347C48.5908 20.6347 48.7675 20.8114 48.7675 21.0294V41.0721C48.7675 41.29 48.5908 41.4667 48.3729 41.4667ZM53.1062 26.8843C52.8432 26.8843 52.6278 26.6818 52.5777 26.4236C52.4171 25.5968 52.0151 24.9123 51.3715 24.3698C50.6174 23.7297 49.6409 23.4096 48.442 23.4096C47.6337 23.4096 46.9149 23.5588 46.2856 23.8572C45.6563 24.1556 45.1626 24.5624 44.8046 25.0778C44.4465 25.5932 44.2675 26.1845 44.2675 26.8518C44.2675 27.2804 44.3489 27.6682 44.5116 28.0154C44.6798 28.3572 44.9158 28.6637 45.2196 28.935C45.5234 29.2008 45.8841 29.4341 46.3019 29.6348C46.7196 29.8355 47.1807 30.0118 47.6852 30.1637L49.508 30.7008C50.1319 30.8907 50.707 31.1104 51.2332 31.36C51.7648 31.6095 52.226 31.9079 52.6166 32.2551C53.0126 32.5969 53.3191 32.9983 53.5361 33.4594C53.7585 33.9206 53.8697 34.4522 53.8697 35.0544C53.8697 35.9332 53.6419 36.7199 53.1862 37.4143C52.7359 38.1087 52.093 38.6566 51.2576 39.058C50.4276 39.4541 49.4484 39.6521 48.32 39.6521C47.2458 39.6521 46.31 39.4703 45.5125 39.1069C44.7205 38.7434 44.0939 38.2389 43.6328 37.5933C43.2751 37.0883 43.0382 36.5246 42.922 35.9022C42.8666 35.6048 43.1087 35.3473 43.4111 35.3473C43.6833 35.3473 43.9052 35.5579 43.9602 35.8244C44.0616 36.3156 44.259 36.7533 44.5523 37.1376C44.9429 37.6367 45.461 38.0219 46.1066 38.2931C46.7521 38.5644 47.4899 38.7 48.32 38.7C49.2151 38.7 50.0044 38.5481 50.688 38.2443C51.3715 37.9351 51.9059 37.5065 52.2911 36.9586C52.6762 36.4106 52.8688 35.7732 52.8688 35.0462C52.8688 34.4603 52.7305 33.9585 52.4538 33.5408C52.1771 33.1231 51.7675 32.7623 51.225 32.4585C50.688 32.1547 50.0207 31.8835 49.2232 31.6448L47.2784 31.0589C45.9764 30.6628 44.9809 30.1231 44.2919 29.4395C43.6083 28.756 43.2666 27.9042 43.2666 26.8843C43.2666 26.0272 43.4944 25.2677 43.9501 24.6058C44.4058 23.9386 45.0243 23.415 45.8055 23.0353C46.5921 22.6555 47.4791 22.4657 48.4664 22.4657C49.4592 22.4657 50.3353 22.6583 51.0948 23.0434C51.8543 23.4232 52.4565 23.9467 52.9014 24.614C53.2513 25.1346 53.4787 25.714 53.5836 26.3521C53.6307 26.639 53.397 26.8843 53.1062 26.8843Z" fill="white"/>
<defs>
<linearGradient id="paint0_linear_941_4214" x1="48" y1="-16.0871" x2="48" y2="173.935" gradientUnits="userSpaceOnUse">
<stop stop-color="white"/>
<stop offset="0.697917" stop-color="#40C0FA"/>
</linearGradient>
</defs>
</svg>
