<svg width="28" height="29" viewBox="0 0 28 29" fill="none" xmlns="http://www.w3.org/2000/svg">
<path opacity="0.8" d="M26.1426 21.6277C29.9885 14.9215 27.6698 6.36738 20.9636 2.52149C14.2574 -1.32439 5.70331 0.994325 1.85743 7.70049C-1.98845 14.4067 0.330262 22.9608 7.03643 26.8067C13.7426 30.6525 22.2967 28.3338 26.1426 21.6277Z" fill="#FFC632"/>
<path fill-rule="evenodd" clip-rule="evenodd" d="M19.6558 10.7068C20.0051 11.0845 19.9914 11.6828 19.6253 12.0431L12.9036 18.6593C12.5494 19.0079 11.9922 19.0076 11.6383 18.6587L8.28318 15.3506C7.9174 14.99 7.90424 14.3917 8.25379 14.0143C8.60334 13.6369 9.18322 13.6233 9.54899 13.984L12.2718 16.6686L18.3607 10.6754C18.7267 10.315 19.3066 10.3291 19.6558 10.7068Z" fill="url(#paint0_linear_1067_3731)"/>
<defs>
<linearGradient id="paint0_linear_1067_3731" x1="19.9091" y1="14.6488" x2="1.12937" y2="14.6488" gradientUnits="userSpaceOnUse">
<stop stop-color="white"/>
<stop offset="1" stop-color="#F7F7F7"/>
</linearGradient>
</defs>
</svg>
