<svg width="26" height="13" viewBox="0 0 26 13" fill="none" xmlns="http://www.w3.org/2000/svg">
<path d="M1.44727 5.82029C0.981398 5.82029 0.603738 6.19795 0.603738 6.66382C0.603738 7.12969 0.981398 7.50735 1.44727 7.50735L1.44727 5.82029ZM24.9604 7.26028C25.2898 6.93086 25.2898 6.39677 24.9604 6.06735L19.5922 0.699178C19.2628 0.36976 18.7287 0.36976 18.3993 0.699178C18.0699 1.0286 18.0699 1.56269 18.3993 1.89211L23.171 6.66382L18.3993 11.4355C18.0699 11.7649 18.0699 12.299 18.3993 12.6285C18.7287 12.9579 19.2628 12.9579 19.5922 12.6285L24.9604 7.26028ZM1.44727 7.50735L24.3639 7.50734L24.3639 5.82029L1.44727 5.82029L1.44727 7.50735Z" fill="white"/>
</svg>
