<svg width="97" height="85" viewBox="0 0 97 85" fill="none" xmlns="http://www.w3.org/2000/svg">
<path d="M44.7402 37.5512V84.2733L87.4625 65.19C88.7143 64.6308 89.5204 63.388 89.5204 62.017V17.6602L44.7402 37.5512Z" fill="url(#paint0_linear_941_4188)"/>
<path d="M0 17.5983L44.7393 37.6752L89.5194 17.6726L46.0129 0.502644C45.1944 0.179632 44.2839 0.179119 43.4651 0.50121L0 17.5983Z" fill="url(#paint1_linear_941_4188)"/>
<path d="M44.7802 37.5512V84.2733L2.05785 65.19C0.806057 64.6308 0 63.388 0 62.017V17.6602L44.7802 37.5512Z" fill="url(#paint2_linear_941_4188)"/>
<path d="M14.9828 42.185C14.9828 43.5478 15.7793 44.7848 17.0199 45.3487L23.702 48.386C26.0029 49.4319 28.6152 47.7498 28.6152 45.2223V30.4322L14.9828 24.3458V42.185Z" fill="#02B0FF"/>
<g opacity="0.9">
<path fill-rule="evenodd" clip-rule="evenodd" d="M66.8235 42.2381C66.5961 42.1059 66.3108 42.2695 66.31 42.5326L66.2899 49.4551C61.0079 54.6495 59.6656 62.9359 63.5238 69.6634C68.1117 77.6636 78.3165 80.4297 86.3167 75.8417C94.3168 71.2538 97.083 61.049 92.495 53.0488C88.4379 45.9744 79.9888 42.9928 72.5559 45.5699L66.8235 42.2381Z" fill="#02B0FF"/>
<path d="M73.0371 63.3045L76.1398 67.1212C76.5271 67.5976 77.2729 67.5329 77.5724 66.997L84.2736 55.0057" stroke="white" stroke-width="1.04256" stroke-linecap="square"/>
</g>
<defs>
<linearGradient id="paint0_linear_941_4188" x1="67.1303" y1="-37.455" x2="67.1303" y2="87.0824" gradientUnits="userSpaceOnUse">
<stop stop-color="#02B0FF"/>
<stop offset="1" stop-color="white"/>
</linearGradient>
<linearGradient id="paint1_linear_941_4188" x1="44.7597" y1="-32.3048" x2="44.7597" y2="37.6752" gradientUnits="userSpaceOnUse">
<stop stop-color="#02B0FF"/>
<stop offset="1" stop-color="white"/>
</linearGradient>
<linearGradient id="paint2_linear_941_4188" x1="22.3901" y1="-66.9506" x2="22.3901" y2="86.146" gradientUnits="userSpaceOnUse">
<stop stop-color="#02B0FF"/>
<stop offset="1" stop-color="white"/>
</linearGradient>
</defs>
</svg>
