<svg width="89" height="85" viewBox="0 0 89 85" fill="none" xmlns="http://www.w3.org/2000/svg">
<path d="M84.4563 41.5898C84.6344 41.7679 84.9231 41.7679 85.1012 41.5898L88.0035 38.6876C88.1816 38.5095 88.1816 38.2207 88.0035 38.0426C87.8254 37.8645 87.5366 37.8645 87.3585 38.0426L84.7788 40.6224L82.199 38.0426C82.0209 37.8645 81.7321 37.8645 81.5541 38.0426C81.376 38.2207 81.376 38.5095 81.5541 38.6876L84.4563 41.5898ZM44.5114 1.45604C66.4986 1.45604 84.3227 19.2802 84.3227 41.2673H85.2348C85.2348 18.7764 67.0023 0.543956 44.5114 0.543956V1.45604ZM5.37026 33.9545C8.80364 15.4602 25.0226 1.45604 44.5114 1.45604V0.543956C24.5751 0.543956 7.98564 14.8694 4.47349 33.788L5.37026 33.9545Z" fill="#02B0FF"/>
<path d="M4.56909 43.4102C4.391 43.2321 4.10224 43.2321 3.92415 43.4102L1.0219 46.3124C0.843803 46.4905 0.843803 46.7793 1.0219 46.9574C1.2 47.1355 1.48875 47.1355 1.66685 46.9574L4.24662 44.3776L6.82639 46.9574C7.00449 47.1355 7.29324 47.1355 7.47134 46.9574C7.64944 46.7793 7.64944 46.4905 7.47134 46.3124L4.56909 43.4102ZM44.5139 83.544C22.5268 83.544 4.70267 65.7198 4.70267 43.7327H3.79057C3.79057 66.2236 22.023 84.456 44.5139 84.456V83.544ZM83.6551 51.0455C80.2218 69.5398 64.0028 83.544 44.5139 83.544V84.456C64.4503 84.456 81.0398 70.1306 84.5519 51.212L83.6551 51.0455Z" fill="#02B0FF"/>
<rect x="48.8281" y="10.0413" width="29.0948" height="57.9152" rx="14.5474" transform="rotate(32.8859 48.8281 10.0413)" fill="url(#paint0_linear_941_4169)"/>
<path d="M65.3649 38.0542C69.7273 31.3074 67.7943 22.3015 61.0474 17.9392C54.3006 13.5768 45.2948 15.5098 40.9324 22.2566L33.1081 34.3576L45.3244 42.2564L57.5406 50.1552L65.3649 38.0542Z" fill="#72CFFE"/>
<defs>
<linearGradient id="paint0_linear_941_4169" x1="61.5604" y1="-2.70942" x2="64.2041" y2="68.078" gradientUnits="userSpaceOnUse">
<stop stop-color="#02B0FF"/>
<stop offset="0.982707" stop-color="white"/>
</linearGradient>
</defs>
</svg>
