<svg width="61" height="61" viewBox="0 0 61 61" fill="none" xmlns="http://www.w3.org/2000/svg">
<circle cx="30.5" cy="30.5" r="30.5" fill="#02B0FF"/>
<path fill-rule="evenodd" clip-rule="evenodd" d="M29.1481 24.6667C29.9663 24.6667 30.6296 25.3299 30.6296 26.1481V38C30.6296 38.8182 29.9663 39.4815 29.1481 39.4815C28.3299 39.4815 27.6667 38.8182 27.6667 38V26.1481C27.6667 25.3299 28.3299 24.6667 29.1481 24.6667Z" fill="white"/>
<path fill-rule="evenodd" clip-rule="evenodd" d="M23.2222 24.6667C24.0404 24.6667 24.7037 25.3299 24.7037 26.1481V38C24.7037 38.8182 24.0404 39.4815 23.2222 39.4815C22.404 39.4815 21.7407 38.8182 21.7407 38V26.1481C21.7407 25.3299 22.404 24.6667 23.2222 24.6667Z" fill="white"/>
<path fill-rule="evenodd" clip-rule="evenodd" d="M34.3333 27.6296C33.351 27.6296 32.409 28.0198 31.7144 28.7144C31.0198 29.409 30.6296 30.351 30.6296 31.3333C30.6296 32.1515 29.9663 32.8148 29.1481 32.8148C28.3299 32.8148 27.6667 32.1515 27.6667 31.3333C27.6667 29.5652 28.369 27.8695 29.6193 26.6193C30.8695 25.369 32.5652 24.6667 34.3333 24.6667C36.1014 24.6667 37.7971 25.369 39.0474 26.6193C40.2976 27.8695 41 29.5652 41 31.3333V38C41 38.8182 40.3367 39.4815 39.5185 39.4815C38.7003 39.4815 38.037 38.8182 38.037 38V31.3333C38.037 30.351 37.6468 29.409 36.9522 28.7144C36.2577 28.0198 35.3156 27.6296 34.3333 27.6296Z" fill="white"/>
<path d="M23.2222 22.4444C24.4495 22.4444 25.4444 21.4495 25.4444 20.2222C25.4444 18.9949 24.4495 18 23.2222 18C21.9949 18 21 18.9949 21 20.2222C21 21.4495 21.9949 22.4444 23.2222 22.4444Z" fill="white"/>
</svg>
