<svg width="130" height="28" viewBox="0 0 130 28" fill="none" xmlns="http://www.w3.org/2000/svg">
<g style="mix-blend-mode:multiply">
<g style="mix-blend-mode:multiply">
<path d="M13.5 27.1958C6.04415 27.1958 -2.64198e-07 21.1516 -5.90103e-07 13.6958C-9.16009e-07 6.23997 6.04415 0.195816 13.5 0.195815L116.5 0.195811C123.956 0.195811 130 6.23996 130 13.6958C130 21.1516 123.956 27.1958 116.5 27.1958L13.5 27.1958Z" fill="url(#paint0_linear_908_6453)"/>
</g>
<g style="mix-blend-mode:multiply">
<path d="M48.5 0.1958C55.9558 0.195801 62 6.23995 62 13.6958C62 21.1516 55.9558 27.1958 48.5 27.1958L13.5 27.1958C6.04415 27.1958 -9.16009e-07 21.1516 -5.90104e-07 13.6958C-2.64198e-07 6.23995 6.04416 0.195798 13.5 0.195799L48.5 0.1958Z" fill="url(#paint1_linear_908_6453)"/>
</g>
<path d="M13.8393 16.1303L14.2048 15.7019L12.2537 13.7591L14.2048 11.8103L13.8393 11.3879L11.4609 13.7591L13.8393 16.1303Z" fill="white"/>
<path d="M12.2578 13.7593H51.5" stroke="white" stroke-width="0.592797" stroke-miterlimit="10" stroke-linecap="square"/>
</g>
<defs>
<linearGradient id="paint0_linear_908_6453" x1="0.000110321" y1="13.6958" x2="250" y2="13.6958" gradientUnits="userSpaceOnUse">
<stop offset="0.0001" stop-color="#7F74FE"/>
<stop offset="0.979167" stop-color="white" stop-opacity="0"/>
</linearGradient>
<linearGradient id="paint1_linear_908_6453" x1="61.9999" y1="13.6958" x2="-6.45724e-05" y2="13.6958" gradientUnits="userSpaceOnUse">
<stop offset="0.0001" stop-color="#7F74FE"/>
<stop offset="0.979167" stop-color="white"/>
</linearGradient>
</defs>
</svg>
