<svg width="33" height="14" viewBox="0 0 33 14" fill="none" xmlns="http://www.w3.org/2000/svg">
<path d="M1.03906 6.15647C0.573195 6.15647 0.195535 6.53413 0.195535 7C0.195535 7.46587 0.573195 7.84353 1.03906 7.84353L1.03906 6.15647ZM32.4602 7.59646C32.7897 7.26704 32.7897 6.73295 32.4602 6.40353L27.0921 1.03536C26.7626 0.705941 26.2286 0.705941 25.8991 1.03536C25.5697 1.36478 25.5697 1.89887 25.8991 2.22829L30.6708 7L25.8991 11.7717C25.5697 12.1011 25.5697 12.6352 25.8991 12.9646C26.2286 13.2941 26.7626 13.2941 27.0921 12.9646L32.4602 7.59646ZM1.03906 7.84353L31.8638 7.84353L31.8638 6.15647L1.03906 6.15647L1.03906 7.84353Z" fill="#7F74FE"/>
</svg>
