<svg width="51" height="51" viewBox="0 0 51 51" fill="none" xmlns="http://www.w3.org/2000/svg">
<circle cx="25.5" cy="25.5" r="25" stroke="white"/>
<path d="M21.5131 37C31.7285 37 37.3149 28.5368 37.3149 21.1982C37.3149 20.9577 37.31 20.7185 37.2989 20.4802C38.3833 19.6964 39.326 18.7179 40.0695 17.6046C39.0744 18.0468 38.0037 18.3445 36.8802 18.4787C38.0267 17.7912 38.9073 16.7032 39.3226 15.4064C38.2493 16.0428 37.0609 16.5052 35.7962 16.7546C34.7823 15.6752 33.339 15 31.742 15C28.6747 15 26.1873 17.4873 26.1873 20.5532C26.1873 20.9891 26.2363 21.4128 26.3311 21.8195C21.7157 21.5877 17.6228 19.3774 14.8839 16.0172C14.4064 16.8377 14.1314 17.7915 14.1314 18.8084C14.1314 20.7351 15.112 22.4362 16.6031 23.4315C15.6921 23.4035 14.8362 23.1529 14.0877 22.7367C14.0865 22.7597 14.0865 22.7831 14.0865 22.8075C14.0865 25.4974 16.0012 27.743 18.5421 28.252C18.0757 28.3791 17.5849 28.4475 17.0781 28.4475C16.7204 28.4475 16.3725 28.4118 16.0341 28.3474C16.741 30.5537 18.7915 32.1595 21.2225 32.2048C19.3213 33.6946 16.9267 34.5822 14.3248 34.5822C13.8768 34.5822 13.4347 34.5567 13 34.5053C15.4578 36.0804 18.3762 37 21.5131 37Z" fill="white"/>
</svg>
