<svg fill="none" height="68" viewBox="0 0 640 68" width="640" xmlns="http://www.w3.org/2000/svg" xmlns:xlink="http://www.w3.org/1999/xlink"><linearGradient id="a"><stop offset=".0001" stop-color="#7f74fe"/><stop offset=".979167" stop-color="#fff" stop-opacity="0"/></linearGradient><linearGradient id="b" gradientUnits="userSpaceOnUse" x1=".000545" x2="984.5" xlink:href="#a" y1="34" y2="34"/><linearGradient id="c" gradientUnits="userSpaceOnUse" x1="133" x2="-83" xlink:href="#a" y1="34" y2="34"/><path d="m34 68c-18.7777 0-34.00000067-15.2223-34.00000149-34-.00000082-18.7776 15.22230149-33.99994726 34.00000149-33.99994808l572-.000025c18.778-.00000082 34 15.22227308 34 33.99997308s-15.222 34-34 34z" fill="url(#b)"/><path d="m99-.00000149c18.778.00000082 34 15.22230149 34 34.00000149s-15.222 34-34 34h-65c-18.7777 0-34.00000231-15.2223-34.00000149-34s15.22230149-34.00000515 34.00000149-34.00000433z" fill="url(#c)"/><path d="m35.0181 40 .9248-1.084-4.9369-4.916 4.9369-4.9313-.9248-1.0687-6.0181 6z" fill="#fff"/><path d="m31 34h74" stroke="#fff" stroke-linecap="square" stroke-miterlimit="10" stroke-width="1.5"/></svg>