<svg fill="none" height="120" viewBox="0 0 120 120" width="120" xmlns="http://www.w3.org/2000/svg" xmlns:xlink="http://www.w3.org/1999/xlink"><filter id="a" color-interpolation-filters="sRGB" filterUnits="userSpaceOnUse" height="117.135" width="116.814" x="1.55811" y="1.15039"><feFlood flood-opacity="0" result="BackgroundImageFix"/><feBlend in="SourceGraphic" in2="BackgroundImageFix" mode="normal" result="shape"/><feGaussianBlur result="effect1_foregroundBlur_1157_13484" stdDeviation="20"/></filter><filter id="b" color-interpolation-filters="sRGB" filterUnits="userSpaceOnUse" height="142.628" width="148.303" x="-14.5374" y="-2.00896"><feFlood flood-opacity="0" result="BackgroundImageFix"/><feColorMatrix in="SourceAlpha" result="hardAlpha" type="matrix" values="0 0 0 0 0 0 0 0 0 0 0 0 0 0 0 0 0 0 127 0"/><feMorphology in="SourceAlpha" operator="erode" radius="8.70327" result="effect1_dropShadow_1157_13484"/><feOffset dy="8.70327"/><feGaussianBlur stdDeviation="23.2087"/><feComposite in2="hardAlpha" operator="out"/><feColorMatrix type="matrix" values="0 0 0 0 0.109804 0 0 0 0 0.258824 0 0 0 0 0.988235 0 0 0 0.2 0"/><feBlend in2="BackgroundImageFix" mode="normal" result="effect1_dropShadow_1157_13484"/><feBlend in="SourceGraphic" in2="effect1_dropShadow_1157_13484" mode="normal" result="shape"/></filter><filter id="c" color-interpolation-filters="sRGB" filterUnits="userSpaceOnUse" height="142.628" width="148.303" x="-14.5374" y="-2.00896"><feFlood flood-opacity="0" result="BackgroundImageFix"/><feColorMatrix in="SourceAlpha" result="hardAlpha" type="matrix" values="0 0 0 0 0 0 0 0 0 0 0 0 0 0 0 0 0 0 127 0"/><feMorphology in="SourceAlpha" operator="erode" radius="8.70327" result="effect1_dropShadow_1157_13484"/><feOffset dy="8.70327"/><feGaussianBlur stdDeviation="23.2087"/><feComposite in2="hardAlpha" operator="out"/><feColorMatrix type="matrix" values="0 0 0 0 0.109804 0 0 0 0 0.258824 0 0 0 0 0.988235 0 0 0 0.2 0"/><feBlend in2="BackgroundImageFix" mode="normal" result="effect1_dropShadow_1157_13484"/><feBlend in="SourceGraphic" in2="effect1_dropShadow_1157_13484" mode="normal" result="shape"/></filter><filter id="d" color-interpolation-filters="sRGB" filterUnits="userSpaceOnUse" height="25.7" width="22.0921" x="36.6197" y="59.4215"><feFlood flood-opacity="0" result="BackgroundImageFix"/><feColorMatrix in="SourceAlpha" result="hardAlpha" type="matrix" values="0 0 0 0 0 0 0 0 0 0 0 0 0 0 0 0 0 0 127 0"/><feMorphology in="SourceAlpha" operator="erode" radius="14.4" result="effect1_dropShadow_1157_13484"/><feOffset/><feGaussianBlur stdDeviation="9"/><feComposite in2="hardAlpha" operator="out"/><feColorMatrix type="matrix" values="0 0 0 0 0.00392157 0 0 0 0 0.0784314 0 0 0 0 0.270588 0 0 0 0.2 0"/><feBlend in2="BackgroundImageFix" mode="multiply" result="effect1_dropShadow_1157_13484"/><feBlend in="SourceGraphic" in2="effect1_dropShadow_1157_13484" mode="normal" result="shape"/></filter><linearGradient id="e" gradientUnits="userSpaceOnUse" x1="8.53694" x2="8.68619" y1="38.7161" y2="5.37462"><stop offset="0" stop-color="#3a37e1"/><stop offset="1" stop-color="#605de5"/></linearGradient><linearGradient id="f"><stop offset="0" stop-color="#fff"/><stop offset="1" stop-color="#fff"/></linearGradient><linearGradient id="g" gradientUnits="userSpaceOnUse" x1="61.8291" x2="75.2106" xlink:href="#f" y1="61.2857" y2="37.1992"/><linearGradient id="h" gradientUnits="userSpaceOnUse" x1="49.3053" x2="41.9238" xlink:href="#f" y1="74.4857" y2="61.1991"/><clipPath id="i"><path d="m0 0h120v120h-120z"/></clipPath><g clip-path="url(#i)"><g filter="url(#a)" opacity=".5"><ellipse cx="59.9653" cy="59.7181" fill="#3a37e1" rx="19.8" ry="17.0731" transform="matrix(.68611552 .7274926 -.7274926 .68611552 62.266653 -24.879728)"/></g><g filter="url(#b)"><g fill="#fdb515" filter="url(#c)"><path d="m91.2089 60.0456c.2343.2343.6142.2343.8485 0l3.8184-3.8183c.2343-.2344.2343-.6143 0-.8486s-.6142-.2343-.8485 0l-3.3942 3.3941-3.3941-3.3941c-.2343-.2343-.6142-.2343-.8485 0s-.2343.6142 0 .8486zm-31.5954-31.844c17.3526 0 31.4196 14.0671 31.4196 31.4198h1.2c0-18.0155-14.6043-32.6198-32.6196-32.6198zm-30.8908 25.6481c2.7097-14.596 15.5102-25.6481 30.8908-25.6481v-1.2c-15.9694 0-29.2573 11.4749-32.0706 26.6291z"/><path d="m28.0196 61.1575c-.2343-.2343-.6142-.2343-.8485 0l-3.8184 3.8184c-.2343.2343-.2343.6142 0 .8485s.6142.2343.8486 0l3.3941-3.3941 3.3941 3.3941c.2343.2343.6142.2343.8485 0s.2343-.6142 0-.8485zm31.5954 31.8441c-17.3526 0-31.4196-14.0672-31.4196-31.4198h-1.2c0 18.0154 14.6043 32.6198 32.6196 32.6198zm30.8908-25.6482c-2.7097 14.596-15.5102 25.6482-30.8908 25.6482v1.2c15.9694 0 29.2574-11.475 32.0706-26.6291z"/></g></g><g opacity=".95"><rect fill="url(#e)" height="35.9303" rx="9.02515" transform="matrix(.866025 .500001 -.499999 .866026 65.9668 37.2012)" width="18.0503"/><path d="m77.089 54.0406c2.4922-4.3166 1.0132-9.8363-3.3034-12.3286-4.3167-2.4922-9.8364-1.0132-12.3286 3.3035l-4.47 7.7422 7.816 4.5126 7.816 4.5126z" fill="url(#g)"/><path d="m61.6936 45.152-4.3334 7.5058 7.5794 4.3759 7.5794 4.376 4.3334-7.5057c2.4168-4.186.9826-9.5386-3.2034-11.9554s-9.5386-.9826-11.9554 3.2034z" stroke="#fff" stroke-opacity=".95" stroke-width=".546362"/></g><g filter="url(#d)" opacity=".95"><rect fill="#605de5" height="19.8199" rx="4.97844" transform="matrix(-.866025 .500001 .5 .866026 47.0234 61.1992)" width="9.95689"/><path d="m40.8877 70.4892c-1.3748-2.3812-.559-5.4259 1.8222-6.8007 2.3811-1.3748 5.4259-.5589 6.8007 1.8222l2.4657 4.2708-4.3114 2.4893-4.3115 2.4892z" fill="url(#h)"/><path d="m49.274 65.6473 2.3291 4.0342-4.0748 2.3527-4.0749 2.3526-2.3292-4.0342c-1.2993-2.2505-.5282-5.1282 1.7223-6.4275s5.1282-.5283 6.4275 1.7222z" stroke="#fff" stroke-opacity=".95" stroke-width=".546362"/></g></g></svg>