<svg fill="none" height="86" viewBox="0 0 98 86" width="98" xmlns="http://www.w3.org/2000/svg" xmlns:xlink="http://www.w3.org/1999/xlink"><linearGradient id="a" gradientUnits="userSpaceOnUse" x1="35.0755" x2="35.0755" y1="-49.4" y2="92.9245"><stop offset="0" stop-color="#02b0ff"/><stop offset="1" stop-color="#fff"/></linearGradient><linearGradient id="b" gradientUnits="userSpaceOnUse" x1="35.0755" x2="35.0755" y1="-68.4909" y2="85"><stop offset="0" stop-color="#1c42fc"/><stop offset="1" stop-color="#fff"/></linearGradient><linearGradient id="c" gradientUnits="userSpaceOnUse" x1="41.5739" x2="105.964" y1="53.7991" y2="117.52"><stop offset="0" stop-color="#fff"/><stop offset="1" stop-color="#02b0ff"/></linearGradient><mask id="d" height="84" maskUnits="userSpaceOnUse" width="69" x="1" y="1"><path d="m60.7311 1h-51.31129c-4.65013 0-8.41981 3.76968-8.41981 8.41981v67.16039c0 4.6501 3.76967 8.4198 8.4198 8.4198h40.3331c2.4045 0 4.6942-1.028 6.292-2.8248l10.9782-12.346c1.3707-1.5414 2.1278-3.5323 2.1278-5.5949v-54.81449c0-4.65013-3.7696-8.41981-8.4198-8.41981z" fill="url(#b)"/></mask><path d="m60.7311 1h-51.31129c-4.65013 0-8.41981 3.76968-8.41981 8.41981v67.16039c0 4.6501 3.76967 8.4198 8.4198 8.4198h40.3331c2.4045 0 4.6942-1.028 6.292-2.8248l10.9782-12.346c1.3707-1.5414 2.1278-3.5323 2.1278-5.5949v-54.81449c0-4.65013-3.7696-8.41981-8.4198-8.41981z" fill="url(#a)"/><g mask="url(#d)"><path d="m49.4289 68.9491-.1597 21.9559 25.278-28.6024-18.2111-.1532c-3.7872-.0319-6.8797 3.0124-6.9072 6.7997z" fill="url(#c)"/><path d="m10.3546 24.1973v-12.6607h4.0863c.8984 0 1.6485.1628 2.2502.4884.6059.3215 1.0613.7686 1.3662 1.3415.3091.5687.4637 1.222.4637 1.9597s-.1546 1.3889-.4637 1.9535c-.3049.5646-.7583 1.0056-1.36 1.3229-.6017.3174-1.3477.476-2.2379.476h-3.4804v-1.0571h3.4495c.6594 0 1.2076-.1092 1.6444-.3276.441-.2184.7687-.5296.983-.9335.2184-.4039.3276-.882.3276-1.4342 0-.5523-.1092-1.0345-.3276-1.4466-.2185-.4163-.5482-.7377-.9892-.9644-.4368-.2267-.9891-.34-1.6567-.34h-2.8994v11.6221zm5.5823-5.7121 3.1157 5.7121h-1.3353l-3.0848-5.7121zm5.5978-6.9486 3.5052 5.4958h.0804l3.5051-5.4958h1.3663l-4.074 6.3304 4.074 6.3303h-1.3663l-3.5051-5.4339h-.0804l-3.5052 5.4339h-1.3662l4.1357-6.3303-4.1357-6.3304z" fill="#fff"/><g stroke="#011445" stroke-linecap="round" stroke-width=".446809"><path d="m9.06497 54.9469h43.25533"/><path d="m9.04282 73.383h19.65958"/><path d="m9.06497 49.2553h43.25533"/></g><rect fill="#72cffe" height="4.53209" rx="2.26605" transform="matrix(-1 0 0 1 21.7488 65.3404)" width="13.5963"/></g></svg>