<svg fill="none" height="86" viewBox="0 0 98 86" width="98" xmlns="http://www.w3.org/2000/svg" xmlns:xlink="http://www.w3.org/1999/xlink"><filter id="a" color-interpolation-filters="sRGB" filterUnits="userSpaceOnUse" height="172.705" width="164.495" x="-43.0407" y="-33.5014"><feFlood flood-opacity="0" result="BackgroundImageFix"/><feColorMatrix in="SourceAlpha" result="hardAlpha" type="matrix" values="0 0 0 0 0 0 0 0 0 0 0 0 0 0 0 0 0 0 127 0"/><feMorphology in="SourceAlpha" operator="erode" radius="10.1633" result="effect1_dropShadow_907_4694"/><feOffset dy="10.1633"/><feGaussianBlur stdDeviation="27.102"/><feComposite in2="hardAlpha" operator="out"/><feColorMatrix type="matrix" values="0 0 0 0 0.109804 0 0 0 0 0.258824 0 0 0 0 0.988235 0 0 0 0.2 0"/><feBlend in2="BackgroundImageFix" mode="normal" result="effect1_dropShadow_907_4694"/><feBlend in="SourceGraphic" in2="effect1_dropShadow_907_4694" mode="normal" result="shape"/></filter><linearGradient id="b" gradientUnits="userSpaceOnUse" x1="39.2066" x2="39.2066" y1="-66.8963" y2="95.9031"><stop offset="0" stop-color="#fcc700"/><stop offset="1" stop-color="#fff"/></linearGradient><clipPath id="c"><path d="m0 0h98v86h-98z"/></clipPath><g clip-path="url(#c)"><g filter="url(#a)"><rect fill="url(#b)" height="79.0478" rx="8.16548" width="76.4129" x="1.00012" y="5.95218"/><path d="m1.00024 30.9843h76.41296" stroke="#1c42fc" stroke-width=".423469"/><path d="m23.4571 10.8534v-8.8534" stroke="#fff" stroke-linecap="round" stroke-width="3.24764"/><path d="m54.4432 10.8534v-8.8534" stroke="#fff" stroke-linecap="round" stroke-width="3.24764"/><g clip-rule="evenodd" fill="#1c42fc" fill-rule="evenodd"><path d="m47.0663 52.3244c.4746.4976.456 1.2856-.0415 1.7603l-9.1352 8.715c-.4813.4592-1.2386.4588-1.7195-.0008l-4.5599-4.3575c-.4971-.475-.5149-1.2631-.0399-1.7602.4751-.4971 1.2631-.515 1.7603-.0399l3.7004 3.5362 8.275-7.8945c.4976-.4746 1.2856-.4561 1.7603.0414z"/><path d="m39.3179 43.2238c-7.5635 0-13.695 6.1315-13.695 13.695 0 7.5636 6.1315 13.6951 13.695 13.6951 7.5636 0 13.6951-6.1315 13.6951-13.6951 0-7.5635-6.1315-13.695-13.6951-13.695zm-16.185 13.695c0-8.9387 7.2463-16.185 16.185-16.185 8.9388 0 16.1851 7.2463 16.1851 16.185 0 8.9388-7.2463 16.1851-16.1851 16.1851-8.9387 0-16.185-7.2463-16.185-16.1851z"/></g></g></g></svg>