<svg fill="none" height="86" viewBox="0 0 98 86" width="98" xmlns="http://www.w3.org/2000/svg" xmlns:xlink="http://www.w3.org/1999/xlink"><linearGradient id="a"><stop offset="0" stop-color="#02b0ff"/><stop offset="1" stop-color="#fff"/></linearGradient><linearGradient id="b" gradientUnits="userSpaceOnUse" x1="73.8809" x2="73.8809" xlink:href="#a" y1="-17.6504" y2="87.587"/><linearGradient id="c" gradientUnits="userSpaceOnUse" x1="54.9745" x2="54.9745" xlink:href="#a" y1="-13.2984" y2="45.8365"/><linearGradient id="d" gradientUnits="userSpaceOnUse" x1="36.0716" x2="36.0716" xlink:href="#a" y1="-42.575" y2="86.7959"/><clipPath id="e"><path d="m0 0h98v86h-98z"/></clipPath><g clip-path="url(#e)"><path d="m54.9607 45.7318v39.4815l36.1015-16.126c1.0578-.4725 1.7389-1.5227 1.7389-2.6813v-37.4827z" fill="url(#b)"/><path d="m17.1514 28.871 37.8059 16.9655 37.8404-16.9027-36.7642-14.5091c-.6916-.2729-1.461-.2733-2.153-.0012z" fill="url(#c)"/><path d="m54.9918 45.7319v39.4815l-36.1015-16.1259c-1.0578-.4725-1.7389-1.5228-1.7389-2.6813v-37.4827z" fill="url(#d)"/><g opacity=".9"><path clip-rule="evenodd" d="m73.6249 49.6924c-.1922-.1118-.4333.0265-.4339.2488l-.017 5.8498c-4.4633 4.3895-5.5975 11.3916-2.3373 17.0764 3.8769 6.7604 12.5002 9.0979 19.2606 5.2209s9.0978-12.5002 5.2209-19.2606c-3.4284-5.9781-10.5682-8.4977-16.8493-6.3199z" fill="#02b0ff" fill-rule="evenodd"/><path d="m78.8208 66.6536 2.4327 2.9925c.3036.3735.8883.3228 1.1232-.0974l5.254-9.4017" stroke="#fff" stroke-linecap="square" stroke-width=".817414"/><g stroke="#02b0ff" stroke-linecap="round"><path d="m83.4897 54.4949v1.9779" stroke-width=".403911"/><path d="m83.4897 74.8394v1.978" stroke-width=".403911"/><path d="m94.6167 65.9765h-1.9779" stroke-width=".403911"/><path d="m74.2725 65.9765h-1.978" stroke-width=".403911"/><path d="m91.3818 58.0731-1.0916 1.0915" stroke-width=".434204"/><path d="m76.9971 72.4589-1.0916 1.0915" stroke-width=".434204"/><path d="m91.0807 73.7502-1.0916-1.0915" stroke-width=".434204"/><path d="m76.6959 59.3644-1.0916-1.0915" stroke-width=".434204"/></g></g><g stroke="#02b0ff" stroke-linecap="round" stroke-width=".734158"><path d="m1 45.5688h35.8339"/><path d="m11.3988 53.0852h25.0663"/><path d="m21.4359 60.252h15.0328"/></g></g></svg>