<svg fill="none" height="86" viewBox="0 0 98 86" width="98" xmlns="http://www.w3.org/2000/svg" xmlns:xlink="http://www.w3.org/1999/xlink"><linearGradient id="a" gradientUnits="userSpaceOnUse" x1="65.4783" x2="68.8361" y1="75.8045" y2="165.71"><stop offset="0" stop-color="#02b0ff"/><stop offset=".982707" stop-color="#fff"/></linearGradient><linearGradient id="b"><stop offset="0" stop-color="#02b0ff"/><stop offset="1" stop-color="#fff"/></linearGradient><linearGradient id="c" gradientUnits="userSpaceOnUse" x1="20.59" x2="20.59" xlink:href="#b" y1="21.8515" y2="89.6191"/><linearGradient id="d" gradientUnits="userSpaceOnUse" x1="28.1199" x2="28.1199" xlink:href="#b" y1=".420736" y2="41.5447"/><linearGradient id="e" gradientUnits="userSpaceOnUse" x1="44.9186" x2="44.9186" xlink:href="#b" y1="-4.79211" y2="18.3763"/><clipPath id="f"><path d="m0 0h98v86h-98z"/></clipPath><g clip-path="url(#f)"><rect fill="url(#a)" height="73.5567" rx="18.4763" transform="matrix(-.83975256 -.54296928 .54296928 -.83975256 40.760839 196.027615)" width="36.9527" x="49.3074" y="91.9989"/><path d="m28.306 56.4203c-5.5406 8.569-3.0855 20.0071 5.4835 25.5476 8.569 5.5406 20.007 3.0855 25.5476-5.4835l9.9374-15.3692-15.5155-10.032-15.5156-10.0321z" fill="#72cffe"/><circle cx="20.59" cy="64.7131" fill="url(#c)" r="19.6932" transform="matrix(-.25881905 -.96592583 .96592583 -.25881905 -36.58897 101.350496)"/><path d="m24.2041 79.3344-7.7953-29.0927" stroke="#02b0ff" stroke-width=".579211"/><path d="m27.7099 31.4644c.0879.3186.7317.3187.8196.0001.7184-2.6033 2.1009-4.9887 4.0269-6.9142 1.9262-1.9262 4.3128-3.3088 6.9172-4.0274.3185-.0879.3186-.7309 0-.8188-2.6042-.7187-4.9903-2.1018-6.9165-4.028-1.9259-1.9259-3.3088-4.311-4.0276-6.91449-.088-.31854-.7315-.31848-.8194.00008-.7183 2.60371-2.1009 4.98941-4.0273 6.91581-1.9251 1.9251-4.3097 3.3073-6.9122 4.0258-.3186.088-.3186.7322 0 .8201 2.603.7182 4.9884 2.1004 6.9136 4.0255 1.9261 1.9256 3.3077 4.3116 4.0257 6.9155z" fill="url(#d)"/><path d="m44.7403 11.7271c.0382.1385.3181.1386.3563 0 .3124-1.1318.9135-2.16895 1.7509-3.00611.8374-.83748 1.8751-1.43863 3.0075-1.75105.1384-.0382.1385-.31779 0-.35601-1.1323-.31249-2.1698-.91383-3.0072-1.75131-.8374-.83733-1.4386-1.87434-1.7512-3.00629-.0382-.1385-.318-.13847-.3562.00003-.3123 1.13205-.9135 2.1693-1.751 3.00686-.837.83702-1.8738 1.43796-3.0053 1.75037-.1386.03824-.1385.31836 0 .35658 1.1317.31225 2.1689.9132 3.0059 1.75022.8374.83719 1.4381 1.87461 1.7503 3.00671z" fill="url(#e)"/></g></svg>