<svg fill="none" height="86" viewBox="0 0 98 86" width="98" xmlns="http://www.w3.org/2000/svg" xmlns:xlink="http://www.w3.org/1999/xlink"><linearGradient id="a" gradientUnits="userSpaceOnUse" x1="43" x2="43" y1="-33.0909" y2="97"><stop offset="0" stop-color="#fcc700"/><stop offset="1" stop-color="#fff"/></linearGradient><linearGradient id="b" gradientUnits="userSpaceOnUse" x1="43.0012" x2="43.0012" y1="28.4437" y2="70.7045"><stop offset="0" stop-color="#1c42fc"/><stop offset="1" stop-color="#fff"/></linearGradient><clipPath id="c"><path d="m0 0h98v86h-98z"/></clipPath><g clip-path="url(#c)"><path d="m34.3658 5.75888c3.6163-7.01916 13.6521-7.01916 17.2684 0 2.1729 4.21772 7.0751 6.24822 11.594 4.80242 7.5204-2.40623 14.6167 4.6901 12.2105 12.2105-1.4458 4.5189.5847 9.4211 4.8024 11.594 7.0192 3.6163 7.0192 13.6521 0 17.2684-4.2177 2.1729-6.2482 7.0751-4.8024 11.594 2.4062 7.5204-4.6901 14.6167-12.2105 12.2105-4.5189-1.4458-9.4211.5847-11.594 4.8024-3.6163 7.0192-13.6521 7.0192-17.2684 0-2.1729-4.2177-7.0751-6.2482-11.594-4.8024-7.5204 2.4062-14.61673-4.6901-12.2105-12.2105 1.4458-4.5189-.5847-9.4211-4.80242-11.594-7.01916-3.6163-7.01916-13.6521 0-17.2684 4.21772-2.1729 6.24822-7.0751 4.80242-11.594-2.40623-7.5204 4.6901-14.61673 12.2105-12.2105 4.5189 1.4458 9.4211-.5847 11.594-4.80242z" fill="url(#a)"/><path d="m41.9472 28.9587c.4312-.9142 1.6768-.9142 2.1079 0l2.9904 6.3404c.1712.363.5021.6146.8849.6728l6.6866 1.0167c.964.1466 1.3489 1.3863.6513 2.0979l-4.8384 4.9353c-.277.2826-.4034.6897-.338 1.0887l1.1422 6.9688c.1647 1.0047-.8431 1.7709-1.7053 1.2965l-5.9807-3.2902c-.3424-.1884-.7514-.1884-1.0938 0l-5.9807 3.2902c-.8622.4744-1.87-.2918-1.7053-1.2965l1.1422-6.9688c.0654-.399-.061-.8061-.338-1.0887l-4.8385-4.9353c-.6975-.7116-.3126-1.9513.6514-2.0979l6.6866-1.0167c.3828-.0582.7137-.3098.8849-.6728z" fill="url(#b)"/><circle cx="42.9968" cy="42.9998" r="27.1329" stroke="#1c42fc" stroke-width=".435484"/></g></svg>