<svg fill="none" height="86" viewBox="0 0 98 86" width="98" xmlns="http://www.w3.org/2000/svg" xmlns:xlink="http://www.w3.org/1999/xlink"><filter id="a" color-interpolation-filters="sRGB" filterUnits="userSpaceOnUse" height="173.143" width="174.283" x="-43.5714" y="-33.2857"><feFlood flood-opacity="0" result="BackgroundImageFix"/><feColorMatrix in="SourceAlpha" result="hardAlpha" type="matrix" values="0 0 0 0 0 0 0 0 0 0 0 0 0 0 0 0 0 0 127 0"/><feMorphology in="SourceAlpha" operator="erode" radius="10.2857" result="effect1_dropShadow_907_4730"/><feOffset dy="10.2857"/><feGaussianBlur stdDeviation="27.4285"/><feComposite in2="hardAlpha" operator="out"/><feColorMatrix type="matrix" values="0 0 0 0 0.109804 0 0 0 0 0.258824 0 0 0 0 0.988235 0 0 0 0.2 0"/><feBlend in2="BackgroundImageFix" mode="normal" result="effect1_dropShadow_907_4730"/><feBlend in="SourceGraphic" in2="effect1_dropShadow_907_4730" mode="normal" result="shape"/></filter><filter id="b" color-interpolation-filters="sRGB" filterUnits="userSpaceOnUse" height="154.587" width="124.636" x="6.07579" y="-14.7299"><feFlood flood-opacity="0" result="BackgroundImageFix"/><feColorMatrix in="SourceAlpha" result="hardAlpha" type="matrix" values="0 0 0 0 0 0 0 0 0 0 0 0 0 0 0 0 0 0 127 0"/><feMorphology in="SourceAlpha" operator="erode" radius="10.2857" result="effect1_dropShadow_907_4730"/><feOffset dy="10.2857"/><feGaussianBlur stdDeviation="27.4285"/><feComposite in2="hardAlpha" operator="out"/><feColorMatrix type="matrix" values="0 0 0 0 0.109804 0 0 0 0 0.258824 0 0 0 0 0.988235 0 0 0 0.2 0"/><feBlend in2="BackgroundImageFix" mode="normal" result="effect1_dropShadow_907_4730"/><feBlend in="SourceGraphic" in2="effect1_dropShadow_907_4730" mode="normal" result="shape"/></filter><filter id="c" color-interpolation-filters="sRGB" filterUnits="userSpaceOnUse" height="139.161" width="129.724" x="-43.5714" y="-33.2857"><feFlood flood-opacity="0" result="BackgroundImageFix"/><feColorMatrix in="SourceAlpha" result="hardAlpha" type="matrix" values="0 0 0 0 0 0 0 0 0 0 0 0 0 0 0 0 0 0 127 0"/><feMorphology in="SourceAlpha" operator="erode" radius="10.2857" result="effect1_dropShadow_907_4730"/><feOffset dy="10.2857"/><feGaussianBlur stdDeviation="27.4285"/><feComposite in2="hardAlpha" operator="out"/><feColorMatrix type="matrix" values="0 0 0 0 0.109804 0 0 0 0 0.258824 0 0 0 0 0.988235 0 0 0 0.2 0"/><feBlend in2="BackgroundImageFix" mode="normal" result="effect1_dropShadow_907_4730"/><feBlend in="SourceGraphic" in2="effect1_dropShadow_907_4730" mode="normal" result="shape"/></filter><linearGradient id="d"><stop offset="0" stop-color="#fcc700"/><stop offset="1" stop-color="#fff"/></linearGradient><linearGradient id="e" gradientUnits="userSpaceOnUse" x1="68.3936" x2="68.3936" xlink:href="#d" y1="-75.3974" y2="85"/><linearGradient id="f" gradientUnits="userSpaceOnUse" x1="21.2905" x2="21.2905" xlink:href="#d" y1="-29.0111" y2="55.7372"/><linearGradient id="g" gradientUnits="userSpaceOnUse" x1="21.2905" x2="21.2905" y1="-40.3789" y2="51.0184"><stop offset="0" stop-color="#1c42fc"/><stop offset="1" stop-color="#fff"/></linearGradient><linearGradient id="h" gradientUnits="userSpaceOnUse" x1="28.4358" x2="43.0719" y1="35.7142" y2="48.3618"><stop offset="0" stop-color="#fff"/><stop offset="1" stop-color="#fcc700"/></linearGradient><clipPath id="i"><path d="m0 0h98v86h-98z"/></clipPath><mask id="j" height="51" maskUnits="userSpaceOnUse" width="41" x="1" y="1"><path d="m36.5674 1h-30.55376c-2.76896 0-5.01364 2.24469-5.01364 5.01364v39.99116c0 2.769 2.24468 5.0136 5.01364 5.0136h24.01666c1.4318 0 2.7952-.6121 3.7466-1.682l6.5371-7.3515c.8161-.9178 1.267-2.1033 1.267-3.3316v-32.63966c0-2.76896-2.2447-5.01364-5.0136-5.01364z" fill="url(#g)"/></mask><g clip-path="url(#i)"><g filter="url(#a)"><g filter="url(#b)"><rect fill="url(#e)" height="65.4442" rx="5.15806" width="35.4929" x="50.6472" y="19.5558"/><rect height="62.9885" rx="3.93019" stroke="#ffc632" stroke-width="2.45573" width="33.0371" x="51.875" y="20.7837"/></g><path clip-rule="evenodd" d="m73.31 49.831c.2624.2751.2522.7109-.0229.9733l-5.0514 4.8191c-.2662.2539-.6849.2537-.9509-.0004l-2.5214-2.4095c-.2749-.2627-.2848-.6985-.0221-.9734s.6985-.2848.9734-.0221l2.0462 1.9554 4.5758-4.3653c.2751-.2625.7108-.2522.9733.0229z" fill="#1c42fc" fill-rule="evenodd"/><path clip-rule="evenodd" d="m69.0255 44.7987c-4.1824 0-7.5729 3.3905-7.5729 7.5728 0 4.1824 3.3905 7.5728 7.5729 7.5728 4.1823 0 7.5728-3.3904 7.5728-7.5728 0-4.1823-3.3905-7.5728-7.5728-7.5728zm-8.9498 7.5728c0-4.9428 4.007-8.9497 8.9498-8.9497 4.9427 0 8.9497 4.0069 8.9497 8.9497s-4.007 8.9497-8.9497 8.9497c-4.9428 0-8.9498-4.0069-8.9498-8.9497z" fill="#1c42fc" fill-rule="evenodd"/><g filter="url(#c)"><path d="m36.5674 1h-30.55376c-2.76896 0-5.01364 2.24469-5.01364 5.01364v39.99116c0 2.769 2.24468 5.0136 5.01364 5.0136h24.01666c1.4318 0 2.7952-.6121 3.7466-1.682l6.5371-7.3515c.8161-.9178 1.267-2.1033 1.267-3.3316v-32.63966c0-2.76896-2.2447-5.01364-5.0136-5.01364z" fill="url(#f)"/><g mask="url(#j)"><path d="m29.8385 41.4607-.0951 13.0738 15.052-17.0315-10.844-.0912c-2.2551-.019-4.0965 1.7938-4.1129 4.0489z" fill="url(#h)"/><path d="m6.56816 15.2857v-7.53889h2.43321c.53499 0 .98163.09694 1.33993.29081.3607.19142.6319.45768.8135.7988.1841.33866.2761.72763.2761 1.16688 0 .4393-.092.8271-.2761 1.1633-.1816.3362-.4515.5988-.8098.7877-.35832.189-.80251.2835-1.33259.2835h-2.07246v-.6295h2.05406c.39265 0 .71904-.065.97917-.1951.26262-.1301.45772-.3154.58532-.5559.13-.2404.1951-.5251.1951-.854 0-.32881-.0651-.61594-.1951-.86135-.1301-.24786-.3264-.43928-.589-.57425-.26013-.13497-.58898-.20246-.98654-.20246h-1.72644v6.92046zm3.32404-3.4013 1.8553 3.4013h-.7951l-1.83692-3.4013zm3.3332-4.13759 2.0872 3.27249h.0479l2.0872-3.27249h.8135l-2.4259 3.76949 2.4259 3.7694h-.8135l-2.0872-3.2357h-.0479l-2.0872 3.2357h-.8135l2.4627-3.7694-2.4627-3.76949z" fill="#1c42fc"/></g></g><path d="m47.3924 60.8371c.1604-.1604.1604-.4204 0-.5807l-2.6132-2.6133c-.1604-.1603-.4204-.1603-.5807 0-.1604.1604-.1604.4204 0 .5808l2.3228 2.3228-2.3228 2.3229c-.1604.1604-.1604.4204 0 .5807.1603.1604.4203.1604.5807 0zm-23.4151-20.5609c.2267 0 .4106-.1838.4106-.4106s-.1839-.4106-.4106-.4106zm23.1248 19.8599h-25.3018v.8213h25.3018zm-25.3018-19.8599h.5442v-.8212h-.5442zm.5442 0h1.6328v-.8212h-1.6328zm-.5442 19.8599c-5.4842 0-9.93-4.4458-9.93-9.9299h-.8212c0 5.9377 4.8135 10.7512 10.7512 10.7512zm-9.93-9.9299c0-5.4842 4.4458-9.93 9.93-9.93v-.8212c-5.9377 0-10.7512 4.8134-10.7512 10.7512z" fill="#ffc632"/></g></g></svg>