<svg width="98" height="86" viewBox="0 0 98 86" fill="none" xmlns="http://www.w3.org/2000/svg">
<path d="M60.7311 1H9.41981C4.76968 1 1 4.76968 1 9.41981V76.5802C1 81.2303 4.76967 85 9.4198 85H49.7529C52.1574 85 54.4471 83.972 56.0449 82.1752L67.0231 69.8292C68.3938 68.2878 69.1509 66.2969 69.1509 64.2343V9.41981C69.1509 4.76968 65.3813 1 60.7311 1Z" fill="url(#paint0_linear_907_4800)"/>
<mask id="mask0_907_4800" style="mask-type:alpha" maskUnits="userSpaceOnUse" x="1" y="1" width="69" height="84">
<path d="M60.7311 1H9.41981C4.76968 1 1 4.76968 1 9.41981V76.5802C1 81.2303 4.76967 85 9.4198 85H49.7529C52.1574 85 54.4471 83.972 56.0449 82.1752L67.0231 69.8292C68.3938 68.2878 69.1509 66.2969 69.1509 64.2343V9.41981C69.1509 4.76968 65.3813 1 60.7311 1Z" fill="url(#paint1_linear_907_4800)"/>
</mask>
<g mask="url(#mask0_907_4800)">
<path d="M49.4288 68.949L49.2691 90.9049L74.5471 62.3026L56.3359 62.1494C52.5488 62.1175 49.4563 65.1618 49.4288 68.949Z" fill="url(#paint2_linear_907_4800)"/>
<path d="M10.3539 24.1974V11.5367H14.4402C15.3387 11.5367 16.0887 11.6995 16.6905 12.0251C17.2963 12.3465 17.7517 12.7937 18.0567 13.3666C18.3658 13.9353 18.5203 14.5885 18.5203 15.3262C18.5203 16.064 18.3658 16.7151 18.0567 17.2798C17.7517 17.8444 17.2983 18.2854 16.6966 18.6027C16.0949 18.92 15.349 19.0787 14.4588 19.0787H10.9783V18.0216H14.4278C15.0873 18.0216 15.6354 17.9124 16.0723 17.6939C16.5132 17.4755 16.8409 17.1644 17.0552 16.7605C17.2736 16.3566 17.3828 15.8785 17.3828 15.3262C17.3828 14.774 17.2736 14.2918 17.0552 13.8797C16.8368 13.4634 16.5071 13.1419 16.0661 12.9153C15.6292 12.6886 15.077 12.5753 14.4093 12.5753H11.51V24.1974H10.3539ZM15.9363 18.4852L19.052 24.1974H17.7167L14.6319 18.4852H15.9363ZM21.534 11.5367L25.0392 17.0325H25.1196L28.6248 11.5367H29.991L25.9171 17.867L29.991 24.1974H28.6248L25.1196 18.7634H25.0392L21.534 24.1974H20.1678L24.3036 17.867L20.1678 11.5367H21.534Z" fill="white"/>
<path d="M9.06485 54.9469L52.3202 54.9469" stroke="#011445" stroke-width="0.446809" stroke-linecap="round"/>
<path d="M9.04251 73.3829H28.7021" stroke="#011445" stroke-width="0.446809" stroke-linecap="round"/>
<path d="M9.06485 49.2554L52.3202 49.2554" stroke="#011445" stroke-width="0.446809" stroke-linecap="round"/>
<rect width="13.5963" height="4.53209" rx="2.26605" transform="matrix(-1 0 0 1 21.7487 65.3405)" fill="#1C42FC"/>
</g>
<defs>
<linearGradient id="paint0_linear_907_4800" x1="35.0755" y1="-86.5745" x2="35.0755" y2="101.532" gradientUnits="userSpaceOnUse">
<stop stop-color="#1C42FC"/>
<stop offset="1" stop-color="white"/>
</linearGradient>
<linearGradient id="paint1_linear_907_4800" x1="43.8936" y1="8.14894" x2="35.0755" y2="145.766" gradientUnits="userSpaceOnUse">
<stop offset="1" stop-color="white"/>
</linearGradient>
<linearGradient id="paint2_linear_907_4800" x1="41.5738" y1="53.7991" x2="105.964" y2="117.52" gradientUnits="userSpaceOnUse">
<stop stop-color="white"/>
<stop offset="1" stop-color="#1C42FC"/>
</linearGradient>
</defs>
</svg>
