<svg width="120" height="120" viewBox="0 0 120 120" fill="none" xmlns="http://www.w3.org/2000/svg">
<g opacity="0.5" filter="url(#filter0_f_1043_3644)">
<ellipse cx="59.9653" cy="59.7181" rx="19.8" ry="17.0731" transform="rotate(46.6766 59.9653 59.7181)" fill="#3A37E1"/>
</g>
<rect x="36" y="27.5996" width="47.7937" height="66" fill="url(#paint0_linear_1043_3644)"/>
<g style="mix-blend-mode:multiply">
<ellipse cx="3.57632" cy="3.57628" rx="3.57632" ry="3.57628" transform="matrix(-1 0 0 1 47.9531 34.8008)" fill="#E8EAF5"/>
</g>
<g style="mix-blend-mode:multiply">
<rect x="-0.3" y="0.3" width="26.7101" height="6.55255" transform="matrix(-1 0 0 1 78.2643 34.8008)" stroke="#E8EAF5" stroke-width="0.6"/>
</g>
<g style="mix-blend-mode:multiply">
<path d="M76.2012 38.4008L54.456 38.4008" stroke="#99A1B5" stroke-width="0.6" stroke-linecap="round"/>
</g>
<g style="mix-blend-mode:multiply">
<ellipse cx="3.57632" cy="3.57628" rx="3.57632" ry="3.57628" transform="matrix(-1 0 0 1 47.9531 46.7533)" fill="#FDB515"/>
</g>
<g style="mix-blend-mode:multiply">
<rect x="-0.3" y="0.3" width="26.7101" height="6.55255" transform="matrix(-1 0 0 1 78.2643 46.7533)" stroke="#FEE1A1" stroke-width="0.6"/>
</g>
<g style="mix-blend-mode:multiply">
<path d="M76.2012 50.3533L54.456 50.3533" stroke="#FDB515" stroke-width="0.6" stroke-linecap="round"/>
</g>
<g style="mix-blend-mode:multiply">
<ellipse cx="3.57632" cy="3.57628" rx="3.57632" ry="3.57628" transform="matrix(-1 0 0 1 47.9531 58.7059)" fill="#3A37E1"/>
</g>
<g style="mix-blend-mode:multiply">
<rect x="-0.3" y="0.3" width="26.7101" height="6.55255" transform="matrix(-1 0 0 1 78.2643 58.7059)" stroke="#D1D0F2" stroke-width="0.6"/>
</g>
<g style="mix-blend-mode:multiply">
<path d="M76.2012 62.3059L54.456 62.3059" stroke="#3A37E1" stroke-width="0.6" stroke-linecap="round"/>
</g>
<rect x="67.8545" y="71.8584" width="11.0087" height="3.66954" fill="#B3B9C7"/>
<path d="M60.5156 79.1279L78.8635 79.1279" stroke="#B3B9C7" stroke-width="0.6" stroke-linecap="round"/>
<path d="M60.5156 82.7279L78.8635 82.7279" stroke="#B3B9C7" stroke-width="0.6" stroke-linecap="round"/>
<path d="M60.5156 86.3279L78.8635 86.3279" stroke="#B3B9C7" stroke-width="0.6" stroke-linecap="round"/>
<g filter="url(#filter1_b_1043_3644)">
<path fill-rule="evenodd" clip-rule="evenodd" d="M77.2768 63.5437C77.0229 63.3962 76.7045 63.5788 76.7036 63.8724L76.6812 71.5988C70.7862 77.3963 69.2882 86.6446 73.5942 94.153C78.7148 103.082 90.1043 106.169 99.0333 101.049C107.962 95.928 111.05 84.5385 105.929 75.6095C101.401 67.7137 91.9706 64.3859 83.6747 67.2624L77.2768 63.5437Z" fill="#3A37E1" fill-opacity="0.75"/>
</g>
<path d="M86.8611 90.8711L81.334 85.3441L82.7158 83.9623L86.8611 88.1076L95.7577 79.2109L97.1395 80.5927L86.8611 90.8711Z" fill="white"/>
<defs>
<filter id="filter0_f_1043_3644" x="1.55762" y="1.15125" width="116.815" height="117.134" filterUnits="userSpaceOnUse" color-interpolation-filters="sRGB">
<feFlood flood-opacity="0" result="BackgroundImageFix"/>
<feBlend mode="normal" in="SourceGraphic" in2="BackgroundImageFix" result="shape"/>
<feGaussianBlur stdDeviation="20" result="effect1_foregroundBlur_1043_3644"/>
</filter>
<filter id="filter1_b_1043_3644" x="54.3211" y="46.6915" width="70.8813" height="73.6303" filterUnits="userSpaceOnUse" color-interpolation-filters="sRGB">
<feFlood flood-opacity="0" result="BackgroundImageFix"/>
<feGaussianBlur in="BackgroundImageFix" stdDeviation="8.4"/>
<feComposite in2="SourceAlpha" operator="in" result="effect1_backgroundBlur_1043_3644"/>
<feBlend mode="normal" in="SourceGraphic" in2="effect1_backgroundBlur_1043_3644" result="shape"/>
</filter>
<linearGradient id="paint0_linear_1043_3644" x1="61.8" y1="-35.4004" x2="61.8" y2="93.5996" gradientUnits="userSpaceOnUse">
<stop stop-color="#B3B9C7"/>
<stop offset="1" stop-color="#E8EAF5"/>
</linearGradient>
</defs>
</svg>
