<svg fill="none" height="86" viewBox="0 0 98 86" width="98" xmlns="http://www.w3.org/2000/svg" xmlns:xlink="http://www.w3.org/1999/xlink"><filter id="a" color-interpolation-filters="sRGB" filterUnits="userSpaceOnUse" height="170.953" width="139.963" x="-42.4764" y="-32.4434"><feFlood flood-opacity="0" result="BackgroundImageFix"/><feColorMatrix in="SourceAlpha" result="hardAlpha" type="matrix" values="0 0 0 0 0 0 0 0 0 0 0 0 0 0 0 0 0 0 127 0"/><feMorphology in="SourceAlpha" operator="erode" radius="10.033" result="effect1_dropShadow_907_4751"/><feOffset dy="10.033"/><feGaussianBlur stdDeviation="26.7547"/><feComposite in2="hardAlpha" operator="out"/><feColorMatrix type="matrix" values="0 0 0 0 0.109804 0 0 0 0 0.258824 0 0 0 0 0.988235 0 0 0 0.2 0"/><feBlend in2="BackgroundImageFix" mode="normal" result="effect1_dropShadow_907_4751"/><feBlend in="SourceGraphic" in2="effect1_dropShadow_907_4751" mode="normal" result="shape"/></filter><linearGradient id="b"><stop offset="0" stop-color="#fcc700"/><stop offset="1" stop-color="#fff"/></linearGradient><linearGradient id="c" gradientUnits="userSpaceOnUse" x1="27.5052" x2="27.5052" xlink:href="#b" y1="-111.454" y2="84.6086"/><linearGradient id="d" gradientUnits="userSpaceOnUse" x1="27.5003" x2="27.5003" y1="-12.1063" y2="38.4769"><stop offset="0" stop-color="#fff"/><stop offset="1" stop-color="#fcc700"/></linearGradient><linearGradient id="e" gradientUnits="userSpaceOnUse" x1="27.5102" x2="27.5102" xlink:href="#b" y1="-15.7217" y2="35.2795"/><clipPath id="f"><path d="m0 0h98v86h-98z"/></clipPath><g clip-path="url(#f)"><g filter="url(#a)"><path d="m54.0104 21.807c0 5.0036-11.87 9.0513-26.5003 9.0513s-26.51004-4.0477-26.51004-9.0513v54.1417c0 5.0036 11.87004 9.0513 26.50024 9.0513 14.6303 0 26.5003-4.0477 26.5003-9.0513v-54.1417z" fill="url(#c)"/><path d="m27.5003 30.9735c14.6401 0 26.5003-4.0477 26.5003-9.0512v-9.2073c-.2926.7217-.7705 1.4532-1.502 2.1847-1.268 1.2875-3.1699 2.5067-5.6083 3.5503-4.8962 2.1068-11.753 3.4333-19.39 3.4333s-14.4937-1.3265-19.38993-3.4333c-2.44813-1.0436-4.34031-2.2628-5.60827-3.5503-.72176-.7315-1.20943-1.4727-1.50204-2.1945v9.2073c0 5.0036 11.87004 9.0513 26.50024 9.0513z" fill="url(#d)"/><path d="m8.11045 19.0245c4.89625 2.1067 11.75295 3.4332 19.38995 3.4332s14.4937-1.3265 19.39-3.4332c2.4481-1.0436 4.3403-2.2628 5.6083-3.5503.7217-.7315 1.2094-1.463 1.502-2.1848v-1.9409c0-1.1607-.5559-2.37988-1.7946-3.60883-.2926-.2926-.6243-.57545-.9851-.8583-.1171-.08779-.2341-.18532-.3609-.2731l-.0683-.04877c-1.0826-.76077-2.3896-1.48253-3.9111-2.12626-4.8768-2.10676-11.7335-3.43324-19.3705-3.43324s-14.4937 1.32648-19.38999 3.43324c-1.52155.65348-2.83827 1.37524-3.91116 2.13601l-.04877.03902c-.12679.08778-.25359.18531-.37063.28285-.36088.28285-.68275.5657-.97535.85831-1.2387 1.22894-1.79465 2.45787-1.79465 3.60877v1.9312c.29261.7218.77053 1.4533 1.50204 2.1946 1.26796 1.2874 3.16989 2.5066 5.60827 3.5502z" fill="url(#e)"/><g clip-rule="evenodd" fill="#1c42fc" fill-rule="evenodd"><path d="m24.8721 44.935c-.3568.3088-.7841.6341-1.2728.8373-.4923.2048-1.0241.2745-1.4922.3053-.3065.0201-.6485.0256-.9602.0306-.1479.0023-.289.0046-.4163.0082-.9375.027-1.4148.1423-1.6685.396-.2523.2523-.3629.7153-.3867 1.6471-.0031.1194-.0049.2503-.0068.3875-.0044.3184-.0093.6709-.0312.992-.0323.475-.106 1.0108-.3163 1.5129-.2081.4968-.5335.9282-.8458 1.29-.2131.2468-.4589.5034-.682.7362-.0949.0991-.1857.1939-.2681.2818-.3013.3214-.5342.5943-.6926.8514-.1545.2506-.2034.4311-.2034.5725 0 .14.0494.3235.2073.5801.161.2617.397.5397.6993.8635.0864.0926.1822.1929.2824.2977.2197.23.46.4816.6664.72.3089.3568.6341.7841.8374 1.2727.2048.4924.2745 1.0242.3053 1.4923.0201.3065.0256.6485.0306.9602.0023.1479.0046.289.0082.4163.027.9375.1423 1.4148.396 1.6685.2523.2523.7153.3629 1.6471.3867.1194.0031.2503.0049.3875.0068.3184.0044.6709.0093.992.0312.475.0323 1.0108.106 1.5128.3163.4969.2081.9283.5335 1.2901.8458.2468.2131.5034.4589.7362.6819.0991.095.1939.1858.2818.2682.3214.3013.5943.5342.8513.6926.2506.1545.4312.2034.5725.2034.1401 0 .3236-.0494.5802-.2073.2617-.161.5397-.397.8635-.6993.0925-.0864.1929-.1822.2977-.2824.23-.2197.4816-.46.72-.6665.3568-.3088.7841-.6341 1.2727-.8373.4924-.2048 1.0242-.2745 1.4923-.3053.3065-.0201.6485-.0256.9602-.0306.1479-.0023.289-.0046.4163-.0082.9375-.027 1.4148-.1423 1.6685-.396.2523-.2523.3629-.7153.3867-1.6471.0031-.1194.0049-.2503.0068-.3876.0044-.3183.0093-.6708.0312-.9919.0323-.475.106-1.0108.3163-1.5129.2081-.4968.5335-.9282.8458-1.29.2131-.2468.4589-.5034.6819-.7362.095-.0991.1858-.1939.2682-.2818.3013-.3214.5342-.5943.6926-.8513.1545-.2507.2034-.4312.2034-.5725 0-.1401-.0494-.3236-.2073-.5802-.161-.2617-.397-.5397-.6993-.8635-.0864-.0926-.1822-.1929-.2824-.2977-.2197-.23-.4601-.4816-.6665-.72-.3088-.3568-.6341-.7841-.8373-1.2727-.2048-.4924-.2745-1.0242-.3053-1.4923-.0202-.3065-.0256-.6485-.0306-.9602-.0023-.1479-.0046-.289-.0083-.4163-.0269-.9375-.1422-1.4148-.3959-1.6685-.2523-.2523-.7153-.3629-1.6471-.3867-.1194-.0031-.2503-.0049-.3875-.0068-.3184-.0044-.6709-.0093-.992-.0312-.475-.0323-1.0108-.106-1.5129-.3163-.4968-.2081-.9282-.5335-1.29-.8458-.2468-.2131-.5034-.4589-.7362-.6819-.0991-.095-.1939-.1858-.2818-.2682-.3215-.3013-.5944-.5342-.8514-.6926-.2506-.1545-.4311-.2034-.5725-.2034-.14 0-.3235.0494-.5801.2073-.2617.161-.5397.397-.8635.6993-.0926.0864-.1929.1822-.2977.2824-.23.2197-.4816.4601-.72.6665zm.8591-3.3097c.4414-.2715.9803-.4965 1.6022-.4965.6207 0 1.1564.2225 1.5962.4935.4333.2672.8249.6142 1.1618.9301.1227.115.2359.2235.3441.3273.2128.204.4063.3895.6145.5693.3042.2626.5525.4325.7689.5231.2111.0884.4983.1427.8916.1694.2686.0183.529.0218.8174.0256.1506.002.3087.0041.4796.0085.8574.0219 2.1073.0881 2.9767.9574.8679.868.9416 2.1281.9664 2.9918.0054.1846.0079.3535.0103.5136.0042.2781.008.5297.0252.7911.026.3955.0782.6745.1599.871.0833.2002.2472.4404.511.7451.1761.2034.357.3925.5561.6006.1085.1135.2225.2326.344.3628.318.3406.6664.7362.9348 1.1725.2715.4414.4965.9803.4965 1.6023 0 .6206-.2225 1.1563-.4935 1.5961-.2672.4333-.6142.8249-.9301 1.1618-.115.1227-.2235.2359-.3273.3441-.204.2128-.3895.4063-.5693.6145-.2626.3042-.4325.5525-.5231.7689-.0884.2111-.1427.4983-.1694.8916-.0183.2686-.0218.529-.0256.8175-.002.1505-.0041.3086-.0085.4795-.0219.8574-.0881 2.1073-.9574 2.9767-.868.8679-2.1281.9416-2.9919.9665-.1845.0053-.3534.0078-.5135.0102-.2781.0042-.5297.008-.7911.0252-.3956.026-.6745.0782-.871.1599-.2002.0833-.4404.2472-.7451.511-.2034.1761-.3925.357-.6006.5561-.1135.1085-.2326.2225-.3628.344-.3406.318-.7362.6664-1.1725.9348-.4414.2715-.9803.4965-1.6023.4965-.6206 0-1.1563-.2224-1.5961-.4935-.4333-.2672-.8249-.6142-1.1619-.9301-.1226-.115-.2358-.2235-.344-.3273-.2128-.204-.4063-.3895-.6145-.5693-.3042-.2626-.5525-.4325-.7689-.5231-.2111-.0884-.4983-.1427-.8916-.1694-.2686-.0183-.5291-.0218-.8175-.0256-.1505-.002-.3086-.0041-.4795-.0085-.8574-.0219-2.1073-.0881-2.9767-.9574-.8679-.868-.9416-2.1281-.9665-2.9918-.0053-.1846-.0078-.3535-.0102-.5136-.0042-.2781-.008-.5297-.0252-.7911-.026-.3955-.0782-.6745-.1599-.871-.0833-.2002-.2472-.4404-.511-.745-.1761-.2034-.357-.3926-.5561-.6007-.1085-.1135-.2225-.2326-.344-.3628-.318-.3406-.6664-.7362-.9348-1.1725-.2715-.4414-.4965-.9803-.4965-1.6022 0-.6207.2224-1.1564.4935-1.5962.2672-.4333.6142-.8249.9301-1.1618.115-.1227.2235-.2359.3273-.3441.204-.2128.3895-.4063.5693-.6145.2626-.3042.4325-.5525.5231-.7689.0884-.2111.1427-.4983.1694-.8916.0183-.2686.0218-.529.0256-.8175.002-.1505.0041-.3086.0085-.4795.0219-.8574.0881-2.1073.9574-2.9767.868-.8679 2.1281-.9416 2.9918-.9665.1846-.0053.3535-.0078.5136-.0102.2781-.0042.5297-.008.791-.0252.3956-.026.6746-.0782.8711-.1599.2002-.0833.4404-.2472.745-.511.2034-.1761.3926-.357.6007-.5561.1135-.1085.2326-.2225.3628-.344.3406-.318.7362-.6664 1.1725-.9348z"/><path d="m33.4036 51.1844c.3718.3898.3573 1.0072-.0325 1.379l-7.1566 6.8275c-.3771.3597-.9703.3595-1.3471-.0006l-3.5722-3.4137c-.3895-.3722-.4035-.9896-.0313-1.379.3721-.3895.9895-.4035 1.379-.0313l2.8989 2.7703 6.4828-6.1846c.3898-.3718 1.0072-.3573 1.379.0324z"/></g></g></g></svg>