<svg fill="none" height="86" viewBox="0 0 98 86" width="98" xmlns="http://www.w3.org/2000/svg" xmlns:xlink="http://www.w3.org/1999/xlink"><filter id="a" color-interpolation-filters="sRGB" filterUnits="userSpaceOnUse" height="172.249" width="133.805" x="-43.1243" y="-32.9417"><feFlood flood-opacity="0" result="BackgroundImageFix"/><feColorMatrix in="SourceAlpha" result="hardAlpha" type="matrix" values="0 0 0 0 0 0 0 0 0 0 0 0 0 0 0 0 0 0 127 0"/><feMorphology in="SourceAlpha" operator="erode" radius="10.1825" result="effect1_dropShadow_907_4815"/><feOffset dy="10.1825"/><feGaussianBlur stdDeviation="27.1534"/><feComposite in2="hardAlpha" operator="out"/><feColorMatrix type="matrix" values="0 0 0 0 0.109804 0 0 0 0 0.258824 0 0 0 0 0.988235 0 0 0 0.2 0"/><feBlend in2="BackgroundImageFix" mode="normal" result="effect1_dropShadow_907_4815"/><feBlend in="SourceGraphic" in2="effect1_dropShadow_907_4815" mode="normal" result="shape"/></filter><linearGradient id="b" gradientUnits="userSpaceOnUse" x1="23.7782" x2="23.7782" y1="-120.876" y2="85"><stop offset="0" stop-color="#1c42fc"/><stop offset="1" stop-color="#fff"/></linearGradient><clipPath id="c"><path d="m0 0h98v86h-98z"/></clipPath><g clip-path="url(#c)"><g filter="url(#a)"><rect fill="url(#b)" height="80.7681" rx="5.17239" stroke="#1c42fc" stroke-width="3.23191" width="42.3245" x="2.61595" y="2.61595"/><g clip-rule="evenodd" fill="#1c42fc" fill-rule="evenodd"><path d="m28.9845 39.859c.3369.3531.3237.9124-.0294 1.2493l-6.4837 6.1854c-.3416.326-.8791.3257-1.2204-.0005l-3.2364-3.0927c-.3528-.3372-.3655-.8965-.0283-1.2493.3372-.3529.8965-.3655 1.2493-.0284l2.6264 2.5098 5.8732-5.603c.3531-.3369.9124-.3237 1.2493.0294z"/><path d="m23.4851 33.3998c-5.3682 0-9.72 4.3518-9.72 9.72s4.3518 9.72 9.72 9.72 9.72-4.3518 9.72-9.72-4.3518-9.72-9.72-9.72zm-11.4872 9.72c0-6.3442 5.143-11.4872 11.4872-11.4872 6.3443 0 11.4873 5.143 11.4873 11.4872 0 6.3443-5.143 11.4873-11.4873 11.4873-6.3442 0-11.4872-5.143-11.4872-11.4873z"/></g></g></g></svg>