<svg fill="none" height="120" viewBox="0 0 120 120" width="120" xmlns="http://www.w3.org/2000/svg" xmlns:xlink="http://www.w3.org/1999/xlink"><filter id="a" color-interpolation-filters="sRGB" filterUnits="userSpaceOnUse" height="117.135" width="116.814" x="1.55811" y="1.15039"><feFlood flood-opacity="0" result="BackgroundImageFix"/><feBlend in="SourceGraphic" in2="BackgroundImageFix" mode="normal" result="shape"/><feGaussianBlur result="effect1_foregroundBlur_1157_13515" stdDeviation="20"/></filter><filter id="b" color-interpolation-filters="sRGB" filterUnits="userSpaceOnUse" height="13.52" width="13.52" x="26.24" y="32.24"><feFlood flood-opacity="0" result="BackgroundImageFix"/><feGaussianBlur in="BackgroundImageFix" stdDeviation="2.88"/><feComposite in2="SourceAlpha" operator="in" result="effect1_backgroundBlur_1157_13515"/><feBlend in="SourceGraphic" in2="effect1_backgroundBlur_1157_13515" mode="normal" result="shape"/></filter><filter id="c" color-interpolation-filters="sRGB" filterUnits="userSpaceOnUse" height="13.52" width="13.52" x="26.24" y="36.9392"><feFlood flood-opacity="0" result="BackgroundImageFix"/><feGaussianBlur in="BackgroundImageFix" stdDeviation="2.88"/><feComposite in2="SourceAlpha" operator="in" result="effect1_backgroundBlur_1157_13515"/><feBlend in="SourceGraphic" in2="effect1_backgroundBlur_1157_13515" mode="normal" result="shape"/></filter><filter id="d" color-interpolation-filters="sRGB" filterUnits="userSpaceOnUse" height="13.52" width="13.52" x="26.24" y="41.6404"><feFlood flood-opacity="0" result="BackgroundImageFix"/><feGaussianBlur in="BackgroundImageFix" stdDeviation="2.88"/><feComposite in2="SourceAlpha" operator="in" result="effect1_backgroundBlur_1157_13515"/><feBlend in="SourceGraphic" in2="effect1_backgroundBlur_1157_13515" mode="normal" result="shape"/></filter><filter id="e" color-interpolation-filters="sRGB" filterUnits="userSpaceOnUse" height="13.52" width="13.52" x="26.24" y="46.3396"><feFlood flood-opacity="0" result="BackgroundImageFix"/><feGaussianBlur in="BackgroundImageFix" stdDeviation="2.88"/><feComposite in2="SourceAlpha" operator="in" result="effect1_backgroundBlur_1157_13515"/><feBlend in="SourceGraphic" in2="effect1_backgroundBlur_1157_13515" mode="normal" result="shape"/></filter><filter id="f" color-interpolation-filters="sRGB" filterUnits="userSpaceOnUse" height="13.52" width="13.52" x="26.24" y="51.0408"><feFlood flood-opacity="0" result="BackgroundImageFix"/><feGaussianBlur in="BackgroundImageFix" stdDeviation="2.88"/><feComposite in2="SourceAlpha" operator="in" result="effect1_backgroundBlur_1157_13515"/><feBlend in="SourceGraphic" in2="effect1_backgroundBlur_1157_13515" mode="normal" result="shape"/></filter><filter id="g" color-interpolation-filters="sRGB" filterUnits="userSpaceOnUse" height="13.52" width="13.52" x="26.24" y="55.74"><feFlood flood-opacity="0" result="BackgroundImageFix"/><feGaussianBlur in="BackgroundImageFix" stdDeviation="2.88"/><feComposite in2="SourceAlpha" operator="in" result="effect1_backgroundBlur_1157_13515"/><feBlend in="SourceGraphic" in2="effect1_backgroundBlur_1157_13515" mode="normal" result="shape"/></filter><filter id="h" color-interpolation-filters="sRGB" filterUnits="userSpaceOnUse" height="13.52" width="13.52" x="26.24" y="60.4392"><feFlood flood-opacity="0" result="BackgroundImageFix"/><feGaussianBlur in="BackgroundImageFix" stdDeviation="2.88"/><feComposite in2="SourceAlpha" operator="in" result="effect1_backgroundBlur_1157_13515"/><feBlend in="SourceGraphic" in2="effect1_backgroundBlur_1157_13515" mode="normal" result="shape"/></filter><filter id="i" color-interpolation-filters="sRGB" filterUnits="userSpaceOnUse" height="13.52" width="13.52" x="26.24" y="65.1404"><feFlood flood-opacity="0" result="BackgroundImageFix"/><feGaussianBlur in="BackgroundImageFix" stdDeviation="2.88"/><feComposite in2="SourceAlpha" operator="in" result="effect1_backgroundBlur_1157_13515"/><feBlend in="SourceGraphic" in2="effect1_backgroundBlur_1157_13515" mode="normal" result="shape"/></filter><filter id="j" color-interpolation-filters="sRGB" filterUnits="userSpaceOnUse" height="13.52" width="13.52" x="26.24" y="69.8396"><feFlood flood-opacity="0" result="BackgroundImageFix"/><feGaussianBlur in="BackgroundImageFix" stdDeviation="2.88"/><feComposite in2="SourceAlpha" operator="in" result="effect1_backgroundBlur_1157_13515"/><feBlend in="SourceGraphic" in2="effect1_backgroundBlur_1157_13515" mode="normal" result="shape"/></filter><filter id="k" color-interpolation-filters="sRGB" filterUnits="userSpaceOnUse" height="13.52" width="13.52" x="26.24" y="74.5408"><feFlood flood-opacity="0" result="BackgroundImageFix"/><feGaussianBlur in="BackgroundImageFix" stdDeviation="2.88"/><feComposite in2="SourceAlpha" operator="in" result="effect1_backgroundBlur_1157_13515"/><feBlend in="SourceGraphic" in2="effect1_backgroundBlur_1157_13515" mode="normal" result="shape"/></filter><linearGradient id="l" gradientUnits="userSpaceOnUse" x1="84.9004" x2="-6.59961" y1="28.25" y2="28.25"><stop offset="0" stop-color="#e8eaf5"/><stop offset="1" stop-color="#b3b9c7"/></linearGradient><mask id="m" height="36" maskUnits="userSpaceOnUse" width="36" x="48" y="42"><path d="m48 42h36v36h-36z" fill="#d9d9d9"/></mask><g filter="url(#a)" opacity=".5"><ellipse cx="59.9653" cy="59.7181" fill="#3a37e1" rx="19.8" ry="17.0731" transform="matrix(.68611552 .7274926 -.7274926 .68611552 62.266653 -24.879728)"/></g><path d="m0 0h78v48.7503h-78z" fill="url(#l)" transform="matrix(1 0 0 -1 21.5996 84.75)"/><g mask="url(#m)"><path d="m59.25 58.5c-1.45 0-2.6875-.5125-3.7125-1.5375s-1.5375-2.2625-1.5375-3.7125.5125-2.6875 1.5375-3.7125 2.2625-1.5375 3.7125-1.5375 2.6875.5125 3.7125 1.5375 1.5375 2.2625 1.5375 3.7125-.5125 2.6875-1.5375 3.7125-2.2625 1.5375-3.7125 1.5375zm0-3c.625 0 1.1562-.2187 1.5938-.6562.4375-.4376.6562-.9688.6562-1.5938s-.2187-1.1562-.6562-1.5938c-.4376-.4375-.9688-.6562-1.5938-.6562s-1.1562.2187-1.5938.6562c-.4375.4376-.6562.9688-.6562 1.5938s.2187 1.1562.6562 1.5938c.4376.4375.9688.6562 1.5938.6562zm13.5 16.5c-1.45 0-2.6875-.5125-3.7125-1.5375s-1.5375-2.2625-1.5375-3.7125.5125-2.6875 1.5375-3.7125 2.2625-1.5375 3.7125-1.5375 2.6875.5125 3.7125 1.5375 1.5375 2.2625 1.5375 3.7125-.5125 2.6875-1.5375 3.7125-2.2625 1.5375-3.7125 1.5375zm0-3c.625 0 1.1562-.2187 1.5938-.6562.4375-.4376.6562-.9688.6562-1.5938s-.2187-1.1562-.6562-1.5938c-.4376-.4375-.9688-.6562-1.5938-.6562s-1.1562.2187-1.5938.6562c-.4375.4376-.6562.9688-.6562 1.5938s.2187 1.1562.6562 1.5938c.4376.4375.9688.6562 1.5938.6562zm-16.65 3-2.1-2.1 21.9-21.9 2.1 2.1z" fill="#67728f"/></g><g filter="url(#b)"><circle cx="33" cy="39" fill="#dbdef0" r="1"/></g><g filter="url(#c)"><circle cx="33" cy="43.6992" fill="#dbdef0" r="1"/></g><g filter="url(#d)"><circle cx="33" cy="48.4004" fill="#dbdef0" r="1"/></g><g filter="url(#e)"><circle cx="33" cy="53.0996" fill="#dbdef0" r="1"/></g><g filter="url(#f)"><circle cx="33" cy="57.8008" fill="#dbdef0" r="1"/></g><g filter="url(#g)"><circle cx="33" cy="62.5" fill="#dbdef0" r="1"/></g><g filter="url(#h)"><circle cx="33" cy="67.1992" fill="#dbdef0" r="1"/></g><g filter="url(#i)"><circle cx="33" cy="71.9004" fill="#dbdef0" r="1"/></g><g filter="url(#j)"><circle cx="33" cy="76.5996" fill="#dbdef0" r="1"/></g><g filter="url(#k)"><circle cx="33" cy="81.3008" fill="#dbdef0" r="1"/></g></svg>