<svg fill="none" height="86" viewBox="0 0 98 86" width="98" xmlns="http://www.w3.org/2000/svg" xmlns:xlink="http://www.w3.org/1999/xlink"><filter id="a" color-interpolation-filters="sRGB" filterUnits="userSpaceOnUse" height="133.473" width="133.473" x="10.6973" y="7.09619"><feFlood flood-opacity="0" result="BackgroundImageFix"/><feColorMatrix in="SourceAlpha" result="hardAlpha" type="matrix" values="0 0 0 0 0 0 0 0 0 0 0 0 0 0 0 0 0 0 127 0"/><feMorphology in="SourceAlpha" operator="erode" radius="12" result="effect1_dropShadow_907_4830"/><feOffset dy="12"/><feGaussianBlur stdDeviation="32"/><feComposite in2="hardAlpha" operator="out"/><feColorMatrix type="matrix" values="0 0 0 0 0.109804 0 0 0 0 0.258824 0 0 0 0 0.988235 0 0 0 0.2 0"/><feBlend in2="BackgroundImageFix" mode="normal" result="effect1_dropShadow_907_4830"/><feBlend in="SourceGraphic" in2="effect1_dropShadow_907_4830" mode="normal" result="shape"/></filter><clipPath id="b"><path d="m0 0h98v86h-98z"/></clipPath><mask id="c" height="84" maskUnits="userSpaceOnUse" width="77" x="1" y="1"><rect fill="#fff" height="84" rx="6.87166" width="76.9346" x="1" y="1"/></mask><g clip-path="url(#b)"><rect fill="#fff" height="84" rx="6.87166" width="76.9346" x="1" y="1"/><g mask="url(#c)"><g fill="#d9d9d9" fill-opacity=".3"><rect height="50.1207" rx="4.48451" width="18.898" x="14.9849" y="-5.34131"/><rect height="54.229" rx="4.48451" width="16.433" x="38.4854" y="8.62659"/><rect height="23.0063" rx="4.48451" width="16.433" x="61.4893" y="-7.80615"/><rect height="23.0063" rx="4.48451" width="16.433" x="38.4854" y="-19.3091"/><rect height="66.5538" rx="4.48451" width="16.433" x="61.4893" y="21.7732"/><rect height="49.2991" rx="4.48451" width="18.898" x="-9.99194" y="49.7094"/><rect height="52.5857" rx="4.48451" width="18.898" x="-12.9849" y="-7.80676"/><rect height="64.0888" rx="4.48451" width="16.433" x="13.0187" y="52.996"/><rect height="40.2609" rx="4.48451" width="19.7196" x="35.2039" y="71.894"/></g><path d="m10.5492 18.6759v26.5488c0 2.4768 2.0078 4.4845 4.4845 4.4845h14.4481c2.4767 0 4.4845 2.0078 4.4845 4.4845v8.2857c0 2.4767 2.0077 4.4845 4.4845 4.4845h14.4134" stroke="#1c42fc" stroke-width=".429479"/><circle cx="10.5513" cy="16.9307" fill="#1c42fc" r="2.46495" stroke="#1c42fc" stroke-width=".429479"/><circle cx="54.9219" cy="66.9642" fill="#1c42fc" r="2.46495" stroke="#1c42fc" stroke-width=".429479"/></g><g filter="url(#a)"><circle cx="77.4336" cy="61.8325" fill="#1c42fc" r="14.7363"/><g stroke="#fff" stroke-width=".858957"><path d="m76.7684 69.1064.0005.0003c.1912.1339.4464.1339.6376 0l.0005-.0003.0013-.0009.0041-.0029.0141-.0101c.012-.0086.0292-.0209.0511-.0369.0437-.0319.1067-.0786.186-.1392.1586-.1213.3832-.2987.6516-.5269.5362-.4557 1.2517-1.1174 1.9687-1.9419 1.4203-1.6334 2.9133-3.9829 2.9133-6.6822 0-1.6204-.6437-3.1743-1.7894-4.3201-1.1458-1.1457-2.6998-1.7894-4.3201-1.7894s-3.1743.6437-4.3201 1.7894c-1.1457 1.1458-1.7894 2.6997-1.7894 4.3201 0 2.6993 1.493 5.0488 2.9133 6.6822.717.8245 1.4325 1.4862 1.9687 1.9419.2684.2282.493.4056.6516.5269.0793.0606.1423.1073.1861.1392.0219.016.039.0283.051.0369l.0141.0101.0041.0029z" stroke-linecap="round" stroke-linejoin="round"/><circle cx="77.1066" cy="59.786" r="2.35705"/></g></g></g></svg>