<svg fill="none" height="86" viewBox="0 0 98 86" width="98" xmlns="http://www.w3.org/2000/svg" xmlns:xlink="http://www.w3.org/1999/xlink"><filter id="a" color-interpolation-filters="sRGB" filterUnits="userSpaceOnUse" height="174.245" width="178.455" x="-43.8522" y="-33.8725"><feFlood flood-opacity="0" result="BackgroundImageFix"/><feColorMatrix in="SourceAlpha" result="hardAlpha" type="matrix" values="0 0 0 0 0 0 0 0 0 0 0 0 0 0 0 0 0 0 127 0"/><feMorphology in="SourceAlpha" operator="erode" radius="10.388" result="effect1_dropShadow_907_4768"/><feOffset dy="10.388"/><feGaussianBlur stdDeviation="27.7012"/><feComposite in2="hardAlpha" operator="out"/><feColorMatrix type="matrix" values="0 0 0 0 0.109804 0 0 0 0 0.258824 0 0 0 0 0.988235 0 0 0 0.2 0"/><feBlend in2="BackgroundImageFix" mode="normal" result="effect1_dropShadow_907_4768"/><feBlend in="SourceGraphic" in2="effect1_dropShadow_907_4768" mode="normal" result="shape"/></filter><linearGradient id="b"><stop offset="0" stop-color="#fff"/><stop offset=".869494" stop-color="#fcc700"/></linearGradient><linearGradient id="c" gradientUnits="userSpaceOnUse" x1="80.1011" x2="80.1011" xlink:href="#b" y1="-10.817" y2="96.7303"/><linearGradient id="d" gradientUnits="userSpaceOnUse" x1="70.3624" x2="70.3624" xlink:href="#b" y1="1.98741" y2="109.535"/><linearGradient id="e" gradientUnits="userSpaceOnUse" x1="48.0859" x2="48.0859" xlink:href="#b" y1="10.439" y2="178.39"/><clipPath id="f"><path d="m0 0h98v86h-98z"/></clipPath><g clip-path="url(#f)"><g filter="url(#a)"><rect fill="url(#c)" height="33.9584" rx="5.95435" transform="matrix(.70313662 .71105478 -.71105478 .70313662 14.496824 -38.147545)" width="54.3334" x="52.9344" y="-1.71219"/><path d="m64.1948 25.3651 14.4489 14.6116" stroke="#fff" stroke-linecap="round" stroke-width=".610703"/><path d="m39.6113 19.8246 29.2498 29.5792" stroke="#fff" stroke-linecap="round" stroke-width=".610703"/><path clip-rule="evenodd" d="m48.5009 9.37908c2.4299-2.40281 6.3475-2.38088 8.7504.049 2.4028 2.42992 2.3808 6.34752-.049 8.75032-2.4299 2.4028-6.3476 2.3809-8.7504-.049-2.4028-2.4298-2.3809-6.3475.049-8.75032z" fill="#1c42fc" fill-rule="evenodd"/><rect fill="#ffc632" height="33.9584" opacity=".5" rx="5.95435" transform="matrix(.70313662 .71105478 -.71105478 .70313662 14.496808 -38.147385)" width="54.3334" x="52.9342" y="-1.71213"/><rect fill="url(#d)" height="33.9584" rx="5.95435" transform="matrix(.88835693 .45915353 -.45915353 .88835693 9.915569 -18.59508)" width="54.3334" x="43.1957" y="11.0923"/><path d="m62.2606 33.3704 18.255 9.4352" stroke="#fff" stroke-linecap="round" stroke-width=".610703"/><path d="m37.1699 35.6922 36.9548 19.1004" stroke="#fff" stroke-linecap="round" stroke-width=".610703"/><path clip-rule="evenodd" d="m42.3971 23.0113c1.5691-3.0358 5.302-4.2248 8.3378-2.6557s4.2248 5.302 2.6557 8.3378c-1.5691 3.0357-5.302 4.2247-8.3378 2.6557-3.0357-1.5691-4.2247-5.302-2.6557-8.3378z" fill="#1c42fc" fill-rule="evenodd"/><rect fill="#ffc632" height="33.9584" opacity=".4" rx="5.95435" transform="matrix(.88835693 .45915353 -.45915353 .88835693 9.915569 -18.59508)" width="54.3334" x="43.1957" y="11.0923"/><rect fill="url(#e)" height="53.0309" rx="5.95435" transform="matrix(.99547875 .09498454 -.09498454 .99547875 2.367686 -.426237)" width="84.8495" x="5.66113" y="24.6576"/><path d="m46.2594 45.8443 31.9454 3.0481" stroke="#1c42fc" stroke-linecap="round" stroke-width=".432832"/><path d="m11.2541 63.8128 64.6692 6.1704" stroke="#1c42fc" stroke-linecap="round" stroke-width=".432832"/><g clip-rule="evenodd" fill="#1c42fc" fill-rule="evenodd"><path d="m25.9299 41.0193c.2539.3226.1982.7899-.1244 1.0438l-5.9234 4.6614c-.3121.2456-.7621.2025-1.0219-.0979l-2.4629-2.8484c-.2685-.3105-.2344-.7799.0761-1.0484s.7799-.2344 1.0484.0761l1.9987 2.3115 5.3657-4.2226c.3226-.2538.7899-.1981 1.0437.1245z"/><path d="m21.8411 35.1712c-4.4952-.4289-8.4869 2.8675-8.9158 7.3626-.4289 4.4952 2.8674 8.4869 7.3625 8.9158 4.4952.4289 8.4869-2.8674 8.9158-7.3626.4289-4.4951-2.8674-8.4869-7.3625-8.9158zm-10.3957 7.2214c.5069-5.3124 5.2244-9.2081 10.5369-8.7012 5.3124.5069 9.2081 5.2244 8.7012 10.5368-.5069 5.3125-5.2244 9.2081-10.5369 8.7013-5.3124-.5069-9.2081-5.2244-8.7012-10.5369z"/></g></g></g></svg>