<svg width="155" height="36" viewBox="0 0 155 36" fill="none" xmlns="http://www.w3.org/2000/svg">
<path d="M10.3408 27.1957C8.77384 27.1957 7.37179 26.8246 6.13469 26.0823C4.89758 25.3401 3.9182 24.3298 3.19656 23.0514C2.49553 21.7525 2.14502 20.3092 2.14502 18.7216C2.14502 17.0927 2.49553 15.6391 3.19656 14.3608C3.9182 13.0618 4.89758 12.0412 6.13469 11.2989C7.37179 10.5567 8.77384 10.1855 10.3408 10.1855C11.8048 10.1855 13.1346 10.4639 14.3305 11.0206C15.547 11.5567 16.4954 12.2989 17.1759 13.2474L14.7944 16.1546C14.5058 15.7628 14.1449 15.402 13.712 15.0721C13.279 14.7422 12.8047 14.4845 12.2893 14.2989C11.7944 14.1133 11.279 14.0206 10.7429 14.0206C9.89755 14.0206 9.14498 14.2267 8.48519 14.6391C7.8254 15.0309 7.30994 15.5876 6.9388 16.3092C6.56767 17.0102 6.38211 17.804 6.38211 18.6906C6.38211 19.5566 6.57798 20.3401 6.96973 21.0411C7.36148 21.7422 7.88725 22.2989 8.54704 22.7112C9.20683 23.1236 9.93879 23.3298 10.7429 23.3298C11.279 23.3298 11.7841 23.2576 12.2584 23.1133C12.7532 22.9483 13.2068 22.7112 13.6192 22.4019C14.0315 22.0927 14.4233 21.7318 14.7944 21.3195L17.1759 24.2267C16.4954 25.1133 15.5264 25.8349 14.2687 26.3916C13.0316 26.9277 11.7223 27.1957 10.3408 27.1957Z" fill="#011445"/>
<path d="M29.0518 26.8865V16.6494C29.0518 15.7834 28.7838 15.1236 28.2477 14.67C27.7322 14.1958 27.0312 13.9587 26.1446 13.9587C25.2993 13.9587 24.5467 14.1236 23.8869 14.4535C23.2271 14.7834 22.6086 15.2989 22.0313 15.9999L19.3405 13.402C20.3302 12.3711 21.4333 11.5773 22.6498 11.0206C23.8869 10.4639 25.2271 10.1855 26.6704 10.1855C27.99 10.1855 29.1343 10.3917 30.1034 10.8041C31.0931 11.2165 31.8559 11.835 32.392 12.6597C32.9281 13.4845 33.1961 14.5257 33.1961 15.7834V26.8865H29.0518ZM24.5673 27.1957C23.5364 27.1957 22.5983 26.9895 21.7529 26.5772C20.9282 26.1648 20.2684 25.5978 19.7735 24.8762C19.2993 24.1339 19.0622 23.2679 19.0622 22.2782C19.0622 21.4329 19.2168 20.6906 19.5261 20.0514C19.8354 19.3917 20.289 18.8556 20.8869 18.4432C21.5055 18.0102 22.2684 17.6803 23.1756 17.4535C24.1034 17.2267 25.1756 17.1133 26.392 17.1133H31.2168L30.9384 20.0514H26.3302C25.8354 20.0514 25.3921 20.0927 25.0003 20.1752C24.6292 20.2576 24.3096 20.3916 24.0415 20.5772C23.7941 20.7628 23.5983 20.9793 23.4539 21.2267C23.3302 21.4741 23.2684 21.7628 23.2684 22.0927C23.2684 22.4432 23.3611 22.7525 23.5467 23.0205C23.7323 23.2885 23.9797 23.4947 24.289 23.6391C24.6189 23.7834 24.99 23.8555 25.4024 23.8555C26.0003 23.8555 26.5673 23.7525 27.1034 23.5463C27.6601 23.3401 28.1549 23.0514 28.5879 22.6803C29.0209 22.3092 29.3611 21.8865 29.6085 21.4123L30.4436 23.6081C30.0106 24.3092 29.4848 24.9277 28.8663 25.4638C28.2477 25.9999 27.5776 26.4225 26.856 26.7318C26.1343 27.0411 25.3714 27.1957 24.5673 27.1957Z" fill="#011445"/>
<path d="M36.988 10.4455H40.8023L41.0983 12.5499C41.5586 11.9799 42.0738 11.5196 42.6437 11.1689C43.2356 10.7962 43.8823 10.5441 44.5838 10.4126C45.2853 10.2591 46.0196 10.2701 46.7869 10.4455V14.3913C46.195 14.194 45.5702 14.1392 44.9126 14.2269C44.2769 14.3146 43.674 14.5447 43.1041 14.9174C42.556 15.2901 42.0957 15.8271 41.723 16.5286C41.3723 17.2082 41.1969 18.0741 41.1969 19.1263V26.8865H36.988V10.4455Z" fill="#011445"/>
<path d="M51.9561 33.9998L55.5437 25.6184L55.6055 28.1854L47.5953 10.5257H52.5746L56.5952 20.0205C56.7396 20.3504 56.8942 20.7525 57.0591 21.2267C57.2241 21.7009 57.3478 22.1545 57.4303 22.5875L56.688 22.8968C56.8323 22.5463 56.9767 22.1442 57.121 21.6906C57.2859 21.237 57.4509 20.7525 57.6158 20.237L61.0488 10.5257H66.09L59.2241 26.8865L56.4097 33.9998H51.9561Z" fill="#011445"/>
<path d="M68.4528 26.8865V4H70.8033V14.1133L70.3394 14.3917C70.5662 13.67 70.9786 13.0103 71.5765 12.4123C72.1951 11.7938 72.9167 11.2989 73.7415 10.9278C74.5868 10.5567 75.4631 10.3711 76.3703 10.3711C77.5868 10.3711 78.6074 10.6082 79.4321 11.0824C80.2775 11.536 80.9167 12.2474 81.3497 13.2164C81.7826 14.1855 81.9991 15.4123 81.9991 16.8968V26.8865H79.6486V17.0515C79.6486 15.9999 79.494 15.134 79.1847 14.4535C78.8961 13.7731 78.4528 13.2783 77.8548 12.969C77.2775 12.6597 76.5456 12.5154 75.659 12.536C74.9579 12.536 74.3085 12.6494 73.7105 12.8762C73.1332 13.103 72.6281 13.4123 72.1951 13.8041C71.7621 14.1752 71.4219 14.5979 71.1745 15.0721C70.927 15.5257 70.8033 15.9793 70.8033 16.4329V26.8865H69.659C69.4734 26.8865 69.2776 26.8865 69.0714 26.8865C68.8652 26.8865 68.659 26.8865 68.4528 26.8865Z" fill="#011445"/>
<path d="M93.6944 27.1957C92.0655 27.1957 90.6222 26.8452 89.3645 26.1442C88.1068 25.4225 87.1171 24.4329 86.3955 23.1751C85.6944 21.9174 85.3439 20.4844 85.3439 18.8762C85.3439 17.6185 85.5398 16.4741 85.9315 15.4432C86.3439 14.3917 86.9006 13.4948 87.6016 12.7525C88.3233 11.9896 89.1789 11.402 90.1686 10.9896C91.1583 10.5773 92.2408 10.3711 93.416 10.3711C94.447 10.3711 95.4057 10.5567 96.2923 10.9278C97.1995 11.2989 97.983 11.835 98.6428 12.536C99.3026 13.2164 99.8077 14.0309 100.158 14.9793C100.509 15.9071 100.663 16.9381 100.622 18.0721L100.591 19.2473H87.0449L86.5501 17.3298H98.6428L98.2098 17.8556L98.2407 17.0824C98.1995 16.1958 97.9521 15.4123 97.4985 14.7319C97.0449 14.0515 96.4572 13.5154 95.7356 13.1237C95.0346 12.7319 94.2614 12.536 93.416 12.536C92.2202 12.536 91.1892 12.7938 90.3233 13.3092C89.4573 13.8041 88.7975 14.5154 88.3439 15.4432C87.9109 16.3504 87.6841 17.4432 87.6635 18.7216C87.6841 19.9999 87.9521 21.1133 88.4676 22.0617C88.9831 22.9896 89.7047 23.7215 90.6325 24.2576C91.581 24.7731 92.6738 25.0308 93.9109 25.0308C94.7975 25.0308 95.6222 24.8865 96.3851 24.5978C97.148 24.2885 97.9212 23.7834 98.7047 23.0824L99.8799 24.7524C99.3851 25.2473 98.7974 25.6803 98.117 26.0514C97.4572 26.4019 96.7459 26.6803 95.983 26.8865C95.2201 27.0926 94.4573 27.1957 93.6944 27.1957Z" fill="#011445"/>
<path d="M114.269 26.8865V16.0618C114.269 15.0102 113.898 14.1649 113.156 13.5257C112.414 12.8865 111.434 12.567 110.218 12.567C109.208 12.567 108.29 12.7731 107.465 13.1855C106.641 13.5979 105.909 14.2164 105.27 15.0412L103.723 13.4948C104.651 12.4432 105.661 11.6597 106.754 11.1443C107.867 10.6288 109.074 10.3711 110.373 10.3711C111.61 10.3711 112.682 10.5773 113.589 10.9896C114.496 11.402 115.187 11.9999 115.661 12.7834C116.156 13.5669 116.403 14.5154 116.403 15.6288V26.8865H114.269ZM108.703 27.1957C107.651 27.1957 106.713 26.9895 105.888 26.5772C105.063 26.1648 104.404 25.5978 103.909 24.8762C103.435 24.1339 103.197 23.2679 103.197 22.2782C103.197 21.4741 103.342 20.7628 103.63 20.1442C103.94 19.5257 104.383 19.0102 104.96 18.5978C105.538 18.1855 106.27 17.8762 107.156 17.67C108.043 17.4432 109.053 17.3298 110.187 17.3298H115.321L115.135 19.2783H109.878C109.156 19.2783 108.517 19.3401 107.96 19.4638C107.424 19.5875 106.96 19.7834 106.569 20.0514C106.197 20.2989 105.909 20.6081 105.703 20.9793C105.517 21.3298 105.424 21.7525 105.424 22.2473C105.424 22.8246 105.569 23.3401 105.857 23.7937C106.166 24.2267 106.568 24.5669 107.063 24.8143C107.579 25.0411 108.156 25.1545 108.795 25.1545C109.641 25.1545 110.434 25.0102 111.177 24.7215C111.919 24.4122 112.579 23.9999 113.156 23.4844C113.754 22.9483 114.228 22.3504 114.579 21.6906L115.228 23.1751C114.775 23.9586 114.208 24.6597 113.527 25.2782C112.847 25.8762 112.094 26.3504 111.27 26.7009C110.465 27.0308 109.61 27.1957 108.703 27.1957Z" fill="#011445"/>
<path d="M120.831 26.8865V4H123.181V26.8865H120.831Z" fill="#011445"/>
<path d="M130.091 26.8865V6.50514H132.441V26.8865H130.091ZM126.348 12.9381V10.6494H136.493V12.9381H126.348Z" fill="#011445"/>
<path d="M139.309 26.8865V4H141.659V14.1133L141.195 14.3917C141.422 13.67 141.834 13.0103 142.432 12.4123C143.051 11.7938 143.772 11.2989 144.597 10.9278C145.443 10.5567 146.319 10.3711 147.226 10.3711C148.443 10.3711 149.463 10.6082 150.288 11.0824C151.133 11.536 151.772 12.2474 152.205 13.2164C152.638 14.1855 152.855 15.4123 152.855 16.8968V26.8865H150.504V17.0515C150.504 15.9999 150.35 15.134 150.04 14.4535C149.752 13.7731 149.308 13.2783 148.711 12.969C148.133 12.6597 147.401 12.5154 146.515 12.536C145.814 12.536 145.164 12.6494 144.566 12.8762C143.989 13.103 143.484 13.4123 143.051 13.8041C142.618 14.1752 142.278 14.5979 142.03 15.0721C141.783 15.5257 141.659 15.9793 141.659 16.4329V26.8865H140.515C140.329 26.8865 140.133 26.8865 139.927 26.8865C139.721 26.8865 139.515 26.8865 139.309 26.8865Z" fill="#011445"/>
</svg>
