<svg fill="none" height="45" viewBox="0 0 242 45" width="242" xmlns="http://www.w3.org/2000/svg"><g fill="#fff"><path d="m12.5304 36.0358c-2.0642 0-3.91103-.4888-5.54062-1.4666-1.62958-.9777-2.91967-2.3085-3.87026-3.9924-.92343-1.7111-1.38514-3.6123-1.38514-5.7035 0-2.1456.46171-4.0604 1.38514-5.7443.95059-1.711 2.24068-3.0554 3.87026-4.0332 1.62959-.9777 3.47642-1.4666 5.54062-1.4666 1.9283 0 3.6801.3667 5.2554 1.1 1.6024.7061 2.8517 1.6839 3.748 2.9332l-3.1369 3.8295c-.3803-.516-.8556-.9913-1.4259-1.4259-.5704-.4345-1.195-.774-1.874-1.0185-.6519-.2444-1.3309-.3666-2.037-.3666-1.1136 0-2.1049.2716-2.974.8148-.86912.516-1.54811 1.2493-2.03699 2.1999-.48887.9234-.73331 1.9691-.73331 3.1369 0 1.1407.25802 2.1728.77405 3.0962.51604.9234 1.20861 1.6567 2.07775 2.1999.8691.5432 1.8333.8148 2.8925.8148.7061 0 1.3715-.095 1.9962-.2852.6519-.2172 1.2494-.5296 1.7926-.937s1.0592-.8826 1.5481-1.4258l3.1369 3.8295c-.8963 1.1678-2.1728 2.1184-3.8295 2.8517-1.6296.7062-3.3542 1.0592-5.1739 1.0592z"/><path d="m37.1775 35.6284v-13.4847c0-1.1407-.3531-2.0098-1.0592-2.6073-.679-.6246-1.6024-.937-2.7703-.937-1.1136 0-2.1049.2173-2.974.6518-.8691.4346-1.6839 1.1136-2.4444 2.037l-3.5443-3.4221c1.3036-1.358 2.7567-2.4036 4.3591-3.1369 1.6296-.7333 3.395-1.1 5.2962-1.1 1.7382 0 3.2455.2716 4.5221.8148 1.3036.5432 2.3085 1.358 3.0147 2.4444.7061 1.0863 1.0592 2.4579 1.0592 4.1146v14.6254zm-5.9072.4074c-1.358 0-2.5938-.2716-3.7073-.8148-1.0864-.5431-1.9555-1.29-2.6074-2.2406-.6246-.9778-.937-2.1185-.937-3.4221 0-1.1136.2037-2.0913.6111-2.9332.4074-.8692 1.0049-1.5753 1.7926-2.1185.8147-.5703 1.8197-1.0049 3.0147-1.3036 1.2222-.2988 2.6345-.4482 4.2369-.4482h6.3554l-.3667 3.8703h-6.0702c-.6518 0-1.2357.0543-1.7518.1629-.4889.1086-.9098.2852-1.2629.5296-.3259.2445-.5839.5296-.7741.8555-.1629.326-.2444.7062-.2444 1.1407 0 .4618.1222.8692.3667 1.2222.2444.3531.5703.6247.9777.8148.4346.1901.9234.2852 1.4666.2852.7877 0 1.5346-.1358 2.2407-.4074.7333-.2716 1.3852-.6518 1.9555-1.1407.5704-.4889 1.0185-1.0456 1.3444-1.6703l1.1 2.8925c-.5704.9234-1.2629 1.7382-2.0777 2.4443-.8148.7062-1.6975 1.2629-2.6481 1.6703s-1.9555.6111-3.0147.6111z"/><path d="m47.6315 13.9716h5.0244l.3898 2.7721c.6064-.7508 1.285-1.3572 2.0358-1.8192.7797-.4909 1.6315-.8229 2.5555-.9962.9241-.2021 1.8914-.1877 2.9021.0433v5.1977c-.7797-.2599-1.6027-.3321-2.4689-.2166-.8374.1155-1.6315.4187-2.3823.9096-.7219.4909-1.3283 1.1983-1.8192 2.1223-.462.8952-.693 2.0358-.693 3.4218v10.222h-5.5442z"/><path d="m67.3483 44.9985 4.7257-11.0404.0815 3.3814-10.5515-23.2621h6.559l5.2962 12.5069c.1901.4346.3938.9642.6111 1.5888.2173.6247.3802 1.2222.4889 1.7926l-.9778.4074c.1901-.4617.3803-.9914.5704-1.5889.2172-.5975.4345-1.2357.6518-1.9147l4.5221-12.7921h6.6406l-9.0442 21.551-3.7073 9.3701z"/><path d="m98.3673 36.0358c-2.037 0-3.8567-.4888-5.4591-1.4666-1.5753-.9777-2.8246-2.295-3.748-3.9517-.8963-1.6839-1.3444-3.5851-1.3444-5.7035 0-2.0913.4481-3.9653 1.3444-5.622.9234-1.6839 2.1727-3.0011 3.748-3.9517 1.6024-.9778 3.4221-1.4666 5.4591-1.4666 1.8467 0 3.5177.3666 5.0107 1.0999 1.494.7062 2.676 1.6975 3.545 2.974l-1.793 2.1184c-.489-.6518-1.086-1.2221-1.792-1.711-.707-.5161-1.467-.9099-2.282-1.1815-.815-.2987-1.6294-.4481-2.4442-.4481-1.4938 0-2.8382.3531-4.0333 1.0592-1.1678.7062-2.0913 1.6839-2.7703 2.9333-.679 1.2221-1.0184 2.6209-1.0184 4.1961 0 1.5753.3394 2.9876 1.0184 4.2369.7062 1.2493 1.6568 2.2406 2.8518 2.974 1.195.7333 2.5259 1.0999 3.9925 1.0999.8148 0 1.6025-.1222 2.3625-.3666.788-.2716 1.521-.6519 2.2-1.1407.679-.4889 1.318-1.0864 1.915-1.7926l1.752 2.1592c-.896 1.1679-2.119 2.1185-3.667 2.8518-1.521.7333-3.137 1.0999-4.8477 1.0999z"/><path d="m120.417 36.0358c-2.092 0-3.966-.4753-5.622-1.4258-1.63-.9778-2.92-2.295-3.871-3.9518-.95-1.6838-1.426-3.5986-1.426-5.7442s.476-4.0468 1.426-5.7035c.951-1.6567 2.241-2.9604 3.871-3.911 1.656-.9505 3.53-1.4258 5.622-1.4258 2.091 0 3.951.4753 5.581 1.4258 1.657.9506 2.947 2.2543 3.87 3.911.951 1.6567 1.426 3.5579 1.426 5.7035s-.475 4.0604-1.426 5.7442c-.923 1.6568-2.213 2.974-3.87 3.9518-1.63.9505-3.49 1.4258-5.581 1.4258zm0-2.8517c1.493 0 2.824-.3531 3.992-1.0592 1.195-.7334 2.119-1.7247 2.77-2.974.679-1.2493 1.005-2.6616.978-4.2369.027-1.6024-.299-3.0147-.978-4.2369-.651-1.2222-1.575-2.1863-2.77-2.8925-1.168-.7061-2.499-1.0592-3.992-1.0592-1.494 0-2.839.3531-4.034 1.0592-1.167.7062-2.091 1.6839-2.77 2.9333-.679 1.2221-1.005 2.6209-.978 4.1961-.027 1.5753.299 2.9876.978 4.2369s1.603 2.2406 2.77 2.974c1.195.7061 2.54 1.0592 4.034 1.0592z"/><path d="m135.826 35.6284v-21.3881h3.096v4.5628l-.611.3667c.299-.9506.842-1.8197 1.629-2.6073.788-.7877 1.739-1.4259 2.852-1.9148 1.114-.516 2.268-.774 3.463-.774 1.603 0 2.947.3123 4.033.937 1.114.5975 1.956 1.5345 2.526 2.811.571 1.2765.856 2.8925.856 4.8479v13.1588h-3.096v-12.9551c0-1.3851-.204-2.5258-.612-3.4221-.38-.8962-.964-1.548-1.751-1.9554-.761-.4074-1.725-.5976-2.893-.5704-.923 0-1.779.1494-2.566.4481-.761.2988-1.426.7062-1.997 1.2222-.57.4889-1.018 1.0457-1.344 1.6703-.326.5975-.489 1.195-.489 1.7926v13.7698h-1.507c-.245 0-.503 0-.774 0-.272 0-.544 0-.815 0z"/><path d="m159.339 35.6284v-21.3881h3.096v4.5628l-.611.3667c.298-.9506.842-1.8197 1.629-2.6073.788-.7877 1.738-1.4259 2.852-1.9148 1.114-.516 2.268-.774 3.463-.774 1.602 0 2.947.3123 4.033.937 1.114.5975 1.956 1.5345 2.526 2.811s.856 2.8925.856 4.8479v13.1588h-3.097v-12.9551c0-1.3851-.203-2.5258-.611-3.4221-.38-.8962-.964-1.548-1.752-1.9554-.76-.4074-1.724-.5976-2.892-.5704-.924 0-1.779.1494-2.567.4481-.76.2988-1.426.7062-1.996 1.2222-.57.4889-1.018 1.0457-1.344 1.6703-.326.5975-.489 1.195-.489 1.7926v13.7698h-1.508c-.244 0-.502 0-.774 0-.271 0-.543 0-.814 0z"/><path d="m192.588 36.0358c-2.145 0-4.047-.4617-5.703-1.3851-1.657-.9506-2.961-2.2542-3.911-3.911-.924-1.6567-1.386-3.5443-1.386-5.6627 0-1.6568.258-3.1641.774-4.5221.544-1.3851 1.277-2.5666 2.2-3.5443.951-1.0049 2.078-1.779 3.382-2.3222 1.303-.5431 2.729-.8147 4.277-.8147 1.358 0 2.621.2444 3.789.7333 1.195.4888 2.227 1.195 3.096 2.1184.87.8963 1.535 1.9691 1.997 3.2184.461 1.2222.665 2.5802.611 4.0739l-.041 1.5481h-17.844l-.652-2.5258h15.929l-.57.6926.041-1.0185c-.054-1.1679-.38-2.1999-.978-3.0962-.597-.8963-1.371-1.6024-2.322-2.1184-.923-.5161-1.942-.7741-3.056-.7741-1.575 0-2.933.3395-4.073 1.0185-1.141.6518-2.01 1.5888-2.608 2.811-.57 1.195-.869 2.6345-.896 4.3184.027 1.6839.38 3.1505 1.059 4.3998.679 1.2222 1.63 2.1863 2.852 2.8925 1.249.679 2.689 1.0185 4.318 1.0185 1.168 0 2.255-.1901 3.259-.5704 1.005-.4074 2.024-1.0728 3.056-1.9962l1.548 2.1999c-.652.6519-1.426 1.2222-2.322 1.7111-.869.4617-1.806.8283-2.811 1.0999s-2.01.4074-3.015.4074z"/><path d="m215.454 36.0358c-2.037 0-3.857-.4888-5.459-1.4666-1.576-.9777-2.825-2.295-3.748-3.9517-.897-1.6839-1.345-3.5851-1.345-5.7035 0-2.0913.448-3.9653 1.345-5.622.923-1.6839 2.172-3.0011 3.748-3.9517 1.602-.9778 3.422-1.4666 5.459-1.4666 1.847 0 3.517.3666 5.011 1.0999 1.494.7062 2.675 1.6975 3.544 2.974l-1.792 2.1184c-.489-.6518-1.087-1.2221-1.793-1.711-.706-.5161-1.467-.9099-2.281-1.1815-.815-.2987-1.63-.4481-2.445-.4481-1.493 0-2.838.3531-4.033 1.0592-1.168.7062-2.091 1.6839-2.77 2.9333-.679 1.2221-1.019 2.6209-1.019 4.1961 0 1.5753.34 2.9876 1.019 4.2369.706 1.2493 1.657 2.2406 2.852 2.974 1.195.7333 2.525 1.0999 3.992 1.0999.815 0 1.602-.1222 2.363-.3666.788-.2716 1.521-.6519 2.2-1.1407.679-.4889 1.317-1.0864 1.915-1.7926l1.751 2.1592c-.896 1.1679-2.118 2.1185-3.666 2.8518-1.521.7333-3.137 1.0999-4.848 1.0999z"/><path d="m230.903 35.6284v-26.84715h3.097v26.84715zm-4.929-18.3734v-3.0147h13.363v3.0147z"/></g></svg>