<svg fill="none" height="50" viewBox="0 0 189 50" width="189" xmlns="http://www.w3.org/2000/svg"><g fill="#fff"><path d="m14.878 40.0873c-2.4664 0-4.6861-.5396-6.65914-1.6186-1.94225-1.1098-3.48371-2.6205-4.62439-4.5319-1.10986-1.9114-1.66478-4.0849-1.66478-6.5204 0-2.4972.55492-4.7015 1.66478-6.6129 1.14068-1.9114 2.68214-3.4066 4.62439-4.4856 1.97304-1.1099 4.19274-1.6648 6.65914-1.6648 2.4971 0 4.7169.5549 6.6591 1.6648 1.9422 1.079 3.4683 2.5742 4.5781 4.4856 1.1407 1.9114 1.7111 4.1157 1.7111 6.6129 0 2.4355-.5704 4.609-1.7111 6.5204-1.1098 1.9114-2.6359 3.4221-4.5781 4.5319-1.9422 1.079-4.162 1.6186-6.6591 1.6186zm0-5.6881c1.2331 0 2.3122-.3082 3.2371-.9248.9557-.6166 1.6956-1.449 2.2197-2.4972.5549-1.0482.8169-2.2351.7861-3.5608.0308-1.3873-.2312-2.6051-.7861-3.6533-.5241-1.079-1.264-1.9114-2.2197-2.4971-.9249-.6166-2.004-.9249-3.2371-.9249-1.2024 0-2.2814.3083-3.2371.9249s-1.71102 1.4489-2.26595 2.4971c-.55492 1.0482-.81697 2.266-.78614 3.6533-.03083 1.3257.23122 2.5126.78614 3.5608.55493 1.0482 1.31025 1.8806 2.26595 2.4972s2.0347.9248 3.2371.9248z"/><path d="m32.7668 39.6248v-24.463h6.3354l.185 4.9943-1.2949.5549c.3083-1.1098.9095-2.1118 1.8035-3.0058.8941-.9249 1.9577-1.6648 3.1909-2.2197 1.2331-.555 2.5126-.8324 3.8382-.8324 1.8498 0 3.3912.3699 4.6244 1.1098 1.264.7399 2.2043 1.8652 2.8209 3.3758.6474 1.4799.9711 3.3296.9711 5.5493v14.9368h-6.5666v-14.4743c0-1.1099-.1542-2.0348-.4625-2.7747s-.7707-1.2794-1.3873-1.6185-1.4027-.4933-2.3584-.4625c-.7399 0-1.4182.1234-2.0348.37-.6165.2158-1.1715.5395-1.6647.9711-.4625.4316-.817.9249-1.0636 1.4798-.2467.555-.37 1.1715-.37 1.8498v14.6593h-3.2833c-.6783 0-1.2948 0-1.8498 0-.5549 0-1.0327 0-1.4335 0z"/><path d="m73.1409 40.0873c-2.6513 0-4.9789-.5396-6.9828-1.6186-1.9731-1.079-3.5145-2.5588-4.6244-4.4394-1.079-1.8806-1.6185-4.0232-1.6185-6.4279 0-1.9114.3083-3.6533.9249-5.2256.6166-1.6031 1.4798-2.975 2.5896-4.1157 1.1099-1.1407 2.4201-2.0193 3.9308-2.6359 1.5414-.6474 3.2216-.9711 5.0405-.9711 1.6648 0 3.1909.3083 4.5782.9249 1.4181.5857 2.6359 1.4335 3.6533 2.5434 1.0481 1.079 1.8497 2.3584 2.4046 3.8382.555 1.4798.817 3.0984.7862 4.8556l-.0463 2.0348h-19.6536l-1.0636-4.0695h15.3067l-.7861.8324v-.9711c-.0617-.8632-.3392-1.6186-.8324-2.266-.4625-.6474-1.0636-1.1561-1.8035-1.526-.7399-.4008-1.5569-.6012-2.451-.6012-1.3873 0-2.5588.2775-3.5145.8324-.9249.5241-1.634 1.2948-2.1272 2.3122-.4625.9865-.6937 2.2197-.6937 3.6995 0 1.449.3083 2.7284.9249 3.8383.6166 1.079 1.4952 1.9114 2.6359 2.4971 1.1715.5858 2.5434.8787 4.1157.8787 1.079 0 2.0656-.1696 2.9596-.5087.8941-.3391 1.8652-.9249 2.9134-1.7573l3.0983 4.3932c-.8632.7707-1.8343 1.4335-2.9133 1.9885-1.0791.5549-2.1889.9711-3.3296 1.2486-1.1407.2774-2.2814.4162-3.4221.4162z"/><path d="m98.8948 40.0873c-2.2505 0-4.2544-.5396-6.0117-1.6186-1.7264-1.1098-3.0983-2.6051-4.1157-4.4856-1.0174-1.8806-1.526-4.0233-1.526-6.428 0-2.4355.5086-4.5935 1.526-6.4741 1.0174-1.9114 2.3893-3.4066 4.1157-4.4857 1.7573-1.1098 3.7149-1.6648 5.873-1.6648 1.2023 0 2.3739.2004 3.5149.6012 1.14.4008 2.158.9557 3.052 1.6648.925.6782 1.664 1.449 2.219 2.3122s.864 1.7573.925 2.6821h-.971v-16.7865h3.515v34.2205h-3.515v-6.5204l.74-.0462c-.092.9249-.416 1.8035-.971 2.6359s-1.264 1.5877-2.127 2.2659c-.833.6474-1.788 1.1715-2.867 1.5723-1.079.37-2.205.555-3.3762.555zm.4162-3.0984c1.603 0 3.021-.4008 4.254-1.2023 1.264-.8324 2.251-1.9577 2.96-3.3758.709-1.4182 1.064-3.0521 1.064-4.9019s-.355-3.4837-1.064-4.9019c-.709-1.4181-1.696-2.5434-2.96-3.3758-1.233-.8324-2.666-1.2486-4.3002-1.2486-1.634 0-3.0984.4162-4.3932 1.2486-1.264.8324-2.266 1.9731-3.0059 3.4221-.709 1.4181-1.0636 3.0521-1.0636 4.9018 0 1.7881.3546 3.4067 1.0636 4.8557.7399 1.4181 1.7419 2.5434 3.0059 3.3758 1.2948.8015 2.7746 1.2023 4.4394 1.2023z"/><path d="m132.885 39.6248v-16.1854c0-1.5723-.555-2.8363-1.665-3.792-1.109-.9557-2.574-1.4335-4.393-1.4335-1.51 0-2.882.3083-4.115.9248-1.234.6166-2.328 1.5415-3.284 2.7747l-2.312-2.3122c1.387-1.5723 2.898-2.7438 4.532-3.5146 1.665-.7707 3.468-1.1561 5.41-1.1561 1.85 0 3.453.3083 4.81.9249 1.356.6166 2.389 1.5107 3.098 2.6822.74 1.1715 1.11 2.5896 1.11 4.2544v16.8328zm-8.324.4625c-1.572 0-2.975-.3083-4.208-.9249s-2.22-1.4644-2.96-2.5434c-.709-1.1099-1.063-2.4047-1.063-3.8845 0-1.2024.216-2.266.647-3.1909.463-.9248 1.126-1.6956 1.989-2.3122.863-.6165 1.957-1.079 3.283-1.3873 1.326-.3391 2.836-.5087 4.532-.5087h7.676l-.277 2.9134h-7.861c-1.079 0-2.035.0925-2.868.2775-.801.1849-1.495.4778-2.081.8786-.554.37-.986.8324-1.294 1.3873-.278.5241-.417 1.1561-.417 1.896 0 .8632.216 1.634.648 2.3122.462.6474 1.063 1.1561 1.803 1.5261.771.3391 1.634.5087 2.59.5087 1.264 0 2.451-.2159 3.561-.6475 1.11-.4624 2.096-1.079 2.959-1.8497.894-.8016 1.604-1.6956 2.128-2.6822l.971 2.2197c-.679 1.1716-1.526 2.2197-2.544 3.1446-1.017.8941-2.142 1.6032-3.375 2.1273-1.203.4932-2.482.7399-3.839.7399z"/><path d="m150.419 40.0873c-2.035 0-3.869-.3546-5.503-1.0637-1.634-.7399-2.96-1.7881-3.977-3.1445l2.405-2.081c.894 1.1098 1.957 1.9422 3.19 2.4971 1.234.555 2.636.8324 4.209.8324.801 0 1.51-.0924 2.127-.2774.616-.2158 1.14-.4933 1.572-.8324.432-.37.74-.7862.925-1.2486.216-.4933.324-1.0174.324-1.5723 0-1.0174-.401-1.8343-1.203-2.4509-.431-.3083-1.032-.6012-1.803-.8787-.74-.3083-1.65-.6011-2.729-.8786-1.664-.4008-3.067-.8632-4.208-1.3873-1.11-.5549-1.988-1.1869-2.636-1.896-.493-.5549-.863-1.1561-1.11-1.8035-.246-.6474-.37-1.3873-.37-2.2197 0-1.3257.37-2.4972 1.11-3.5146.74-1.0173 1.742-1.8035 3.006-2.3584 1.295-.5858 2.759-.8787 4.393-.8787 1.11 0 2.205.1542 3.284.4625 1.11.3083 2.127.7553 3.052 1.3411.925.5857 1.726 1.2948 2.404 2.1272l-2.081 2.2197c-.616-.6474-1.294-1.2024-2.034-1.6648-.709-.4933-1.449-.8632-2.22-1.1098-.771-.2775-1.526-.4162-2.266-.4162-.801 0-1.526.0924-2.173.2774-.648.1542-1.203.4008-1.665.7399-.432.3083-.755.6937-.971 1.1561-.216.4316-.324.9403-.324 1.5261.031.4316.139.8632.324 1.2948.185.4008.447.7399.786 1.0174.431.3391 1.048.6782 1.85 1.0173.801.3083 1.772.5858 2.913.8324 1.48.37 2.728.7862 3.746 1.2486 1.017.4316 1.834.9557 2.451 1.5723.647.5549 1.11 1.2024 1.387 1.9423s.416 1.5877.416 2.5434c0 1.3873-.37 2.6205-1.11 3.6995-.74 1.0482-1.757 1.8652-3.052 2.4509-1.295.5858-2.774.8787-4.439.8787z"/><path d="m164.408 39.6248v-34.2205h3.515v15.1218l-.694.4162c.339-1.0791.956-2.0656 1.85-2.9597.925-.9248 2.004-1.6647 3.237-2.2197 1.264-.5549 2.574-.8324 3.931-.8324 1.819 0 3.345.3546 4.578 1.0637 1.264.6782 2.22 1.7418 2.867 3.1908s.971 3.2833.971 5.503v14.9368h-3.514v-14.7056c0-1.5723-.232-2.8671-.694-3.8845-.432-1.0173-1.094-1.7572-1.989-2.2197-.863-.4624-1.957-.6782-3.283-.6474-1.048 0-2.019.1696-2.913.5087-.863.3391-1.619.8016-2.266 1.3873-.648.555-1.156 1.187-1.526 1.896-.37.6783-.555 1.3565-.555 2.0348v15.6304h-1.711c-.278 0-.57 0-.879 0-.308 0-.616 0-.925 0z"/></g></svg>