<svg fill="none" height="50" viewBox="0 0 141 50" width="141" xmlns="http://www.w3.org/2000/svg" xmlns:xlink="http://www.w3.org/1999/xlink"><clipPath id="a"><path d="m0 0h140.476v50h-140.476z"/></clipPath><g clip-path="url(#a)" fill="#fff"><path d="m13.5137 40.0593c-2.3074 0-4.37195-.5465-6.19359-1.6395s-3.26378-2.5806-4.3264-4.463c-1.03227-1.9127-1.5484-4.038-1.5484-6.3757 0-2.3985.51613-4.539 1.5484-6.4213 1.06262-1.9128 2.50476-3.4156 4.3264-4.5086s3.88619-1.6395 6.19359-1.6395c2.1556 0 4.1139.4099 5.8748 1.2296 1.7913.7894 3.1879 1.8824 4.1898 3.279l-3.5067 4.2808c-.425-.5768-.9563-1.1081-1.5939-1.5939s-1.3359-.8653-2.0949-1.1385c-.7287-.2733-1.4877-.4099-2.2771-.4099-1.2448 0-2.3529.3036-3.3245.9108-.97151.5769-1.73053 1.3966-2.27702 2.4593-.54649 1.0322-.81974 2.2011-.81974 3.5066 0 1.2752.28843 2.4289.86528 3.4611.57685 1.0323 1.35105 1.852 2.32258 2.4593.9716.6072 2.0494.9108 3.2334.9108.7894 0 1.5332-.1063 2.2315-.3188.7287-.2429 1.3966-.592 2.0039-1.0475.6072-.4554 1.184-.9867 1.7305-1.5939l3.5067 4.2809c-1.0019 1.3055-2.4289 2.3681-4.2809 3.1878-1.8216.7894-3.7495 1.1841-5.7837 1.1841z"/><path d="m41.0657 39.6039v-15.0741c0-1.2751-.3947-2.2467-1.1841-2.9146-.759-.6983-1.7913-1.0475-3.0968-1.0475-1.2448 0-2.3529.2429-3.3245.7287-.9715.4858-1.8823 1.2448-2.7324 2.277l-3.9621-3.8254c1.4573-1.518 3.0816-2.6869 4.8729-3.5067 1.8216-.8197 3.7951-1.2296 5.9203-1.2296 1.9431 0 3.6281.3036 5.0551.9108 1.4573.6073 2.5806 1.5181 3.37 2.7325s1.1841 2.7477 1.1841 4.5997v16.3492zm-6.6035.4554c-1.518 0-2.8994-.3036-4.1442-.9108-1.2144-.6072-2.186-1.4421-2.9146-2.5048-.6983-1.093-1.0475-2.3681-1.0475-3.8254 0-1.2448.2277-2.3378.6831-3.279.4555-.9715 1.1234-1.7609 2.0038-2.3681.9109-.6376 2.0342-1.1234 3.3701-1.4573 1.3662-.334 2.945-.501 4.7363-.501h7.1044l-.4099 4.3264h-6.7856c-.7287 0-1.3814.0607-1.9583.1822-.5465.1214-1.0171.3188-1.4118.592-.3643.2733-.6527.5921-.8652.9564-.1822.3643-.2733.7894-.2733 1.2751 0 .5162.1366.9716.4099 1.3663.2732.3947.6376.6983 1.093.9108.4857.2125 1.0322.3188 1.6394.3188.8805 0 1.7154-.1518 2.5048-.4554.8197-.3036 1.5484-.7287 2.186-1.2752s1.1385-1.1689 1.5028-1.8672l1.2296 3.2334c-.6375 1.0323-1.4117 1.9431-2.3226 2.7325-.9108.7894-1.8975 1.4118-2.9601 1.8672s-2.186.6831-3.3701.6831z"/><path d="m52.7518 15.3945h5.6166l.4357 3.0988c.6779-.8393 1.4365-1.5172 2.2757-2.0336.8716-.5488 1.8238-.92 2.8567-1.1137 1.033-.2259 2.1143-.2098 3.2441.0485v5.8102c-.8715-.2905-1.7915-.3712-2.7599-.2421-.9361.1292-1.8238.4681-2.663 1.0168-.807.5488-1.4849 1.3396-2.0336 2.3726-.5165 1.0006-.7747 2.2756-.7747 3.825v11.4269h-6.1976z"/><path d="m74.7923 50.0784 5.2828-12.3417.091 3.7799-11.7951-26.0039h7.3321l5.9204 13.9811c.2125.4858.4402 1.0778.6831 1.7761s.425 1.3662.5465 2.0038l-1.093.4554c.2125-.5161.425-1.1082.6376-1.7761.2428-.6679.4857-1.3814.7286-2.1404l5.0551-14.2999h7.4232l-10.1101 24.0912-4.1443 10.4745z"/><path d="m99.5787 15.3945h3.3413l.193 3.5345c.646-.8715 1.421-1.6139 2.324-2.2272.936-.6133 1.953-1.033 3.051-1.2589 1.13-.2583 2.324-.2744 3.583-.0484v3.6314c-1.356-.2583-2.583-.2583-3.68 0-1.065.2582-1.985.7424-2.76 1.4525-.775.7102-1.372 1.614-1.791 2.7115-.42 1.0652-.63 2.308-.63 3.7283v12.6857h-3.6313z"/><path d="m132.699 39.6039-8.289-10.5655-.501-.6831-9.791-12.6605h4.372l7.924 10.3379.592.7742 9.928 12.797zm-18.763 0 9.609-12.3416 2.049 2.4592-7.514 9.8824zm13.252-11.7041-1.867-2.4592 6.74-9.7458h4.144z"/></g></svg>