<svg fill="none" height="50" viewBox="0 0 100 50" width="100" xmlns="http://www.w3.org/2000/svg"><g fill="#fff"><path d="m14.2527 40.0876c-2.3569 0-4.46561-.5582-6.32627-1.6746-1.86067-1.1164-3.33369-2.6359-4.41908-4.5586-1.05438-1.9537-1.58157-4.1245-1.58157-6.5124 0-2.4498.52719-4.6361 1.58157-6.5588 1.08539-1.9537 2.55841-3.4888 4.41908-4.6052 1.86066-1.1164 3.96937-1.6746 6.32627-1.6746 2.2018 0 4.202.4187 6.0006 1.256 1.8297.8063 3.2562 1.9227 4.2796 3.3492l-3.5818 4.3726c-.4342-.5893-.9769-1.1319-1.6281-1.6281s-1.3645-.8838-2.1398-1.1629c-.7442-.2791-1.5195-.4187-2.3258-.4187-1.2714 0-2.4034.3101-3.3957.9303-.9924.5893-1.76764 1.4266-2.32584 2.5119-.5582 1.0544-.8373 2.2483-.8373 3.5818 0 1.3025.29461 2.4809.88382 3.5353s1.38002 1.8917 2.37232 2.5119c.9924.6202 2.0933.9303 3.3027.9303.8063 0 1.5661-.1085 2.2793-.3256.7443-.2481 1.4265-.6047 2.0468-1.0699.6202-.4651 1.2094-1.0078 1.7676-1.6281l3.5818 4.3726c-1.0234 1.3335-2.4809 2.4189-4.3726 3.2562-1.8607.8063-3.8299 1.2094-5.9076 1.2094z"/><path d="m28.812 39.6224v-34.42228h6.6054v34.42228z"/><path d="m55.7048 39.6224v-15.397c0-1.3024-.4031-2.2948-1.2094-2.977-.7753-.7133-1.8297-1.0699-3.1631-1.0699-1.2715 0-2.4034.2481-3.3958.7442-.9923.4962-1.9226 1.2715-2.791 2.3259l-4.0469-3.9074c1.4885-1.5506 3.1476-2.7445 4.9773-3.5818 1.8606-.8373 3.8764-1.256 6.0471-1.256 1.9848 0 3.7059.3102 5.1634.9304 1.4885.6202 2.6359 1.5505 3.4422 2.791.8063 1.2404 1.2095 2.8065 1.2095 4.6982v16.6994zm-6.7449.4652c-1.5505 0-2.9615-.3101-4.233-.9303-1.2404-.6203-2.2328-1.4731-2.9771-2.5584-.7132-1.1164-1.0698-2.4189-1.0698-3.9074 0-1.2715.2325-2.3879.6977-3.3492.4652-.9924 1.1474-1.7987 2.0467-2.4189.9304-.6512 2.0778-1.1474 3.4423-1.4885 1.3955-.3412 3.008-.5117 4.8377-.5117h7.2566l-.4187 4.4191h-6.9309c-.7443 0-1.411.062-2.0003.186-.5582.1241-1.0388.3256-1.442.6047-.3721.2791-.6667.6048-.8838.9769-.1861.3721-.2791.8063-.2791 1.3025 0 .5271.1396.9923.4187 1.3955.2791.4031.6512.7132 1.1164.9303.4961.2171 1.0543.3256 1.6746.3256.8993 0 1.7521-.1551 2.5584-.4652.8373-.3101 1.5815-.7442 2.2328-1.3024.6512-.5582 1.1629-1.194 1.535-1.9072l1.256 3.3027c-.6513 1.0543-1.442 1.9847-2.3724 2.791-.9303.8063-1.9382 1.442-3.0236 1.9071-1.0853.4652-2.2328.6978-3.4422.6978z"/><path d="m68.4358 39.6224v-24.6073h6.6054v24.6073zm3.3027-29.67759c-1.3024 0-2.3103-.31011-3.0236-.93033-.7132-.62022-1.0698-1.50404-1.0698-2.65145 0-1.05437.3566-1.90718 1.0698-2.55841.7443-.68225 1.7522-1.02337 3.0236-1.02337 1.2405 0 2.2173.31011 2.9306.93033.7132.62023 1.0699 1.50404 1.0699 2.65145 0 1.08539-.3567 1.9537-1.0699 2.60493-.7133.65124-1.6901.97685-2.9306.97685z"/><path d="m81.9051 14.8944h5.7369l.4451 3.1652c.6924-.8573 1.4672-1.5496 2.3245-2.0772.8902-.5605 1.8628-.9396 2.9179-1.1375 1.055-.2308 2.1596-.2143 3.3135.0495v5.9347c-.8902-.2967-1.8298-.3791-2.8189-.2473-.9562.1319-1.8629.4781-2.7201 1.0386-.8243.5605-1.5167 1.3683-2.0772 2.4234-.5275 1.0221-.7913 2.3244-.7913 3.907v11.6716h-6.3304z"/></g></svg>