<svg fill="none" height="20" viewBox="0 0 104 20" width="104" xmlns="http://www.w3.org/2000/svg"><path d="m7.3062 19.5692c-1.39117 0-2.64425-.305-3.75718-.913-1.09645-.6265-1.96618-1.4777-2.60921-2.5577-.62654-1.0778-.93981-2.3041-.93981-3.6788 0-1.3746.31327-2.65242.93981-3.7303.64303-1.07788 1.51276-1.92287 2.60921-2.53085 1.11293-.62653 2.36601-.9398 3.75718-.9398 1.39116 0 2.66073.31327 3.7572.9398 1.0964.60798 1.9579 1.45297 2.5824 2.53085.643 1.07788.9645 2.3227.9645 3.7303 0 1.4077-.3215 2.601-.9645 3.6788-.6265 1.0779-1.488 1.9312-2.5824 2.5577-1.09647.608-2.34749.913-3.7572.913zm0-3.2089c.69661 0 1.3046-.1731 1.82603-.5214.53998-.3483.95627-.8182 1.25307-1.4097.3133-.5915.4617-1.2613.4431-2.0095.0165-.7831-.1298-1.4694-.4431-2.0609-.2947-.60801-.71309-1.07791-1.25307-1.40972-.52143-.3483-1.13148-.52142-1.82603-.52142-.69456 0-1.28812.17312-1.82604.52142-.53998.3483-.96454.8182-1.27781 1.40972-.31327.5915-.46166 1.2778-.44311 2.0609-.01649.7482.12984 1.418.44311 2.0095s.7399 1.0614 1.27781 1.4097c.53998.3483 1.14797.5214 1.82604.5214z" fill="#011445"/><path d="m29.5334 7.7496c-.3483-.85323-.878-1.48801-1.5911-1.90432-.6966-.41837-1.5663-.62653-2.6092-.62653-.7481 0-1.4695.15663-2.1661.4699-.6966.31326-1.2963.72958-1.8013 1.25306-.1174.11747-.2246.23907-.3256.36273l-.066-1.79716h-3.5737v13.80012h3.7056v-8.2706c0-.3833.0701-.7296.2082-1.04282.1402-.31326.3401-.59149.5998-.83468.2782-.2432.5915-.42662.9398-.54822.3483-.14014.7295-.20815 1.1479-.20815.54-.01649.9831.07007 1.3314.26174s.608.49669.7832.913.2617.93983.2617 1.56633v8.1676h3.7057v-8.4314c0-1.25307-.1834-2.29591-.5482-3.1306z" fill="#011445"/><path d="m46.2078 12.0816c.0185-.9913-.1298-1.9043-.4431-2.73898-.3133-.83469-.7646-1.55603-1.3561-2.16607-.5751-.62653-1.2614-1.10467-2.061-1.43442-.7832-.34831-1.6447-.52143-2.5824-.52143-1.0264 0-1.9745.18343-2.8442.54822-.8533.3483-1.5911.84293-2.2176 1.48801-.6266.64302-1.113 1.41794-1.4613 2.32269-.3483.88618-.5214 1.86928-.5214 2.94928 0 1.3561.305 2.5658.913 3.6272.6266 1.0614 1.4963 1.8961 2.6092 2.5041 1.1315.608 2.4444.913 3.9406.913.6431 0 1.2882-.0783 1.9312-.2349.643-.1567 1.2695-.3916 1.8796-.7049.608-.3133 1.1562-.6863 1.6447-1.1212l-1.7477-2.4793c-.5916.4699-1.1398.7997-1.6447.9913-.505.1917-1.0614.2865-1.6694.2865-.8862 0-1.6612-.1649-2.3227-.4967-.6431-.3297-1.1398-.7996-1.4881-1.4097-.1999-.3586-.34-.7522-.4245-1.1747h9.8453l.0268-1.148zm-8.3759-3.23568c.54-.31326 1.1995-.46989 1.9827-.46989.505 0 .9646.11335 1.3829.34005.4184.20816.7564.49669 1.0182.86148.2782.36479.4348.79144.4699 1.27784v.0783h-6.3128c.0639-.2844.1484-.5482.2597-.7832.2782-.575.678-1.00986 1.1994-1.30458z" fill="#011445"/><g fill="#47c6ff"><path d="m59.565 0v7.92231c-.3112-.47195-.7172-.89445-1.2263-1.26748-.5049-.39983-1.0779-.71309-1.723-.9398-.643-.2267-1.3046-.34006-1.9826-.34006-1.2181 0-2.3228.31327-3.3141.9398-.9749.60798-1.7477 1.45297-2.3227 2.53085-.5751 1.06139-.8615 2.27938-.8615 3.65198s.2864 2.5659.8615 3.6273c.5729 1.0614 1.3478 1.9043 2.3227 2.5309.9913.608 2.1228.913 3.3924.913.6615 0 1.2963-.1051 1.9043-.3133.608-.2267 1.148-.5214 1.6179-.8862.4864-.3833.8862-.8079 1.1995-1.2778.0474-.0701.0886-.1401.1298-.2123v2.4299h1.9827v-19.3091h-1.9827zm-.5482 15.2366c-.3999.7997-.9563 1.4345-1.6694 1.9044-.6966.4513-1.4963.678-2.4011.678-.9047 0-1.7745-.2267-2.5041-.678-.7131-.4699-1.2778-1.1047-1.6962-1.9044-.3998-.8182-.5997-1.7312-.5997-2.739s.1999-1.9661.5997-2.76577c.4184-.8182.9831-1.46121 1.6962-1.93111.7296-.4699 1.5561-.70485 2.4794-.70485s1.7312.23495 2.4258.70485c.7131.4699 1.2695 1.10467 1.6694 1.90432.3998.79966.5997 1.72296.5997 2.76576 0 1.0429-.1999 1.9662-.5997 2.7658z"/><path d="m75.0639 7.40916c-.3999-.66156-.9831-1.16444-1.7477-1.51274-.7647-.3483-1.6694-.52142-2.7144-.52142-1.0964 0-2.1145.21846-3.0523.65332-.9212.43486-1.7745 1.09643-2.5577 1.98264l1.3046 1.30459c.54-.69661 1.1562-1.21803 1.8529-1.56633.6966-.3483 1.4694-.52142 2.3227-.52142 1.0264 0 1.8528.26998 2.4794.80789.6265.53997.9398 1.25306.9398 2.13931v1.0696h-3.4439c-.9563 0-1.8096.0948-2.5577.2865-.7482.1731-1.3644.4348-1.8528.7831-.4864.3483-.8615.7832-1.1212 1.3046-.2432.5214-.3648 1.1212-.3648 1.8013 0 .8347.1999 1.5663.5997 2.1908.4184.608.9749 1.0882 1.6694 1.4344.6966.3483 1.4881.5214 2.3743.5214.7646 0 1.488-.1401 2.1661-.4183.6966-.2947 1.3314-.6966 1.9043-1.1995.2247-.204.4308-.4225.6266-.6492v2.0053h1.8013v-9.49482c0-.9398-.2082-1.73945-.6266-2.40102zm-2.1125 9.02694c-.4864.4349-1.0429.7832-1.6694 1.0429-.6266.2432-1.2964.3648-2.0095.3648-.54 0-1.0264-.0948-1.4612-.2865-.4184-.2081-.7564-.4967-1.0182-.8615-.2432-.3833-.3648-.8182-.3648-1.3046 0-.4183.0784-.7749.235-1.0696.1731-.3133.4184-.575.7296-.7832.3297-.2267.7213-.3915 1.1747-.4966.4699-.1052 1.0099-.1567 1.6179-.1567h3.7057v2.469c-.2577.3875-.5689.7482-.9398 1.0779z"/><path d="m83.782 19.569c-1.148 0-2.1826-.1999-3.1059-.5997-.9213-.4184-1.6694-1.0099-2.2445-1.7745l1.3562-1.1747c.5049.6265 1.1047 1.0964 1.7992 1.4096.6966.3133 1.488.4699 2.3743.4699.4513 0 .8512-.0515 1.1995-.1566.3483-.1216.643-.2782.8862-.4699.2432-.2081.4163-.4431.5214-.7048.1216-.2783.1834-.575.1834-.8862 0-.5751-.2267-1.0346-.678-1.3829-.2432-.1732-.5833-.3401-1.0181-.4967-.4184-.1732-.9316-.3401-1.5396-.4967-.9398-.2267-1.7312-.4864-2.3743-.7832-.6265-.3133-1.1211-.6698-1.488-1.0696-.2782-.3133-.4864-.6533-.6265-1.0181-.1402-.3648-.2082-.7832-.2082-1.2531 0-.74813.2082-1.40969.6265-1.98264.4164-.575.9831-1.01811 1.6962-1.33138.7296-.32975 1.5561-.49669 2.4794-.49669.6265 0 1.2428.08656 1.8528.26175.6266.17312 1.1995.42661 1.723.75637.5214.32975.9749.72957 1.3561 1.19947l-1.1747 1.25306c-.3483-.36479-.7296-.67805-1.148-.93979-.3998-.27823-.8182-.48639-1.2531-.62653-.4348-.15664-.8615-.23495-1.2778-.23495-.4513 0-.8615.05152-1.2263.15663-.3648.08656-.678.22671-.9398.41838-.2432.17312-.4266.39158-.5482.65332-.1216.24319-.1834.52966-.1834.86148.0165.24319.0783.48638.1834.72958.1051.22674.2514.41834.4431.57504.2432.1916.5915.3833 1.0429.575.4534.1731.9996.3297 1.6446.4699.8347.2081 1.5396.4431 2.1126.7048.575.2432 1.0346.54 1.3829.8862.3648.3133.6265.6781.7832 1.0965.1566.4183.2349.8965.2349 1.4344 0 .7831-.2082 1.4777-.6265 2.0877-.4184.5915-.9914 1.0532-1.723 1.3829-.7317.3298-1.5664.4967-2.5041.4967z"/><path d="m91.6739 19.307v-19.307h1.9827v8.53236l-.3916.23495c.1917-.60799.54-1.16444 1.0429-1.66938.5214-.52142 1.1315-.93979 1.826-1.25306.7131-.31326 1.453-.4699 2.2176-.4699 1.0264 0 1.8875.19992 2.5825.59974.713.38334 1.253.98308 1.618 1.80128s.548 1.8528.548 3.10581v8.4273h-1.983v-8.2974c0-.8862-.129-1.61786-.391-2.19081-.243-.57501-.619-.99132-1.1214-1.25306-.4864-.26174-1.1047-.38334-1.8528-.36479-.5915 0-1.1397.0948-1.6447.28647-.4864.19167-.913.45135-1.2778.78317-.3648.31326-.6513.66981-.8615 1.06963-.2081.38334-.3133.76459-.3133 1.14799v8.8188h-1.9826z"/></g></svg>