<svg fill="none" height="219" viewBox="0 0 219 219" width="219" xmlns="http://www.w3.org/2000/svg" xmlns:xlink="http://www.w3.org/1999/xlink"><filter id="a" color-interpolation-filters="sRGB" filterUnits="userSpaceOnUse" height="217.89" width="217.891" x=".543816" y=".130741"><feFlood flood-opacity="0" result="BackgroundImageFix"/><feColorMatrix in="SourceAlpha" result="hardAlpha" type="matrix" values="0 0 0 0 0 0 0 0 0 0 0 0 0 0 0 0 0 0 127 0"/><feOffset dx="-5.58693"/><feGaussianBlur stdDeviation="27.9346"/><feComposite in2="hardAlpha" operator="out"/><feColorMatrix type="matrix" values="0 0 0 0 0 0 0 0 0 0 0 0 0 0 0 0 0 0 0.05 0"/><feBlend in2="BackgroundImageFix" mode="normal" result="effect1_dropShadow_1043_6261"/><feBlend in="SourceGraphic" in2="effect1_dropShadow_1043_6261" mode="normal" result="shape"/></filter><linearGradient id="b" gradientUnits="userSpaceOnUse" x1="108.75" x2="108.75" y1="41.5" y2="125"><stop offset="0" stop-color="#02b0ff"/><stop offset="1" stop-color="#fff"/></linearGradient><g filter="url(#a)"><circle cx="115.076" cy="109.076" fill="#fff" r="53.0758"/></g><path d="m83 86h40l11.5 34h-21.982c-9.948 0-18.8645-6.137-22.4172-15.429z" fill="#fff"/><path d="m83 86h40l11.5 34h-21.982c-9.948 0-18.8645-6.137-22.4172-15.429z" fill="url(#b)"/><path clip-rule="evenodd" d="m140.5 139c-.522.178-1.09-.103-1.266-.626l-17.679-52.374h1.238c.391 0 .739.2489.866.6193l17.465 51.1127c.178.523-.101 1.091-.624 1.268z" fill="#02b0ff" fill-rule="evenodd"/></svg>