<svg width="49" height="38" viewBox="0 0 49 38" fill="none" xmlns="http://www.w3.org/2000/svg">
<path d="M0.589617 37.2807V26.8895C0.589617 23.9012 1.14992 20.7941 2.27054 17.568C3.42511 14.3081 4.98718 11.2349 6.95675 8.34844C8.96027 5.42805 11.2015 2.96609 13.6804 0.962567L22.2379 6.5147C20.2343 9.53697 18.5534 12.6951 17.1951 15.989C15.8707 19.249 15.2255 22.8485 15.2595 26.7876V37.2807H0.589617ZM26.4147 37.2807V26.8895C26.4147 23.9012 26.975 20.7941 28.0956 17.568C29.2502 14.3081 30.8123 11.2349 32.7818 8.34844C34.7853 5.42805 37.0266 2.96609 39.5055 0.962567L48.0629 6.5147C46.0594 9.53697 44.3785 12.6951 43.0202 15.989C41.6958 19.249 41.0506 22.8485 41.0846 26.7876V37.2807H26.4147Z" fill="#7F74FE"/>
</svg>
