<svg fill="none" height="60" viewBox="0 0 92 60" width="92" xmlns="http://www.w3.org/2000/svg"><path d="m30.1163 0v4.76744c-6.8217 3.56589-11.7054 7.28686-14.6512 11.16276-2.9457 3.7985-4.4186 8.0233-4.4186 12.6745 0 2.6356.3488 4.4961 1.0465 5.5813.7752 1.0853 1.6667 1.628 2.6744 1.628 1.0078 0 2.3644-.2714 4.0698-.814 1.7054-.6202 3.2558-.9302 4.6512-.9302 1.6279 0 3.1395.31 4.5349.9302 1.4728.6202 2.7519 1.5116 3.8372 2.6744 1.0852 1.0853 1.938 2.3644 2.5581 3.8372.6202 1.4729.9302 3.062.9302 4.7675 0 1.8604-.3876 3.6434-1.1628 5.3488-.7751 1.6279-1.8217 3.062-3.1395 4.3023-1.3178 1.1628-2.907 2.1318-4.7674 2.907-1.8605.6977-3.8372 1.0465-5.9303 1.0465-2.5581 0-5.0775-.5814-7.5581-1.7442-2.4031-1.2403-4.57364-2.9069-6.51163-5-1.86046-2.093-3.37209-4.5736-4.53488-7.4418-1.162795-2.8682-1.74419-5.9303-1.74419-9.1861 0-3.8759.658915-7.6744 1.97674-11.3953 1.39535-3.721 3.3721-7.1706 5.93024-10.3489 2.55812-3.2558 5.69772-6.12399 9.41862-8.60461 3.7209-2.55814 7.9845-4.6124 12.7907-6.16279zm55.4651.348837v4.418603c-3.9535 2.32558-7.2093 4.45737-9.7674 6.39536-2.4807 1.938-4.4186 3.876-5.814 5.8139-1.3953 1.8605-2.3643 3.7985-2.907 5.814-.4651 2.0155-.6976 4.2248-.6976 6.6279 0 2.2481.4263 3.9147 1.279 5 .8527 1.0078 1.7442 1.5116 2.6744 1.5116.8528 0 2.1318-.31 3.8373-.9302 1.7054-.6202 3.4108-.9302 5.1162-.9302 1.5504 0 3.0233.31 4.4186.9302 1.4729.6202 2.752 1.4729 3.8372 2.5581 1.0853 1.0078 1.938 2.2481 2.5582 3.721.6977 1.4728 1.0465 3.0232 1.0465 4.6511 0 1.8605-.4264 3.6434-1.2791 5.3489-.7752 1.7054-1.8604 3.217-3.2558 4.5349-1.3953 1.2403-3.0232 2.248-4.8837 3.0232s-3.876 1.1628-6.0465 1.1628c-2.5582 0-5.0388-.5814-7.4419-1.7442s-4.5349-2.7907-6.3953-4.8837c-1.8605-2.093-3.3721-4.5349-4.5349-7.3256-1.0853-2.8682-1.6279-5.9302-1.6279-9.186 0-4.031.6589-7.9458 1.9767-11.7442 1.3954-3.876 3.3721-7.4031 5.9303-10.5814 2.5581-3.1783 5.6589-5.96901 9.3023-8.37211 3.7209-2.48062 7.9457-4.4186 12.6744-5.813953z" fill="#dbdef0"/></svg>