<svg fill="none" height="86" viewBox="0 0 98 86" width="98" xmlns="http://www.w3.org/2000/svg" xmlns:xlink="http://www.w3.org/1999/xlink"><linearGradient id="a"><stop offset="0" stop-color="#02b0ff"/><stop offset="1" stop-color="#fff"/></linearGradient><linearGradient id="b" gradientUnits="userSpaceOnUse" x1="38.8416" x2="38.8416" xlink:href="#a" y1="49.4376" y2="92.9714"/><linearGradient id="c" gradientUnits="userSpaceOnUse" x1="38.9947" x2="38.9947" xlink:href="#a" y1="-57.3125" y2="93.1875"/><linearGradient id="d" gradientUnits="userSpaceOnUse" x1="67.5101" x2="67.5101" y1="-27.9999" y2="55.1251"><stop offset="0" stop-color="#02b0ff"/><stop offset=".0001" stop-color="#fff"/><stop offset="1" stop-color="#02b0ff"/></linearGradient><path d="m49.1914 78.8248h-20.6997c-1.4295 0-2.5874 1.1579-2.5874 2.5875 0 1.4295 1.1579 2.5874 2.5874 2.5874h20.6997c1.4295 0 2.5874-1.1579 2.5874-2.5874 0-1.4296-1.1579-2.5875-2.5874-2.5875z" fill="url(#b)"/><path clip-rule="evenodd" d="m46.4072 6.85495c13.2694 2.47894 23.865 13.11095 25.9509 26.87785l5.6113 37.0342c.1604 1.0588-.6593 2.0121-1.7303 2.0121h-74.48874c-1.070936 0-1.890679-.9533-1.7302466-2.0121l5.6112366-37.0342c2.05395-13.556 12.35885-24.07247 25.34305-26.75822.3948-3.91704 3.7018-6.97458 7.7229-6.97458 3.9801 0 7.2605 2.99547 7.7099 6.85495z" fill="url(#c)" fill-rule="evenodd"/><circle cx="67.5101" cy="22.827" fill="url(#d)" r="17.9417"/><g stroke="#fff" stroke-linecap="round"><path d="m67.2402 7.76489v2.63151" stroke-width=".537374"/><path d="m67.2402 34.8319v2.6315" stroke-width=".537374"/><path d="m82.041 23.0403h-2.6315" stroke-width=".537374"/><path d="m54.9746 23.0403h-2.6315" stroke-width=".537374"/><path d="m77.7383 12.5262-1.4523 1.4522" stroke-width=".577677"/><path d="m58.5977 31.6656-1.4523 1.4522" stroke-width=".577677"/><path d="m77.3318 33.3834-1.4523-1.4523" stroke-width=".577677"/><path d="m58.1911 14.244-1.4523-1.4523" stroke-width=".577677"/></g><path clip-rule="evenodd" d="m75.2628 17.496c.4106.4304.3945 1.1121-.0358 1.5226l-7.9019 7.5385c-.4164.3972-1.0714.3969-1.4874-.0007l-3.9443-3.7692c-.43-.4109-.4454-1.0926-.0345-1.5226s1.0926-.4455 1.5226-.0345l3.2008 3.0588 7.1579-6.8287c.4304-.4106 1.1121-.3945 1.5226.0358z" fill="#fff" fill-rule="evenodd"/></svg>