<svg width="118" height="43" viewBox="0 0 118 43" fill="none" xmlns="http://www.w3.org/2000/svg">
<g clip-path="url(#clip0_986_1945)">
<path d="M11.3503 34.1494C9.41211 34.1494 7.6779 33.6903 6.14772 32.7722C4.61754 31.8541 3.40615 30.6044 2.51354 29.0233C1.64644 27.4166 1.21289 25.6314 1.21289 23.6676C1.21289 21.6529 1.64644 19.8549 2.51354 18.2737C3.40615 16.667 4.61754 15.4046 6.14772 14.4865C7.6779 13.5684 9.41211 13.1094 11.3503 13.1094C13.161 13.1094 14.806 13.4537 16.2852 14.1422C17.7898 14.8053 18.963 15.7234 19.8046 16.8966L16.859 20.4925C16.5019 20.0079 16.0556 19.5616 15.5201 19.1536C14.9845 18.7455 14.3979 18.4268 13.7604 18.1972C13.1483 17.9677 12.5107 17.8529 11.8476 17.8529C10.802 17.8529 9.87116 18.108 9.05506 18.618C8.23897 19.1026 7.60139 19.7912 7.14234 20.6838C6.68328 21.5509 6.45376 22.5327 6.45376 23.6294C6.45376 24.7005 6.69604 25.6696 7.18059 26.5367C7.66515 27.4038 8.31548 28.0924 9.13157 28.6025C9.94767 29.1125 10.853 29.3675 11.8476 29.3675C12.5107 29.3675 13.1355 29.2783 13.7221 29.0998C14.3342 28.8957 14.8953 28.6025 15.4053 28.2199C15.9154 27.8374 16.3999 27.3911 16.859 26.881L19.8046 30.4769C18.963 31.5736 17.7643 32.4662 16.2087 33.1547C14.6785 33.8178 13.059 34.1494 11.3503 34.1494Z" fill="white"/>
<path d="M34.494 33.7668V21.1046C34.494 20.0334 34.1625 19.2173 33.4994 18.6563C32.8618 18.0697 31.9947 17.7764 30.8981 17.7764C29.8525 17.7764 28.9216 17.9804 28.1055 18.3885C27.2894 18.7965 26.5243 19.4341 25.8102 20.3012L22.4821 17.0878C23.7062 15.8127 25.0707 14.8308 26.5753 14.1422C28.1055 13.4537 29.7632 13.1094 31.5484 13.1094C33.1806 13.1094 34.596 13.3644 35.7947 13.8745C37.0188 14.3845 37.9624 15.1496 38.6255 16.1697C39.2886 17.1899 39.6201 18.4778 39.6201 20.0334V33.7668H34.494ZM28.9471 34.1494C27.672 34.1494 26.5116 33.8943 25.4659 33.3843C24.4458 32.8742 23.6297 32.1729 23.0177 31.2803C22.4311 30.3622 22.1378 29.291 22.1378 28.0669C22.1378 27.0213 22.3291 26.1032 22.7116 25.3126C23.0942 24.4965 23.6552 23.8334 24.3948 23.3233C25.1599 22.7878 26.1035 22.3797 27.2257 22.0992C28.3733 21.8187 29.6994 21.6784 31.2041 21.6784H37.1718L36.8275 25.3126H31.1276C30.5155 25.3126 29.9672 25.3636 29.4827 25.4656C29.0236 25.5676 28.6283 25.7334 28.2968 25.9629C27.9907 26.1924 27.7485 26.4602 27.5699 26.7662C27.4169 27.0723 27.3404 27.4293 27.3404 27.8374C27.3404 28.2709 27.4552 28.6535 27.6847 28.985C27.9142 29.3165 28.2203 29.5716 28.6028 29.7501C29.0109 29.9286 29.4699 30.0179 29.98 30.0179C30.7196 30.0179 31.4209 29.8904 32.084 29.6353C32.7726 29.3803 33.3846 29.0233 33.9202 28.5642C34.4558 28.1051 34.8766 27.5823 35.1826 26.9958L36.2155 29.7118C35.6799 30.5789 35.0296 31.344 34.2645 32.0071C33.4994 32.6702 32.6705 33.193 31.7779 33.5755C30.8853 33.9581 29.9417 34.1494 28.9471 34.1494Z" fill="white"/>
<path d="M44.3103 13.4309H49.0283L49.3943 16.0339C49.9637 15.3289 50.6009 14.7595 51.3059 14.3257C52.038 13.8647 52.8379 13.5529 53.7055 13.3902C54.5732 13.2004 55.4815 13.214 56.4305 13.4309V18.3115C55.6984 18.0675 54.9257 17.9997 54.1122 18.1081C53.3259 18.2166 52.5803 18.5013 51.8753 18.9623C51.1974 19.4232 50.628 20.0875 50.1671 20.9552C49.7332 21.7957 49.5163 22.8668 49.5163 24.1683V33.7668H44.3103V13.4309Z" fill="white"/>
<path d="M62.8244 42.5653L67.2619 32.1984L67.3384 35.3735L57.4305 13.5302H63.5895L68.5625 25.2743C68.7411 25.6824 68.9323 26.1797 69.1364 26.7662C69.3404 27.3528 69.4934 27.9139 69.5954 28.4494L68.6773 28.832C68.8558 28.3984 69.0343 27.9011 69.2129 27.3401C69.4169 26.779 69.6209 26.1797 69.8249 25.5421L74.0712 13.5302H80.3067L71.8142 33.7668L68.333 42.5653H62.8244Z" fill="white"/>
<path d="M83.6449 13.4309H86.4513L86.614 16.3999C87.1563 15.6678 87.807 15.0442 88.5662 14.529C89.3525 14.0138 90.2066 13.6614 91.1285 13.4716C92.0775 13.2546 93.0808 13.2411 94.1383 13.4309V16.4813C92.9995 16.2644 91.9691 16.2644 91.0472 16.4813C90.1524 16.6982 89.3796 17.1049 88.7289 17.7014C88.0781 18.2979 87.5765 19.0572 87.224 19.9791C86.8716 20.8738 86.6953 21.9177 86.6953 23.1108V33.7668H83.6449V13.4309Z" fill="white"/>
<path d="M111.466 33.7668L104.503 24.8918L104.083 24.3179L95.8579 13.6832H99.5304L106.187 22.367L106.684 23.0173L115.023 33.7668H111.466ZM95.7049 33.7668L103.777 23.3998L105.498 25.4656L99.1861 33.7668H95.7049ZM106.837 23.9354L105.269 21.8697L110.93 13.6832H114.411L106.837 23.9354Z" fill="white"/>
</g>
<defs>
<clipPath id="clip0_986_1945">
<rect width="118" height="42" fill="white" transform="translate(0 0.5)"/>
</clipPath>
</defs>
</svg>
