<svg width="32" height="32" viewBox="0 0 32 32" fill="none" xmlns="http://www.w3.org/2000/svg">
<path d="M28.7906 9.60409C28.6388 9.04063 28.342 8.52676 27.9298 8.11365C27.5176 7.70053 27.0044 7.40257 26.4413 7.24942C24.3533 6.67609 16 6.66676 16 6.66676C16 6.66676 7.64795 6.65742 5.55862 7.20542C4.99585 7.36562 4.48371 7.66779 4.07137 8.08294C3.65903 8.49808 3.36033 9.01225 3.20395 9.57609C2.65328 11.6641 2.64795 15.9948 2.64795 15.9948C2.64795 15.9948 2.64262 20.3468 3.18928 22.4134C3.49595 23.5561 4.39595 24.4588 5.53995 24.7668C7.64929 25.3401 15.98 25.3494 15.98 25.3494C15.98 25.3494 24.3333 25.3588 26.4213 24.8121C26.9846 24.6592 27.4983 24.3619 27.9115 23.9497C28.3247 23.5374 28.6231 23.0244 28.7773 22.4614C29.3293 20.3748 29.3333 16.0454 29.3333 16.0454C29.3333 16.0454 29.36 11.6921 28.7906 9.60409ZM13.328 20.0068L13.3346 12.0068L20.2773 16.0134L13.328 20.0068Z" fill="#011445"/>
</svg>
